<svg width="40" height="40" viewBox="0 0 40 40" fill="none" xmlns="http://www.w3.org/2000/svg">
<path d="M20 0L37.3205 10V30L20 40L2.67949 30V10L20 0Z" fill="#55BC8A"/>
<path d="M11.3359 14V25.375H9V14H11.3359Z" fill="white"/>
<path d="M13.0312 21.2344V21.0703C13.0312 20.4505 13.1198 19.8802 13.2969 19.3594C13.474 18.8333 13.7318 18.3776 14.0703 17.9922C14.4089 17.6068 14.8255 17.3073 15.3203 17.0938C15.8151 16.875 16.3828 16.7656 17.0234 16.7656C17.6641 16.7656 18.2344 16.875 18.7344 17.0938C19.2344 17.3073 19.6536 17.6068 19.9922 17.9922C20.3359 18.3776 20.5964 18.8333 20.7734 19.3594C20.9505 19.8802 21.0391 20.4505 21.0391 21.0703V21.2344C21.0391 21.849 20.9505 22.4193 20.7734 22.9453C20.5964 23.4661 20.3359 23.9219 19.9922 24.3125C19.6536 24.6979 19.237 24.9974 18.7422 25.2109C18.2474 25.4245 17.6797 25.5312 17.0391 25.5312C16.3984 25.5312 15.8281 25.4245 15.3281 25.2109C14.8333 24.9974 14.4141 24.6979 14.0703 24.3125C13.7318 23.9219 13.474 23.4661 13.2969 22.9453C13.1198 22.4193 13.0312 21.849 13.0312 21.2344ZM15.2812 21.0703V21.2344C15.2812 21.5885 15.3125 21.9193 15.375 22.2266C15.4375 22.5339 15.5365 22.8047 15.6719 23.0391C15.8125 23.2682 15.9948 23.4479 16.2188 23.5781C16.4427 23.7083 16.7161 23.7734 17.0391 23.7734C17.3516 23.7734 17.6198 23.7083 17.8438 23.5781C18.0677 23.4479 18.2474 23.2682 18.3828 23.0391C18.5182 22.8047 18.6172 22.5339 18.6797 22.2266C18.7474 21.9193 18.7812 21.5885 18.7812 21.2344V21.0703C18.7812 20.7266 18.7474 20.4036 18.6797 20.1016C18.6172 19.7943 18.5156 19.5234 18.375 19.2891C18.2396 19.0495 18.0599 18.862 17.8359 18.7266C17.612 18.5911 17.3411 18.5234 17.0234 18.5234C16.7057 18.5234 16.4349 18.5911 16.2109 18.7266C15.9922 18.862 15.8125 19.0495 15.6719 19.2891C15.5365 19.5234 15.4375 19.7943 15.375 20.1016C15.3125 20.4036 15.2812 20.7266 15.2812 21.0703Z" fill="white"/>
<path d="M27.6484 14V25.375H25.3125V14H27.6484ZM31.1484 14V15.8359H21.8672V14H31.1484Z" fill="white"/>
</svg>
