<svg width="8" height="23" viewBox="0 0 8 23" fill="none" xmlns="http://www.w3.org/2000/svg">
<path d="M0.504 0.151999V1.664H1.848C2.904 1.664 3.432 2.24 3.432 3.44V8.432C3.432 9.872 4.08 10.856 5.4 11.36C4.08 11.888 3.432 12.872 3.432 14.288V19.304C3.432 20.456 2.904 21.056 1.848 21.056H0.504V22.568H2.16C3.12 22.568 3.888 22.256 4.44 21.632C4.944 21.056 5.208 20.264 5.208 19.256V14.36C5.208 13.64 5.352 13.112 5.664 12.776C6 12.392 6.6 12.176 7.488 12.152V10.568C6.6 10.52 6 10.328 5.664 9.968C5.352 9.608 5.208 9.08 5.208 8.36V3.488C5.208 2.48 4.944 1.664 4.44 1.088C3.888 0.464 3.12 0.151999 2.16 0.151999H0.504Z" fill="#ABB4BE"/>
</svg>
