<svg width="168" height="384" viewBox="0 0 168 384" fill="none" xmlns="http://www.w3.org/2000/svg">
<rect width="20" height="20" rx="4" fill="#36435C"/>
<rect y="112" width="20" height="20" rx="4" fill="#36435C"/>
<rect y="168" width="20" height="20" rx="4" fill="#36435C"/>
<rect y="280" width="20" height="20" rx="4" fill="#36435C"/>
<rect y="364" width="20" height="20" rx="4" fill="#36435C"/>
<rect y="28" width="20" height="20" rx="4" fill="#36435C"/>
<rect y="140" width="20" height="20" rx="4" fill="#36435C"/>
<rect y="252" width="20" height="20" rx="4" fill="#36435C"/>
<rect x="28" width="140" height="20" rx="4" fill="#36435C"/>
<rect x="28" y="112" width="140" height="20" rx="4" fill="#36435C"/>
<rect x="28" y="56" width="140" height="48" rx="4" fill="#36435C"/>
<rect x="28" y="168" width="140" height="20" rx="4" fill="#36435C"/>
<rect x="28" y="280" width="140" height="20" rx="4" fill="#36435C"/>
<rect x="28" y="364" width="140" height="20" rx="4" fill="#36435C"/>
<rect x="28" y="28" width="140" height="20" rx="4" fill="#36435C"/>
<rect x="28" y="140" width="140" height="20" rx="4" fill="#36435C"/>
<rect x="28" y="252" width="140" height="20" rx="4" fill="#36435C"/>
<rect x="28" y="196" width="140" height="48" rx="4" fill="#36435C"/>
<rect x="28" y="308" width="140" height="48" rx="4" fill="#36435C"/>
</svg>
