<svg width="12" height="12" viewBox="0 0 12 12" fill="none" xmlns="http://www.w3.org/2000/svg">
<g clip-path="url(#clip0_30_15427)">
<path d="M10.3143 7.99923C10.2754 7.95236 10.2372 7.90549 10.1997 7.86025C9.68408 7.23658 9.37213 6.86017 9.37213 5.09463C9.37213 4.18057 9.15346 3.43057 8.72244 2.86807C8.40463 2.45252 7.97502 2.13729 7.40877 1.90432C7.40149 1.90026 7.39498 1.89495 7.38955 1.88861C7.18588 1.20658 6.62854 0.749786 5.99995 0.749786C5.37135 0.749786 4.81424 1.20658 4.61057 1.88791C4.60514 1.89401 4.59872 1.89916 4.59159 1.90314C3.27018 2.44713 2.62799 3.4908 2.62799 5.09392C2.62799 6.86017 2.31651 7.23658 1.80042 7.85955C1.76292 7.90478 1.72471 7.95072 1.68581 7.99853C1.58531 8.11973 1.52163 8.26719 1.50232 8.42345C1.483 8.57971 1.50886 8.73823 1.57682 8.88025C1.72143 9.18494 2.02963 9.37408 2.38143 9.37408H9.62104C9.97119 9.37408 10.2773 9.18517 10.4224 8.88189C10.4906 8.73983 10.5167 8.58118 10.4976 8.42474C10.4784 8.2683 10.4148 8.12064 10.3143 7.99923Z" fill="#718096"/>
<path d="M5.99996 11.25C6.33864 11.2497 6.67093 11.1578 6.96159 10.9839C7.25225 10.8101 7.49044 10.5608 7.65089 10.2626C7.65845 10.2483 7.66219 10.2323 7.66173 10.2161C7.66128 10.2 7.65665 10.1842 7.6483 10.1703C7.63995 10.1565 7.62816 10.145 7.61408 10.1371C7.59999 10.1292 7.58409 10.125 7.56792 10.125H4.43246C4.41627 10.1249 4.40034 10.1291 4.38622 10.137C4.37211 10.1449 4.36029 10.1564 4.35191 10.1702C4.34353 10.1841 4.33888 10.1999 4.33842 10.2161C4.33795 10.2322 4.34169 10.2483 4.34926 10.2626C4.50969 10.5608 4.74784 10.81 5.03846 10.9839C5.32907 11.1577 5.66132 11.2497 5.99996 11.25Z" fill="#718096"/>
</g>
<defs>
<clipPath id="clip0_30_15427">
<rect width="12" height="12" fill="white"/>
</clipPath>
</defs>
</svg>
