<svg width="29" height="21" viewBox="0 0 29 21" fill="none" xmlns="http://www.w3.org/2000/svg">
<path d="M20.3239 15.2379L17.4897 12.4036C18.172 11.4952 18.5404 10.3895 18.5392 9.25334C18.5392 6.35128 16.1781 3.99023 13.276 3.99023C10.374 3.99023 8.01294 6.35128 8.01294 9.25334C8.01294 12.1554 10.374 14.5164 13.276 14.5164C14.4122 14.5177 15.5179 14.1493 16.4263 13.467L19.2606 16.3012C19.4041 16.4295 19.5912 16.498 19.7836 16.4926C19.9759 16.4872 20.1589 16.4084 20.295 16.2723C20.4311 16.1362 20.5099 15.9532 20.5153 15.7609C20.5207 15.5685 20.4522 15.3814 20.3239 15.2379ZM9.51668 9.25334C9.51668 8.50981 9.73717 7.78298 10.1503 7.16475C10.5633 6.54653 11.1505 6.06468 11.8374 5.78014C12.5243 5.49561 13.2802 5.42116 14.0095 5.56621C14.7387 5.71127 15.4086 6.06931 15.9343 6.59507C16.4601 7.12083 16.8181 7.79068 16.9632 8.51993C17.1082 9.24917 17.0338 10.0051 16.7492 10.692C16.4647 11.3789 15.9829 11.9661 15.3646 12.3791C14.7464 12.7922 14.0196 13.0127 13.276 13.0127C12.2794 13.0115 11.3239 12.615 10.6191 11.9103C9.91434 11.2055 9.51788 10.25 9.51668 9.25334Z" fill="#2D3748"/>
</svg>
