<svg width="24" height="24" viewBox="0 0 24 24" fill="none" xmlns="http://www.w3.org/2000/svg">
<path d="M13 3.552V0.5H11V3.552C11.3286 3.51762 11.6623 3.5 12 3.5C12.3377 3.5 12.6714 3.51762 13 3.552Z" fill="#CA2621"/>
<path d="M20.9853 4.42894L18.9214 6.49276C18.4629 6.00526 17.9535 5.56621 17.4017 5.1841L19.571 3.01472L20.9853 4.42894Z" fill="#CA2621"/>
<path d="M6.59827 5.18414C6.04643 5.56625 5.53701 6.00531 5.07851 6.49281L3.01465 4.42894L4.42886 3.01473L6.59827 5.18414Z" fill="#CA2621"/>
<path fill-rule="evenodd" clip-rule="evenodd" d="M21.5 20V22H2.5V20H4V13C4 8.58172 7.58172 5 12 5C16.4183 5 20 8.58172 20 13V20H21.5ZM12.75 13.125V9L9 13.875H11.25V18L15 13.125H12.75Z" fill="#CA2621"/>
</svg>
