<svg width="20" height="20" viewBox="0 0 20 20" fill="none" xmlns="http://www.w3.org/2000/svg">
<path fill-rule="evenodd" clip-rule="evenodd" d="M4.1178 4.11792C5.62688 2.60955 7.70343 1.66675 9.99996 1.66675C14.5927 1.66675 18.3333 5.4073 18.3333 10.0001H16.6666C16.6666 6.30786 13.6922 3.33341 9.99996 3.33341C8.15455 3.33341 6.49948 4.08815 5.29456 5.29468L6.66663 6.66675H2.49996V2.50008L4.1178 4.11792ZM9.01038 6.02059C9.02287 5.91392 9.11284 5.83341 9.22034 5.83341H10.7796C10.8871 5.83341 10.977 5.91392 10.9895 6.02059L11.0872 6.86369C11.4905 7.00367 11.855 7.21658 12.1712 7.49031L12.9524 7.15177C13.0508 7.10927 13.1644 7.14796 13.2177 7.24129L13.999 8.5922C14.0523 8.68554 14.0278 8.80394 13.942 8.86727L13.2682 9.36694C13.3077 9.57217 13.3333 9.78332 13.3333 10.0001C13.3333 10.2162 13.3091 10.4269 13.2698 10.6316L13.942 11.1313C14.0278 11.1954 14.0531 11.3138 13.999 11.4063L13.2177 12.7572C13.1644 12.8506 13.0508 12.8876 12.9524 12.8451L12.1728 12.5098C11.8565 12.784 11.4909 12.9964 11.0872 13.1365L10.9895 13.9796C10.977 14.0862 10.8871 14.1667 10.7796 14.1667H9.22034C9.11284 14.1667 9.02287 14.0862 9.01038 13.9796L8.91272 13.1365C8.50938 12.9965 8.14487 12.7836 7.82873 12.5098L7.04748 12.8484C6.94915 12.8909 6.83552 12.8522 6.78219 12.7589L6.00094 11.408C5.9476 11.3146 5.97207 11.1962 6.0579 11.1329L6.73173 10.6332C6.69221 10.428 6.66663 10.2168 6.66663 10.0001C6.66663 9.78332 6.69221 9.57217 6.73173 9.36694L6.0579 8.86727C5.97207 8.8031 5.94677 8.6847 6.00094 8.5922L6.78219 7.24129C6.83552 7.14796 6.94915 7.1109 7.04748 7.1534L7.82873 7.49031C8.14487 7.21658 8.50938 7.00367 8.91272 6.86369L9.01038 6.02059ZM9.99996 8.33341C10.9208 8.33341 11.6666 9.07925 11.6666 10.0001C11.6666 10.9209 10.9208 11.6667 9.99996 11.6667C9.07913 11.6667 8.33329 10.9209 8.33329 10.0001C8.33329 9.07925 9.07913 8.33341 9.99996 8.33341ZM9.99996 18.3334C5.40718 18.3334 1.66663 14.5929 1.66663 10.0001H3.33329C3.33329 13.6923 6.30774 16.6667 9.99996 16.6667C11.8454 16.6667 13.5004 15.912 14.7054 14.7055L13.3333 13.3334H17.5V17.5001L15.8821 15.8822C14.373 17.3906 12.2965 18.3334 9.99996 18.3334Z" fill="#324558"/>
<mask id="mask0_6673_104327" style="mask-type:alpha" maskUnits="userSpaceOnUse" x="1" y="1" width="18" height="18">
<path fill-rule="evenodd" clip-rule="evenodd" d="M4.1178 4.11792C5.62688 2.60955 7.70343 1.66675 9.99996 1.66675C14.5927 1.66675 18.3333 5.4073 18.3333 10.0001H16.6666C16.6666 6.30786 13.6922 3.33341 9.99996 3.33341C8.15455 3.33341 6.49948 4.08815 5.29456 5.29468L6.66663 6.66675H2.49996V2.50008L4.1178 4.11792ZM9.01038 6.02059C9.02287 5.91392 9.11284 5.83341 9.22034 5.83341H10.7796C10.8871 5.83341 10.977 5.91392 10.9895 6.02059L11.0872 6.86369C11.4905 7.00367 11.855 7.21658 12.1712 7.49031L12.9524 7.15177C13.0508 7.10927 13.1644 7.14796 13.2177 7.24129L13.999 8.5922C14.0523 8.68554 14.0278 8.80394 13.942 8.86727L13.2682 9.36694C13.3077 9.57217 13.3333 9.78332 13.3333 10.0001C13.3333 10.2162 13.3091 10.4269 13.2698 10.6316L13.942 11.1313C14.0278 11.1954 14.0531 11.3138 13.999 11.4063L13.2177 12.7572C13.1644 12.8506 13.0508 12.8876 12.9524 12.8451L12.1728 12.5098C11.8565 12.784 11.4909 12.9964 11.0872 13.1365L10.9895 13.9796C10.977 14.0862 10.8871 14.1667 10.7796 14.1667H9.22034C9.11284 14.1667 9.02287 14.0862 9.01038 13.9796L8.91272 13.1365C8.50938 12.9965 8.14487 12.7836 7.82873 12.5098L7.04748 12.8484C6.94915 12.8909 6.83552 12.8522 6.78219 12.7589L6.00094 11.408C5.9476 11.3146 5.97207 11.1962 6.0579 11.1329L6.73173 10.6332C6.69221 10.428 6.66663 10.2168 6.66663 10.0001C6.66663 9.78332 6.69221 9.57217 6.73173 9.36694L6.0579 8.86727C5.97207 8.8031 5.94677 8.6847 6.00094 8.5922L6.78219 7.24129C6.83552 7.14796 6.94915 7.1109 7.04748 7.1534L7.82873 7.49031C8.14487 7.21658 8.50938 7.00367 8.91272 6.86369L9.01038 6.02059ZM9.99996 8.33341C10.9208 8.33341 11.6666 9.07925 11.6666 10.0001C11.6666 10.9209 10.9208 11.6667 9.99996 11.6667C9.07913 11.6667 8.33329 10.9209 8.33329 10.0001C8.33329 9.07925 9.07913 8.33341 9.99996 8.33341ZM9.99996 18.3334C5.40718 18.3334 1.66663 14.5929 1.66663 10.0001H3.33329C3.33329 13.6923 6.30774 16.6667 9.99996 16.6667C11.8454 16.6667 13.5004 15.912 14.7054 14.7055L13.3333 13.3334H17.5V17.5001L15.8821 15.8822C14.373 17.3906 12.2965 18.3334 9.99996 18.3334Z" fill="white"/>
</mask>
<g mask="url(#mask0_6673_104327)">
<rect width="20" height="20" fill="#324558"/>
</g>
</svg>
