<svg width="40" height="40" viewBox="0 0 40 40" fill="none" xmlns="http://www.w3.org/2000/svg">
  <path d="M11.6667 3.33301H15V6.66634H25V3.33301H28.3333V6.66634H33.3333C34.2538 6.66634 35 7.41253 35 8.33301V11.6663H5V8.33301C5 7.41253 5.74619 6.66634 6.66667 6.66634H11.6667V3.33301Z" fill="currentColor"/>
  <path fill-rule="evenodd" clip-rule="evenodd" d="M35 14.1663H5V34.9997C5 35.9202 5.74619 36.6663 6.66667 36.6663H33.3333C34.2538 36.6663 35 35.9202 35 34.9997V14.1663ZM15 20.833H11.6667V24.1663H15V20.833ZM18.3333 20.833H21.6667V24.1663H18.3333V20.833ZM28.3333 20.833H25V24.1663H28.3333V20.833ZM11.6667 26.6663H15V29.9997H11.6667V26.6663ZM21.6667 26.6663H18.3333V29.9997H21.6667V26.6663ZM25 26.6663H28.3333V29.9997H25V26.6663Z" fill="currentColor"/>
</svg>
