<svg width="18" height="14" viewBox="0 0 18 14" fill="none" xmlns="http://www.w3.org/2000/svg">
<path fill-rule="evenodd" clip-rule="evenodd" d="M1.50033 0.333374C1.04009 0.333374 0.666992 0.70647 0.666992 1.16671V12.8334C0.666992 13.2936 1.04009 13.6667 1.50033 13.6667H16.5003C16.9606 13.6667 17.3337 13.2936 17.3337 12.8334V1.16671C17.3337 0.70647 16.9606 0.333374 16.5003 0.333374H1.50033ZM9.06311 3.25004L7.00061 10.75H8.72915L10.7917 3.25004H9.06311ZM5.49443 4.32741L6.67294 5.50592L5.38719 6.79167L6.67294 8.07741L5.49443 9.25592L3.03017 6.79167L5.49443 4.32741ZM11.3277 5.50592L12.5062 4.32741L14.9705 6.79167L12.5062 9.25592L11.3277 8.07741L12.6135 6.79167L11.3277 5.50592Z" fill="#6B7B95"/>
</svg>
