<svg width="48" height="48" viewBox="0 0 20 20" fill="none" xmlns="http://www.w3.org/2000/svg">
<path d="M9.99937 12.231C8.43146 14.1847 6.12202 16.6668 4.50697 16.6668C3.00474 16.6668 1.67415 15.58 0.855062 13.9089C1.43313 14.5919 2.16603 15.0002 2.96341 15.0002C4.83047 15.0002 7.93488 10.5772 8.33271 10.0001C8.51903 9.72986 9.15049 8.82703 9.99931 7.76936C11.5672 5.81565 13.8767 3.3335 15.4918 3.3335C16.994 3.3335 18.3246 4.42035 19.1437 6.09139C18.5656 5.40846 17.8327 5.00016 17.0353 5.00016C15.1684 5.00016 12.0642 9.42268 11.6661 10.0001C11.5438 10.1775 11.2296 10.6274 10.7882 11.2148C10.5571 11.5223 10.2911 11.8675 9.99937 12.231C9.99936 12.231 9.99938 12.231 9.99937 12.231Z" fill="#324558"/>
<path d="M10.7832 13.174C12.272 14.8998 14.1291 16.6668 15.4918 16.6668C16.994 16.6668 18.3246 15.58 19.1437 13.9089C18.5656 14.5919 17.8327 15.0002 17.0353 15.0002C15.6487 15.0002 13.5796 12.5606 12.4436 11.0687C12.1339 11.5046 11.6141 12.2161 10.9742 13.0133L10.8154 13.2113C10.8046 13.1989 10.7939 13.1864 10.7832 13.174Z" fill="#324558"/>
<path d="M2.96341 5.00016C4.35003 5.00016 6.41913 7.43969 7.55514 8.93157C7.86485 8.4957 8.38463 7.78421 9.02443 6.98698L9.18329 6.78904C7.69993 5.07523 5.85985 3.3335 4.50697 3.3335C3.00474 3.3335 1.67415 4.42035 0.855064 6.09139C1.43313 5.40845 2.16603 5.00016 2.96341 5.00016Z" fill="#324558"/>
<path d="M3.37206 6.31784C2.69975 7.23171 2.2784 8.54313 2.2784 10.0001C2.2784 11.4571 2.69975 12.7685 3.37206 13.6824C3.23974 13.7263 3.11237 13.7501 2.99177 13.7501C1.56922 13.7501 0.416016 12.0712 0.416016 10.0001C0.416016 7.92903 1.56922 6.2501 2.99177 6.2501C3.11237 6.2501 3.23974 6.27394 3.37206 6.31784Z" fill="#324558"/>
<path d="M17.007 13.7501C16.8859 13.7501 16.7579 13.726 16.6249 13.6817C17.297 12.7679 17.7181 11.4567 17.7181 10.0001C17.7181 8.54341 17.297 7.23225 16.6249 6.3184C16.7579 6.27412 16.8859 6.25006 17.007 6.25006C18.4296 6.25006 19.5828 7.92899 19.5828 10.0001C19.5828 12.0711 18.4296 13.7501 17.007 13.7501Z" fill="#324558"/>
</svg>
