<svg width="32" height="32" viewBox="0 0 32 32" fill="none" xmlns="http://www.w3.org/2000/svg">
<path d="M16 2.66602C8.63601 2.66602 2.66667 8.63535 2.66667 15.9993C2.66667 23.3633 8.63601 29.3327 16 29.3327C23.364 29.3327 29.3333 23.3633 29.3333 15.9993C29.3333 8.63535 23.364 2.66602 16 2.66602ZM21.9867 14.7193L21.9787 14.738C21.4187 15.9353 19.9573 18.2847 19.9573 18.2847L19.9507 18.2687L19.524 19.0127H21.5813L17.6507 24.238L18.544 20.6833H16.924L17.4867 18.3327C17.032 18.442 16.4933 18.5927 15.856 18.798C15.856 18.798 14.9947 19.302 13.3733 17.826C13.3733 17.826 12.28 16.8633 12.9147 16.6234C13.184 16.5207 14.2227 16.39 15.04 16.2807C16.1467 16.1313 16.8253 16.0513 16.8253 16.0513C16.8253 16.0513 13.4187 16.102 12.6107 15.9753C11.8027 15.8487 10.7773 14.4993 10.5587 13.314C10.5587 13.314 10.2213 12.6633 11.2853 12.9713C12.3493 13.2793 16.7533 14.1713 16.7533 14.1713C16.7533 14.1713 11.0267 12.4153 10.644 11.986C10.2627 11.5593 9.52267 9.64735 9.61867 8.47402C9.61867 8.47402 9.66001 8.18068 9.96134 8.26068C9.96134 8.26068 14.196 10.194 17.0907 11.254C19.9867 12.314 22.504 12.8527 22.1787 14.2247C22.152 14.3407 22.0827 14.5127 21.9867 14.718V14.7193Z" fill="#324558"/>
</svg>
