<svg width="16" height="16" viewBox="0 0 16 16" fill="none" xmlns="http://www.w3.org/2000/svg">
<path fill-rule="evenodd" clip-rule="evenodd" d="M8 9.33333C8.73638 9.33333 9.33333 8.73638 9.33333 8C9.33333 7.26362 8.73638 6.66667 8 6.66667C7.26362 6.66667 6.66667 7.26362 6.66667 8C6.66667 8.73638 7.26362 9.33333 8 9.33333ZM8 12C10.2091 12 12 10.2091 12 8C12 5.79086 10.2091 4 8 4C5.79086 4 4 5.79086 4 8C4 10.2091 5.79086 12 8 12Z" fill="#4257ED"/>
<path d="M11.9447 8.66634C11.9811 8.44954 12 8.22682 12 7.99967C12 7.77253 11.9811 7.54981 11.9447 7.33301H16V8.66634H11.9447Z" fill="#4257ED"/>
<path d="M4.05531 8.66634H0L0 7.33301H4.05531C4.01893 7.54981 4 7.77253 4 7.99967C4 8.22682 4.01893 8.44954 4.05531 8.66634Z" fill="#4257ED"/>
</svg>
