<svg width="28" height="28" viewBox="0 0 28 28" fill="none" xmlns="http://www.w3.org/2000/svg">
<path d="M25.3841 5.69101C25.1646 4.70299 24.5858 4.09042 23.5878 3.79401C21.9712 3.31976 20.3545 2.82575 18.7378 2.33173C16.223 1.56108 13.7282 0.770658 11.2334 0C11.0338 0 10.8342 0 10.6346 0C10.2354 0.217365 9.77636 0.395209 9.43707 0.691616C6.54305 3.31976 3.64903 5.96766 0.755005 8.61556C0.0564487 9.2479 -0.12318 10.0383 0.0764074 10.9473C0.99451 14.8994 1.91261 18.8515 2.83072 22.8036C3.0303 23.6928 3.56919 24.2461 4.42742 24.503C8.17966 25.6293 11.912 26.7557 15.6642 27.882C16.5823 28.1587 17.3607 27.9413 18.0592 27.309C21.093 24.5227 24.1267 21.7365 27.1804 18.97C27.9189 18.2982 28.1384 17.5078 27.9189 16.579C27.0607 12.9431 26.2224 9.30718 25.3841 5.69101ZM21.2127 5.43413C21.2127 5.55269 21.2127 5.67125 21.2127 5.77005C19.636 6.06646 18.0792 6.40239 16.5025 6.65928C16.243 6.6988 15.8438 6.50119 15.6243 6.28383C14.6862 5.35508 13.808 4.38682 12.9099 3.41856C12.8301 3.33952 12.8101 3.20119 12.6305 2.86527C15.6243 3.77425 18.4185 4.60419 21.2127 5.43413ZM18.0592 18.0611C17.9595 18.1401 17.8597 18.2389 17.7599 18.3179C14.5864 17.3694 11.413 16.4012 8.23954 15.4527C8.19962 15.3341 8.17966 15.2156 8.13975 15.097C10.5747 12.8641 13.0296 10.6311 15.4646 8.37844C15.5644 8.3982 15.6842 8.43772 15.784 8.45748C16.6621 11.6389 17.3208 14.8599 18.0592 18.0611ZM3.18997 9.46526C5.52515 7.35089 7.86032 5.197 10.2155 3.10239C10.435 2.90479 11.0737 2.80599 11.2334 2.96407C12.6105 4.30778 13.9278 5.73053 15.4047 7.31137C12.5905 9.89999 9.93604 12.3305 7.26156 14.7611C6.96218 14.5832 6.72267 14.5239 6.58296 14.3659C5.4054 13.1605 4.26775 11.9353 3.11014 10.7299C2.67105 10.2952 2.75088 9.86047 3.18997 9.46526ZM4.78667 20.5706C4.10808 17.7054 3.44944 14.8599 2.77084 11.9946C2.85067 11.9551 2.93051 11.9156 3.01035 11.876C4.06816 13.0221 5.14593 14.1485 6.18379 15.3144C6.36342 15.512 6.46321 15.8874 6.40333 16.1245C5.9842 17.6066 5.50519 19.0886 5.04614 20.5706C4.9663 20.5706 4.86651 20.5706 4.78667 20.5706ZM16.4226 24.9772C16.263 25.4317 15.8837 25.491 15.4447 25.3527C12.371 24.4239 9.29735 23.4952 6.22371 22.5664C5.7447 22.4281 5.46527 22.1515 5.62494 21.6179C6.12391 19.9976 6.60292 18.3575 7.12185 16.7371C7.3414 16.0455 7.88028 16.1443 8.43913 16.3221C10.2354 16.8754 12.0517 17.4287 13.8679 17.9623C15.0056 18.3179 16.1632 18.6341 17.2809 19.0293C17.6202 19.1479 17.8597 19.5036 18.1191 19.7209C17.5004 21.5982 16.9815 23.2976 16.4226 24.9772ZM17.7798 24.4437C17.72 24.4239 17.6401 24.3844 17.5802 24.3646C17.6401 24.088 17.7 23.7916 17.7998 23.5149C18.1391 22.4281 18.4385 21.3215 18.8576 20.2545C18.9973 19.879 19.3566 19.4048 19.7158 19.2862C21.1728 18.8712 22.6498 18.5748 24.1267 18.2389C24.1866 18.3179 24.2465 18.4167 24.3063 18.4958C22.1109 20.4916 19.9553 22.4676 17.7798 24.4437ZM25.3642 17.073C24.8851 17.2114 24.5259 17.3497 24.1467 17.4287C22.8294 17.7251 21.4922 18.0215 20.1749 18.2982C19.2169 18.4958 19.0572 18.397 18.7977 17.409C18.5582 16.4209 18.3187 15.4329 18.0992 14.4647C17.6401 12.5281 17.221 10.5916 16.742 8.65508C16.5823 7.96347 16.7619 7.60778 17.4804 7.44969C19.0372 7.11377 20.594 6.77784 22.1308 6.40239C22.8094 6.24431 23.1487 6.50119 23.2884 7.11377C23.987 10.0976 24.6856 13.0814 25.3642 16.085C25.424 16.3814 25.3642 16.7174 25.3642 17.073Z" fill="#324558"/>
</svg>
