<svg width="18" height="28" viewBox="0 0 18 28" fill="none" xmlns="http://www.w3.org/2000/svg">
<path d="M15.1115 7.96923C14.8962 7.53846 14.4654 7.25128 14.1064 7.17949C13.6756 7.0359 13.2449 7.10769 12.8141 7.32308C12.3833 7.53846 12.1679 7.96923 12.0244 8.4C11.8808 8.83077 11.9526 9.26154 12.1679 9.69231C12.3833 10.1231 12.7423 10.3385 13.1731 10.4821C13.6038 10.6256 14.0346 10.5538 14.4654 10.3385C14.8962 10.1231 15.1115 9.69231 15.2551 9.33333C15.3987 8.90256 15.3987 8.4 15.1115 7.96923ZM5.70641 9.33333C6.71154 9.47692 7.57308 9.97949 8.21923 10.6974C8.29103 10.841 8.43461 10.9128 8.50641 11.0564L10.1577 10.0513C9.94231 9.33333 9.94231 8.61539 10.0859 7.96923C10.3013 7.0359 10.8756 6.24615 11.809 5.74359C12.7423 5.09744 13.7474 5.02564 14.609 5.24103C15.5423 5.45641 16.3321 6.10256 16.8346 6.9641C17.3372 7.82564 17.409 8.83077 17.1936 9.7641C16.9782 10.6974 16.4038 11.4872 15.4705 11.9897L15.2551 12.2051C14.4654 12.5641 13.5321 12.6359 12.7423 12.4205C12.0962 12.2769 11.45 11.8462 10.9474 11.3436L9.29615 12.3487C9.51154 12.8513 9.58333 13.4256 9.58333 14C9.58333 14.5744 9.51154 15.1487 9.29615 15.6513L10.9474 16.6564C11.45 16.0821 12.0244 15.7231 12.7423 15.5795C13.6756 15.3641 14.609 15.4359 15.5423 15.9385H15.6141C16.4756 16.441 17.05 17.2308 17.2654 18.1641C17.4808 19.0974 17.409 20.1026 16.9064 20.9641V21.0359C16.4038 21.8974 15.6141 22.4718 14.7526 22.6872C13.8192 22.9026 12.8859 22.8308 11.9526 22.3282C11.091 21.8256 10.5167 20.9641 10.2295 20.1026C10.0141 19.4564 10.0859 18.6667 10.3013 18.0205L8.65 17.0154C8.5782 17.159 8.43462 17.2308 8.36282 17.3744C7.71667 18.0923 6.78333 18.5231 5.85 18.6667V20.6769C6.56795 20.8205 7.14231 21.1795 7.64487 21.6821C8.29103 22.3282 8.72179 23.2615 8.72179 24.2667C8.72179 25.2718 8.29103 26.2051 7.64487 26.8513C6.85513 27.5692 5.92179 28 4.91667 28C3.91154 28 2.97821 27.5692 2.33205 26.9231C1.6859 26.2769 1.25513 25.3436 1.25513 24.3385C1.25513 23.3333 1.6859 22.4 2.33205 21.7538C2.83462 21.2513 3.48077 20.8923 4.12692 20.7487V18.6667C3.12179 18.5231 2.26026 18.0205 1.6141 17.3744C0.752564 16.5128 0.25 15.2923 0.25 14C0.25 12.7077 0.752564 11.4872 1.6141 10.6256C2.26026 9.90769 3.19359 9.47692 4.12692 9.26154V7.25128C3.40897 7.10769 2.83462 6.74872 2.33205 6.24615C1.6859 5.67179 1.25513 4.73846 1.25513 3.73333C1.25513 2.72821 1.6859 1.79487 2.33205 1.14872C2.97821 0.430769 3.91154 0 4.91667 0C5.92179 0 6.85513 0.430769 7.50128 1.07692C8.14744 1.72308 8.5782 2.65641 8.5782 3.66154C8.5782 4.66667 8.14744 5.6 7.50128 6.24615C6.99872 6.82051 6.35256 7.17949 5.70641 7.32308V9.33333ZM6.63974 12.2051C6.20897 11.7744 5.56282 11.4872 4.91667 11.4872C4.27051 11.4872 3.62436 11.7744 3.19359 12.2051C2.76282 12.6359 2.47564 13.2821 2.47564 13.9282C2.47564 14.5744 2.76282 15.2205 3.19359 15.7231C3.62436 16.1538 4.27051 16.441 4.91667 16.441C5.56282 16.441 6.20897 16.1538 6.63974 15.7231C7.07051 15.2923 7.35769 14.6462 7.35769 13.9282C7.35769 13.2103 7.07051 12.7077 6.63974 12.2051ZM14.1064 20.8205C14.5372 20.6769 14.8962 20.4615 15.1115 20.0308V19.959C15.3269 19.6 15.3269 19.0974 15.2551 18.7385C15.1115 18.3077 14.8962 17.9487 14.4654 17.6615C14.0346 17.4462 13.6038 17.3744 13.1731 17.5179C12.7423 17.5897 12.3833 17.8769 12.1679 18.3077C11.9526 18.7385 11.8808 19.1692 12.0244 19.6C12.1679 20.0308 12.3833 20.3897 12.8141 20.6769C13.2449 20.8923 13.6756 20.8923 14.1064 20.8205ZM4.91667 25.9897C5.41923 25.9897 5.7782 25.7744 6.13718 25.4872C6.42436 25.2 6.63974 24.7692 6.63974 24.2667C6.63974 23.7641 6.42436 23.3333 6.13718 23.0462C5.85 22.759 5.41923 22.5436 4.91667 22.5436C4.4141 22.5436 4.05513 22.759 3.69615 23.0462C3.40897 23.3333 3.19359 23.7641 3.19359 24.2667C3.19359 24.7692 3.40897 25.2 3.69615 25.4872C4.05513 25.8462 4.4141 25.9897 4.91667 25.9897ZM6.13718 2.51282C5.7782 2.15385 5.41923 2.01026 4.91667 2.01026C4.4141 2.01026 4.05513 2.15385 3.69615 2.51282C3.40897 2.8 3.19359 3.23077 3.19359 3.73333C3.19359 4.2359 3.40897 4.66667 3.69615 4.95385C3.98333 5.24103 4.4141 5.45641 4.91667 5.45641C5.41923 5.45641 5.7782 5.24103 6.13718 4.95385C6.42436 4.66667 6.63974 4.2359 6.63974 3.73333C6.63974 3.23077 6.42436 2.8 6.13718 2.51282Z" fill="#324558"/>
</svg>
