<svg width="48" height="48" viewBox="0 0 48 48" fill="none" xmlns="http://www.w3.org/2000/svg">
<path d="M5.0665 15.8001C4.53317 15.4001 4.53317 14.6001 5.0665 14.2001L14.3998 7.20011C15.0591 6.70568 15.9998 7.17606 15.9998 8.00011V13H41.9999V17H15.9998V22.0001C15.9998 22.8242 15.0591 23.2945 14.3998 22.8001L5.0665 15.8001Z" fill="#324558"/>
<path d="M42.9332 33.8001C43.4665 33.4001 43.4665 32.6001 42.9332 32.2001L33.5999 25.2001C32.9406 24.7057 31.9999 25.1761 31.9999 26.0001V31H5.99988V35H31.9999V40.0001C31.9999 40.8242 32.9406 41.2945 33.5999 40.8001L42.9332 33.8001Z" fill="#324558"/>
</svg>
