<svg width="42" height="28" viewBox="0 0 42 28" fill="none" xmlns="http://www.w3.org/2000/svg">
<path d="M38.9649 13.1347C38.0672 13.1122 37.372 13.202 36.789 13.4496C36.7466 13.4666 36.6978 13.4793 36.6481 13.4922C36.5008 13.5306 36.3461 13.5709 36.3289 13.7307C36.3802 13.7817 36.4058 13.8508 36.4329 13.9238C36.4535 13.9793 36.4749 14.0371 36.5091 14.0907C36.6433 14.3158 36.8784 14.6188 37.0919 14.7767C37.3274 14.9568 37.563 15.136 37.81 15.2933C38.0255 15.427 38.2547 15.5328 38.4827 15.6382C38.7173 15.7465 38.9506 15.8543 39.1665 15.9912C39.3086 16.0815 39.4502 16.1866 39.5919 16.2918C39.6969 16.3698 39.8021 16.4479 39.9074 16.5199C39.9533 16.5534 39.9929 16.5948 40.0327 16.6365C40.0996 16.7064 40.167 16.777 40.2659 16.8118V16.7778C40.2248 16.7253 40.1991 16.6606 40.1729 16.5947C40.1488 16.5338 40.1242 16.4719 40.0867 16.4176C40.0307 16.3618 39.9747 16.3085 39.9186 16.2552C39.8625 16.2018 39.8061 16.1481 39.7499 16.0921C39.4245 15.6536 39.0202 15.2716 38.5839 14.9568C38.4906 14.8924 38.3687 14.822 38.2366 14.7457C37.86 14.5283 37.4015 14.2636 37.2939 13.9564L37.2711 13.9335C37.4954 13.9127 37.7568 13.8365 37.9793 13.7716L38.0454 13.7523C38.2368 13.7016 38.4199 13.6821 38.6044 13.6625C38.7871 13.6431 38.9712 13.6235 39.1665 13.5733C39.325 13.5333 39.4834 13.4845 39.6423 13.4356L39.706 13.4161V13.3141C39.6122 13.2209 39.5308 13.1131 39.4494 13.0053C39.3544 12.8795 39.2594 12.7537 39.1447 12.6509C38.5731 12.1562 37.9443 11.673 37.2939 11.2676C37.0831 11.1314 36.8355 11.0243 36.5908 10.9185C36.4313 10.8496 36.2729 10.7811 36.1268 10.7055C36.082 10.6828 36.027 10.664 35.9708 10.6448C35.8591 10.6066 35.7425 10.5667 35.6901 10.4915C35.5439 10.3124 35.4445 10.0924 35.3455 9.87345C35.3078 9.7899 35.2701 9.70651 35.2299 9.62561C34.905 9.00782 34.5904 8.32208 34.3105 7.66881C34.2369 7.509 34.1737 7.3492 34.1112 7.19101C34.0023 6.91531 33.8953 6.64451 33.7384 6.38716C32.5827 4.47496 31.327 3.31739 29.3978 2.1814C29.0192 1.96562 28.5754 1.86251 28.1006 1.7522L27.9627 1.72005C27.8276 1.71437 27.6927 1.70635 27.5578 1.69834C27.4123 1.68969 27.2668 1.68105 27.1214 1.67534C27.0146 1.6284 26.9079 1.53396 26.806 1.44377C26.7363 1.38206 26.6688 1.32235 26.6051 1.28122C25.9655 0.87662 24.3176 -0.00032264 23.8462 1.15777C23.5946 1.76516 24.0703 2.36426 24.3866 2.7626C24.4512 2.84391 24.5091 2.91686 24.5529 2.97981C24.5932 3.03441 24.636 3.09055 24.6797 3.14789C24.8428 3.36187 25.0188 3.59272 25.1245 3.82293C25.1646 3.92056 25.1901 4.02121 25.2159 4.12326C25.2407 4.22106 25.2658 4.32014 25.3044 4.41904C25.347 4.5365 25.3889 4.65714 25.4312 4.779C25.5672 5.17044 25.7077 5.57449 25.8876 5.92623C26.0106 6.16245 26.145 6.41019 26.302 6.62286C26.3321 6.66422 26.3694 6.69795 26.4072 6.73201C26.483 6.80047 26.5603 6.87024 26.5828 7.00589C26.4806 7.15258 26.44 7.34738 26.3991 7.54326C26.3774 7.64729 26.3556 7.75162 26.3245 7.84922C25.9209 9.12007 26.0777 10.6943 26.6499 11.6276C26.829 11.9087 27.2558 12.5273 27.8277 12.2906C28.1886 12.1462 28.2341 11.7773 28.284 11.3734C28.3039 11.2124 28.3244 11.0458 28.366 10.8856C28.3782 10.8363 28.383 10.7931 28.3873 10.7539C28.395 10.6849 28.4014 10.6279 28.4441 10.5707V10.5934C28.4841 10.6735 28.5241 10.7528 28.5639 10.8318C28.6805 11.0629 28.7956 11.2912 28.9042 11.5266C29.2525 12.0771 29.8576 12.6508 30.3626 13.0328C30.4606 13.1069 30.5513 13.2004 30.6432 13.2953C30.8032 13.4603 30.9671 13.6293 31.1807 13.7081V13.6741H31.1587C31.1141 13.6074 31.055 13.565 30.9941 13.5213C30.9629 13.4989 30.9311 13.4761 30.9006 13.4495C30.6988 13.247 30.4751 12.9995 30.3174 12.7746C29.8465 12.1451 29.431 11.4476 29.0617 10.7279C28.8967 10.4077 28.7514 10.0601 28.6159 9.73615L28.5791 9.64813C28.5546 9.59908 28.539 9.54089 28.5237 9.48349C28.497 9.38365 28.4709 9.28621 28.3996 9.24353C28.3409 9.32943 28.2729 9.41135 28.2039 9.4944C28.0745 9.65014 27.9419 9.80984 27.8616 10.0073C27.6933 10.3891 27.644 10.8405 27.5918 11.3178C27.5778 11.4457 27.5636 11.5754 27.5469 11.7061C27.534 11.7095 27.5267 11.7109 27.5223 11.7118C27.5184 11.7125 27.5168 11.7128 27.5156 11.7137C27.5135 11.7152 27.5125 11.7183 27.5023 11.7284C27.1766 11.6467 27.0449 11.3328 26.9224 11.0407C26.9101 11.0114 26.8979 10.9823 26.8855 10.9536C26.5491 10.1542 26.4926 8.87223 26.7846 7.94995C26.7996 7.90485 26.824 7.8412 26.8528 7.76617C26.9746 7.44914 27.1743 6.92903 27.065 6.74715C27.0224 6.61246 26.9183 6.514 26.8162 6.41748C26.7557 6.36025 26.6959 6.30369 26.65 6.24067C26.5045 6.02696 26.3466 5.75764 26.2467 5.52101C26.1206 5.22643 26.0239 4.91694 25.9269 4.60651C25.8166 4.25355 25.7059 3.89933 25.5512 3.5644C25.4415 3.32584 25.2646 3.08012 25.1 2.85158C25.0625 2.79955 25.0257 2.74842 24.9905 2.69846C24.9182 2.59563 24.8434 2.50312 24.7695 2.41179C24.6253 2.2334 24.4846 2.05946 24.3732 1.82172C24.3176 1.69775 24.2389 1.49514 24.3284 1.36069C24.3504 1.27053 24.3959 1.23661 24.4859 1.2141C24.6308 1.09033 25.0463 1.2475 25.1918 1.31494C25.6071 1.48321 25.9548 1.64152 26.302 1.87723C26.3535 1.91411 26.4061 1.96181 26.4607 2.01128C26.573 2.11294 26.6934 2.22208 26.829 2.26025H27.065C27.2296 2.29609 27.4037 2.30363 27.5765 2.31111C27.7803 2.31993 27.9822 2.32868 28.1645 2.3837C28.7585 2.5748 29.2968 2.85584 29.7794 3.1596C31.2482 4.09308 32.4595 5.42037 33.2778 7.00568C33.3538 7.15121 33.4049 7.2898 33.4571 7.43123C33.4976 7.54084 33.5387 7.65216 33.5925 7.76975C33.7171 8.06196 33.8576 8.35703 33.997 8.65002C34.121 8.91053 34.2444 9.16965 34.355 9.42342L34.4183 9.56612C34.6317 10.0481 34.8454 10.5308 35.152 10.9306C35.2701 11.0964 35.6382 11.2069 35.9516 11.3009C36.0837 11.3405 36.206 11.3772 36.2958 11.4138C36.3834 11.4533 36.49 11.4911 36.5994 11.5299C36.7697 11.5903 36.9469 11.6532 37.0698 11.7284C37.4511 11.9641 37.8316 12.2344 38.1911 12.4935C38.2363 12.5275 38.3057 12.5708 38.3848 12.6202C38.6195 12.7665 38.9396 12.9663 38.9649 13.1347Z" fill="#6B7B95"/>
<path fill-rule="evenodd" clip-rule="evenodd" d="M31.5307 25.7842L29.8246 24.9406C29.9765 24.8156 30.1208 24.6809 30.2514 24.5249C30.9758 23.671 31.3383 22.4071 31.3383 20.7339C31.3383 17.6547 30.1328 16.1143 27.7218 16.1143C26.5392 16.1143 25.6175 16.5047 24.9576 17.2868C24.2329 18.1416 23.8711 19.4009 23.8711 21.0646C23.8711 22.7006 24.1917 23.9008 24.8334 24.6632C25.4181 25.3523 26.3024 25.6974 27.4861 25.6974C27.9279 25.6974 28.3331 25.6428 28.7014 25.5338L30.9233 26.8302L31.5292 25.7841L31.5307 25.7842ZM26.0029 23.6978C25.6268 23.0911 25.4385 22.1175 25.4385 20.775C25.4385 18.4315 26.1492 17.2589 27.57 17.2589C28.3128 17.2589 28.8581 17.5394 29.2068 18.0997C29.5823 18.7066 29.7706 19.6718 29.7706 20.9955C29.7706 23.3578 29.0599 24.5396 27.6391 24.5396C26.8964 24.5396 26.3511 24.2593 26.0029 23.6978Z" fill="#6B7B95"/>
<path d="M22.3598 24.9242C22.9364 24.4172 23.2256 23.7692 23.2256 22.98C23.2256 22.0761 22.8643 21.5273 22.1391 21.0126C22.1391 21.0126 20.806 20.2502 20.1467 19.8917C19.4217 19.4878 19.0289 19.0096 19.0289 18.4584C19.0289 18.0997 19.188 17.8054 19.4453 17.5767C19.7014 17.3459 20.0684 17.2312 20.5448 17.2312C21.132 17.2312 21.7275 17.3601 22.3313 17.6169L22.6898 16.818C21.984 16.3586 21.2005 16.1279 20.3387 16.1279C19.505 16.1279 18.8242 16.3602 18.2966 16.8249C17.77 17.2885 17.5065 17.8979 17.5065 18.6519C17.5065 19.5635 17.8599 20.1169 18.565 20.6325C18.565 20.6325 19.8661 21.3804 20.5172 21.7387C21.2225 22.135 21.6069 22.6073 21.6069 23.16C21.6069 23.5991 21.4176 23.9453 21.1017 24.1936C20.7852 24.4401 20.3476 24.5648 19.7885 24.5648C19.1926 24.5648 18.5286 24.3812 17.7952 24.0136L17.3965 24.813C18.2488 25.3909 19.1288 25.6821 20.0368 25.6821C21.0075 25.6821 21.7828 25.429 22.3598 24.9242Z" fill="#6B7B95"/>
<path d="M8.12733 25.5603H9.68058C9.60744 22.7476 9.36924 19.6444 8.96579 16.2529H7.12331L4.86804 23.0917H4.85435L2.61287 16.2529H0.687298C0.320566 19.1487 0.0915014 22.251 0 25.5603H1.41661C1.46226 22.8392 1.57212 20.3668 1.74651 18.1425H1.76042L4.11155 25.5603H5.29463L7.65997 18.1425H7.67367C7.9212 20.4585 8.07266 22.9309 8.12733 25.5603Z" fill="#6B7B95"/>
<path d="M13.9172 26.1971C14.953 24.6367 15.7875 22.1354 16.4202 18.6935H14.9488C14.6828 20.8076 14.2152 22.7611 13.5458 24.5536C13.5918 24.1948 13.4771 23.5655 13.2021 22.664L11.9784 18.6935H10.4521L12.1572 24.0024C12.4136 24.8017 12.5422 25.3302 12.5422 25.5877C12.5422 25.9647 12.3773 26.305 12.0474 26.6077C11.772 26.8561 11.4101 26.9806 10.9609 26.9806C10.7133 26.9806 10.4981 26.9663 10.3145 26.9393V27.769C10.6901 27.923 11.0066 28.0005 11.2633 28.0005C12.226 28.0005 13.1101 27.3994 13.9172 26.1971Z" fill="#6B7B95"/>
<path d="M32.6875 25.5593H37.1014V24.4144H34.1728V16.252H32.6875V25.5593Z" fill="#6B7B95"/>
<path d="M38.4067 25.5584H38.1606V24.6114H37.826V24.418H38.7287V24.6114H38.4067V25.5584Z" fill="#6B7B95"/>
<path d="M40.2653 25.5584H40.0333V24.6905L39.71 25.5584H39.5428L39.219 24.6905H39.2066V25.5584H38.9871V24.418H39.3233L39.6324 25.1953L39.9164 24.418H40.2653V25.5584Z" fill="#6B7B95"/>
<path d="M27.0645 3.41792C27.2146 3.37925 27.3692 3.36025 27.5243 3.36138C27.5599 3.39714 27.6044 3.42756 27.6493 3.45825C27.7176 3.50494 27.7867 3.55224 27.8272 3.61991C27.8524 3.65513 27.8685 3.69018 27.8846 3.72522C27.9045 3.76881 27.9245 3.8124 27.9621 3.85634C27.9621 4.1267 27.8838 4.30638 27.7255 4.41842C27.7255 4.41842 27.7149 4.43015 27.7038 4.44125C27.6607 4.3546 27.6201 4.26816 27.5796 4.18176C27.5358 4.08847 27.4921 3.99522 27.4452 3.90178C27.4014 3.83993 27.3506 3.78311 27.2994 3.726C27.2206 3.63799 27.1412 3.54928 27.0862 3.44043H27.0645V3.41792Z" fill="#6B7B95"/>
</svg>
