<svg width="22" height="18" viewBox="0 0 22 18" fill="none" xmlns="http://www.w3.org/2000/svg">
<path d="M0 12.5C0 15.5376 2.46243 18 5.5 18H7L7.22721 17.8141C8.80795 16.5208 9.65665 14.5364 9.5 12.5H7L11 8.5L15 12.5H12.5C12.3434 14.5364 13.1921 16.5208 14.7728 17.8141L15 18H17C19.7614 18 22 15.7614 22 13C22 10.7612 20.5286 8.86603 18.5 8.2289V7C18.5 3.13401 15.366 0 11.5 0C7.63401 0 4.5 3.13401 4.5 7C4.5 7.03024 4.50019 7.06043 4.50057 7.09058C1.94017 7.56061 0 9.80373 0 12.5Z" fill="#324558"/>
</svg>
