<svg width="19" height="17" viewBox="0 0 19 17" fill="none" xmlns="http://www.w3.org/2000/svg">
<path d="M17.4487 3.67738L16.1581 4.96801L17.042 5.85189L18.3326 4.56126C19.2236 3.67032 19.2236 2.22583 18.3326 1.33489C17.4417 0.443952 15.9972 0.443953 15.1063 1.33489L13.8156 2.62552L14.6995 3.5094L15.9901 2.21877C16.3929 1.81599 17.046 1.81599 17.4487 2.21877C17.8515 2.62155 17.8515 3.27459 17.4487 3.67738Z" fill="#6B7B95"/>
<path d="M11.2346 5.20653L12.5251 3.91607L13.409 4.79995L12.1185 6.09042C11.7157 6.4932 11.7157 7.14624 12.1185 7.54902C12.5213 7.9518 13.1743 7.9518 13.5771 7.54902L14.8676 6.25855L15.7514 7.14244L14.461 8.4329C13.57 9.32384 12.1255 9.32384 11.2346 8.4329C10.3437 7.54196 10.3437 6.09747 11.2346 5.20653Z" fill="#6B7B95"/>
<path d="M13.6545 5.0454L14.945 3.75486L15.9129 4.72277L14.6224 6.01331L13.6545 5.0454Z" fill="#6B7B95"/>
<path d="M1.49984 1.91669H12.7567L10.3507 4.32265C8.97163 5.70174 8.97163 7.93769 10.3507 9.31679C11.7298 10.6959 13.9658 10.6959 15.3449 9.31678L17.3332 7.32848V12.75C17.3332 13.2103 16.9601 13.5834 16.4998 13.5834L10.2498 13.5834V15.2425C10.3689 15.2943 11.1745 15.6264 12.3187 15.665C12.5542 15.673 12.7499 15.8604 12.7499 16.096V16.9148H10.2498V16.9167H7.74984V16.9148H5.24984V16.096C5.24984 15.8604 5.44547 15.673 5.68096 15.665C6.82514 15.6264 7.63071 15.2943 7.74984 15.2425V13.5834L1.49984 13.5834C1.0396 13.5834 0.666504 13.2103 0.666504 12.75V2.75002C0.666504 2.28978 1.0396 1.91669 1.49984 1.91669Z" fill="#6B7B95"/>
</svg>
