<svg width="16" height="16" viewBox="0 0 16 16" fill="none" xmlns="http://www.w3.org/2000/svg">
<path d="M1.33333 0.5C0.873096 0.5 0.5 0.873096 0.5 1.33333V14.6667C0.5 15.1269 0.873096 15.5 1.33333 15.5H3V0.5H1.33333Z" fill="#6B7B95"/>
<path fill-rule="evenodd" clip-rule="evenodd" d="M14.6667 0.5H4.25V15.5H14.6667C15.1269 15.5 15.5 15.1269 15.5 14.6667V1.33333C15.5 0.873096 15.1269 0.5 14.6667 0.5ZM8.83333 4.66667V3.41667H6.33333V4.66667H8.83333ZM9.66667 10.9167V12.1667H6.33333V10.9167H9.66667ZM12.1667 9.66667V8.41667H8V9.66667H12.1667ZM13.8333 5.91667V7.16667L8 7.16667V5.91667H13.8333Z" fill="#6B7B95"/>
</svg>
