<svg width="20" height="20" viewBox="0 0 20 20" fill="none" xmlns="http://www.w3.org/2000/svg">
<path d="M9.99996 16.666C13.6819 16.666 16.6666 13.6812 16.6666 9.99935C16.6666 9.71713 16.6491 9.43901 16.615 9.16602H18.2921C18.3194 9.4401 18.3333 9.7181 18.3333 9.99935C18.3333 14.6017 14.6023 18.3327 9.99996 18.3327C5.39759 18.3327 1.66663 14.6017 1.66663 9.99935C1.66663 5.39698 5.39759 1.66602 9.99996 1.66602C11.9221 1.66602 13.6923 2.31681 15.1022 3.41007C15.9086 4.03546 16.5972 4.80562 17.1289 5.68159C17.3201 5.99665 17.4911 6.3254 17.6399 6.66602L12.6004 6.66602C12.2788 6.66602 12.0784 6.31718 12.2405 6.0394L13.3077 4.20984C12.3329 3.65172 11.2037 3.33268 9.99996 3.33268C6.31806 3.33268 3.33329 6.31745 3.33329 9.99935C3.33329 13.6812 6.31806 16.666 9.99996 16.666Z" fill="#6B7B95"/>
</svg>
