<svg width="32" height="32" viewBox="0 0 32 32" fill="none" xmlns="http://www.w3.org/2000/svg">
<path d="M24.7653 18.2813C25.0816 18.2772 25.3837 18.1497 25.6074 17.9261C25.831 17.7024 25.9585 17.4003 25.9627 17.084C25.9627 16.42 25.4307 15.8867 24.7653 15.8867C24.1 15.8867 23.568 16.42 23.568 17.084C23.568 17.7507 24.1013 18.2813 24.7653 18.2813ZM18.8653 18.2813C19.1816 18.2772 19.4837 18.1497 19.7074 17.9261C19.931 17.7024 20.0585 17.4003 20.0627 17.084C20.0627 16.42 19.5293 15.8867 18.8653 15.8867C18.1987 15.8867 17.668 16.42 17.668 17.084C17.668 17.7507 18.2 18.2813 18.8653 18.2813ZM27.6213 25.0013C27.5359 25.0488 27.4677 25.1221 27.4265 25.2107C27.3853 25.2994 27.3732 25.3988 27.392 25.4947C27.392 25.5587 27.392 25.624 27.4253 25.6907C27.556 26.2467 27.8173 27.132 27.8173 27.1653C27.8173 27.2627 27.8507 27.328 27.8507 27.3947C27.8507 27.4333 27.843 27.4716 27.8282 27.5072C27.8134 27.5429 27.7917 27.5753 27.7643 27.6026C27.7369 27.6298 27.7044 27.6514 27.6687 27.6661C27.6329 27.6807 27.5946 27.6882 27.556 27.688C27.4893 27.688 27.4573 27.656 27.392 27.624L25.46 26.5093C25.3189 26.4317 25.1621 26.387 25.0013 26.3787C24.904 26.3787 24.8053 26.3787 24.74 26.4107C23.8227 26.6733 22.8733 26.804 21.8587 26.804C16.9787 26.804 13.0493 23.528 13.0493 19.464C13.0493 15.4013 16.9787 12.124 21.8587 12.124C26.7373 12.124 30.6667 15.4013 30.6667 19.464C30.6667 21.66 29.488 23.6587 27.6213 25.0027V25.0013ZM22.2307 10.7987C22.1063 10.7945 21.9818 10.7923 21.8573 10.792C16.292 10.792 11.716 14.6053 11.716 19.4653C11.716 20.204 11.8227 20.9187 12.02 21.5987H11.9013C10.7363 21.5869 9.57796 21.4219 8.456 21.108C8.35733 21.0747 8.25866 21.0747 8.16 21.0747C7.96295 21.0789 7.77058 21.1355 7.60267 21.2387L5.272 22.5787C5.20533 22.612 5.14 22.6453 5.07467 22.6453C4.97951 22.6443 4.88855 22.606 4.82126 22.5387C4.75397 22.4715 4.71571 22.3805 4.71467 22.2853C4.71467 22.1867 4.74667 22.1213 4.78 22.0227C4.812 21.9907 5.108 20.9107 5.272 20.2573C5.272 20.1907 5.304 20.0933 5.304 20.028C5.30364 19.9137 5.27685 19.801 5.22574 19.6988C5.17462 19.5966 5.10056 19.5075 5.00933 19.4387C2.744 17.8347 1.33333 15.448 1.33333 12.7973C1.33333 7.92667 6.09333 4 11.9333 4C16.9533 4 21.1733 6.892 22.2307 10.7973V10.7987ZM15.3587 11.356C16.1227 11.356 16.7267 10.72 16.7267 9.988C16.7267 9.224 16.1227 8.62 15.3587 8.62C14.5947 8.62 13.9907 9.224 13.9907 9.988C13.9907 10.752 14.5947 11.356 15.3587 11.356ZM8.34533 11.356C9.10933 11.356 9.71466 10.72 9.71466 9.988C9.71466 9.224 9.10933 8.62 8.34533 8.62C7.58266 8.62 6.97733 9.224 6.97733 9.988C6.97733 10.752 7.58266 11.356 8.34533 11.356Z" fill="#324558"/>
</svg>
