<svg width="16" height="16" viewBox="0 0 16 16" fill="none" xmlns="http://www.w3.org/2000/svg">
<path d="M14.6666 4.1607C12.7648 2.79753 10.4489 2 7.96162 2C5.50768 2 3.22054 2.77629 1.33331 4.10618L2.79588 6.27076C4.26362 5.2426 6.04335 4.6405 7.96162 4.6405C9.91348 4.6405 11.7219 5.26386 13.2042 6.32515L14.6666 4.1607Z" fill="#324558"/>
<path d="M12.4717 7.40917C11.1877 6.49349 9.62603 5.96077 7.96164 5.96077C6.33034 5.96077 4.79769 6.47253 3.52848 7.35503L4.99078 9.51921C5.8367 8.94 6.85969 8.60127 7.96164 8.60127C9.0973 8.60127 10.1491 8.96104 11.0096 9.57301L12.4717 7.40917Z" fill="#324558"/>
<path d="M8.01841 9.92147C8.85804 9.92147 9.63464 10.2003 10.2662 10.6733L8.01841 14.0268L5.77065 10.6733C6.40217 10.2003 7.17877 9.92147 8.01841 9.92147Z" fill="#324558"/>
</svg>
