<svg width="16" height="17" viewBox="0 0 16 17" fill="none" xmlns="http://www.w3.org/2000/svg">
<path d="M2.93237 2.77466L1.98956 3.71747L2.43467 4.16258C2.05454 4.37142 1.68691 4.60115 1.33331 4.85032L2.79588 7.0149C3.29462 6.66553 3.82939 6.36535 4.39337 6.12128L5.40989 7.1378C4.73853 7.37257 4.1062 7.69746 3.52846 8.09917L4.99076 10.2633C5.75064 9.74306 6.65339 9.41681 7.62792 9.35582L9.09644 10.8243C8.75447 10.721 8.3927 10.6656 8.01841 10.6656C7.17877 10.6656 6.40217 10.9445 5.77065 11.4174L8.0184 14.7441L10.0336 11.7615L12.3605 14.0884L13.3033 13.1456L2.93237 2.77466Z" fill="#79879C"/>
<path d="M4.76826 3.19635L7.00676 5.43485C7.32058 5.40165 7.63915 5.38464 7.96162 5.38464C9.91348 5.38464 11.7219 6.008 13.2042 7.06929L14.6666 4.90484C12.7648 3.54167 10.4489 2.74414 7.96162 2.74414C6.85622 2.74414 5.78466 2.90166 4.76826 3.19635Z" fill="#79879C"/>
<path d="M8.28348 6.71157L11.3642 9.79231L12.4717 8.15331C11.2708 7.2969 9.82701 6.77548 8.28348 6.71157Z" fill="#79879C"/>
</svg>
