<svg width="184" height="50" viewBox="0 0 184 50" fill="none" xmlns="http://www.w3.org/2000/svg">
<rect y="34" width="80" height="16" fill="#55BC8A"/>
<path d="M6.82227 43.8633L9.06641 45.6445L8.11133 46.4824L5.9082 44.7188L6.82227 43.8633ZM9.08398 40.5V40.9688C9.08398 41.6133 9 42.1914 8.83203 42.7031C8.66406 43.2148 8.42383 43.6504 8.11133 44.0098C7.79883 44.3691 7.42578 44.6445 6.99219 44.8359C6.55859 45.0234 6.07812 45.1172 5.55078 45.1172C5.02734 45.1172 4.54883 45.0234 4.11523 44.8359C3.68555 44.6445 3.3125 44.3691 2.99609 44.0098C2.67969 43.6504 2.43359 43.2148 2.25781 42.7031C2.08594 42.1914 2 41.6133 2 40.9688V40.5C2 39.8555 2.08594 39.2793 2.25781 38.7715C2.42969 38.2598 2.67188 37.8242 2.98438 37.4648C3.30078 37.1016 3.67383 36.8262 4.10352 36.6387C4.53711 36.4473 5.01562 36.3516 5.53906 36.3516C6.06641 36.3516 6.54688 36.4473 6.98047 36.6387C7.41797 36.8262 7.79297 37.1016 8.10547 37.4648C8.41797 37.8242 8.6582 38.2598 8.82617 38.7715C8.99805 39.2793 9.08398 39.8555 9.08398 40.5ZM7.60742 40.9688V40.4883C7.60742 40.0117 7.56055 39.5918 7.4668 39.2285C7.37695 38.8613 7.24219 38.5547 7.0625 38.3086C6.88672 38.0586 6.66992 37.8711 6.41211 37.7461C6.1582 37.6172 5.86719 37.5527 5.53906 37.5527C5.21875 37.5527 4.93164 37.6172 4.67773 37.7461C4.42383 37.8711 4.20703 38.0586 4.02734 38.3086C3.84766 38.5547 3.71094 38.8613 3.61719 39.2285C3.52344 39.5918 3.47656 40.0117 3.47656 40.4883V40.9688C3.47656 41.4453 3.52344 41.8672 3.61719 42.2344C3.71094 42.6016 3.84766 42.9121 4.02734 43.166C4.21094 43.416 4.42969 43.6055 4.68359 43.7344C4.94141 43.8594 5.23047 43.9219 5.55078 43.9219C5.87891 43.9219 6.16992 43.8594 6.42383 43.7344C6.67773 43.6055 6.89258 43.416 7.06836 43.166C7.24414 42.9121 7.37695 42.6016 7.4668 42.2344C7.56055 41.8672 7.60742 41.4453 7.60742 40.9688Z" fill="#1A202C"/>
<path d="M11.9492 38.6602V45H10.5312V38.6602H11.9492ZM10.4375 36.9961C10.4375 36.7812 10.5078 36.6035 10.6484 36.4629C10.793 36.3184 10.9922 36.2461 11.2461 36.2461C11.4961 36.2461 11.6934 36.3184 11.8379 36.4629C11.9824 36.6035 12.0547 36.7812 12.0547 36.9961C12.0547 37.207 11.9824 37.3828 11.8379 37.5234C11.6934 37.6641 11.4961 37.7344 11.2461 37.7344C10.9922 37.7344 10.793 37.6641 10.6484 37.5234C10.5078 37.3828 10.4375 37.207 10.4375 36.9961Z" fill="#1A202C"/>
<path d="M14.8965 40.0137V45H13.4844V38.6602H14.8145L14.8965 40.0137ZM14.6445 41.5957L14.1875 41.5898C14.1914 41.1406 14.2539 40.7285 14.375 40.3535C14.5 39.9785 14.6719 39.6562 14.8906 39.3867C15.1133 39.1172 15.3789 38.9102 15.6875 38.7656C15.9961 38.6172 16.3398 38.543 16.7188 38.543C17.0234 38.543 17.2988 38.5859 17.5449 38.6719C17.7949 38.7539 18.0078 38.8887 18.1836 39.0762C18.3633 39.2637 18.5 39.5078 18.5938 39.8086C18.6875 40.1055 18.7344 40.4707 18.7344 40.9043V45H17.3164V40.8984C17.3164 40.5938 17.2715 40.3535 17.1816 40.1777C17.0957 39.998 16.9688 39.8711 16.8008 39.7969C16.6367 39.7188 16.4316 39.6797 16.1855 39.6797C15.9434 39.6797 15.7266 39.7305 15.5352 39.832C15.3438 39.9336 15.1816 40.0723 15.0488 40.248C14.9199 40.4238 14.8203 40.627 14.75 40.8574C14.6797 41.0879 14.6445 41.334 14.6445 41.5957Z" fill="#1A202C"/>
<path d="M24.2363 38.6602H25.5195V44.8242C25.5195 45.3945 25.3984 45.8789 25.1562 46.2773C24.9141 46.6758 24.5762 46.9785 24.1426 47.1855C23.709 47.3965 23.207 47.502 22.6367 47.502C22.3945 47.502 22.125 47.4668 21.8281 47.3965C21.5352 47.3262 21.25 47.2129 20.9727 47.0566C20.6992 46.9043 20.4707 46.7031 20.2871 46.4531L20.9492 45.6211C21.1758 45.8906 21.4258 46.0879 21.6992 46.2129C21.9727 46.3379 22.2598 46.4004 22.5605 46.4004C22.8848 46.4004 23.1602 46.3398 23.3867 46.2188C23.6172 46.1016 23.7949 45.9277 23.9199 45.6973C24.0449 45.4668 24.1074 45.1855 24.1074 44.8535V40.0957L24.2363 38.6602ZM19.9297 41.9004V41.7773C19.9297 41.2969 19.9883 40.8594 20.1055 40.4648C20.2227 40.0664 20.3906 39.7246 20.6094 39.4395C20.8281 39.1504 21.0938 38.9297 21.4062 38.7773C21.7188 38.6211 22.0723 38.543 22.4668 38.543C22.877 38.543 23.2266 38.6172 23.5156 38.7656C23.8086 38.9141 24.0527 39.127 24.248 39.4043C24.4434 39.6777 24.5957 40.0059 24.7051 40.3887C24.8184 40.7676 24.9023 41.1895 24.957 41.6543V42.0469C24.9062 42.5 24.8203 42.9141 24.6992 43.2891C24.5781 43.6641 24.418 43.9883 24.2188 44.2617C24.0195 44.5352 23.7734 44.7461 23.4805 44.8945C23.1914 45.043 22.8496 45.1172 22.4551 45.1172C22.0684 45.1172 21.7188 45.0371 21.4062 44.877C21.0977 44.7168 20.832 44.4922 20.6094 44.2031C20.3906 43.9141 20.2227 43.5742 20.1055 43.1836C19.9883 42.7891 19.9297 42.3613 19.9297 41.9004ZM21.3418 41.7773V41.9004C21.3418 42.1895 21.3691 42.459 21.4238 42.709C21.4824 42.959 21.5703 43.1797 21.6875 43.3711C21.8086 43.5586 21.9609 43.707 22.1445 43.8164C22.332 43.9219 22.5527 43.9746 22.8066 43.9746C23.1387 43.9746 23.4102 43.9043 23.6211 43.7637C23.8359 43.623 24 43.4336 24.1133 43.1953C24.2305 42.9531 24.3125 42.6836 24.3594 42.3867V41.3262C24.3359 41.0957 24.2871 40.8809 24.2129 40.6816C24.1426 40.4824 24.0469 40.3086 23.9258 40.1602C23.8047 40.0078 23.6523 39.8906 23.4688 39.8086C23.2852 39.7227 23.0684 39.6797 22.8184 39.6797C22.5645 39.6797 22.3438 39.7344 22.1562 39.8438C21.9688 39.9531 21.8145 40.1035 21.6934 40.2949C21.5762 40.4863 21.4883 40.709 21.4297 40.9629C21.3711 41.2168 21.3418 41.4883 21.3418 41.7773Z" fill="#1A202C"/>
<path d="M32.1641 42.2227H33.6289C33.582 42.7812 33.4258 43.2793 33.1602 43.7168C32.8945 44.1504 32.5215 44.4922 32.041 44.7422C31.5605 44.9922 30.9766 45.1172 30.2891 45.1172C29.7617 45.1172 29.2871 45.0234 28.8652 44.8359C28.4434 44.6445 28.082 44.375 27.7812 44.0273C27.4805 43.6758 27.25 43.252 27.0898 42.7559C26.9336 42.2598 26.8555 41.7051 26.8555 41.0918V40.3828C26.8555 39.7695 26.9355 39.2148 27.0957 38.7188C27.2598 38.2227 27.4941 37.7988 27.7988 37.4473C28.1035 37.0918 28.4688 36.8203 28.8945 36.6328C29.3242 36.4453 29.8066 36.3516 30.3418 36.3516C31.0215 36.3516 31.5957 36.4766 32.0645 36.7266C32.5332 36.9766 32.8965 37.3223 33.1543 37.7637C33.416 38.2051 33.5762 38.7109 33.6348 39.2812H32.1699C32.1309 38.9141 32.0449 38.5996 31.9121 38.3379C31.7832 38.0762 31.5918 37.877 31.3379 37.7402C31.084 37.5996 30.752 37.5293 30.3418 37.5293C30.0059 37.5293 29.7129 37.5918 29.4629 37.7168C29.2129 37.8418 29.0039 38.0254 28.8359 38.2676C28.668 38.5098 28.541 38.8086 28.4551 39.1641C28.373 39.5156 28.332 39.918 28.332 40.3711V41.0918C28.332 41.5215 28.3691 41.9121 28.4434 42.2637C28.5215 42.6113 28.6387 42.9102 28.7949 43.1602C28.9551 43.4102 29.1582 43.6035 29.4043 43.7402C29.6504 43.877 29.9453 43.9453 30.2891 43.9453C30.707 43.9453 31.0449 43.8789 31.3027 43.7461C31.5645 43.6133 31.7617 43.4199 31.8945 43.166C32.0312 42.9082 32.1211 42.5938 32.1641 42.2227Z" fill="#1A202C"/>
<path d="M36.3359 36V45H34.918V36H36.3359Z" fill="#1A202C"/>
<path d="M37.6133 41.9004V41.7656C37.6133 41.3086 37.6797 40.8848 37.8125 40.4941C37.9453 40.0996 38.1367 39.7578 38.3867 39.4688C38.6406 39.1758 38.9492 38.9492 39.3125 38.7891C39.6797 38.625 40.0938 38.543 40.5547 38.543C41.0195 38.543 41.4336 38.625 41.7969 38.7891C42.1641 38.9492 42.4746 39.1758 42.7285 39.4688C42.9824 39.7578 43.1758 40.0996 43.3086 40.4941C43.4414 40.8848 43.5078 41.3086 43.5078 41.7656V41.9004C43.5078 42.3574 43.4414 42.7812 43.3086 43.1719C43.1758 43.5625 42.9824 43.9043 42.7285 44.1973C42.4746 44.4863 42.166 44.7129 41.8027 44.877C41.4395 45.0371 41.0273 45.1172 40.5664 45.1172C40.1016 45.1172 39.6855 45.0371 39.3184 44.877C38.9551 44.7129 38.6465 44.4863 38.3926 44.1973C38.1387 43.9043 37.9453 43.5625 37.8125 43.1719C37.6797 42.7812 37.6133 42.3574 37.6133 41.9004ZM39.0254 41.7656V41.9004C39.0254 42.1855 39.0547 42.4551 39.1133 42.709C39.1719 42.9629 39.2637 43.1855 39.3887 43.377C39.5137 43.5684 39.6738 43.7188 39.8691 43.8281C40.0645 43.9375 40.2969 43.9922 40.5664 43.9922C40.8281 43.9922 41.0547 43.9375 41.2461 43.8281C41.4414 43.7188 41.6016 43.5684 41.7266 43.377C41.8516 43.1855 41.9434 42.9629 42.002 42.709C42.0645 42.4551 42.0957 42.1855 42.0957 41.9004V41.7656C42.0957 41.4844 42.0645 41.2188 42.002 40.9688C41.9434 40.7148 41.8496 40.4902 41.7207 40.2949C41.5957 40.0996 41.4355 39.9473 41.2402 39.8379C41.0488 39.7246 40.8203 39.668 40.5547 39.668C40.2891 39.668 40.0586 39.7246 39.8633 39.8379C39.6719 39.9473 39.5137 40.0996 39.3887 40.2949C39.2637 40.4902 39.1719 40.7148 39.1133 40.9688C39.0547 41.2188 39.0254 41.4844 39.0254 41.7656Z" fill="#1A202C"/>
<path d="M48.5059 43.5059V38.6602H49.9238V45H48.5879L48.5059 43.5059ZM48.7051 42.1875L49.1797 42.1758C49.1797 42.6016 49.1328 42.9941 49.0391 43.3535C48.9453 43.709 48.8008 44.0195 48.6055 44.2852C48.4102 44.5469 48.1602 44.752 47.8555 44.9004C47.5508 45.0449 47.1855 45.1172 46.7598 45.1172C46.4512 45.1172 46.168 45.0723 45.9102 44.9824C45.6523 44.8926 45.4297 44.7539 45.2422 44.5664C45.0586 44.3789 44.916 44.1348 44.8145 43.834C44.7129 43.5332 44.6621 43.1738 44.6621 42.7559V38.6602H46.0742V42.7676C46.0742 42.998 46.1016 43.1914 46.1562 43.3477C46.2109 43.5 46.2852 43.623 46.3789 43.7168C46.4727 43.8105 46.582 43.877 46.707 43.916C46.832 43.9551 46.9648 43.9746 47.1055 43.9746C47.5078 43.9746 47.8242 43.8965 48.0547 43.7402C48.2891 43.5801 48.4551 43.3652 48.5527 43.0957C48.6543 42.8262 48.7051 42.5234 48.7051 42.1875Z" fill="#1A202C"/>
<path d="M55.2383 43.6875V36H56.6562V45H55.373L55.2383 43.6875ZM51.1133 41.9004V41.7773C51.1133 41.2969 51.1699 40.8594 51.2832 40.4648C51.3965 40.0664 51.5605 39.7246 51.7754 39.4395C51.9902 39.1504 52.252 38.9297 52.5605 38.7773C52.8691 38.6211 53.2168 38.543 53.6035 38.543C53.9863 38.543 54.3223 38.6172 54.6113 38.7656C54.9004 38.9141 55.1465 39.127 55.3496 39.4043C55.5527 39.6777 55.7148 40.0059 55.8359 40.3887C55.957 40.7676 56.043 41.1895 56.0938 41.6543V42.0469C56.043 42.5 55.957 42.9141 55.8359 43.2891C55.7148 43.6641 55.5527 43.9883 55.3496 44.2617C55.1465 44.5352 54.8984 44.7461 54.6055 44.8945C54.3164 45.043 53.9785 45.1172 53.5918 45.1172C53.209 45.1172 52.8633 45.0371 52.5547 44.877C52.25 44.7168 51.9902 44.4922 51.7754 44.2031C51.5605 43.9141 51.3965 43.5742 51.2832 43.1836C51.1699 42.7891 51.1133 42.3613 51.1133 41.9004ZM52.5254 41.7773V41.9004C52.5254 42.1895 52.5508 42.459 52.6016 42.709C52.6562 42.959 52.7402 43.1797 52.8535 43.3711C52.9668 43.5586 53.1133 43.707 53.293 43.8164C53.4766 43.9219 53.6953 43.9746 53.9492 43.9746C54.2695 43.9746 54.5332 43.9043 54.7402 43.7637C54.9473 43.623 55.1094 43.4336 55.2266 43.1953C55.3477 42.9531 55.4297 42.6836 55.4727 42.3867V41.3262C55.4492 41.0957 55.4004 40.8809 55.3262 40.6816C55.2559 40.4824 55.1602 40.3086 55.0391 40.1602C54.918 40.0078 54.7676 39.8906 54.5879 39.8086C54.4121 39.7227 54.2031 39.6797 53.9609 39.6797C53.7031 39.6797 53.4844 39.7344 53.3047 39.8438C53.125 39.9531 52.9766 40.1035 52.8594 40.2949C52.7461 40.4863 52.6621 40.709 52.6074 40.9629C52.5527 41.2168 52.5254 41.4883 52.5254 41.7773Z" fill="#1A202C"/>
<path d="M62.832 36.4688V45H61.3613V36.4688H62.832Z" fill="#1A202C"/>
<path d="M64.25 41.9004V41.7656C64.25 41.3086 64.3164 40.8848 64.4492 40.4941C64.582 40.0996 64.7734 39.7578 65.0234 39.4688C65.2773 39.1758 65.5859 38.9492 65.9492 38.7891C66.3164 38.625 66.7305 38.543 67.1914 38.543C67.6562 38.543 68.0703 38.625 68.4336 38.7891C68.8008 38.9492 69.1113 39.1758 69.3652 39.4688C69.6191 39.7578 69.8125 40.0996 69.9453 40.4941C70.0781 40.8848 70.1445 41.3086 70.1445 41.7656V41.9004C70.1445 42.3574 70.0781 42.7812 69.9453 43.1719C69.8125 43.5625 69.6191 43.9043 69.3652 44.1973C69.1113 44.4863 68.8027 44.7129 68.4395 44.877C68.0762 45.0371 67.6641 45.1172 67.2031 45.1172C66.7383 45.1172 66.3223 45.0371 65.9551 44.877C65.5918 44.7129 65.2832 44.4863 65.0293 44.1973C64.7754 43.9043 64.582 43.5625 64.4492 43.1719C64.3164 42.7812 64.25 42.3574 64.25 41.9004ZM65.6621 41.7656V41.9004C65.6621 42.1855 65.6914 42.4551 65.75 42.709C65.8086 42.9629 65.9004 43.1855 66.0254 43.377C66.1504 43.5684 66.3105 43.7188 66.5059 43.8281C66.7012 43.9375 66.9336 43.9922 67.2031 43.9922C67.4648 43.9922 67.6914 43.9375 67.8828 43.8281C68.0781 43.7188 68.2383 43.5684 68.3633 43.377C68.4883 43.1855 68.5801 42.9629 68.6387 42.709C68.7012 42.4551 68.7324 42.1855 68.7324 41.9004V41.7656C68.7324 41.4844 68.7012 41.2188 68.6387 40.9688C68.5801 40.7148 68.4863 40.4902 68.3574 40.2949C68.2324 40.0996 68.0723 39.9473 67.877 39.8379C67.6855 39.7246 67.457 39.668 67.1914 39.668C66.9258 39.668 66.6953 39.7246 66.5 39.8379C66.3086 39.9473 66.1504 40.0996 66.0254 40.2949C65.9004 40.4902 65.8086 40.7148 65.75 40.9688C65.6914 41.2188 65.6621 41.4844 65.6621 41.7656Z" fill="#1A202C"/>
<path d="M74.9785 36.4688V45H73.5195V36.4688H74.9785ZM77.6562 36.4688V37.6406H70.8652V36.4688H77.6562Z" fill="#1A202C"/>
<path d="M10.311 3.738C9.765 6.825 8.82 9.198 7.497 10.857L8.967 12.096C9.66 11.256 10.269 10.185 10.815 8.925H11.865C11.088 12.726 9.66 15.498 7.602 17.262L8.883 18.753C11.193 16.695 12.768 13.419 13.629 8.925H14.847C14.469 11.949 13.881 14.364 13.125 16.191C12.243 18.123 10.962 19.866 9.24 21.42L10.479 22.995C12.369 21.231 13.818 19.257 14.784 17.031C15.582 15.036 16.191 12.327 16.653 8.925H17.598C17.556 14.91 17.472 18.417 17.346 19.467C17.178 20.685 16.506 21.294 15.351 21.294C14.847 21.294 14.28 21.252 13.608 21.189L14.07 22.974C14.826 23.016 15.351 23.058 15.645 23.058C17.766 23.058 18.942 22.155 19.194 20.349C19.404 18.669 19.509 14.217 19.509 6.993H11.508C11.76 6.153 11.991 5.229 12.201 4.221L10.311 3.738ZM3.087 9.933H4.431V15.141C3.297 15.54 2.121 15.855 0.945 16.107L1.407 18.039C2.436 17.724 3.444 17.388 4.431 17.01V23.163H6.363V16.233C6.846 16.023 7.329 15.792 7.812 15.561V13.671C7.35 13.902 6.867 14.133 6.363 14.364V9.933H7.896V8.001H6.363V3.801H4.431V8.001H3.339C3.423 7.182 3.486 6.342 3.528 5.502L1.764 5.376C1.68 7.812 1.323 10.143 0.693 12.369L2.436 12.852C2.688 11.907 2.919 10.941 3.087 9.933ZM30.597 8.19V10.08H34.545V11.277C34.545 11.928 34.503 12.579 34.44 13.209H30.261V15.141H34.167C33.537 18.165 32.109 20.328 29.883 21.672L31.08 23.268C33.705 21.588 35.364 18.879 36.078 15.141H40.971V13.209H36.351C36.414 12.453 36.456 11.655 36.456 10.815V10.08H40.593V8.19H37.821C38.43 7.161 39.039 5.922 39.627 4.494L37.779 3.801C37.233 5.355 36.582 6.825 35.826 8.19H30.597ZM32.886 3.927L31.353 4.893C32.214 6.09 32.907 7.182 33.411 8.169L34.902 7.119C34.44 6.216 33.768 5.145 32.886 3.927ZM21.903 4.494V6.342H23.016V18.543C22.617 18.585 22.218 18.648 21.819 18.69L22.281 20.559C24.003 20.265 25.683 19.95 27.279 19.614V23.184H29.211V19.152C29.589 19.047 30.009 18.942 30.429 18.837V16.947L29.211 17.283V6.342H30.387V4.494H21.903ZM24.906 18.228V15.162H27.279V17.745C26.502 17.913 25.704 18.081 24.906 18.228ZM24.906 13.356V10.794H27.279V13.356H24.906ZM24.906 8.988V6.342H27.279V8.988H24.906ZM36.876 16.38L35.742 17.661C37.212 19.236 38.619 21.084 39.984 23.184L41.307 21.735C39.984 19.803 38.514 18.018 36.876 16.38ZM51.681 18.312L53.004 17.01C52.206 15.792 51.45 14.679 50.736 13.671C51.24 11.928 51.639 9.996 51.954 7.896L50.127 7.581C49.917 9.072 49.644 10.479 49.329 11.802C48.531 10.794 47.817 9.933 47.145 9.219L45.927 10.416C46.893 11.55 47.817 12.705 48.699 13.923C48.027 15.918 47.208 17.661 46.221 19.152L47.502 20.706C48.468 19.32 49.308 17.682 50.022 15.792C50.589 16.59 51.135 17.43 51.681 18.312ZM57.729 19.32L59.073 17.997C58.233 16.611 57.435 15.351 56.679 14.196C57.267 12.327 57.75 10.248 58.128 7.959L56.28 7.644C56.028 9.24 55.713 10.773 55.335 12.201C54.579 11.13 53.865 10.227 53.193 9.471L51.954 10.647C52.878 11.823 53.781 13.062 54.663 14.364C53.928 16.38 53.025 18.144 51.933 19.677L53.193 21.21C54.243 19.824 55.146 18.186 55.923 16.296C56.532 17.262 57.141 18.27 57.729 19.32ZM58.968 23.037C60.354 23.037 61.068 22.323 61.068 20.895V4.515H43.932V23.163H45.906V6.426H59.094V20.454C59.094 20.937 58.821 21.189 58.317 21.189L56.343 21.105L56.868 23.037H58.968ZM64.974 4.578V6.531H72.408V13.965H64.134V15.876H72.408V23.142H74.424V15.876H82.866V13.965H74.424V6.531H82.068V4.578H64.974ZM67.914 7.518L66.045 8.421C66.822 9.807 67.557 11.382 68.25 13.146L70.119 12.222C69.405 10.5 68.67 8.946 67.914 7.518ZM79.254 7.434C78.666 8.967 77.889 10.521 76.902 12.117L78.708 13.041C79.674 11.487 80.472 9.912 81.081 8.295L79.254 7.434ZM101.682 14.259H87.318V23.184H89.334V22.323H99.666V23.184H101.682V14.259ZM89.334 20.412V16.17H99.666V20.412H89.334ZM85.953 12.306C91.329 12.096 96.222 11.802 100.611 11.424C101.094 12.201 101.577 13.02 102.081 13.902L104.034 12.936C102.501 10.395 100.884 8.085 99.183 5.985L97.377 6.846C98.07 7.728 98.763 8.652 99.435 9.66C96.096 9.975 92.652 10.206 89.082 10.332C90.846 8.736 92.568 6.762 94.269 4.41L92.19 3.696C89.376 7.812 87.171 10.059 85.575 10.416L85.953 12.306Z" fill="white"/>
</svg>
