<svg width="189" height="34" viewBox="0 0 189 34" fill="none" xmlns="http://www.w3.org/2000/svg">
<path d="M9.55961 0L0 16.57H16.7824L26.3633 0H9.55961Z" fill="url(#paint0_linear_12059_93026)"/>
<path d="M31.568 0L21.9871 16.57H38.7696L48.3504 0H31.568Z" fill="url(#paint1_linear_12059_93026)"/>
<path d="M48.3079 33.0763L30.3783 2.03938L21.9871 16.57L22.0296 16.655L31.568 33.14H48.3504L48.3079 33.0763Z" fill="url(#paint2_linear_12059_93026)"/>
<path d="M11.8114 33.14V0H26.3633L16.7824 16.57H21.9871L26.3633 9.00144V33.14H11.8114Z" fill="url(#paint3_linear_12059_93026)"/>
<path d="M73.8184 14.562H60.9044V26.288H63.2144V25.562H72.5864V26.31H74.8524V20.326H63.2144V19.292H73.8184V14.562ZM63.2144 23.538V22.13H72.5864V23.538H63.2144ZM63.2144 17.488V16.388H71.5964V17.488H63.2144ZM76.8544 11.768H68.5824C68.4504 11.372 68.2964 10.998 68.1644 10.646L69.1764 11.284C69.6164 10.668 70.0344 10.008 70.4084 9.304H71.3984C71.8604 9.964 72.2564 10.646 72.6084 11.35L74.6324 10.58C74.4124 10.184 74.1484 9.744 73.8404 9.304H77.3164V7.302H71.2664C71.3764 6.994 71.4864 6.664 71.5964 6.334L69.4184 5.85C68.9784 7.346 68.2524 8.754 67.2404 10.074L67.6804 10.36L65.7444 10.69C65.9204 11.02 66.0964 11.372 66.2724 11.768H57.8464V16.08H60.0904V13.704H74.6104V16.08H76.8544V11.768ZM60.9484 9.304H61.7624C62.2464 10.03 62.6644 10.778 63.0164 11.57L65.1064 10.756C64.8644 10.294 64.5564 9.81 64.2044 9.304H67.3284V7.302H61.9164C62.0484 6.972 62.1584 6.642 62.2904 6.312L60.0684 5.828C59.5624 7.368 58.6824 8.842 57.4064 10.206L59.4084 11.482C59.9804 10.822 60.4864 10.096 60.9484 9.304ZM87.2384 6.62V17.29H91.7484V19.314H86.9964V21.448H91.7484V23.494H86.1604V25.716H99.5144V23.494H94.0364V21.448H98.7664V19.314H94.0364V17.29H98.5024V6.62H87.2384ZM96.3024 15.266H94.0364V12.934H96.3024V15.266ZM91.7484 15.266H89.4384V12.934H91.7484V15.266ZM89.4384 10.976V8.644H91.7484V10.976H89.4384ZM94.0364 8.644H96.3024V10.976H94.0364V8.644ZM79.6924 13.836V16.036H81.7824V20.876C80.9244 21.096 80.0444 21.272 79.1424 21.426L79.7144 23.626C82.0024 23.076 84.1584 22.416 86.1824 21.624V19.402C85.5004 19.688 84.8184 19.952 84.1144 20.194V16.036H86.2484V13.836H84.1144V9.348H86.5124V7.17H79.3624V9.348H81.7824V13.836H79.6924ZM103.43 6.092L101.824 7.61C103.408 8.886 104.618 10.074 105.476 11.174L107.126 9.546C106.114 8.402 104.882 7.236 103.43 6.092ZM115.948 25.936H120.986L121.558 23.67C120.942 23.714 120.084 23.758 118.962 23.802C117.818 23.802 116.718 23.824 115.618 23.824C113.946 23.824 112.472 23.802 111.218 23.78C109.942 23.736 108.996 23.56 108.358 23.23C107.852 22.944 107.346 22.504 106.862 21.932L106.642 21.712V13.33H101.604V15.442H104.508V21.47C103.628 21.954 102.66 23.076 101.56 24.836L103.254 26.42C104.354 24.44 105.102 23.45 105.52 23.45C105.784 23.45 106.048 23.626 106.334 24C106.972 24.748 107.72 25.254 108.6 25.518C109.524 25.738 110.668 25.87 112.076 25.892C113.462 25.914 114.76 25.936 115.948 25.936ZM109.282 6.95V9.062H119.666V6.95H109.282ZM107.874 11.9V14.078H112.252C110.624 17.906 109.37 19.952 108.49 20.216L109.062 22.218C112.868 21.822 115.948 21.316 118.324 20.7C118.544 21.294 118.742 21.91 118.962 22.57L121.008 22.064C120.128 19.468 119.116 17.18 117.972 15.156L116.102 15.772C116.608 16.718 117.092 17.708 117.532 18.742C115.904 19.16 113.946 19.512 111.636 19.82C112.604 18.412 113.572 16.498 114.54 14.078H121.272V11.9H107.874ZM131.018 21.448C128.818 22.24 126.266 22.856 123.34 23.318L123.648 25.606C126.398 25.1 128.862 24.44 131.018 23.648V21.448ZM126.596 5.806C125.914 8.16 125.122 10.316 124.22 12.274C123.934 12.67 123.626 12.956 123.274 13.11L123.824 15.2C124.836 15.046 125.826 14.892 126.772 14.76C125.914 16.454 125.21 17.642 124.638 18.302C124.352 18.566 124 18.786 123.604 18.962L124.198 21.03C126.178 20.722 128.29 20.106 130.534 19.182V17.07C129.302 17.62 128.07 18.06 126.882 18.39C127.982 16.762 129.346 14.276 130.93 10.91L128.928 10.14C128.532 11.042 128.136 11.878 127.784 12.67L125.936 12.934C126.904 11.306 127.872 9.238 128.796 6.686L126.596 5.806ZM134.538 16.036H137.772V18.28H134.538V16.036ZM134.538 20.37H137.772V22.988H134.538V20.37ZM134.538 25.122H143.58V22.988H139.972V20.37H142.766V18.28H139.972V16.036H142.766V13.924H139.972V11.614H143.14V9.458H140.06C139.774 8.358 139.4 7.17 138.938 5.872L136.716 6.466C137.156 7.434 137.53 8.446 137.86 9.458H134.714C135.066 8.49 135.396 7.478 135.66 6.444L133.482 6.004C132.822 8.952 131.678 11.658 130.05 14.122L130.754 16.454C131.304 15.728 131.832 14.98 132.338 14.188V26.244H134.538V25.122ZM137.772 11.614V13.924H134.538V11.614H137.772ZM146.396 6.708V8.952H154.096V16.52H145.516V18.742H154.096V26.266H156.428V18.742H165.184V16.52H156.428V8.952H164.37V6.708H146.396ZM149.63 9.832L147.496 10.866C148.288 12.318 149.058 13.968 149.762 15.794L151.918 14.738C151.17 12.934 150.422 11.306 149.63 9.832ZM161.268 9.744C160.674 11.35 159.882 12.978 158.87 14.606L160.938 15.662C161.928 14.078 162.742 12.428 163.358 10.734L161.268 9.744ZM184.94 16.894H169.76V26.332H172.092V25.496H182.608V26.332H184.94V16.894ZM172.092 23.296V19.094H182.608V23.296H172.092ZM168.374 14.936C173.984 14.738 179.088 14.43 183.664 14.012C184.17 14.848 184.676 15.706 185.16 16.608L187.404 15.508C185.82 12.846 184.17 10.426 182.41 8.226L180.32 9.216C181.002 10.074 181.684 10.998 182.344 11.966C178.956 12.274 175.48 12.516 171.916 12.692C173.72 11.02 175.458 8.996 177.152 6.664L174.776 5.828C171.784 10.206 169.496 12.516 167.956 12.758L168.374 14.936Z" fill="#242E42"/>
<defs>
<linearGradient id="paint0_linear_12059_93026" x1="1.09523" y1="8.28861" x2="16.3964" y2="8.28861" gradientUnits="userSpaceOnUse">
<stop stop-color="#00EFFE"/>
<stop offset="0.9992" stop-color="#00CAFA"/>
</linearGradient>
<linearGradient id="paint1_linear_12059_93026" x1="40.1976" y1="-1.37724" x2="33.7537" y2="13.0448" gradientUnits="userSpaceOnUse">
<stop stop-color="#0B78E5"/>
<stop offset="1" stop-color="#2844CC"/>
</linearGradient>
<linearGradient id="paint2_linear_12059_93026" x1="21.9918" y1="17.5929" x2="48.3446" y2="17.5929" gradientUnits="userSpaceOnUse">
<stop stop-color="#0B78E5"/>
<stop offset="1" stop-color="#2844CC"/>
</linearGradient>
<linearGradient id="paint3_linear_12059_93026" x1="19.0842" y1="-0.990737" x2="19.0842" y2="32.695" gradientUnits="userSpaceOnUse">
<stop stop-color="#00EFFE"/>
<stop offset="0.9992" stop-color="#00CAFA"/>
</linearGradient>
</defs>
</svg>
