<svg width="200" height="56" viewBox="0 0 200 56" fill="none" xmlns="http://www.w3.org/2000/svg">
<path d="M80.5908 13.8719V20.8448H76.402V26.7391H80.5908V35.3925C80.5908 37.1232 81.3433 38.7536 82.7479 39.9575L83.6508 40.7602C85.4568 42.3654 87.8647 43.2433 90.4231 43.2433H94.2858V37.3239H89.5452C88.2409 37.3239 87.1624 36.3958 87.1624 35.2922V26.7391H94.2858V20.8448H87.1624V13.8719H80.5908Z" fill="#242E42"/>
<path fill-rule="evenodd" clip-rule="evenodd" d="M134.994 19.5656C127.971 19.5656 122.253 24.858 122.253 31.3794C122.253 37.9008 127.946 43.1932 134.994 43.1932C140.186 43.1932 143.397 41.7885 145.303 39.5562L140.738 35.3675C139.785 36.747 138.004 37.65 135.02 37.65C132.311 37.65 130.003 36.1701 128.924 34.0632H147.561C147.686 33.2104 147.736 32.3074 147.736 31.3794C147.711 24.883 142.017 19.5656 134.994 19.5656ZM128.924 28.6454C130.028 26.5636 132.311 25.1088 134.994 25.1088C137.653 25.1088 139.961 26.5385 141.064 28.6454H128.924Z" fill="#242E42"/>
<path d="M182.877 35.2922C182.877 36.3958 183.93 37.3239 185.259 37.3239H190V43.2433H186.137C183.579 43.2433 181.171 42.3654 179.365 40.7602L178.462 39.9575C177.083 38.7536 176.33 37.1232 176.33 35.3925V13.8719H182.877V35.2922Z" fill="#242E42"/>
<path d="M124.159 40.8856C121.5 37.0731 117.888 33.6619 113.599 30.953C118.34 26.2626 121.5 20.594 122.779 14.4989L122.88 13.897H116.283C114.653 21.0454 109.762 27.4665 102.864 31.6302V13.8719H96.3174V43.2182H102.864V38.4024C104.845 37.4744 106.752 36.3457 108.708 34.9912C112.546 37.1985 115.706 39.9575 118.089 43.2182H125.689C125.665 43.2182 125.458 42.8907 125.183 42.455C124.874 41.9646 124.478 41.3371 124.159 40.8856Z" fill="#242E42"/>
<path fill-rule="evenodd" clip-rule="evenodd" d="M148.865 31.3794C148.865 24.858 154.584 19.5656 161.607 19.5656C168.63 19.5656 174.349 24.883 174.349 31.3794C174.349 32.3074 174.298 33.2104 174.173 34.0632H155.537C156.615 36.1701 158.923 37.65 161.632 37.65C164.617 37.65 166.398 36.747 167.351 35.3675L171.916 39.5562C170.009 41.7885 166.799 43.1932 161.607 43.1932C154.559 43.1932 148.865 37.9008 148.865 31.3794ZM161.607 25.1088C158.923 25.1088 156.64 26.5636 155.537 28.6454H167.677C166.573 26.5385 164.266 25.1088 161.607 25.1088Z" fill="#242E42"/>
<path d="M21.2428 9L10 28.4875H29.7374L41.0052 9H21.2428Z" fill="url(#paint0_linear_11670_92619)"/>
<path d="M47.1263 9L35.8585 28.4875H55.5959L66.8637 9H47.1263Z" fill="url(#paint1_linear_11670_92619)"/>
<path d="M66.8137 47.9002L45.7272 11.3985L35.8585 28.4876L35.9085 28.5875L47.1263 47.9751H66.8637L66.8137 47.9002Z" fill="url(#paint2_linear_11670_92619)"/>
<path d="M23.8911 47.9751V9H41.0052L29.7374 28.4875H35.8585L41.0052 19.5864V47.9751H23.8911Z" fill="url(#paint3_linear_11670_92619)"/>
<defs>
<linearGradient id="paint0_linear_11670_92619" x1="11.2881" y1="18.748" x2="29.2834" y2="18.748" gradientUnits="userSpaceOnUse">
<stop stop-color="#00EFFE"/>
<stop offset="0.9992" stop-color="#00CAFA"/>
</linearGradient>
<linearGradient id="paint1_linear_11670_92619" x1="57.2754" y1="7.38027" x2="49.6969" y2="24.3417" gradientUnits="userSpaceOnUse">
<stop stop-color="#0B78E5"/>
<stop offset="1" stop-color="#2844CC"/>
</linearGradient>
<linearGradient id="paint2_linear_11670_92619" x1="35.864" y1="29.6906" x2="66.8568" y2="29.6906" gradientUnits="userSpaceOnUse">
<stop stop-color="#0B78E5"/>
<stop offset="1" stop-color="#2844CC"/>
</linearGradient>
<linearGradient id="paint3_linear_11670_92619" x1="32.4444" y1="7.83482" x2="32.4444" y2="47.4518" gradientUnits="userSpaceOnUse">
<stop stop-color="#00EFFE"/>
<stop offset="0.9992" stop-color="#00CAFA"/>
</linearGradient>
</defs>
</svg>
