<svg width="200" height="56" viewBox="0 0 200 56" fill="none" xmlns="http://www.w3.org/2000/svg">
<path d="M78.4301 25.9403H65.5161V37.6663H67.8261V36.9403H77.1981V37.6883H79.4641V31.7043H67.8261V30.6703H78.4301V25.9403ZM67.8261 34.9163V33.5083H77.1981V34.9163H67.8261ZM67.8261 28.8663V27.7663H76.2081V28.8663H67.8261ZM81.4661 23.1463H73.1941C73.0621 22.7503 72.9081 22.3763 72.7761 22.0243L73.7881 22.6623C74.2281 22.0463 74.6461 21.3863 75.0201 20.6823H76.0101C76.4721 21.3423 76.8681 22.0243 77.2201 22.7283L79.2441 21.9583C79.0241 21.5623 78.7601 21.1223 78.4521 20.6823H81.9281V18.6803H75.8781C75.9881 18.3723 76.0981 18.0423 76.2081 17.7123L74.0301 17.2283C73.5901 18.7243 72.8641 20.1323 71.8521 21.4523L72.2921 21.7383L70.3561 22.0683C70.5321 22.3983 70.7081 22.7503 70.8841 23.1463H62.4581V27.4583H64.7021V25.0823H79.2221V27.4583H81.4661V23.1463ZM65.5601 20.6823H66.3741C66.8581 21.4083 67.2761 22.1563 67.6281 22.9483L69.7181 22.1343C69.4761 21.6723 69.1681 21.1883 68.8161 20.6823H71.9401V18.6803H66.5281C66.6601 18.3503 66.7701 18.0203 66.9021 17.6903L64.6801 17.2063C64.1741 18.7463 63.2941 20.2203 62.0181 21.5843L64.0201 22.8603C64.5921 22.2003 65.0981 21.4743 65.5601 20.6823ZM92.0921 17.9983V28.6683H96.4701V30.6923H91.8721V32.8263H96.4701V34.8723H91.2121V37.0943H104.016V34.8723H98.7581V32.8263H103.312V30.6923H98.7581V28.6683H103.092V17.9983H92.0921ZM100.892 26.6443H98.7581V24.3123H100.892V26.6443ZM96.4701 26.6443H94.2921V24.3123H96.4701V26.6443ZM94.2921 22.3543V20.0223H96.4701V22.3543H94.2921ZM98.7581 20.0223H100.892V22.3543H98.7581V20.0223ZM84.3041 25.2143V27.4143H86.3941V32.2323C85.5141 32.4523 84.6341 32.6503 83.7541 32.8043L84.3261 35.0043C86.7021 34.3883 88.9241 33.6623 91.0141 32.7823V30.5823C90.2661 30.9123 89.4961 31.2203 88.7261 31.5063V27.4143H90.8601V25.2143H88.7261V20.7263H91.1241V18.5483H83.9741V20.7263H86.3941V25.2143H84.3041ZM113.85 18.0203V20.1323H123.904V18.0203H113.85ZM112.398 23.2123V25.3463H116.424C114.906 29.1523 113.718 31.1763 112.882 31.4183L113.498 33.3983C117.37 33.0903 120.516 32.6723 122.914 32.1443C123.134 32.7383 123.354 33.3323 123.552 33.9483L125.598 33.4203C124.696 30.8243 123.662 28.5363 122.474 26.5123L120.626 27.1283C121.154 28.1183 121.66 29.1303 122.1 30.1643C120.428 30.5383 118.382 30.8683 115.94 31.1323C116.842 29.7243 117.766 27.8103 118.734 25.3463H125.466V23.2123H112.398ZM108.042 17.4923L106.458 18.9883C108.042 20.2643 109.252 21.4523 110.088 22.5523L111.738 20.9243C110.726 19.7803 109.494 18.6363 108.042 17.4923ZM120.56 37.3143H125.598L126.148 35.0483C125.554 35.0923 124.696 35.1363 123.574 35.1803C122.43 35.1803 121.33 35.2023 120.23 35.2023C118.558 35.2023 117.084 35.1803 115.83 35.1583C114.554 35.1143 113.608 34.9383 112.97 34.6083C112.464 34.3223 111.958 33.8823 111.474 33.3103L111.254 33.0903V24.7083H106.216V26.8203H109.12V32.8483C108.24 33.3323 107.272 34.4543 106.172 36.2143L107.866 37.7763C108.966 35.7963 109.714 34.8283 110.132 34.8283C110.396 34.8283 110.66 35.0043 110.946 35.3783C111.584 36.1263 112.332 36.6323 113.212 36.8963C114.136 37.1163 115.28 37.2483 116.688 37.2703C118.074 37.2923 119.372 37.3143 120.56 37.3143ZM135.63 32.8263C133.43 33.6183 130.878 34.2343 127.952 34.6963L128.26 36.9843C131.01 36.4783 133.474 35.8183 135.63 35.0263V32.8263ZM131.208 17.1843C130.526 19.5383 129.734 21.6943 128.832 23.6523C128.546 24.0483 128.238 24.3343 127.886 24.4883L128.436 26.5783C129.448 26.4243 130.438 26.2703 131.384 26.1383C130.526 27.8323 129.822 29.0203 129.25 29.6803C128.964 29.9443 128.612 30.1643 128.216 30.3403L128.81 32.4083C130.79 32.1003 132.902 31.4843 135.146 30.5603V28.4483C133.914 28.9983 132.682 29.4383 131.494 29.7683C132.594 28.1403 133.958 25.6543 135.542 22.2883L133.54 21.5183C133.144 22.4203 132.748 23.2563 132.396 24.0483L130.548 24.3123C131.516 22.6843 132.484 20.6163 133.408 18.0643L131.208 17.1843ZM139.15 27.4143H142.384V29.6583H139.15V27.4143ZM139.15 31.7483H142.384V34.3663H139.15V31.7483ZM139.15 36.5003H148.192V34.3663H144.584V31.7483H147.378V29.6583H144.584V27.4143H147.378V25.3023H144.584V22.9923H147.752V20.8363H144.672C144.386 19.7363 144.012 18.5483 143.55 17.2503L141.328 17.8443C141.768 18.8123 142.142 19.8243 142.472 20.8363H139.326C139.678 19.8683 140.008 18.8563 140.272 17.8223L138.094 17.3823C137.434 20.3303 136.29 23.0363 134.662 25.5003L135.366 27.8323C135.916 27.1063 136.444 26.3583 136.95 25.5663V37.6223H139.15V36.5003ZM142.384 22.9923V25.3023H139.15V22.9923H142.384ZM151.008 18.0863V20.3303H158.708V27.8983H150.128V30.1203H158.708V37.6443H161.04V30.1203H169.796V27.8983H161.04V20.3303H168.982V18.0863H151.008ZM154.242 21.2103L152.108 22.2443C152.9 23.6963 153.67 25.3463 154.374 27.1723L156.53 26.1163C155.782 24.3123 155.034 22.6843 154.242 21.2103ZM165.88 21.1223C165.286 22.7283 164.494 24.3563 163.482 25.9843L165.55 27.0403C166.54 25.4563 167.354 23.8063 167.97 22.1123L165.88 21.1223ZM189.552 28.2723H174.372V37.7103H176.704V36.8743H187.22V37.7103H189.552V28.2723ZM176.704 34.6743V30.4723H187.22V34.6743H176.704ZM172.986 26.3143C178.596 26.1163 183.7 25.8083 188.276 25.3903C188.782 26.2263 189.288 27.0843 189.772 27.9863L192.016 26.8863C190.432 24.2243 188.782 21.8043 187.022 19.6043L184.932 20.5943C185.614 21.4523 186.296 22.3763 186.956 23.3443C183.568 23.6523 180.092 23.8943 176.528 24.0703C178.332 22.3983 180.07 20.3743 181.764 18.0423L179.388 17.2063C176.396 21.5843 174.108 23.8943 172.568 24.1363L172.986 26.3143Z" fill="#242E42"/>
<path d="M17.5601 11L8 27.5708H24.7832L34.3645 11H17.5601Z" fill="url(#paint0_linear_11670_92654)"/>
<path d="M19.8119 44.1416V27.5708V11H34.3644V44.1416H19.8119Z" fill="url(#paint1_linear_11670_92654)"/>
<path d="M39.5694 11L29.9881 27.5708H46.7713L56.3526 11H39.5694Z" fill="url(#paint2_linear_11670_92654)"/>
<path d="M56.3101 44.0778L38.3797 13.0395L29.9881 27.5708L30.0306 27.6558L39.5694 44.1416H56.3526L56.3101 44.0778Z" fill="url(#paint3_linear_11670_92654)"/>
<path d="M34.3645 11L24.7832 27.5708H29.9881L39.5694 11H34.3645Z" fill="#F9FBFD"/>
<defs>
<linearGradient id="paint0_linear_11670_92654" x1="9.09529" y1="19.289" x2="24.3972" y2="19.289" gradientUnits="userSpaceOnUse">
<stop stop-color="#00EFFE"/>
<stop offset="0.9992" stop-color="#00CAFA"/>
</linearGradient>
<linearGradient id="paint1_linear_11670_92654" x1="27.085" y1="10.0092" x2="27.085" y2="43.6966" gradientUnits="userSpaceOnUse">
<stop stop-color="#00EFFE"/>
<stop offset="0.9992" stop-color="#00CAFA"/>
</linearGradient>
<linearGradient id="paint2_linear_11670_92654" x1="56.6767" y1="11" x2="39.0702" y2="22.9102" gradientUnits="userSpaceOnUse">
<stop stop-color="#1E8EFF"/>
<stop offset="1" stop-color="#2844CC"/>
</linearGradient>
<linearGradient id="paint3_linear_11670_92654" x1="29.9928" y1="28.5937" x2="56.3468" y2="28.5937" gradientUnits="userSpaceOnUse">
<stop stop-color="#1E8EFF"/>
<stop offset="1" stop-color="#2844CC"/>
</linearGradient>
</defs>
</svg>
