<svg width="200" height="56" viewBox="0 0 200 56" fill="none" xmlns="http://www.w3.org/2000/svg">
<path d="M134.995 18.5847C127.972 18.5847 122.253 23.8771 122.253 30.3984C122.253 36.9198 127.947 42.2122 134.995 42.2122C140.187 42.2122 143.397 40.8076 145.303 38.5753L140.738 34.3865C139.785 35.766 138.005 36.669 135.02 36.669C132.311 36.669 130.003 35.1892 128.925 33.0822H141.391H147.235H147.561C147.686 32.2295 147.736 31.3265 147.736 30.3984C147.711 23.9021 142.018 18.5847 134.995 18.5847ZM128.925 27.6645C130.028 25.5827 132.311 24.1279 134.995 24.1279C137.653 24.1279 139.961 25.5576 141.065 27.6645H128.925Z" fill="white"/>
<path d="M87.1377 12.891H80.5913V19.8639H76.4025V25.7582H80.5913V34.4116C80.5913 36.1423 81.3437 37.7726 82.7483 38.9766L83.6513 39.7792C85.4572 41.3845 87.8651 42.2623 90.4235 42.2623H94.2862V36.3429H89.5456C88.2413 36.3429 87.1628 35.4149 87.1628 34.3113V25.7582H94.2862V19.8639H87.1628V12.891H87.1377Z" fill="white"/>
<path d="M185.259 36.3429C183.93 36.3429 182.877 35.4149 182.877 34.3113V12.891H176.33V34.4116C176.33 36.1423 177.083 37.7726 178.462 38.9766L179.365 39.7792C181.171 41.3845 183.579 42.2623 186.137 42.2623H190V36.3429H185.259Z" fill="white"/>
<path d="M124.159 39.9046C121.5 36.0921 117.889 32.6809 113.599 29.972C118.34 25.2817 121.5 19.6131 122.78 13.5181L122.88 12.9161H122.303H116.283C114.653 20.0646 109.762 26.4856 102.864 30.6493V12.891H96.3178V42.2373H102.864V37.4215C104.846 36.4934 106.752 35.3647 108.708 34.0103C112.546 36.2175 115.706 38.9766 118.089 42.2373H124.786H125.689C125.639 42.2373 124.761 40.7574 124.159 39.9046Z" fill="white"/>
<path d="M161.607 18.5847C154.584 18.5847 148.865 23.8771 148.865 30.3984C148.865 36.9198 154.559 42.2122 161.607 42.2122C166.799 42.2122 170.009 40.8076 171.916 38.5753L167.351 34.3865C166.398 35.766 164.617 36.669 161.632 36.669C158.923 36.669 156.616 35.1892 155.537 33.0822H168.003H173.847H174.173C174.298 32.2295 174.349 31.3265 174.349 30.3984C174.349 23.9021 168.63 18.5847 161.607 18.5847ZM155.537 27.6645C156.641 25.5827 158.923 24.1279 161.607 24.1279C164.266 24.1279 166.573 25.5576 167.677 27.6645H155.537Z" fill="white"/>
<path d="M21.2428 9L10 28.4875H29.7374L41.0052 9H21.2428Z" fill="url(#paint0_linear_11670_92628)"/>
<path d="M47.1263 9L35.8585 28.4875H55.5959L66.8637 9H47.1263Z" fill="url(#paint1_linear_11670_92628)"/>
<path d="M66.8137 47.9002L45.7272 11.3985L35.8585 28.4876L35.9085 28.5875L47.1263 47.9751H66.8637L66.8137 47.9002Z" fill="url(#paint2_linear_11670_92628)"/>
<path d="M23.8911 47.9751V9H41.0052L29.7374 28.4875H35.8585L41.0052 19.5864V47.9751H23.8911Z" fill="url(#paint3_linear_11670_92628)"/>
<defs>
<linearGradient id="paint0_linear_11670_92628" x1="11.2881" y1="18.748" x2="29.2834" y2="18.748" gradientUnits="userSpaceOnUse">
<stop stop-color="#00EFFE"/>
<stop offset="0.9992" stop-color="#00CAFA"/>
</linearGradient>
<linearGradient id="paint1_linear_11670_92628" x1="57.2754" y1="7.38027" x2="49.6969" y2="24.3417" gradientUnits="userSpaceOnUse">
<stop stop-color="#0B78E5"/>
<stop offset="1" stop-color="#2844CC"/>
</linearGradient>
<linearGradient id="paint2_linear_11670_92628" x1="35.864" y1="29.6906" x2="66.8568" y2="29.6906" gradientUnits="userSpaceOnUse">
<stop stop-color="#0B78E5"/>
<stop offset="1" stop-color="#2844CC"/>
</linearGradient>
<linearGradient id="paint3_linear_11670_92628" x1="32.4444" y1="7.83482" x2="32.4444" y2="47.4518" gradientUnits="userSpaceOnUse">
<stop stop-color="#00EFFE"/>
<stop offset="0.9992" stop-color="#00CAFA"/>
</linearGradient>
</defs>
</svg>
