<svg width="194" height="52" viewBox="0 0 194 52" fill="none" xmlns="http://www.w3.org/2000/svg">
<path d="M12 16.4816C12.0037 16.4816 12.0073 16.4809 12.0107 16.4795L18.4778 12.743C18.4792 12.7401 18.4799 12.737 18.4799 12.7338C18.4799 12.7307 18.4792 12.7276 18.4778 12.7247V5.25781C18.4794 5.25503 18.4803 5.25188 18.4803 5.24868C18.4803 5.24547 18.4794 5.24232 18.4778 5.23954L12.0107 1.5H11.9894L5.52221 5.23954C5.52023 5.24218 5.51916 5.24538 5.51916 5.24868C5.51916 5.25197 5.52023 5.25518 5.52221 5.25781V12.7247C5.5206 12.7275 5.51976 12.7306 5.51976 12.7338C5.51976 12.7371 5.5206 12.7402 5.52221 12.743L11.9894 16.4795C11.9927 16.4809 11.9964 16.4816 12 16.4816Z" fill="#00A971"/>
<path d="M1.5 18.2976H22.5V22.5H1.5V18.2976Z" fill="#00A971"/>
<path d="M40.766 3.168C40.298 5.796 39.506 7.83 38.39 9.234L39.758 10.404C40.352 9.684 40.874 8.784 41.324 7.722H42.08C41.414 10.908 40.208 13.23 38.48 14.706L39.686 16.11C41.648 14.346 42.998 11.538 43.754 7.722H44.654C44.312 10.242 43.826 12.258 43.196 13.788C42.458 15.444 41.36 16.92 39.884 18.252L41.054 19.746C42.674 18.234 43.916 16.506 44.744 14.598C45.428 12.906 45.95 10.602 46.328 7.722H46.976C46.94 12.816 46.886 15.786 46.778 16.632C46.634 17.622 46.076 18.126 45.122 18.126C44.69 18.126 44.204 18.09 43.628 18.036L44.06 19.71C44.708 19.764 45.176 19.8 45.428 19.8C47.264 19.8 48.29 19.026 48.506 17.478C48.686 16.038 48.776 12.186 48.776 5.922H41.972C42.17 5.202 42.35 4.446 42.53 3.636L40.766 3.168ZM34.718 8.586H35.708V12.888C34.736 13.212 33.764 13.482 32.774 13.68L33.224 15.498C34.07 15.246 34.898 14.958 35.708 14.67V19.872H37.544V13.932C37.922 13.752 38.3 13.59 38.696 13.41V11.646C38.3 11.826 37.922 12.006 37.544 12.186V8.586H38.768V6.786H37.544V3.24H35.708V6.786H34.934C34.988 6.102 35.024 5.418 35.06 4.734L33.386 4.608C33.314 6.696 33.044 8.694 32.558 10.584L34.214 11.052C34.412 10.26 34.574 9.432 34.718 8.586ZM58.208 6.948V8.712H61.52V9.378C61.52 10.026 61.484 10.638 61.412 11.25H57.92V13.05H61.142C60.584 15.534 59.396 17.352 57.578 18.468L58.712 19.998C60.584 18.774 61.88 16.92 62.618 14.454C63.194 16.254 64.364 18.072 66.128 19.908L67.424 18.504C65.444 16.668 64.202 14.85 63.716 13.05H67.136V11.25H63.23C63.302 10.53 63.338 9.756 63.338 8.946V8.712H66.812V6.948H64.526C65.03 6.102 65.534 5.076 66.038 3.888L64.292 3.222C63.842 4.554 63.302 5.796 62.672 6.948H60.584L61.862 6.048C61.502 5.256 60.98 4.338 60.314 3.294L58.874 4.212C59.522 5.202 60.044 6.12 60.44 6.948H58.208ZM50.756 3.78V5.508H51.656V16.02L50.666 16.164L51.116 17.946C52.556 17.658 53.942 17.352 55.292 17.028V19.89H57.11V16.524C57.434 16.434 57.776 16.344 58.1 16.236V14.418C57.776 14.526 57.452 14.634 57.11 14.742V5.508H58.064V3.78H50.756ZM53.438 15.696V13.068H55.292V15.264C54.68 15.408 54.068 15.552 53.438 15.696ZM53.438 11.376V9.324H55.292V11.376H53.438ZM53.438 7.632V5.508H55.292V7.632H53.438ZM76.226 15.696L77.468 14.454C76.82 13.446 76.19 12.528 75.578 11.7C75.992 10.224 76.334 8.604 76.604 6.804L74.876 6.498C74.714 7.686 74.498 8.838 74.246 9.918C73.634 9.126 73.058 8.442 72.518 7.866L71.456 8.892V5.598H82.544V15.174C81.896 14.094 81.266 13.086 80.654 12.168C81.158 10.584 81.572 8.802 81.878 6.858L80.114 6.552C79.916 7.866 79.664 9.108 79.358 10.278C78.746 9.414 78.17 8.694 77.648 8.082L76.496 9.198C77.27 10.206 78.026 11.232 78.746 12.294C78.134 13.986 77.378 15.462 76.478 16.758L77.666 18.234C78.53 17.082 79.286 15.732 79.934 14.148C80.438 14.94 80.906 15.75 81.374 16.578L82.544 15.408V17.442C82.544 17.838 82.328 18.036 81.914 18.036L80.258 17.946L80.726 19.764H82.526C83.768 19.764 84.398 19.134 84.398 17.874V3.798H69.602V19.89H71.456V9.09C72.212 10.008 72.968 10.962 73.688 11.934C73.148 13.59 72.464 15.066 71.636 16.326L72.824 17.802C73.634 16.65 74.336 15.282 74.93 13.698C75.362 14.346 75.794 15.012 76.226 15.696ZM88.52 3.348L87.206 4.59C88.502 5.634 89.492 6.606 90.194 7.506L91.544 6.174C90.716 5.238 89.708 4.284 88.52 3.348ZM98.762 19.584H102.884L103.352 17.73C102.848 17.766 102.146 17.802 101.228 17.838C100.292 17.838 99.392 17.856 98.492 17.856C97.124 17.856 95.918 17.838 94.892 17.82C93.848 17.784 93.074 17.64 92.552 17.37C92.138 17.136 91.724 16.776 91.328 16.308L91.148 16.128V9.27H87.026V10.998H89.402V15.93C88.682 16.326 87.89 17.244 86.99 18.684L88.376 19.98C89.276 18.36 89.888 17.55 90.23 17.55C90.446 17.55 90.662 17.694 90.896 18C91.418 18.612 92.03 19.026 92.75 19.242C93.506 19.422 94.442 19.53 95.594 19.548C96.728 19.566 97.79 19.584 98.762 19.584ZM93.308 4.05V5.778H101.804V4.05H93.308ZM92.156 8.1V9.882H95.738C94.406 13.014 93.38 14.688 92.66 14.904L93.128 16.542C96.242 16.218 98.762 15.804 100.706 15.3C100.886 15.786 101.048 16.29 101.228 16.83L102.902 16.416C102.182 14.292 101.354 12.42 100.418 10.764L98.888 11.268C99.302 12.042 99.698 12.852 100.058 13.698C98.726 14.04 97.124 14.328 95.234 14.58C96.026 13.428 96.818 11.862 97.61 9.882H103.118V8.1H92.156ZM111.092 15.912C109.292 16.56 107.204 17.064 104.81 17.442L105.062 19.314C107.312 18.9 109.328 18.36 111.092 17.712V15.912ZM107.474 3.114C106.916 5.04 106.268 6.804 105.53 8.406C105.296 8.73 105.044 8.964 104.756 9.09L105.206 10.8C106.034 10.674 106.844 10.548 107.618 10.44C106.916 11.826 106.34 12.798 105.872 13.338C105.638 13.554 105.35 13.734 105.026 13.878L105.512 15.57C107.132 15.318 108.86 14.814 110.696 14.058V12.33C109.688 12.78 108.68 13.14 107.708 13.41C108.608 12.078 109.724 10.044 111.02 7.29L109.382 6.66C109.058 7.398 108.734 8.082 108.446 8.73L106.934 8.946C107.726 7.614 108.518 5.922 109.274 3.834L107.474 3.114ZM113.972 11.484H116.618V13.32H113.972V11.484ZM113.972 15.03H116.618V17.172H113.972V15.03ZM113.972 18.918H121.37V17.172H118.418V15.03H120.704V13.32H118.418V11.484H120.704V9.756H118.418V7.866H121.01V6.102H118.49C118.256 5.202 117.95 4.23 117.572 3.168L115.754 3.654C116.114 4.446 116.42 5.274 116.69 6.102H114.116C114.404 5.31 114.674 4.482 114.89 3.636L113.108 3.276C112.568 5.688 111.632 7.902 110.3 9.918L110.876 11.826C111.326 11.232 111.758 10.62 112.172 9.972V19.836H113.972V18.918ZM116.618 7.866V9.756H113.972V7.866H116.618ZM136.292 10.278H125.726V19.872H127.616V19.278H135.284V19.89H137.138V14.994H127.616V14.148H136.292V10.278ZM127.616 17.622V16.47H135.284V17.622H127.616ZM127.616 12.672V11.772H134.474V12.672H127.616ZM138.776 7.992H132.008C131.9 7.668 131.774 7.362 131.666 7.074L132.494 7.596C132.854 7.092 133.196 6.552 133.502 5.976H134.312C134.69 6.516 135.014 7.074 135.302 7.65L136.958 7.02C136.778 6.696 136.562 6.336 136.31 5.976H139.154V4.338H134.204C134.294 4.086 134.384 3.816 134.474 3.546L132.692 3.15C132.332 4.374 131.738 5.526 130.91 6.606L131.27 6.84L129.686 7.11C129.83 7.38 129.974 7.668 130.118 7.992H123.224V11.52H125.06V9.576H136.94V11.52H138.776V7.992ZM125.762 5.976H126.428C126.824 6.57 127.166 7.182 127.454 7.83L129.164 7.164C128.966 6.786 128.714 6.39 128.426 5.976H130.982V4.338H126.554C126.662 4.068 126.752 3.798 126.86 3.528L125.042 3.132C124.628 4.392 123.908 5.598 122.864 6.714L124.502 7.758C124.97 7.218 125.384 6.624 125.762 5.976ZM147.272 3.78V12.51H150.962V14.166H147.074V15.912H150.962V17.586H146.39V19.404H157.316V17.586H152.834V15.912H156.704V14.166H152.834V12.51H156.488V3.78H147.272ZM154.688 10.854H152.834V8.946H154.688V10.854ZM150.962 10.854H149.072V8.946H150.962V10.854ZM149.072 7.344V5.436H150.962V7.344H149.072ZM152.834 5.436H154.688V7.344H152.834V5.436ZM141.098 9.684V11.484H142.808V15.444C142.106 15.624 141.386 15.768 140.648 15.894L141.116 17.694C142.988 17.244 144.752 16.704 146.408 16.056V14.238C145.85 14.472 145.292 14.688 144.716 14.886V11.484H146.462V9.684H144.716V6.012H146.678V4.23H140.828V6.012H142.808V9.684H141.098ZM159.674 3.852V5.688H165.974V11.88H158.954V13.698H165.974V19.854H167.882V13.698H175.046V11.88H167.882V5.688H174.38V3.852H159.674ZM162.32 6.408L160.574 7.254C161.222 8.442 161.852 9.792 162.428 11.286L164.192 10.422C163.58 8.946 162.968 7.614 162.32 6.408ZM171.842 6.336C171.356 7.65 170.708 8.982 169.88 10.314L171.572 11.178C172.382 9.882 173.048 8.532 173.552 7.146L171.842 6.336ZM191.21 12.186H178.79V19.908H180.698V19.224H189.302V19.908H191.21V12.186ZM180.698 17.424V13.986H189.302V17.424H180.698ZM177.656 10.584C182.246 10.422 186.422 10.17 190.166 9.828C190.58 10.512 190.994 11.214 191.39 11.952L193.226 11.052C191.93 8.874 190.58 6.894 189.14 5.094L187.43 5.904C187.988 6.606 188.546 7.362 189.086 8.154C186.314 8.406 183.47 8.604 180.554 8.748C182.03 7.38 183.452 5.724 184.838 3.816L182.894 3.132C180.446 6.714 178.574 8.604 177.314 8.802L177.656 10.584Z" fill="white"/>
<path d="M4.66406 42.8457L6.63281 44.6328L5.71875 45.4883L3.78516 43.7188L4.66406 42.8457ZM6.5625 39.0371V40.4316C6.5625 41.041 6.49219 41.5762 6.35156 42.0371C6.21484 42.498 6.01562 42.8828 5.75391 43.1914C5.49219 43.5 5.17773 43.7324 4.81055 43.8887C4.44727 44.041 4.03906 44.1172 3.58594 44.1172C3.14453 44.1172 2.74023 44.041 2.37305 43.8887C2.00977 43.7324 1.69531 43.5 1.42969 43.1914C1.16797 42.8828 0.964844 42.498 0.820312 42.0371C0.675781 41.5762 0.603516 41.041 0.603516 40.4316V39.0371C0.603516 38.4277 0.673828 37.8945 0.814453 37.4375C0.958984 36.9766 1.16211 36.5918 1.42383 36.2832C1.68945 35.9746 2.00391 35.7422 2.36719 35.5859C2.73438 35.4297 3.13867 35.3516 3.58008 35.3516C4.0293 35.3516 4.4375 35.4297 4.80469 35.5859C5.17188 35.7422 5.48633 35.9746 5.74805 36.2832C6.00977 36.5918 6.21094 36.9766 6.35156 37.4375C6.49219 37.8945 6.5625 38.4277 6.5625 39.0371ZM5.14453 40.4316V39.0254C5.14453 38.5918 5.11133 38.2207 5.04492 37.9121C4.97852 37.5996 4.87695 37.3457 4.74023 37.1504C4.60742 36.9512 4.44336 36.8047 4.24805 36.7109C4.05664 36.6133 3.83398 36.5645 3.58008 36.5645C3.33398 36.5645 3.11328 36.6133 2.91797 36.7109C2.72656 36.8047 2.56445 36.9512 2.43164 37.1504C2.29883 37.3457 2.19727 37.5996 2.12695 37.9121C2.05664 38.2207 2.02148 38.5918 2.02148 39.0254V40.4316C2.02148 40.8691 2.05664 41.2441 2.12695 41.5566C2.19727 41.8691 2.29883 42.125 2.43164 42.3242C2.56836 42.5234 2.73242 42.6719 2.92383 42.7695C3.11914 42.8633 3.33984 42.9102 3.58594 42.9102C3.83984 42.9102 4.06445 42.8633 4.25977 42.7695C4.45508 42.6719 4.61719 42.5234 4.74609 42.3242C4.87891 42.125 4.97852 41.8691 5.04492 41.5566C5.11133 41.2441 5.14453 40.8691 5.14453 40.4316ZM10.0633 37.6602V44H8.69805V37.6602H10.0633ZM8.62773 36.002C8.62773 35.7832 8.69414 35.6016 8.82695 35.457C8.95977 35.3086 9.14531 35.2344 9.38359 35.2344C9.62187 35.2344 9.80742 35.3066 9.94023 35.4512C10.073 35.5957 10.1395 35.7773 10.1395 35.9961C10.1395 36.2109 10.073 36.3906 9.94023 36.5352C9.80742 36.6797 9.62187 36.752 9.38359 36.752C9.14531 36.752 8.95977 36.6797 8.82695 36.5352C8.69414 36.3906 8.62773 36.2129 8.62773 36.002ZM13.5699 39.0137V44H12.2047V37.6602H13.4879L13.5699 39.0137ZM13.3238 40.6016H12.8902C12.8863 40.1445 12.9352 39.7285 13.0367 39.3535C13.1383 38.9785 13.2828 38.6562 13.4703 38.3867C13.6617 38.1172 13.8883 37.9102 14.15 37.7656C14.4156 37.6172 14.7105 37.543 15.0348 37.543C15.2848 37.543 15.5133 37.5859 15.7203 37.6719C15.9312 37.7539 16.1109 37.8887 16.2594 38.0762C16.4078 38.2637 16.5211 38.5078 16.5992 38.8086C16.6812 39.1094 16.7223 39.4766 16.7223 39.9102V44H15.357V39.8984C15.357 39.6016 15.3238 39.3672 15.2574 39.1953C15.1949 39.0195 15.1012 38.8945 14.9762 38.8203C14.8512 38.7422 14.693 38.7031 14.5016 38.7031C14.3258 38.7031 14.1637 38.7539 14.0152 38.8555C13.8707 38.9531 13.7457 39.0898 13.6402 39.2656C13.5387 39.4375 13.4605 39.6387 13.4059 39.8691C13.3512 40.0957 13.3238 40.3398 13.3238 40.6016ZM22.1742 37.6602H23.4105V44.0234C23.4105 44.5938 23.3051 45.0605 23.0941 45.4238C22.8871 45.791 22.598 46.0625 22.227 46.2383C21.8559 46.4141 21.4262 46.502 20.9379 46.502C20.7582 46.502 20.5453 46.4727 20.2992 46.4141C20.0531 46.3555 19.8129 46.2695 19.5785 46.1562C19.3441 46.043 19.1488 45.9023 18.9926 45.7344L19.4906 44.7852C19.6742 44.9727 19.891 45.1172 20.141 45.2188C20.391 45.3242 20.6313 45.377 20.8617 45.377C21.1117 45.377 21.3227 45.334 21.4945 45.248C21.6703 45.166 21.8051 45.0273 21.8988 44.832C21.9926 44.6406 22.0395 44.3809 22.0395 44.0527V39.0957L22.1742 37.6602ZM18.5883 41.0879V40.5898C18.5883 40.0703 18.6371 39.6211 18.7348 39.2422C18.8324 38.8594 18.973 38.541 19.1566 38.2871C19.3402 38.0332 19.5648 37.8457 19.8305 37.7246C20.0961 37.6035 20.393 37.543 20.7211 37.543C21.0609 37.543 21.348 37.6152 21.5824 37.7598C21.8207 37.9004 22.0141 38.1016 22.1625 38.3633C22.3148 38.625 22.434 38.9375 22.5199 39.3008C22.6059 39.6602 22.6684 40.0625 22.7074 40.5078V41.1992C22.6684 41.6289 22.602 42.0234 22.5082 42.3828C22.4145 42.7383 22.2875 43.0449 22.1273 43.3027C21.9711 43.5605 21.7758 43.7617 21.5414 43.9062C21.3109 44.0469 21.0336 44.1172 20.7094 44.1172C20.3852 44.1172 20.0922 44.0527 19.8305 43.9238C19.5688 43.7949 19.3441 43.6035 19.1566 43.3496C18.973 43.0957 18.8324 42.7812 18.7348 42.4062C18.6371 42.0273 18.5883 41.5879 18.5883 41.0879ZM19.9535 40.5898V41.0879C19.9535 41.4121 19.975 41.6914 20.018 41.9258C20.0648 42.1602 20.1332 42.3535 20.223 42.5059C20.3129 42.6543 20.4301 42.7656 20.5746 42.8398C20.7191 42.9102 20.891 42.9453 21.0902 42.9453C21.352 42.9453 21.5629 42.8828 21.723 42.7578C21.8871 42.6328 22.0121 42.4648 22.098 42.2539C22.1879 42.0391 22.2504 41.8008 22.2855 41.5391V40.1738C22.266 39.9668 22.227 39.7754 22.1684 39.5996C22.1137 39.4199 22.0375 39.2637 21.9398 39.1309C21.8461 38.998 21.7289 38.8945 21.5883 38.8203C21.4516 38.7422 21.2895 38.7031 21.102 38.7031C20.9066 38.7031 20.7348 38.7422 20.5863 38.8203C20.4418 38.8945 20.3227 39.0098 20.2289 39.166C20.1352 39.3184 20.0648 39.5137 20.018 39.752C19.975 39.9863 19.9535 40.2656 19.9535 40.5898ZM29.7531 41.2168H31.1711C31.1437 41.834 31.0187 42.3594 30.7961 42.793C30.5734 43.2227 30.2531 43.5508 29.8352 43.7773C29.4211 44.0039 28.9152 44.1172 28.3176 44.1172C27.8645 44.1172 27.4582 44.0352 27.0988 43.8711C26.7434 43.707 26.4406 43.4707 26.1906 43.1621C25.9406 42.8496 25.7492 42.4688 25.6164 42.0195C25.4875 41.5703 25.423 41.0605 25.423 40.4902V38.9785C25.423 38.4082 25.4895 37.8984 25.6223 37.4492C25.759 37 25.9543 36.6191 26.2082 36.3066C26.4621 35.9941 26.7707 35.7578 27.134 35.5977C27.5012 35.4336 27.9152 35.3516 28.3762 35.3516C28.966 35.3516 29.4621 35.4648 29.8645 35.6914C30.2668 35.918 30.5773 36.25 30.7961 36.6875C31.0148 37.125 31.1418 37.6582 31.177 38.2871H29.759C29.7395 37.8613 29.6809 37.5215 29.5832 37.2676C29.4895 37.0098 29.3449 36.8242 29.1496 36.7109C28.9582 36.5977 28.7004 36.541 28.3762 36.541C28.1066 36.541 27.8742 36.5918 27.6789 36.6934C27.4875 36.7949 27.3293 36.9473 27.2043 37.1504C27.0832 37.3496 26.9914 37.6016 26.9289 37.9062C26.8703 38.207 26.841 38.5605 26.841 38.9668V40.4902C26.841 40.8809 26.8664 41.2266 26.9172 41.5273C26.968 41.8281 27.05 42.084 27.1633 42.2949C27.2766 42.502 27.427 42.6602 27.6145 42.7695C27.802 42.875 28.0363 42.9277 28.3176 42.9277C28.6535 42.9277 28.9211 42.875 29.1203 42.7695C29.3234 42.6641 29.4738 42.4863 29.5715 42.2363C29.6691 41.9863 29.7297 41.6465 29.7531 41.2168ZM34.4609 35V44H33.0957V35H34.4609ZM36.4207 41.0879V40.5781C36.4207 40.0859 36.4813 39.6504 36.6023 39.2715C36.7234 38.8926 36.8953 38.5762 37.118 38.3223C37.3445 38.0645 37.6102 37.8711 37.9148 37.7422C38.2195 37.6094 38.5555 37.543 38.9227 37.543C39.2977 37.543 39.6375 37.6094 39.9422 37.7422C40.2508 37.8711 40.5164 38.0645 40.7391 38.3223C40.9656 38.5762 41.1395 38.8926 41.2605 39.2715C41.3816 39.6504 41.4422 40.0859 41.4422 40.5781V41.0879C41.4422 41.5801 41.3816 42.0156 41.2605 42.3945C41.1395 42.7734 40.9656 43.0918 40.7391 43.3496C40.5164 43.6035 40.2527 43.7949 39.948 43.9238C39.6434 44.0527 39.3055 44.1172 38.9344 44.1172C38.5672 44.1172 38.2293 44.0527 37.9207 43.9238C37.616 43.7949 37.3504 43.6035 37.1238 43.3496C36.8973 43.0918 36.7234 42.7734 36.6023 42.3945C36.4813 42.0156 36.4207 41.5801 36.4207 41.0879ZM37.7859 40.5781V41.0879C37.7859 41.4043 37.8133 41.6816 37.868 41.9199C37.9227 42.1543 38.0008 42.3496 38.1023 42.5059C38.2039 42.6621 38.325 42.7793 38.4656 42.8574C38.6063 42.9355 38.7625 42.9746 38.9344 42.9746C39.1258 42.9746 39.2918 42.9355 39.4324 42.8574C39.577 42.7793 39.6961 42.6621 39.7898 42.5059C39.8875 42.3496 39.9598 42.1543 40.0066 41.9199C40.0535 41.6816 40.077 41.4043 40.077 41.0879V40.5781C40.077 40.2656 40.0496 39.9922 39.9949 39.7578C39.9402 39.5195 39.8621 39.3223 39.7605 39.166C39.659 39.0059 39.5359 38.8867 39.3914 38.8086C39.2508 38.7305 39.0945 38.6914 38.9227 38.6914C38.7547 38.6914 38.6004 38.7305 38.4598 38.8086C38.323 38.8867 38.2039 39.0059 38.1023 39.166C38.0008 39.3223 37.9227 39.5195 37.868 39.7578C37.8133 39.9922 37.7859 40.2656 37.7859 40.5781ZM46.4488 42.5059V37.6602H47.8141V44H46.5309L46.4488 42.5059ZM46.6422 41.1816L47.0758 41.1699C47.0758 41.5918 47.0367 41.9844 46.9586 42.3477C46.8805 42.707 46.7594 43.0195 46.5953 43.2852C46.4352 43.5469 46.2262 43.752 45.9684 43.9004C45.7145 44.0449 45.4078 44.1172 45.0484 44.1172C44.7906 44.1172 44.5543 44.0723 44.3395 43.9824C44.1246 43.8926 43.9391 43.7539 43.7828 43.5664C43.6266 43.3789 43.5055 43.1348 43.4195 42.834C43.3336 42.5332 43.2906 42.1738 43.2906 41.7559V37.6602H44.6559V41.7676C44.6559 41.9941 44.6754 42.1836 44.7145 42.3359C44.7574 42.4844 44.8121 42.6055 44.8785 42.6992C44.9488 42.7891 45.027 42.8535 45.1129 42.8926C45.2027 42.9277 45.2984 42.9453 45.4 42.9453C45.7086 42.9453 45.9527 42.8691 46.1324 42.7168C46.316 42.5605 46.4469 42.3496 46.525 42.084C46.6031 41.8184 46.6422 41.5176 46.6422 41.1816ZM53.0668 42.6758V35H54.432V44L53.1957 44.0059L53.0668 42.6758ZM49.6625 41.0879V40.5898C49.6625 40.0703 49.7094 39.6211 49.8031 39.2422C49.8969 38.8594 50.0336 38.541 50.2133 38.2871C50.3969 38.0332 50.6176 37.8457 50.8754 37.7246C51.1332 37.6035 51.4242 37.543 51.7484 37.543C52.0648 37.543 52.3383 37.6152 52.5687 37.7598C52.7992 37.9004 52.9945 38.1016 53.1547 38.3633C53.3148 38.625 53.4418 38.9375 53.5355 39.3008C53.6332 39.6602 53.6996 40.0625 53.7348 40.5078V41.1992C53.6918 41.6289 53.6234 42.0234 53.5297 42.3828C53.4359 42.7383 53.309 43.0449 53.1488 43.3027C52.9887 43.5605 52.7914 43.7617 52.557 43.9062C52.3266 44.0469 52.0551 44.1172 51.7426 44.1172C51.4184 44.1172 51.1273 44.0527 50.8695 43.9238C50.6156 43.7949 50.3969 43.6035 50.2133 43.3496C50.0336 43.0957 49.8969 42.7812 49.8031 42.4062C49.7094 42.0273 49.6625 41.5879 49.6625 41.0879ZM51.0277 40.5898V41.0879C51.0277 41.4121 51.0473 41.6914 51.0863 41.9258C51.1254 42.1602 51.1879 42.3535 51.2738 42.5059C51.3598 42.6543 51.473 42.7656 51.6137 42.8398C51.7543 42.9102 51.9242 42.9453 52.1234 42.9453C52.3734 42.9453 52.5766 42.8828 52.7328 42.7578C52.893 42.6328 53.016 42.4648 53.102 42.2539C53.1918 42.0391 53.2543 41.8008 53.2895 41.5391V40.1738C53.2699 39.9668 53.2309 39.7754 53.1723 39.5996C53.1137 39.4199 53.0375 39.2637 52.9437 39.1309C52.85 38.998 52.7348 38.8945 52.598 38.8203C52.4652 38.7422 52.309 38.7031 52.1293 38.7031C51.9301 38.7031 51.7602 38.7422 51.6195 38.8203C51.4789 38.8945 51.3656 39.0098 51.2797 39.166C51.1937 39.3184 51.1293 39.5137 51.0863 39.752C51.0473 39.9863 51.0277 40.2656 51.0277 40.5898ZM61.5918 35.4688V44H60.168V35.4688H61.5918ZM63.6277 41.0879V40.5781C63.6277 40.0859 63.6883 39.6504 63.8094 39.2715C63.9305 38.8926 64.1023 38.5762 64.325 38.3223C64.5516 38.0645 64.8172 37.8711 65.1219 37.7422C65.4266 37.6094 65.7625 37.543 66.1297 37.543C66.5047 37.543 66.8445 37.6094 67.1492 37.7422C67.4578 37.8711 67.7234 38.0645 67.9461 38.3223C68.1727 38.5762 68.3465 38.8926 68.4676 39.2715C68.5887 39.6504 68.6492 40.0859 68.6492 40.5781V41.0879C68.6492 41.5801 68.5887 42.0156 68.4676 42.3945C68.3465 42.7734 68.1727 43.0918 67.9461 43.3496C67.7234 43.6035 67.4598 43.7949 67.1551 43.9238C66.8504 44.0527 66.5125 44.1172 66.1414 44.1172C65.7742 44.1172 65.4363 44.0527 65.1277 43.9238C64.823 43.7949 64.5574 43.6035 64.3309 43.3496C64.1043 43.0918 63.9305 42.7734 63.8094 42.3945C63.6883 42.0156 63.6277 41.5801 63.6277 41.0879ZM64.993 40.5781V41.0879C64.993 41.4043 65.0203 41.6816 65.075 41.9199C65.1297 42.1543 65.2078 42.3496 65.3094 42.5059C65.4109 42.6621 65.532 42.7793 65.6727 42.8574C65.8133 42.9355 65.9695 42.9746 66.1414 42.9746C66.3328 42.9746 66.4988 42.9355 66.6395 42.8574C66.784 42.7793 66.9031 42.6621 66.9969 42.5059C67.0945 42.3496 67.1668 42.1543 67.2137 41.9199C67.2605 41.6816 67.284 41.4043 67.284 41.0879V40.5781C67.284 40.2656 67.2566 39.9922 67.202 39.7578C67.1473 39.5195 67.0691 39.3223 66.9676 39.166C66.866 39.0059 66.743 38.8867 66.5984 38.8086C66.4578 38.7305 66.3016 38.6914 66.1297 38.6914C65.9617 38.6914 65.8074 38.7305 65.6668 38.8086C65.5301 38.8867 65.4109 39.0059 65.3094 39.166C65.2078 39.3223 65.1297 39.5195 65.075 39.7578C65.0203 39.9922 64.993 40.2656 64.993 40.5781ZM73.7379 35.4688V44H72.3199V35.4688H73.7379ZM75.9117 35.4688V36.6641H70.1695V35.4688H75.9117ZM86.6984 39.0371V40.4902C86.6984 41.0918 86.6281 41.6191 86.4875 42.0723C86.3508 42.5254 86.1516 42.9043 85.8898 43.209C85.632 43.5098 85.3195 43.7363 84.9523 43.8887C84.5891 44.041 84.1828 44.1172 83.7336 44.1172C83.2883 44.1172 82.882 44.041 82.5148 43.8887C82.1516 43.7363 81.8371 43.5098 81.5715 43.209C81.3098 42.9043 81.1066 42.5254 80.9621 42.0723C80.8215 41.6191 80.7512 41.0918 80.7512 40.4902V39.0371C80.7512 38.4277 80.8215 37.8945 80.9621 37.4375C81.1027 36.9766 81.3039 36.5918 81.5656 36.2832C81.8313 35.9746 82.1457 35.7422 82.509 35.5859C82.8762 35.4297 83.2805 35.3516 83.7219 35.3516C84.1711 35.3516 84.5773 35.4297 84.9406 35.5859C85.3078 35.7422 85.6223 35.9746 85.884 36.2832C86.1457 36.5918 86.3469 36.9766 86.4875 37.4375C86.6281 37.8945 86.6984 38.4277 86.6984 39.0371ZM85.2863 40.4902V39.0254C85.2863 38.5918 85.2512 38.2207 85.1809 37.9121C85.1145 37.5996 85.0148 37.3457 84.882 37.1504C84.7492 36.9512 84.5852 36.8047 84.3898 36.7109C84.1984 36.6133 83.9758 36.5645 83.7219 36.5645C83.4758 36.5645 83.2551 36.6133 83.0598 36.7109C82.8684 36.8047 82.7043 36.9512 82.5676 37.1504C82.4348 37.3457 82.3332 37.5996 82.2629 37.9121C82.1965 38.2207 82.1633 38.5918 82.1633 39.0254V40.4902C82.1633 40.916 82.1984 41.2832 82.2688 41.5918C82.3391 41.8965 82.4406 42.1465 82.5734 42.3418C82.7102 42.5332 82.8762 42.6758 83.0715 42.7695C83.2668 42.8633 83.4875 42.9102 83.7336 42.9102C83.9836 42.9102 84.2063 42.8633 84.4016 42.7695C84.5969 42.6758 84.759 42.5332 84.8879 42.3418C85.0207 42.1465 85.1203 41.8965 85.1867 41.5918C85.2531 41.2832 85.2863 40.916 85.2863 40.4902ZM90.0059 39.3594L91.2363 38.3691C91.4434 38.2051 91.582 38.0449 91.6523 37.8887C91.7266 37.7285 91.7637 37.5332 91.7637 37.3027C91.7637 37.1035 91.7031 36.9199 91.582 36.752C91.4648 36.5801 91.2988 36.4941 91.084 36.4941C90.9316 36.4941 90.8047 36.5391 90.7031 36.6289C90.6055 36.7188 90.5312 36.8398 90.4805 36.9922C90.4297 37.1406 90.4043 37.3047 90.4043 37.4844C90.4043 37.6602 90.4434 37.8398 90.5215 38.0234C90.6035 38.207 90.7109 38.4004 90.8438 38.6035C90.9766 38.8027 91.125 39.0176 91.2891 39.248L94.6348 44H93.0586L90.375 40.1387C90.1367 39.7949 89.9238 39.4805 89.7363 39.1953C89.5488 38.9062 89.4023 38.627 89.2969 38.3574C89.1914 38.084 89.1387 37.8027 89.1387 37.5137C89.1387 37.0684 89.2188 36.6836 89.3789 36.3594C89.543 36.0352 89.7695 35.7871 90.0586 35.6152C90.3516 35.4395 90.6953 35.3516 91.0898 35.3516C91.4648 35.3516 91.791 35.4395 92.0684 35.6152C92.3457 35.7871 92.5586 36.0176 92.707 36.3066C92.8594 36.5918 92.9355 36.9062 92.9355 37.25C92.9355 37.5195 92.8965 37.7656 92.8184 37.9883C92.7402 38.207 92.6289 38.4102 92.4844 38.5977C92.3438 38.7812 92.1719 38.9551 91.9688 39.1191L90.4043 40.4258C90.2598 40.5859 90.1523 40.7422 90.082 40.8945C90.0156 41.0469 89.9707 41.1875 89.9473 41.3164C89.9277 41.4414 89.918 41.5527 89.918 41.6504C89.918 41.8965 89.959 42.1211 90.041 42.3242C90.127 42.5234 90.248 42.6816 90.4043 42.7988C90.5605 42.9121 90.748 42.9688 90.9668 42.9688C91.2246 42.9688 91.4746 42.8965 91.7168 42.752C91.959 42.6074 92.1777 42.4004 92.373 42.1309C92.5684 41.8613 92.7227 41.541 92.8359 41.1699C92.9492 40.7949 93.0059 40.3809 93.0059 39.9277H94.1836C94.1836 40.3457 94.1484 40.7422 94.0781 41.1172C94.0117 41.4883 93.9004 41.832 93.7441 42.1484C93.5918 42.4648 93.3887 42.75 93.1348 43.0039C93.1113 43.0273 93.084 43.0605 93.0527 43.1035C93.0215 43.1465 92.9941 43.1816 92.9707 43.209C92.6855 43.5137 92.3672 43.7422 92.0156 43.8945C91.6641 44.043 91.2988 44.1172 90.9199 44.1172C90.4355 44.1172 90.0156 44.0137 89.6602 43.8066C89.3047 43.5996 89.0312 43.3145 88.8398 42.9512C88.6484 42.5879 88.5527 42.1719 88.5527 41.7031C88.5527 41.3516 88.6133 41.0449 88.7344 40.7832C88.8594 40.5176 89.0312 40.2715 89.25 40.0449C89.4688 39.8184 89.7207 39.5898 90.0059 39.3594ZM96.7762 35.4688H98.0711L100.034 41.8145L101.991 35.4688H103.192L100.567 44H99.4949L96.7762 35.4688ZM96.2898 35.4688H97.4852L97.6785 40.9004V44H96.2898V35.4688ZM102.571 35.4688H103.772V44H102.384V40.9004L102.571 35.4688ZM112.356 40.8359H110.557V39.6465H112.356C112.653 39.6465 112.891 39.584 113.071 39.459C113.25 39.334 113.381 39.1621 113.463 38.9434C113.549 38.7246 113.592 38.4766 113.592 38.1992C113.592 37.9336 113.549 37.6836 113.463 37.4492C113.381 37.2148 113.25 37.0254 113.071 36.8809C112.891 36.7363 112.653 36.6641 112.356 36.6641H110.955V44H109.537V35.4688H112.356C112.922 35.4688 113.403 35.5859 113.797 35.8203C114.196 36.0547 114.5 36.377 114.711 36.7871C114.922 37.1934 115.028 37.6602 115.028 38.1875C115.028 38.7344 114.922 39.207 114.711 39.6055C114.5 40 114.196 40.3047 113.797 40.5195C113.403 40.7305 112.922 40.8359 112.356 40.8359ZM118.323 35V44H116.958V35H118.323ZM123.424 42.7109V39.5527C123.424 39.334 123.393 39.1582 123.33 39.0254C123.271 38.8926 123.184 38.7969 123.066 38.7383C122.953 38.6758 122.811 38.6445 122.639 38.6445C122.459 38.6445 122.307 38.6816 122.182 38.7559C122.061 38.8301 121.969 38.9316 121.906 39.0605C121.844 39.1855 121.812 39.3301 121.812 39.4941H120.447C120.447 39.2402 120.498 38.9961 120.6 38.7617C120.705 38.5273 120.855 38.3184 121.051 38.1348C121.246 37.9512 121.482 37.8066 121.76 37.7012C122.037 37.5957 122.346 37.543 122.686 37.543C123.092 37.543 123.453 37.6113 123.77 37.748C124.086 37.8809 124.334 38.0977 124.514 38.3984C124.697 38.6953 124.789 39.0859 124.789 39.5703V42.5293C124.789 42.8223 124.807 43.084 124.842 43.3145C124.881 43.541 124.934 43.7383 125 43.9062V44H123.611C123.549 43.8477 123.502 43.6523 123.471 43.4141C123.439 43.1758 123.424 42.9414 123.424 42.7109ZM123.605 40.1387L123.611 41.0234H122.955C122.76 41.0234 122.584 41.0508 122.428 41.1055C122.271 41.1562 122.139 41.2305 122.029 41.3281C121.924 41.4219 121.842 41.5371 121.783 41.6738C121.729 41.8105 121.701 41.9609 121.701 42.125C121.701 42.3242 121.729 42.4863 121.783 42.6113C121.842 42.7363 121.926 42.8301 122.035 42.8926C122.148 42.9512 122.285 42.9805 122.445 42.9805C122.664 42.9805 122.854 42.9336 123.014 42.8398C123.178 42.7422 123.303 42.625 123.389 42.4883C123.479 42.3516 123.514 42.2266 123.494 42.1133L123.805 42.6816C123.773 42.8301 123.715 42.9863 123.629 43.1504C123.547 43.3145 123.439 43.4707 123.307 43.6191C123.174 43.7676 123.014 43.8887 122.826 43.9824C122.639 44.0723 122.422 44.1172 122.176 44.1172C121.82 44.1172 121.504 44.043 121.227 43.8945C120.949 43.7461 120.73 43.5332 120.57 43.2559C120.414 42.9746 120.336 42.6387 120.336 42.248C120.336 41.9316 120.389 41.6445 120.494 41.3867C120.6 41.1289 120.756 40.9082 120.963 40.7246C121.17 40.5371 121.43 40.3926 121.742 40.291C122.059 40.1895 122.428 40.1387 122.85 40.1387H123.605ZM129.45 37.6602V38.7148H126.339V37.6602H129.45ZM127.188 36.1074H128.548V42.2305C128.548 42.4258 128.569 42.5742 128.612 42.6758C128.655 42.7773 128.716 42.8457 128.794 42.8809C128.872 42.916 128.964 42.9336 129.069 42.9336C129.147 42.9336 129.223 42.9277 129.298 42.916C129.376 42.9004 129.432 42.8867 129.468 42.875V43.9766C129.366 44.0156 129.249 44.0488 129.116 44.0762C128.983 44.1035 128.823 44.1172 128.636 44.1172C128.358 44.1172 128.11 44.0586 127.891 43.9414C127.673 43.8242 127.501 43.6348 127.376 43.373C127.251 43.1113 127.188 42.7617 127.188 42.3242V36.1074ZM132.998 44H131.632V37.0566C131.632 36.584 131.711 36.1875 131.867 35.8672C132.027 35.543 132.252 35.2969 132.541 35.1289C132.834 34.9609 133.179 34.877 133.578 34.877C133.699 34.877 133.818 34.8867 133.935 34.9062C134.052 34.9219 134.164 34.9473 134.269 34.9824L134.24 36.0957C134.185 36.0801 134.117 36.0684 134.035 36.0605C133.957 36.0527 133.88 36.0488 133.806 36.0488C133.634 36.0488 133.488 36.0879 133.367 36.166C133.246 36.2441 133.154 36.3574 133.091 36.5059C133.029 36.6543 132.998 36.8379 132.998 37.0566V44ZM134.029 37.6602V38.7148H130.836V37.6602H134.029ZM135.579 41.0879V40.5781C135.579 40.0859 135.639 39.6504 135.76 39.2715C135.881 38.8926 136.053 38.5762 136.276 38.3223C136.502 38.0645 136.768 37.8711 137.073 37.7422C137.377 37.6094 137.713 37.543 138.08 37.543C138.455 37.543 138.795 37.6094 139.1 37.7422C139.409 37.8711 139.674 38.0645 139.897 38.3223C140.123 38.5762 140.297 38.8926 140.418 39.2715C140.539 39.6504 140.6 40.0859 140.6 40.5781V41.0879C140.6 41.5801 140.539 42.0156 140.418 42.3945C140.297 42.7734 140.123 43.0918 139.897 43.3496C139.674 43.6035 139.411 43.7949 139.106 43.9238C138.801 44.0527 138.463 44.1172 138.092 44.1172C137.725 44.1172 137.387 44.0527 137.079 43.9238C136.774 43.7949 136.508 43.6035 136.282 43.3496C136.055 43.0918 135.881 42.7734 135.76 42.3945C135.639 42.0156 135.579 41.5801 135.579 41.0879ZM136.944 40.5781V41.0879C136.944 41.4043 136.971 41.6816 137.026 41.9199C137.08 42.1543 137.159 42.3496 137.26 42.5059C137.362 42.6621 137.483 42.7793 137.623 42.8574C137.764 42.9355 137.92 42.9746 138.092 42.9746C138.284 42.9746 138.45 42.9355 138.59 42.8574C138.735 42.7793 138.854 42.6621 138.948 42.5059C139.045 42.3496 139.118 42.1543 139.164 41.9199C139.211 41.6816 139.235 41.4043 139.235 41.0879V40.5781C139.235 40.2656 139.207 39.9922 139.153 39.7578C139.098 39.5195 139.02 39.3223 138.918 39.166C138.817 39.0059 138.694 38.8867 138.549 38.8086C138.409 38.7305 138.252 38.6914 138.08 38.6914C137.913 38.6914 137.758 38.7305 137.618 38.8086C137.481 38.8867 137.362 39.0059 137.26 39.166C137.159 39.3223 137.08 39.5195 137.026 39.7578C136.971 39.9922 136.944 40.2656 136.944 40.5781ZM143.843 38.8848V44H142.478V37.6602H143.779L143.843 38.8848ZM145.372 37.6191L145.366 38.9668C145.288 38.9473 145.204 38.9355 145.114 38.9316C145.029 38.9238 144.943 38.9199 144.857 38.9199C144.669 38.9199 144.507 38.9531 144.37 39.0195C144.234 39.0859 144.118 39.1816 144.025 39.3066C143.931 39.4316 143.857 39.582 143.802 39.7578C143.751 39.9336 143.72 40.1328 143.708 40.3555L143.415 40.3672C143.415 39.9688 143.446 39.5996 143.509 39.2598C143.571 38.916 143.665 38.6172 143.79 38.3633C143.919 38.1055 144.079 37.9043 144.271 37.7598C144.462 37.6152 144.685 37.543 144.939 37.543C145.009 37.543 145.089 37.5508 145.179 37.5664C145.269 37.582 145.333 37.5996 145.372 37.6191ZM148.381 38.9492V44H147.016V37.6602H148.299L148.381 38.9492ZM148.158 40.6016H147.695C147.688 40.1602 147.727 39.7539 147.812 39.3828C147.902 39.0117 148.035 38.6875 148.211 38.4102C148.391 38.1328 148.615 37.9199 148.885 37.7715C149.154 37.6191 149.469 37.543 149.828 37.543C150.066 37.543 150.285 37.5859 150.484 37.6719C150.688 37.7539 150.863 37.8848 151.012 38.0645C151.164 38.2441 151.281 38.4746 151.363 38.7559C151.445 39.0371 151.486 39.377 151.486 39.7754V44H150.121V39.9043C150.121 39.5996 150.086 39.3613 150.016 39.1895C149.949 39.0137 149.852 38.8887 149.723 38.8145C149.594 38.7402 149.438 38.7031 149.254 38.7031C149.055 38.7031 148.885 38.7539 148.744 38.8555C148.604 38.9531 148.49 39.0898 148.404 39.2656C148.318 39.4375 148.256 39.6387 148.217 39.8691C148.178 40.0957 148.158 40.3398 148.158 40.6016ZM151.398 40.2383L150.76 40.3848C150.752 39.998 150.791 39.6348 150.877 39.2949C150.963 38.9512 151.092 38.6484 151.264 38.3867C151.439 38.125 151.658 37.9199 151.92 37.7715C152.186 37.6191 152.492 37.543 152.84 37.543C153.113 37.543 153.357 37.5879 153.572 37.6777C153.787 37.7637 153.971 37.9004 154.123 38.0879C154.275 38.2754 154.391 38.5195 154.469 38.8203C154.551 39.1172 154.592 39.4785 154.592 39.9043V44H153.221V39.8984C153.221 39.582 153.186 39.3379 153.115 39.166C153.049 38.9941 152.951 38.875 152.822 38.8086C152.693 38.7383 152.539 38.7031 152.359 38.7031C152.203 38.7031 152.064 38.7441 151.943 38.8262C151.826 38.9043 151.727 39.0137 151.645 39.1543C151.562 39.2949 151.5 39.459 151.457 39.6465C151.418 39.8301 151.398 40.0273 151.398 40.2383Z" fill="#ABB4BE"/>
<path d="M160 35C160 32.7909 161.791 31 164 31H189V43C189 45.2091 187.209 47 185 47H164C161.791 47 160 45.2091 160 43V35Z" fill="#36435C"/>
<path d="M166.42 42.0215L167.779 36.6602H168.834L166.953 43H166.268L166.42 42.0215ZM165.324 36.6602L166.742 42.0508L166.854 43H166.174L164.27 36.6602H165.324ZM174.588 42.1094V43H169.818V42.2207L172.168 39.1094C172.457 38.7266 172.678 38.4023 172.83 38.1367C172.982 37.8672 173.088 37.627 173.146 37.416C173.205 37.2012 173.234 36.9824 173.234 36.7598C173.234 36.4785 173.189 36.2246 173.1 35.998C173.01 35.7676 172.879 35.584 172.707 35.4473C172.535 35.3105 172.328 35.2422 172.086 35.2422C171.77 35.2422 171.51 35.3164 171.307 35.4648C171.107 35.6094 170.961 35.8125 170.867 36.0742C170.773 36.3359 170.727 36.6367 170.727 36.9766H169.689C169.689 36.4961 169.777 36.0566 169.953 35.6582C170.133 35.2598 170.4 34.9434 170.756 34.709C171.111 34.4707 171.555 34.3516 172.086 34.3516C172.543 34.3516 172.934 34.4473 173.258 34.6387C173.586 34.8262 173.836 35.0918 174.008 35.4355C174.184 35.7754 174.271 36.1738 174.271 36.6309C174.271 36.8809 174.236 37.1348 174.166 37.3926C174.1 37.6465 174.006 37.9004 173.885 38.1543C173.768 38.4082 173.629 38.6582 173.469 38.9043C173.309 39.1504 173.137 39.3926 172.953 39.6309L171.061 42.1094H174.588ZM175.906 42.4258C175.906 42.2422 175.963 42.0879 176.076 41.9629C176.193 41.834 176.361 41.7695 176.58 41.7695C176.799 41.7695 176.965 41.834 177.078 41.9629C177.195 42.0879 177.254 42.2422 177.254 42.4258C177.254 42.6055 177.195 42.7578 177.078 42.8828C176.965 43.0078 176.799 43.0703 176.58 43.0703C176.361 43.0703 176.193 43.0078 176.076 42.8828C175.963 42.7578 175.906 42.6055 175.906 42.4258ZM183.471 38.0547V39.3555C183.471 40.0547 183.416 40.6445 183.307 41.125C183.201 41.6055 183.049 41.9922 182.85 42.2852C182.65 42.5781 182.41 42.791 182.129 42.9238C181.852 43.0527 181.539 43.1172 181.191 43.1172C180.918 43.1172 180.662 43.0762 180.424 42.9941C180.189 42.9121 179.979 42.7812 179.791 42.6016C179.604 42.418 179.443 42.1797 179.311 41.8867C179.178 41.5938 179.076 41.2383 179.006 40.8203C178.936 40.4023 178.9 39.9141 178.9 39.3555V38.0547C178.9 37.3555 178.955 36.7695 179.064 36.2969C179.174 35.8242 179.328 35.4453 179.527 35.1602C179.73 34.8711 179.971 34.6641 180.248 34.5391C180.529 34.4141 180.842 34.3516 181.186 34.3516C181.463 34.3516 181.719 34.3926 181.953 34.4746C182.191 34.5527 182.402 34.6797 182.586 34.8555C182.773 35.0273 182.934 35.2578 183.066 35.5469C183.199 35.832 183.299 36.1816 183.365 36.5957C183.436 37.0098 183.471 37.4961 183.471 38.0547ZM182.439 39.5312V37.873C182.439 37.4902 182.422 37.1543 182.387 36.8652C182.352 36.5723 182.301 36.3223 182.234 36.1152C182.168 35.9082 182.082 35.7402 181.977 35.6113C181.875 35.4824 181.758 35.3887 181.625 35.3301C181.492 35.2676 181.346 35.2363 181.186 35.2363C180.986 35.2363 180.809 35.2852 180.652 35.3828C180.5 35.4766 180.369 35.627 180.26 35.834C180.154 36.041 180.074 36.3125 180.02 36.6484C179.965 36.9844 179.938 37.3926 179.938 37.873V39.5312C179.938 39.9141 179.955 40.252 179.99 40.5449C180.029 40.8379 180.082 41.0918 180.148 41.3066C180.219 41.5176 180.305 41.6914 180.406 41.8281C180.508 41.9648 180.625 42.0664 180.758 42.1328C180.891 42.1953 181.035 42.2266 181.191 42.2266C181.398 42.2266 181.578 42.1758 181.73 42.0742C181.887 41.9727 182.018 41.8145 182.123 41.5996C182.229 41.3809 182.307 41.1016 182.357 40.7617C182.412 40.418 182.439 40.0078 182.439 39.5312Z" fill="white"/>
</svg>
