<svg width="96" height="96" viewBox="0 0 96 96" fill="none" xmlns="http://www.w3.org/2000/svg">
<g clip-path="url(#clip0_12061_93089)">
<path d="M19.1781 15.369L0.246155 48.1845H33.4824L52.4564 15.369H19.1781Z" fill="url(#paint0_linear_12061_93089)"/>
<path d="M62.7639 15.369L43.7898 48.1845H77.026L96 15.369H62.7639Z" fill="url(#paint1_linear_12061_93089)"/>
<path d="M95.9159 80.8738L60.4079 19.4079L43.7898 48.1845L43.8739 48.3528L62.7639 81H96L95.9159 80.8738Z" fill="url(#paint2_linear_12061_93089)"/>
<path d="M23.6378 81V15.369H52.4565L33.4824 48.1845H43.7898L52.4565 33.1956V81H23.6378Z" fill="url(#paint3_linear_12061_93089)"/>
</g>
<defs>
<linearGradient id="paint0_linear_12061_93089" x1="2.41514" y1="31.784" x2="32.7178" y2="31.784" gradientUnits="userSpaceOnUse">
<stop stop-color="#00EFFE"/>
<stop offset="0.9992" stop-color="#00CAFA"/>
</linearGradient>
<linearGradient id="paint1_linear_12061_93089" x1="79.8541" y1="12.6416" x2="67.0925" y2="41.2032" gradientUnits="userSpaceOnUse">
<stop stop-color="#0B78E5"/>
<stop offset="1" stop-color="#2844CC"/>
</linearGradient>
<linearGradient id="paint2_linear_12061_93089" x1="43.7991" y1="50.2103" x2="95.9885" y2="50.2103" gradientUnits="userSpaceOnUse">
<stop stop-color="#0B78E5"/>
<stop offset="1" stop-color="#2844CC"/>
</linearGradient>
<linearGradient id="paint3_linear_12061_93089" x1="38.0409" y1="13.4069" x2="38.0409" y2="80.1187" gradientUnits="userSpaceOnUse">
<stop stop-color="#00EFFE"/>
<stop offset="0.9992" stop-color="#00CAFA"/>
</linearGradient>
<clipPath id="clip0_12061_93089">
<rect width="96" height="96" fill="white"/>
</clipPath>
</defs>
</svg>
