<svg width="161" height="52" viewBox="0 0 161 52" fill="none" xmlns="http://www.w3.org/2000/svg">
<path d="M12 16.4816C12.0037 16.4816 12.0073 16.4809 12.0107 16.4795L18.4778 12.743C18.4792 12.7401 18.4799 12.737 18.4799 12.7338C18.4799 12.7307 18.4792 12.7276 18.4778 12.7247V5.25781C18.4794 5.25503 18.4803 5.25188 18.4803 5.24868C18.4803 5.24547 18.4794 5.24232 18.4778 5.23954L12.0107 1.5H11.9894L5.52221 5.23954C5.52023 5.24218 5.51916 5.24538 5.51916 5.24868C5.51916 5.25197 5.52023 5.25518 5.52221 5.25781V12.7247C5.5206 12.7275 5.51976 12.7306 5.51976 12.7338C5.51976 12.7371 5.5206 12.7402 5.52221 12.743L11.9894 16.4795C11.9927 16.4809 11.9964 16.4816 12 16.4816Z" fill="#00A971"/>
<path d="M1.5 18.2976H22.5V22.5H1.5V18.2976Z" fill="#00A971"/>
<path d="M4.66406 42.8457L6.63281 44.6328L5.71875 45.4883L3.78516 43.7188L4.66406 42.8457ZM6.5625 39.0371V40.4316C6.5625 41.041 6.49219 41.5762 6.35156 42.0371C6.21484 42.498 6.01562 42.8828 5.75391 43.1914C5.49219 43.5 5.17773 43.7324 4.81055 43.8887C4.44727 44.041 4.03906 44.1172 3.58594 44.1172C3.14453 44.1172 2.74023 44.041 2.37305 43.8887C2.00977 43.7324 1.69531 43.5 1.42969 43.1914C1.16797 42.8828 0.964844 42.498 0.820312 42.0371C0.675781 41.5762 0.603516 41.041 0.603516 40.4316V39.0371C0.603516 38.4277 0.673828 37.8945 0.814453 37.4375C0.958984 36.9766 1.16211 36.5918 1.42383 36.2832C1.68945 35.9746 2.00391 35.7422 2.36719 35.5859C2.73438 35.4297 3.13867 35.3516 3.58008 35.3516C4.0293 35.3516 4.4375 35.4297 4.80469 35.5859C5.17188 35.7422 5.48633 35.9746 5.74805 36.2832C6.00977 36.5918 6.21094 36.9766 6.35156 37.4375C6.49219 37.8945 6.5625 38.4277 6.5625 39.0371ZM5.14453 40.4316V39.0254C5.14453 38.5918 5.11133 38.2207 5.04492 37.9121C4.97852 37.5996 4.87695 37.3457 4.74023 37.1504C4.60742 36.9512 4.44336 36.8047 4.24805 36.7109C4.05664 36.6133 3.83398 36.5645 3.58008 36.5645C3.33398 36.5645 3.11328 36.6133 2.91797 36.7109C2.72656 36.8047 2.56445 36.9512 2.43164 37.1504C2.29883 37.3457 2.19727 37.5996 2.12695 37.9121C2.05664 38.2207 2.02148 38.5918 2.02148 39.0254V40.4316C2.02148 40.8691 2.05664 41.2441 2.12695 41.5566C2.19727 41.8691 2.29883 42.125 2.43164 42.3242C2.56836 42.5234 2.73242 42.6719 2.92383 42.7695C3.11914 42.8633 3.33984 42.9102 3.58594 42.9102C3.83984 42.9102 4.06445 42.8633 4.25977 42.7695C4.45508 42.6719 4.61719 42.5234 4.74609 42.3242C4.87891 42.125 4.97852 41.8691 5.04492 41.5566C5.11133 41.2441 5.14453 40.8691 5.14453 40.4316ZM10.0633 37.6602V44H8.69805V37.6602H10.0633ZM8.62773 36.002C8.62773 35.7832 8.69414 35.6016 8.82695 35.457C8.95977 35.3086 9.14531 35.2344 9.38359 35.2344C9.62187 35.2344 9.80742 35.3066 9.94023 35.4512C10.073 35.5957 10.1395 35.7773 10.1395 35.9961C10.1395 36.2109 10.073 36.3906 9.94023 36.5352C9.80742 36.6797 9.62187 36.752 9.38359 36.752C9.14531 36.752 8.95977 36.6797 8.82695 36.5352C8.69414 36.3906 8.62773 36.2129 8.62773 36.002ZM13.5699 39.0137V44H12.2047V37.6602H13.4879L13.5699 39.0137ZM13.3238 40.6016H12.8902C12.8863 40.1445 12.9352 39.7285 13.0367 39.3535C13.1383 38.9785 13.2828 38.6562 13.4703 38.3867C13.6617 38.1172 13.8883 37.9102 14.15 37.7656C14.4156 37.6172 14.7105 37.543 15.0348 37.543C15.2848 37.543 15.5133 37.5859 15.7203 37.6719C15.9312 37.7539 16.1109 37.8887 16.2594 38.0762C16.4078 38.2637 16.5211 38.5078 16.5992 38.8086C16.6812 39.1094 16.7223 39.4766 16.7223 39.9102V44H15.357V39.8984C15.357 39.6016 15.3238 39.3672 15.2574 39.1953C15.1949 39.0195 15.1012 38.8945 14.9762 38.8203C14.8512 38.7422 14.693 38.7031 14.5016 38.7031C14.3258 38.7031 14.1637 38.7539 14.0152 38.8555C13.8707 38.9531 13.7457 39.0898 13.6402 39.2656C13.5387 39.4375 13.4605 39.6387 13.4059 39.8691C13.3512 40.0957 13.3238 40.3398 13.3238 40.6016ZM22.1742 37.6602H23.4105V44.0234C23.4105 44.5938 23.3051 45.0605 23.0941 45.4238C22.8871 45.791 22.598 46.0625 22.227 46.2383C21.8559 46.4141 21.4262 46.502 20.9379 46.502C20.7582 46.502 20.5453 46.4727 20.2992 46.4141C20.0531 46.3555 19.8129 46.2695 19.5785 46.1562C19.3441 46.043 19.1488 45.9023 18.9926 45.7344L19.4906 44.7852C19.6742 44.9727 19.891 45.1172 20.141 45.2188C20.391 45.3242 20.6313 45.377 20.8617 45.377C21.1117 45.377 21.3227 45.334 21.4945 45.248C21.6703 45.166 21.8051 45.0273 21.8988 44.832C21.9926 44.6406 22.0395 44.3809 22.0395 44.0527V39.0957L22.1742 37.6602ZM18.5883 41.0879V40.5898C18.5883 40.0703 18.6371 39.6211 18.7348 39.2422C18.8324 38.8594 18.973 38.541 19.1566 38.2871C19.3402 38.0332 19.5648 37.8457 19.8305 37.7246C20.0961 37.6035 20.393 37.543 20.7211 37.543C21.0609 37.543 21.348 37.6152 21.5824 37.7598C21.8207 37.9004 22.0141 38.1016 22.1625 38.3633C22.3148 38.625 22.434 38.9375 22.5199 39.3008C22.6059 39.6602 22.6684 40.0625 22.7074 40.5078V41.1992C22.6684 41.6289 22.602 42.0234 22.5082 42.3828C22.4145 42.7383 22.2875 43.0449 22.1273 43.3027C21.9711 43.5605 21.7758 43.7617 21.5414 43.9062C21.3109 44.0469 21.0336 44.1172 20.7094 44.1172C20.3852 44.1172 20.0922 44.0527 19.8305 43.9238C19.5688 43.7949 19.3441 43.6035 19.1566 43.3496C18.973 43.0957 18.8324 42.7812 18.7348 42.4062C18.6371 42.0273 18.5883 41.5879 18.5883 41.0879ZM19.9535 40.5898V41.0879C19.9535 41.4121 19.975 41.6914 20.018 41.9258C20.0648 42.1602 20.1332 42.3535 20.223 42.5059C20.3129 42.6543 20.4301 42.7656 20.5746 42.8398C20.7191 42.9102 20.891 42.9453 21.0902 42.9453C21.352 42.9453 21.5629 42.8828 21.723 42.7578C21.8871 42.6328 22.0121 42.4648 22.098 42.2539C22.1879 42.0391 22.2504 41.8008 22.2855 41.5391V40.1738C22.266 39.9668 22.227 39.7754 22.1684 39.5996C22.1137 39.4199 22.0375 39.2637 21.9398 39.1309C21.8461 38.998 21.7289 38.8945 21.5883 38.8203C21.4516 38.7422 21.2895 38.7031 21.102 38.7031C20.9066 38.7031 20.7348 38.7422 20.5863 38.8203C20.4418 38.8945 20.3227 39.0098 20.2289 39.166C20.1352 39.3184 20.0648 39.5137 20.018 39.752C19.975 39.9863 19.9535 40.2656 19.9535 40.5898ZM29.7531 41.2168H31.1711C31.1437 41.834 31.0187 42.3594 30.7961 42.793C30.5734 43.2227 30.2531 43.5508 29.8352 43.7773C29.4211 44.0039 28.9152 44.1172 28.3176 44.1172C27.8645 44.1172 27.4582 44.0352 27.0988 43.8711C26.7434 43.707 26.4406 43.4707 26.1906 43.1621C25.9406 42.8496 25.7492 42.4688 25.6164 42.0195C25.4875 41.5703 25.423 41.0605 25.423 40.4902V38.9785C25.423 38.4082 25.4895 37.8984 25.6223 37.4492C25.759 37 25.9543 36.6191 26.2082 36.3066C26.4621 35.9941 26.7707 35.7578 27.134 35.5977C27.5012 35.4336 27.9152 35.3516 28.3762 35.3516C28.966 35.3516 29.4621 35.4648 29.8645 35.6914C30.2668 35.918 30.5773 36.25 30.7961 36.6875C31.0148 37.125 31.1418 37.6582 31.177 38.2871H29.759C29.7395 37.8613 29.6809 37.5215 29.5832 37.2676C29.4895 37.0098 29.3449 36.8242 29.1496 36.7109C28.9582 36.5977 28.7004 36.541 28.3762 36.541C28.1066 36.541 27.8742 36.5918 27.6789 36.6934C27.4875 36.7949 27.3293 36.9473 27.2043 37.1504C27.0832 37.3496 26.9914 37.6016 26.9289 37.9062C26.8703 38.207 26.841 38.5605 26.841 38.9668V40.4902C26.841 40.8809 26.8664 41.2266 26.9172 41.5273C26.968 41.8281 27.05 42.084 27.1633 42.2949C27.2766 42.502 27.427 42.6602 27.6145 42.7695C27.802 42.875 28.0363 42.9277 28.3176 42.9277C28.6535 42.9277 28.9211 42.875 29.1203 42.7695C29.3234 42.6641 29.4738 42.4863 29.5715 42.2363C29.6691 41.9863 29.7297 41.6465 29.7531 41.2168ZM34.4609 35V44H33.0957V35H34.4609ZM36.4207 41.0879V40.5781C36.4207 40.0859 36.4813 39.6504 36.6023 39.2715C36.7234 38.8926 36.8953 38.5762 37.118 38.3223C37.3445 38.0645 37.6102 37.8711 37.9148 37.7422C38.2195 37.6094 38.5555 37.543 38.9227 37.543C39.2977 37.543 39.6375 37.6094 39.9422 37.7422C40.2508 37.8711 40.5164 38.0645 40.7391 38.3223C40.9656 38.5762 41.1395 38.8926 41.2605 39.2715C41.3816 39.6504 41.4422 40.0859 41.4422 40.5781V41.0879C41.4422 41.5801 41.3816 42.0156 41.2605 42.3945C41.1395 42.7734 40.9656 43.0918 40.7391 43.3496C40.5164 43.6035 40.2527 43.7949 39.948 43.9238C39.6434 44.0527 39.3055 44.1172 38.9344 44.1172C38.5672 44.1172 38.2293 44.0527 37.9207 43.9238C37.616 43.7949 37.3504 43.6035 37.1238 43.3496C36.8973 43.0918 36.7234 42.7734 36.6023 42.3945C36.4813 42.0156 36.4207 41.5801 36.4207 41.0879ZM37.7859 40.5781V41.0879C37.7859 41.4043 37.8133 41.6816 37.868 41.9199C37.9227 42.1543 38.0008 42.3496 38.1023 42.5059C38.2039 42.6621 38.325 42.7793 38.4656 42.8574C38.6063 42.9355 38.7625 42.9746 38.9344 42.9746C39.1258 42.9746 39.2918 42.9355 39.4324 42.8574C39.577 42.7793 39.6961 42.6621 39.7898 42.5059C39.8875 42.3496 39.9598 42.1543 40.0066 41.9199C40.0535 41.6816 40.077 41.4043 40.077 41.0879V40.5781C40.077 40.2656 40.0496 39.9922 39.9949 39.7578C39.9402 39.5195 39.8621 39.3223 39.7605 39.166C39.659 39.0059 39.5359 38.8867 39.3914 38.8086C39.2508 38.7305 39.0945 38.6914 38.9227 38.6914C38.7547 38.6914 38.6004 38.7305 38.4598 38.8086C38.323 38.8867 38.2039 39.0059 38.1023 39.166C38.0008 39.3223 37.9227 39.5195 37.868 39.7578C37.8133 39.9922 37.7859 40.2656 37.7859 40.5781ZM46.4488 42.5059V37.6602H47.8141V44H46.5309L46.4488 42.5059ZM46.6422 41.1816L47.0758 41.1699C47.0758 41.5918 47.0367 41.9844 46.9586 42.3477C46.8805 42.707 46.7594 43.0195 46.5953 43.2852C46.4352 43.5469 46.2262 43.752 45.9684 43.9004C45.7145 44.0449 45.4078 44.1172 45.0484 44.1172C44.7906 44.1172 44.5543 44.0723 44.3395 43.9824C44.1246 43.8926 43.9391 43.7539 43.7828 43.5664C43.6266 43.3789 43.5055 43.1348 43.4195 42.834C43.3336 42.5332 43.2906 42.1738 43.2906 41.7559V37.6602H44.6559V41.7676C44.6559 41.9941 44.6754 42.1836 44.7145 42.3359C44.7574 42.4844 44.8121 42.6055 44.8785 42.6992C44.9488 42.7891 45.027 42.8535 45.1129 42.8926C45.2027 42.9277 45.2984 42.9453 45.4 42.9453C45.7086 42.9453 45.9527 42.8691 46.1324 42.7168C46.316 42.5605 46.4469 42.3496 46.525 42.084C46.6031 41.8184 46.6422 41.5176 46.6422 41.1816ZM53.0668 42.6758V35H54.432V44L53.1957 44.0059L53.0668 42.6758ZM49.6625 41.0879V40.5898C49.6625 40.0703 49.7094 39.6211 49.8031 39.2422C49.8969 38.8594 50.0336 38.541 50.2133 38.2871C50.3969 38.0332 50.6176 37.8457 50.8754 37.7246C51.1332 37.6035 51.4242 37.543 51.7484 37.543C52.0648 37.543 52.3383 37.6152 52.5687 37.7598C52.7992 37.9004 52.9945 38.1016 53.1547 38.3633C53.3148 38.625 53.4418 38.9375 53.5355 39.3008C53.6332 39.6602 53.6996 40.0625 53.7348 40.5078V41.1992C53.6918 41.6289 53.6234 42.0234 53.5297 42.3828C53.4359 42.7383 53.309 43.0449 53.1488 43.3027C52.9887 43.5605 52.7914 43.7617 52.557 43.9062C52.3266 44.0469 52.0551 44.1172 51.7426 44.1172C51.4184 44.1172 51.1273 44.0527 50.8695 43.9238C50.6156 43.7949 50.3969 43.6035 50.2133 43.3496C50.0336 43.0957 49.8969 42.7812 49.8031 42.4062C49.7094 42.0273 49.6625 41.5879 49.6625 41.0879ZM51.0277 40.5898V41.0879C51.0277 41.4121 51.0473 41.6914 51.0863 41.9258C51.1254 42.1602 51.1879 42.3535 51.2738 42.5059C51.3598 42.6543 51.473 42.7656 51.6137 42.8398C51.7543 42.9102 51.9242 42.9453 52.1234 42.9453C52.3734 42.9453 52.5766 42.8828 52.7328 42.7578C52.893 42.6328 53.016 42.4648 53.102 42.2539C53.1918 42.0391 53.2543 41.8008 53.2895 41.5391V40.1738C53.2699 39.9668 53.2309 39.7754 53.1723 39.5996C53.1137 39.4199 53.0375 39.2637 52.9437 39.1309C52.85 38.998 52.7348 38.8945 52.598 38.8203C52.4652 38.7422 52.309 38.7031 52.1293 38.7031C51.9301 38.7031 51.7602 38.7422 51.6195 38.8203C51.4789 38.8945 51.3656 39.0098 51.2797 39.166C51.1937 39.3184 51.1293 39.5137 51.0863 39.752C51.0473 39.9863 51.0277 40.2656 51.0277 40.5898ZM61.5918 35.4688V44H60.168V35.4688H61.5918ZM63.6277 41.0879V40.5781C63.6277 40.0859 63.6883 39.6504 63.8094 39.2715C63.9305 38.8926 64.1023 38.5762 64.325 38.3223C64.5516 38.0645 64.8172 37.8711 65.1219 37.7422C65.4266 37.6094 65.7625 37.543 66.1297 37.543C66.5047 37.543 66.8445 37.6094 67.1492 37.7422C67.4578 37.8711 67.7234 38.0645 67.9461 38.3223C68.1727 38.5762 68.3465 38.8926 68.4676 39.2715C68.5887 39.6504 68.6492 40.0859 68.6492 40.5781V41.0879C68.6492 41.5801 68.5887 42.0156 68.4676 42.3945C68.3465 42.7734 68.1727 43.0918 67.9461 43.3496C67.7234 43.6035 67.4598 43.7949 67.1551 43.9238C66.8504 44.0527 66.5125 44.1172 66.1414 44.1172C65.7742 44.1172 65.4363 44.0527 65.1277 43.9238C64.823 43.7949 64.5574 43.6035 64.3309 43.3496C64.1043 43.0918 63.9305 42.7734 63.8094 42.3945C63.6883 42.0156 63.6277 41.5801 63.6277 41.0879ZM64.993 40.5781V41.0879C64.993 41.4043 65.0203 41.6816 65.075 41.9199C65.1297 42.1543 65.2078 42.3496 65.3094 42.5059C65.4109 42.6621 65.532 42.7793 65.6727 42.8574C65.8133 42.9355 65.9695 42.9746 66.1414 42.9746C66.3328 42.9746 66.4988 42.9355 66.6395 42.8574C66.784 42.7793 66.9031 42.6621 66.9969 42.5059C67.0945 42.3496 67.1668 42.1543 67.2137 41.9199C67.2605 41.6816 67.284 41.4043 67.284 41.0879V40.5781C67.284 40.2656 67.2566 39.9922 67.202 39.7578C67.1473 39.5195 67.0691 39.3223 66.9676 39.166C66.866 39.0059 66.743 38.8867 66.5984 38.8086C66.4578 38.7305 66.3016 38.6914 66.1297 38.6914C65.9617 38.6914 65.8074 38.7305 65.6668 38.8086C65.5301 38.8867 65.4109 39.0059 65.3094 39.166C65.2078 39.3223 65.1297 39.5195 65.075 39.7578C65.0203 39.9922 64.993 40.2656 64.993 40.5781ZM73.7379 35.4688V44H72.3199V35.4688H73.7379ZM75.9117 35.4688V36.6641H70.1695V35.4688H75.9117ZM83.7277 40.8359H81.9289V39.6465H83.7277C84.0246 39.6465 84.2629 39.584 84.4426 39.459C84.6223 39.334 84.7531 39.1621 84.8352 38.9434C84.9211 38.7246 84.9641 38.4766 84.9641 38.1992C84.9641 37.9336 84.9211 37.6836 84.8352 37.4492C84.7531 37.2148 84.6223 37.0254 84.4426 36.8809C84.2629 36.7363 84.0246 36.6641 83.7277 36.6641H82.3273V44H80.9094V35.4688H83.7277C84.2941 35.4688 84.7746 35.5859 85.1691 35.8203C85.5676 36.0547 85.8723 36.377 86.0832 36.7871C86.2941 37.1934 86.3996 37.6602 86.3996 38.1875C86.3996 38.7344 86.2941 39.207 86.0832 39.6055C85.8723 40 85.5676 40.3047 85.1691 40.5195C84.7746 40.7305 84.2941 40.8359 83.7277 40.8359ZM89.6953 35V44H88.3301V35H89.6953ZM94.7957 42.7109V39.5527C94.7957 39.334 94.7645 39.1582 94.702 39.0254C94.6434 38.8926 94.5555 38.7969 94.4383 38.7383C94.325 38.6758 94.1824 38.6445 94.0105 38.6445C93.8309 38.6445 93.6785 38.6816 93.5535 38.7559C93.4324 38.8301 93.3406 38.9316 93.2781 39.0605C93.2156 39.1855 93.1844 39.3301 93.1844 39.4941H91.8191C91.8191 39.2402 91.8699 38.9961 91.9715 38.7617C92.077 38.5273 92.2273 38.3184 92.4227 38.1348C92.618 37.9512 92.8543 37.8066 93.1316 37.7012C93.409 37.5957 93.7176 37.543 94.0574 37.543C94.4637 37.543 94.825 37.6113 95.1414 37.748C95.4578 37.8809 95.7059 38.0977 95.8855 38.3984C96.0691 38.6953 96.1609 39.0859 96.1609 39.5703V42.5293C96.1609 42.8223 96.1785 43.084 96.2137 43.3145C96.2527 43.541 96.3055 43.7383 96.3719 43.9062V44H94.9832C94.9207 43.8477 94.8738 43.6523 94.8426 43.4141C94.8113 43.1758 94.7957 42.9414 94.7957 42.7109ZM94.9773 40.1387L94.9832 41.0234H94.327C94.1316 41.0234 93.9559 41.0508 93.7996 41.1055C93.6434 41.1562 93.5105 41.2305 93.4012 41.3281C93.2957 41.4219 93.2137 41.5371 93.1551 41.6738C93.1004 41.8105 93.073 41.9609 93.073 42.125C93.073 42.3242 93.1004 42.4863 93.1551 42.6113C93.2137 42.7363 93.2977 42.8301 93.407 42.8926C93.5203 42.9512 93.657 42.9805 93.8172 42.9805C94.0359 42.9805 94.2254 42.9336 94.3855 42.8398C94.5496 42.7422 94.6746 42.625 94.7605 42.4883C94.8504 42.3516 94.8855 42.2266 94.866 42.1133L95.1766 42.6816C95.1453 42.8301 95.0867 42.9863 95.0008 43.1504C94.9187 43.3145 94.8113 43.4707 94.6785 43.6191C94.5457 43.7676 94.3855 43.8887 94.198 43.9824C94.0105 44.0723 93.7937 44.1172 93.5477 44.1172C93.1922 44.1172 92.8758 44.043 92.5984 43.8945C92.3211 43.7461 92.1023 43.5332 91.9422 43.2559C91.7859 42.9746 91.7078 42.6387 91.7078 42.248C91.7078 41.9316 91.7605 41.6445 91.866 41.3867C91.9715 41.1289 92.1277 40.9082 92.3348 40.7246C92.5418 40.5371 92.8016 40.3926 93.1141 40.291C93.4305 40.1895 93.7996 40.1387 94.2215 40.1387H94.9773ZM100.822 37.6602V38.7148H97.7105V37.6602H100.822ZM98.5602 36.1074H99.9195V42.2305C99.9195 42.4258 99.941 42.5742 99.984 42.6758C100.027 42.7773 100.088 42.8457 100.166 42.8809C100.244 42.916 100.336 42.9336 100.441 42.9336C100.519 42.9336 100.595 42.9277 100.67 42.916C100.748 42.9004 100.804 42.8867 100.839 42.875V43.9766C100.738 44.0156 100.621 44.0488 100.488 44.0762C100.355 44.1035 100.195 44.1172 100.007 44.1172C99.7301 44.1172 99.482 44.0586 99.2633 43.9414C99.0445 43.8242 98.8727 43.6348 98.7477 43.373C98.6227 43.1113 98.5602 42.7617 98.5602 42.3242V36.1074ZM104.37 44H103.004V37.0566C103.004 36.584 103.082 36.1875 103.239 35.8672C103.399 35.543 103.623 35.2969 103.912 35.1289C104.205 34.9609 104.551 34.877 104.95 34.877C105.071 34.877 105.19 34.8867 105.307 34.9062C105.424 34.9219 105.536 34.9473 105.641 34.9824L105.612 36.0957C105.557 36.0801 105.489 36.0684 105.407 36.0605C105.329 36.0527 105.252 36.0488 105.178 36.0488C105.006 36.0488 104.86 36.0879 104.739 36.166C104.618 36.2441 104.526 36.3574 104.463 36.5059C104.401 36.6543 104.37 36.8379 104.37 37.0566V44ZM105.401 37.6602V38.7148H102.207V37.6602H105.401ZM106.95 41.0879V40.5781C106.95 40.0859 107.011 39.6504 107.132 39.2715C107.253 38.8926 107.425 38.5762 107.648 38.3223C107.874 38.0645 108.14 37.8711 108.445 37.7422C108.749 37.6094 109.085 37.543 109.452 37.543C109.827 37.543 110.167 37.6094 110.472 37.7422C110.78 37.8711 111.046 38.0645 111.269 38.3223C111.495 38.5762 111.669 38.8926 111.79 39.2715C111.911 39.6504 111.972 40.0859 111.972 40.5781V41.0879C111.972 41.5801 111.911 42.0156 111.79 42.3945C111.669 42.7734 111.495 43.0918 111.269 43.3496C111.046 43.6035 110.782 43.7949 110.478 43.9238C110.173 44.0527 109.835 44.1172 109.464 44.1172C109.097 44.1172 108.759 44.0527 108.45 43.9238C108.146 43.7949 107.88 43.6035 107.654 43.3496C107.427 43.0918 107.253 42.7734 107.132 42.3945C107.011 42.0156 106.95 41.5801 106.95 41.0879ZM108.316 40.5781V41.0879C108.316 41.4043 108.343 41.6816 108.398 41.9199C108.452 42.1543 108.53 42.3496 108.632 42.5059C108.734 42.6621 108.855 42.7793 108.995 42.8574C109.136 42.9355 109.292 42.9746 109.464 42.9746C109.655 42.9746 109.821 42.9355 109.962 42.8574C110.107 42.7793 110.226 42.6621 110.32 42.5059C110.417 42.3496 110.489 42.1543 110.536 41.9199C110.583 41.6816 110.607 41.4043 110.607 41.0879V40.5781C110.607 40.2656 110.579 39.9922 110.525 39.7578C110.47 39.5195 110.392 39.3223 110.29 39.166C110.189 39.0059 110.066 38.8867 109.921 38.8086C109.78 38.7305 109.624 38.6914 109.452 38.6914C109.284 38.6914 109.13 38.7305 108.989 38.8086C108.853 38.8867 108.734 39.0059 108.632 39.166C108.53 39.3223 108.452 39.5195 108.398 39.7578C108.343 39.9922 108.316 40.2656 108.316 40.5781ZM115.215 38.8848V44H113.85V37.6602H115.15L115.215 38.8848ZM116.744 37.6191L116.738 38.9668C116.66 38.9473 116.576 38.9355 116.486 38.9316C116.4 38.9238 116.314 38.9199 116.229 38.9199C116.041 38.9199 115.879 38.9531 115.742 39.0195C115.605 39.0859 115.49 39.1816 115.396 39.3066C115.303 39.4316 115.229 39.582 115.174 39.7578C115.123 39.9336 115.092 40.1328 115.08 40.3555L114.787 40.3672C114.787 39.9688 114.818 39.5996 114.881 39.2598C114.943 38.916 115.037 38.6172 115.162 38.3633C115.291 38.1055 115.451 37.9043 115.643 37.7598C115.834 37.6152 116.057 37.543 116.311 37.543C116.381 37.543 116.461 37.5508 116.551 37.5664C116.641 37.582 116.705 37.5996 116.744 37.6191ZM119.753 38.9492V44H118.387V37.6602H119.671L119.753 38.9492ZM119.53 40.6016H119.067C119.059 40.1602 119.098 39.7539 119.184 39.3828C119.274 39.0117 119.407 38.6875 119.583 38.4102C119.762 38.1328 119.987 37.9199 120.257 37.7715C120.526 37.6191 120.841 37.543 121.2 37.543C121.438 37.543 121.657 37.5859 121.856 37.6719C122.059 37.7539 122.235 37.8848 122.384 38.0645C122.536 38.2441 122.653 38.4746 122.735 38.7559C122.817 39.0371 122.858 39.377 122.858 39.7754V44H121.493V39.9043C121.493 39.5996 121.458 39.3613 121.387 39.1895C121.321 39.0137 121.223 38.8887 121.095 38.8145C120.966 38.7402 120.809 38.7031 120.626 38.7031C120.427 38.7031 120.257 38.7539 120.116 38.8555C119.975 38.9531 119.862 39.0898 119.776 39.2656C119.69 39.4375 119.628 39.6387 119.589 39.8691C119.55 40.0957 119.53 40.3398 119.53 40.6016ZM122.77 40.2383L122.132 40.3848C122.124 39.998 122.163 39.6348 122.249 39.2949C122.335 38.9512 122.464 38.6484 122.636 38.3867C122.811 38.125 123.03 37.9199 123.292 37.7715C123.557 37.6191 123.864 37.543 124.212 37.543C124.485 37.543 124.729 37.5879 124.944 37.6777C125.159 37.7637 125.343 37.9004 125.495 38.0879C125.647 38.2754 125.762 38.5195 125.841 38.8203C125.923 39.1172 125.964 39.4785 125.964 39.9043V44H124.593V39.8984C124.593 39.582 124.557 39.3379 124.487 39.166C124.421 38.9941 124.323 38.875 124.194 38.8086C124.065 38.7383 123.911 38.7031 123.731 38.7031C123.575 38.7031 123.436 38.7441 123.315 38.8262C123.198 38.9043 123.098 39.0137 123.016 39.1543C122.934 39.2949 122.872 39.459 122.829 39.6465C122.79 39.8301 122.77 40.0273 122.77 40.2383Z" fill="#6B7B95"/>
<path d="M132 35C132 32.7909 133.791 31 136 31H161V43C161 45.2091 159.209 47 157 47H136C133.791 47 132 45.2091 132 43V35Z" fill="#D8DEE5"/>
<path d="M138.42 42.0215L139.779 36.6602H140.834L138.953 43H138.268L138.42 42.0215ZM137.324 36.6602L138.742 42.0508L138.854 43H138.174L136.27 36.6602H137.324ZM146.588 42.1094V43H141.818V42.2207L144.168 39.1094C144.457 38.7266 144.678 38.4023 144.83 38.1367C144.982 37.8672 145.088 37.627 145.146 37.416C145.205 37.2012 145.234 36.9824 145.234 36.7598C145.234 36.4785 145.189 36.2246 145.1 35.998C145.01 35.7676 144.879 35.584 144.707 35.4473C144.535 35.3105 144.328 35.2422 144.086 35.2422C143.77 35.2422 143.51 35.3164 143.307 35.4648C143.107 35.6094 142.961 35.8125 142.867 36.0742C142.773 36.3359 142.727 36.6367 142.727 36.9766H141.689C141.689 36.4961 141.777 36.0566 141.953 35.6582C142.133 35.2598 142.4 34.9434 142.756 34.709C143.111 34.4707 143.555 34.3516 144.086 34.3516C144.543 34.3516 144.934 34.4473 145.258 34.6387C145.586 34.8262 145.836 35.0918 146.008 35.4355C146.184 35.7754 146.271 36.1738 146.271 36.6309C146.271 36.8809 146.236 37.1348 146.166 37.3926C146.1 37.6465 146.006 37.9004 145.885 38.1543C145.768 38.4082 145.629 38.6582 145.469 38.9043C145.309 39.1504 145.137 39.3926 144.953 39.6309L143.061 42.1094H146.588ZM147.906 42.4258C147.906 42.2422 147.963 42.0879 148.076 41.9629C148.193 41.834 148.361 41.7695 148.58 41.7695C148.799 41.7695 148.965 41.834 149.078 41.9629C149.195 42.0879 149.254 42.2422 149.254 42.4258C149.254 42.6055 149.195 42.7578 149.078 42.8828C148.965 43.0078 148.799 43.0703 148.58 43.0703C148.361 43.0703 148.193 43.0078 148.076 42.8828C147.963 42.7578 147.906 42.6055 147.906 42.4258ZM155.471 38.0547V39.3555C155.471 40.0547 155.416 40.6445 155.307 41.125C155.201 41.6055 155.049 41.9922 154.85 42.2852C154.65 42.5781 154.41 42.791 154.129 42.9238C153.852 43.0527 153.539 43.1172 153.191 43.1172C152.918 43.1172 152.662 43.0762 152.424 42.9941C152.189 42.9121 151.979 42.7812 151.791 42.6016C151.604 42.418 151.443 42.1797 151.311 41.8867C151.178 41.5938 151.076 41.2383 151.006 40.8203C150.936 40.4023 150.9 39.9141 150.9 39.3555V38.0547C150.9 37.3555 150.955 36.7695 151.064 36.2969C151.174 35.8242 151.328 35.4453 151.527 35.1602C151.73 34.8711 151.971 34.6641 152.248 34.5391C152.529 34.4141 152.842 34.3516 153.186 34.3516C153.463 34.3516 153.719 34.3926 153.953 34.4746C154.191 34.5527 154.402 34.6797 154.586 34.8555C154.773 35.0273 154.934 35.2578 155.066 35.5469C155.199 35.832 155.299 36.1816 155.365 36.5957C155.436 37.0098 155.471 37.4961 155.471 38.0547ZM154.439 39.5312V37.873C154.439 37.4902 154.422 37.1543 154.387 36.8652C154.352 36.5723 154.301 36.3223 154.234 36.1152C154.168 35.9082 154.082 35.7402 153.977 35.6113C153.875 35.4824 153.758 35.3887 153.625 35.3301C153.492 35.2676 153.346 35.2363 153.186 35.2363C152.986 35.2363 152.809 35.2852 152.652 35.3828C152.5 35.4766 152.369 35.627 152.26 35.834C152.154 36.041 152.074 36.3125 152.02 36.6484C151.965 36.9844 151.938 37.3926 151.938 37.873V39.5312C151.938 39.9141 151.955 40.252 151.99 40.5449C152.029 40.8379 152.082 41.0918 152.148 41.3066C152.219 41.5176 152.305 41.6914 152.406 41.8281C152.508 41.9648 152.625 42.0664 152.758 42.1328C152.891 42.1953 153.035 42.2266 153.191 42.2266C153.398 42.2266 153.578 42.1758 153.73 42.0742C153.887 41.9727 154.018 41.8145 154.123 41.5996C154.229 41.3809 154.307 41.1016 154.357 40.7617C154.412 40.418 154.439 40.0078 154.439 39.5312Z" fill="#36435C"/>
<path d="M40.766 3.168C40.298 5.796 39.506 7.83 38.39 9.234L39.758 10.404C40.352 9.684 40.874 8.784 41.324 7.722H42.08C41.414 10.908 40.208 13.23 38.48 14.706L39.686 16.11C41.648 14.346 42.998 11.538 43.754 7.722H44.654C44.312 10.242 43.826 12.258 43.196 13.788C42.458 15.444 41.36 16.92 39.884 18.252L41.054 19.746C42.674 18.234 43.916 16.506 44.744 14.598C45.428 12.906 45.95 10.602 46.328 7.722H46.976C46.94 12.816 46.886 15.786 46.778 16.632C46.634 17.622 46.076 18.126 45.122 18.126C44.69 18.126 44.204 18.09 43.628 18.036L44.06 19.71C44.708 19.764 45.176 19.8 45.428 19.8C47.264 19.8 48.29 19.026 48.506 17.478C48.686 16.038 48.776 12.186 48.776 5.922H41.972C42.17 5.202 42.35 4.446 42.53 3.636L40.766 3.168ZM34.718 8.586H35.708V12.888C34.736 13.212 33.764 13.482 32.774 13.68L33.224 15.498C34.07 15.246 34.898 14.958 35.708 14.67V19.872H37.544V13.932C37.922 13.752 38.3 13.59 38.696 13.41V11.646C38.3 11.826 37.922 12.006 37.544 12.186V8.586H38.768V6.786H37.544V3.24H35.708V6.786H34.934C34.988 6.102 35.024 5.418 35.06 4.734L33.386 4.608C33.314 6.696 33.044 8.694 32.558 10.584L34.214 11.052C34.412 10.26 34.574 9.432 34.718 8.586ZM58.208 6.948V8.712H61.52V9.378C61.52 10.026 61.484 10.638 61.412 11.25H57.92V13.05H61.142C60.584 15.534 59.396 17.352 57.578 18.468L58.712 19.998C60.584 18.774 61.88 16.92 62.618 14.454C63.194 16.254 64.364 18.072 66.128 19.908L67.424 18.504C65.444 16.668 64.202 14.85 63.716 13.05H67.136V11.25H63.23C63.302 10.53 63.338 9.756 63.338 8.946V8.712H66.812V6.948H64.526C65.03 6.102 65.534 5.076 66.038 3.888L64.292 3.222C63.842 4.554 63.302 5.796 62.672 6.948H60.584L61.862 6.048C61.502 5.256 60.98 4.338 60.314 3.294L58.874 4.212C59.522 5.202 60.044 6.12 60.44 6.948H58.208ZM50.756 3.78V5.508H51.656V16.02L50.666 16.164L51.116 17.946C52.556 17.658 53.942 17.352 55.292 17.028V19.89H57.11V16.524C57.434 16.434 57.776 16.344 58.1 16.236V14.418C57.776 14.526 57.452 14.634 57.11 14.742V5.508H58.064V3.78H50.756ZM53.438 15.696V13.068H55.292V15.264C54.68 15.408 54.068 15.552 53.438 15.696ZM53.438 11.376V9.324H55.292V11.376H53.438ZM53.438 7.632V5.508H55.292V7.632H53.438ZM76.226 15.696L77.468 14.454C76.82 13.446 76.19 12.528 75.578 11.7C75.992 10.224 76.334 8.604 76.604 6.804L74.876 6.498C74.714 7.686 74.498 8.838 74.246 9.918C73.634 9.126 73.058 8.442 72.518 7.866L71.456 8.892V5.598H82.544V15.174C81.896 14.094 81.266 13.086 80.654 12.168C81.158 10.584 81.572 8.802 81.878 6.858L80.114 6.552C79.916 7.866 79.664 9.108 79.358 10.278C78.746 9.414 78.17 8.694 77.648 8.082L76.496 9.198C77.27 10.206 78.026 11.232 78.746 12.294C78.134 13.986 77.378 15.462 76.478 16.758L77.666 18.234C78.53 17.082 79.286 15.732 79.934 14.148C80.438 14.94 80.906 15.75 81.374 16.578L82.544 15.408V17.442C82.544 17.838 82.328 18.036 81.914 18.036L80.258 17.946L80.726 19.764H82.526C83.768 19.764 84.398 19.134 84.398 17.874V3.798H69.602V19.89H71.456V9.09C72.212 10.008 72.968 10.962 73.688 11.934C73.148 13.59 72.464 15.066 71.636 16.326L72.824 17.802C73.634 16.65 74.336 15.282 74.93 13.698C75.362 14.346 75.794 15.012 76.226 15.696ZM87.674 3.852V5.688H93.974V11.88H86.954V13.698H93.974V19.854H95.882V13.698H103.046V11.88H95.882V5.688H102.38V3.852H87.674ZM90.32 6.408L88.574 7.254C89.222 8.442 89.852 9.792 90.428 11.286L92.192 10.422C91.58 8.946 90.968 7.614 90.32 6.408ZM99.842 6.336C99.356 7.65 98.708 8.982 97.88 10.314L99.572 11.178C100.382 9.882 101.048 8.532 101.552 7.146L99.842 6.336ZM119.21 12.186H106.79V19.908H108.698V19.224H117.302V19.908H119.21V12.186ZM108.698 17.424V13.986H117.302V17.424H108.698ZM105.656 10.584C110.246 10.422 114.422 10.17 118.166 9.828C118.58 10.512 118.994 11.214 119.39 11.952L121.226 11.052C119.93 8.874 118.58 6.894 117.14 5.094L115.43 5.904C115.988 6.606 116.546 7.362 117.086 8.154C114.314 8.406 111.47 8.604 108.554 8.748C110.03 7.38 111.452 5.724 112.838 3.816L110.894 3.132C108.446 6.714 106.574 8.604 105.314 8.802L105.656 10.584Z" fill="#36435C"/>
</svg>
