<svg width="180" height="39" viewBox="0 0 180 39" fill="none" xmlns="http://www.w3.org/2000/svg">
<path d="M124.995 9.58471C117.972 9.58471 112.253 14.8771 112.253 21.3984C112.253 27.9198 117.947 33.2122 124.995 33.2122C130.187 33.2122 133.397 31.8076 135.303 29.5753L130.738 25.3865C129.785 26.766 128.005 27.669 125.02 27.669C122.311 27.669 120.003 26.1892 118.925 24.0822H131.391H137.235H137.561C137.686 23.2295 137.736 22.3265 137.736 21.3984C137.711 14.9021 132.018 9.58471 124.995 9.58471ZM118.925 18.6645C120.028 16.5827 122.311 15.1279 124.995 15.1279C127.653 15.1279 129.961 16.5576 131.065 18.6645H118.925Z" fill="white"/>
<path d="M77.1377 3.89104H70.5913V10.8639H66.4025V16.7582H70.5913V25.4116C70.5913 27.1423 71.3437 28.7726 72.7483 29.9766L73.6513 30.7792C75.4572 32.3845 77.8651 33.2623 80.4235 33.2623H84.2862V27.3429H79.5456C78.2413 27.3429 77.1628 26.4149 77.1628 25.3113V16.7582H84.2862V10.8639H77.1628V3.89104H77.1377Z" fill="white"/>
<path d="M175.259 27.3429C173.93 27.3429 172.877 26.4149 172.877 25.3113V3.89104H166.33V25.4116C166.33 27.1423 167.083 28.7726 168.462 29.9766L169.365 30.7792C171.171 32.3845 173.579 33.2623 176.137 33.2623H180V27.3429H175.259Z" fill="white"/>
<path d="M114.159 30.9046C111.5 27.0921 107.889 23.6809 103.599 20.972C108.34 16.2817 111.5 10.6131 112.78 4.51809L112.88 3.91612H112.303H106.283C104.653 11.0646 99.7619 17.4856 92.8643 21.6493V3.89104H86.3178V33.2373H92.8643V28.4215C94.8458 27.4934 96.752 26.3647 98.7084 25.0103C102.546 27.2175 105.706 29.9766 108.089 33.2373H114.786H115.689C115.639 33.2373 114.761 31.7574 114.159 30.9046Z" fill="white"/>
<path d="M151.607 9.58471C144.584 9.58471 138.865 14.8771 138.865 21.3984C138.865 27.9198 144.559 33.2122 151.607 33.2122C156.799 33.2122 160.009 31.8076 161.916 29.5753L157.351 25.3865C156.398 26.766 154.617 27.669 151.632 27.669C148.923 27.669 146.616 26.1892 145.537 24.0822H158.003H163.847H164.173C164.298 23.2295 164.349 22.3265 164.349 21.3984C164.349 14.9021 158.63 9.58471 151.607 9.58471ZM145.537 18.6645C146.641 16.5827 148.923 15.1279 151.607 15.1279C154.266 15.1279 156.573 16.5576 157.677 18.6645H145.537Z" fill="white"/>
<path d="M11.2428 0L0 19.4875H19.7374L31.0052 0H11.2428Z" fill="url(#paint0_linear_12059_93011)"/>
<path d="M37.1263 0L25.8585 19.4875H45.5959L56.8637 0H37.1263Z" fill="url(#paint1_linear_12059_93011)"/>
<path d="M56.8137 38.9002L35.7272 2.39847L25.8585 19.4876L25.9085 19.5875L37.1263 38.9751H56.8637L56.8137 38.9002Z" fill="url(#paint2_linear_12059_93011)"/>
<path d="M13.8911 38.9751V0H31.0052L19.7374 19.4875H25.8585L31.0052 10.5864V38.9751H13.8911Z" fill="url(#paint3_linear_12059_93011)"/>
<defs>
<linearGradient id="paint0_linear_12059_93011" x1="1.28808" y1="9.74802" x2="19.2834" y2="9.74802" gradientUnits="userSpaceOnUse">
<stop stop-color="#00EFFE"/>
<stop offset="0.9992" stop-color="#00CAFA"/>
</linearGradient>
<linearGradient id="paint1_linear_12059_93011" x1="47.2754" y1="-1.61973" x2="39.6969" y2="15.3417" gradientUnits="userSpaceOnUse">
<stop stop-color="#0B78E5"/>
<stop offset="1" stop-color="#2844CC"/>
</linearGradient>
<linearGradient id="paint2_linear_12059_93011" x1="25.864" y1="20.6906" x2="56.8568" y2="20.6906" gradientUnits="userSpaceOnUse">
<stop stop-color="#0B78E5"/>
<stop offset="1" stop-color="#2844CC"/>
</linearGradient>
<linearGradient id="paint3_linear_12059_93011" x1="22.4444" y1="-1.16518" x2="22.4444" y2="38.4518" gradientUnits="userSpaceOnUse">
<stop stop-color="#00EFFE"/>
<stop offset="0.9992" stop-color="#00CAFA"/>
</linearGradient>
</defs>
</svg>
