<svg width="164" height="44" viewBox="0 0 164 44" fill="none" xmlns="http://www.w3.org/2000/svg">
<path d="M17.7169 25.5337C17.7217 25.5337 17.7265 25.5328 17.7309 25.5309L26.1794 20.6591C26.1812 20.6554 26.1821 20.6513 26.1821 20.6472C26.1821 20.6431 26.1812 20.639 26.1794 20.6353V10.8996C26.1815 10.896 26.1826 10.8919 26.1826 10.8877C26.1826 10.8835 26.1815 10.8794 26.1794 10.8758L17.7309 6H17.703L9.25447 10.8758C9.25188 10.8792 9.25049 10.8834 9.25049 10.8877C9.25049 10.892 9.25188 10.8962 9.25447 10.8996V20.6353C9.25237 20.6389 9.25127 20.643 9.25127 20.6472C9.25127 20.6514 9.25237 20.6555 9.25447 20.6591L17.703 25.5309C17.7074 25.5328 17.7122 25.5337 17.7169 25.5337Z" fill="#00A971"/>
<path d="M4 27.9014H31.4339V33.3807H4V27.9014Z" fill="#00A971"/>
<path d="M124.193 36.2909V39.0504L125.251 39.0584V36.0924C125.251 34.9092 124.654 34.1905 123.485 34.1905C123.231 34.1705 122.976 34.2117 122.741 34.3105C122.506 34.4093 122.299 34.5629 122.136 34.7583H121.905V32.2688H120.851V39.0504H121.905V36.5133C121.891 36.3403 121.911 36.1662 121.966 36.0015C122.021 35.8367 122.109 35.6848 122.224 35.5549C122.339 35.4249 122.48 35.3197 122.637 35.2456C122.794 35.1715 122.965 35.13 123.138 35.1236C123.85 35.1236 124.193 35.5445 124.193 36.2909Z" fill="#898989"/>
<path d="M109.443 33.3804H111.571V32.3917H106.182V33.3804H108.322V39.0503H109.443V33.3804Z" fill="#898989"/>
<path fill-rule="evenodd" clip-rule="evenodd" d="M111.862 36.7674H115.374L115.362 36.4101C115.334 35.1792 114.602 34.1826 113.147 34.1826C111.691 34.1826 110.804 35.1594 110.804 36.6443C110.804 38.1293 111.691 39.1735 113.19 39.1735C114.423 39.1735 115.131 38.5581 115.31 37.6687H114.236C114.156 37.8717 114.009 38.0418 113.82 38.1519C113.631 38.262 113.411 38.3058 113.194 38.2762C112.339 38.2762 111.89 37.7362 111.862 36.7674ZM114.292 35.9733H111.906C111.954 35.6864 112.11 35.4283 112.34 35.2503C112.571 35.0723 112.86 34.9874 113.151 35.0125C113.429 34.9904 113.705 35.0789 113.919 35.2588C114.133 35.4387 114.267 35.6954 114.292 35.9733Z" fill="#898989"/>
<path d="M120.219 37.5297C120.068 38.5105 119.272 39.1735 118.127 39.1735C116.647 39.1735 115.768 38.1293 115.768 36.6721C115.768 35.2149 116.647 34.1906 118.127 34.1906C119.292 34.1906 120.04 34.8258 120.179 35.7549H119.133C119.071 35.5445 118.937 35.3622 118.755 35.2397C118.573 35.1172 118.353 35.0621 118.135 35.0839C117.188 35.0839 116.826 35.8224 116.826 36.6721C116.826 37.5218 117.2 38.2841 118.135 38.2841C118.37 38.3167 118.609 38.2572 118.802 38.1181C118.994 37.9791 119.126 37.7711 119.169 37.5377L120.219 37.5297Z" fill="#898989"/>
<path d="M129.479 39.0503V36.2908C129.479 35.4967 129.125 35.1235 128.425 35.1235C128.251 35.1299 128.081 35.1714 127.923 35.2455C127.766 35.3196 127.626 35.4249 127.51 35.5548C127.395 35.6847 127.307 35.8366 127.253 36.0014C127.198 36.1661 127.177 36.3402 127.192 36.5132V39.0503H126.134V34.2857H127.152V34.7423H127.379C127.548 34.5491 127.76 34.3985 127.999 34.3026C128.237 34.2067 128.495 34.1683 128.751 34.1904C129.944 34.1904 130.537 34.9091 130.537 36.0923V39.0583L129.479 39.0503Z" fill="#898989"/>
<path fill-rule="evenodd" clip-rule="evenodd" d="M133.56 39.1735C135.04 39.1735 135.947 38.1253 135.947 36.6721C135.947 35.2269 135.04 34.1826 133.56 34.1826C132.08 34.1826 131.173 35.2189 131.173 36.6721C131.173 38.1253 132.08 39.1735 133.56 39.1735ZM133.544 35.0839C134.467 35.0839 134.888 35.8423 134.888 36.6721C134.888 37.5059 134.471 38.2603 133.544 38.2603C132.617 38.2603 132.196 37.494 132.196 36.6721C132.196 35.8502 132.621 35.0839 133.544 35.0839Z" fill="#898989"/>
<path d="M137.673 32.2688H136.615V39.0504H137.673V32.2688Z" fill="#898989"/>
<path fill-rule="evenodd" clip-rule="evenodd" d="M140.752 39.1735C142.235 39.1735 143.138 38.1253 143.138 36.6721L143.122 36.6801C143.122 35.2348 142.231 34.1906 140.736 34.1906C139.24 34.1906 138.365 35.2189 138.365 36.6721C138.365 38.1253 139.268 39.1735 140.752 39.1735ZM140.72 35.0919C141.647 35.0919 142.068 35.8502 142.068 36.6801C142.068 37.5139 141.643 38.2683 140.72 38.2683C139.797 38.2683 139.375 37.502 139.375 36.6801C139.375 35.8582 139.793 35.0919 140.72 35.0919Z" fill="#898989"/>
<path fill-rule="evenodd" clip-rule="evenodd" d="M148.23 34.3017V38.8162C148.23 40.1622 147.323 41 145.931 41C144.666 41 143.818 40.4679 143.707 39.4713H144.753C144.853 39.9478 145.266 40.1344 145.911 40.1344C146.81 40.1344 147.172 39.5746 147.172 38.7408V38.4271H146.949C146.792 38.6285 146.586 38.7869 146.351 38.8876C146.116 38.9883 145.859 39.0279 145.604 39.0028C144.308 39.0028 143.512 37.9784 143.512 36.5967C143.512 35.215 144.344 34.1906 145.604 34.1906C145.862 34.1689 146.12 34.21 146.358 34.3103C146.596 34.4106 146.805 34.5671 146.969 34.7663H147.196V34.3017H148.23ZM147.196 36.5967C147.196 35.7788 146.754 35.076 145.867 35.076C145.044 35.076 144.566 35.7033 144.566 36.5967C144.566 37.4901 145.044 38.1095 145.867 38.1095C146.754 38.1095 147.196 37.4106 147.196 36.5967Z" fill="#898989"/>
<path d="M150.27 32.2688H149.184V33.2852H150.27V32.2688Z" fill="#898989"/>
<path d="M149.184 39.0504H150.25L150.242 34.2858H149.184V39.0504Z" fill="#898989"/>
<path fill-rule="evenodd" clip-rule="evenodd" d="M155.489 36.7674H151.969C152 37.7362 152.446 38.2762 153.305 38.2762C153.523 38.3092 153.746 38.267 153.937 38.1565C154.128 38.0461 154.275 37.874 154.355 37.6687H155.433C155.254 38.5581 154.542 39.1735 153.313 39.1735C151.814 39.1735 150.927 38.1293 150.927 36.6443C150.927 35.1594 151.814 34.1826 153.269 34.1826C154.725 34.1826 155.457 35.1792 155.485 36.4101L155.489 36.7674ZM152.02 35.9733H154.407C154.382 35.6954 154.248 35.4387 154.034 35.2588C153.82 35.0789 153.544 34.9904 153.265 35.0125C152.975 34.9874 152.686 35.0723 152.455 35.2503C152.224 35.4283 152.069 35.6864 152.02 35.9733Z" fill="#898989"/>
<path d="M157.879 35.0601C158.365 35.0601 158.746 35.1752 158.814 35.5723L159.888 35.5802C159.785 34.7504 159.097 34.1906 157.935 34.1906C156.571 34.1906 155.962 34.8814 155.962 35.6279C155.962 36.3743 156.467 36.7555 157.179 36.8786L158.166 37.0453C158.719 37.1486 158.941 37.3153 158.941 37.6806C158.941 38.1174 158.567 38.2961 157.943 38.2961C157.318 38.2961 156.925 38.0975 156.841 37.6131H155.787C155.891 38.5581 156.618 39.1735 157.963 39.1735C159.307 39.1735 159.999 38.4469 159.999 37.6528C159.999 36.7634 159.419 36.3187 158.552 36.1758L157.625 36.0289C157.223 35.9495 157.016 35.8979 157.016 35.5524C157.016 35.207 157.394 35.0601 157.879 35.0601Z" fill="#898989"/>
<path fill-rule="evenodd" clip-rule="evenodd" d="M55.1811 18.3402C55.1811 21.3101 54.2702 23.8989 52.5518 25.7015L55.0737 29.8229H51.987L50.4596 27.254C49.1043 27.9364 47.6018 28.2759 46.0842 28.2426C40.1177 28.2426 36.9355 23.9068 36.9355 18.3402C36.9355 12.7735 40.1177 8.43774 46.0842 8.43774C52.0507 8.43774 55.201 12.7735 55.201 18.3402H55.1811ZM48.9043 24.6612L45.6904 19.2534H48.6378L50.8096 22.8269C51.5831 21.4682 51.9632 19.9217 51.9075 18.36C51.9075 14.5841 50.1135 11.3719 46.0643 11.3719C42.015 11.3719 40.1972 14.5642 40.1972 18.3402C40.1972 22.1161 41.9951 25.3243 46.0683 25.3243C47.0554 25.354 48.0331 25.1254 48.9043 24.6612Z" fill="#3E3D49"/>
<path d="M57.1819 8.43774H60.2924V11.3521H57.1819V8.43774Z" fill="#3E3D49"/>
<path d="M60.2407 27.8932H57.2097V14.2704H60.2407V27.8932Z" fill="#3E3D49"/>
<path d="M72.5993 19.9524V27.8934H75.6303V19.3846C75.6303 15.9859 73.9119 13.9252 70.507 13.9252C68.6852 13.9252 67.3607 14.5406 66.5652 15.5848H65.9208V14.2706H62.9972V27.8934H66.0282V20.5797C66.0282 18.4555 67.3965 16.6092 69.5683 16.6092C71.581 16.6092 72.5993 17.7329 72.5993 19.9524Z" fill="#3E3D49"/>
<path fill-rule="evenodd" clip-rule="evenodd" d="M90.825 14.2706V27.2263C90.825 31.0817 88.2236 33.4878 84.23 33.4878C80.6063 33.4878 78.168 31.9632 77.8657 29.1004H80.8689C81.1632 30.4623 82.3446 30.9983 84.1942 30.9983C86.7677 30.9983 87.8139 29.4101 87.8139 27.0278V26.1027H87.1337C86.4933 27.0397 85.2841 27.7624 83.3271 27.7624C79.6 27.7624 77.3208 24.8162 77.3208 20.8577C77.3208 16.8991 79.6716 13.941 83.343 13.941C85.3795 13.941 86.6405 14.7351 87.257 15.6007H87.9014V14.2706H90.825ZM87.9014 20.8577C87.9014 18.4992 86.6405 16.4901 84.0948 16.4901C81.736 16.4901 80.3677 18.2808 80.3677 20.8577C80.3677 23.4345 81.736 25.1935 84.0948 25.1935C86.6405 25.1935 87.9014 23.1844 87.9014 20.8577Z" fill="#3E3D49"/>
<path d="M101.851 28.2347C106.179 28.2347 109.011 25.7253 109.639 22.1122H106.274C105.769 24.1331 104.214 25.3243 101.851 25.3243C97.8972 25.3243 96.0834 22.1161 96.0834 18.3402C96.0834 14.5642 97.9052 11.3561 101.847 11.3561C104.098 11.3561 105.415 12.2653 106.032 14.0838H109.409C108.716 10.6851 105.928 8.43774 101.851 8.43774C96.0993 8.43774 92.8456 12.579 92.8456 18.3322C92.8456 24.0855 96.0874 28.2347 101.851 28.2347Z" fill="#3E3D49"/>
<path d="M114.595 8.43774H111.564V27.8972H114.595V8.43774Z" fill="#3E3D49"/>
<path fill-rule="evenodd" clip-rule="evenodd" d="M123.386 28.2626C127.674 28.2626 130.276 25.2649 130.276 21.0879C130.276 16.9427 127.678 13.941 123.386 13.941C119.094 13.941 116.493 16.9308 116.493 21.0879C116.493 25.2451 119.098 28.2626 123.386 28.2626ZM123.386 16.5139C126.051 16.5139 127.245 18.7056 127.245 21.0879C127.245 23.5258 126.055 25.6937 123.386 25.6937C120.717 25.6937 119.524 23.4703 119.524 21.0879C119.524 18.7056 120.721 16.5139 123.386 16.5139Z" fill="#3E3D49"/>
<path d="M135.017 14.2705V22.2115C135.017 24.431 136.035 25.5547 138.044 25.5547C140.216 25.5547 141.584 23.7084 141.584 21.5842V14.2705H144.615V27.8933H141.691V26.583H141.047C140.251 27.6273 138.931 28.2427 137.109 28.2427C133.704 28.2427 131.986 26.182 131.986 22.7833V14.2705H135.017Z" fill="#3E3D49"/>
<path fill-rule="evenodd" clip-rule="evenodd" d="M156.989 15.5847H156.345C155.613 14.6198 154.444 13.921 152.431 13.921C148.756 13.921 146.532 16.9982 146.532 21.0679C146.532 25.1377 148.732 28.2426 152.431 28.2426C154.464 28.2426 155.701 27.52 156.452 26.5829H157.097V27.8932H160.02V8.43774H156.989V15.5847ZM153.27 16.5137C155.923 16.5137 157.049 18.7055 157.049 21.0878C157.049 23.5257 155.923 25.6936 153.27 25.6936C150.776 25.6936 149.543 23.7083 149.543 21.0878C149.543 18.4672 150.776 16.5137 153.27 16.5137Z" fill="#3E3D49"/>
</svg>
