<svg width="325" height="210" viewBox="0 0 325 210" fill="none" xmlns="http://www.w3.org/2000/svg">
<path d="M4.548 194.664V195.444H7.08C6.216 196.728 5.508 197.52 4.956 197.82C4.908 197.844 4.86 197.868 4.788 197.892L4.98 198.636C6.048 198.6 7.056 198.552 7.992 198.492C7.104 199.404 6 200.088 4.68 200.532L5.136 201.252C7.368 200.448 9.072 198.96 10.236 196.776L9.504 196.392C9.24 196.872 8.952 197.328 8.64 197.748C7.776 197.808 6.912 197.856 6.048 197.892C6.612 197.4 7.272 196.584 8.028 195.444H11.52V194.664H8.628C8.436 194.112 8.232 193.62 8.04 193.188L7.14 193.332C7.38 193.74 7.584 194.184 7.764 194.664H4.548ZM8.748 201.936C9.648 202.752 10.368 203.544 10.908 204.288L11.532 203.664C10.908 202.908 10.164 202.164 9.3 201.42C10.104 200.604 10.812 199.644 11.412 198.564L10.68 198.168C9.24 200.832 7.068 202.62 4.176 203.544L4.644 204.288C6.204 203.76 7.572 202.968 8.748 201.936ZM1.968 193.488L1.368 194.076C2.22 194.712 2.892 195.312 3.384 195.876L3.972 195.288C3.42 194.688 2.76 194.088 1.968 193.488ZM0.504 197.016V197.844H2.268V202.644C2.268 202.836 2.172 203.004 2.004 203.16L2.34 203.928C3.156 203.388 3.936 202.764 4.668 202.068L4.428 201.156C3.96 201.612 3.516 202.02 3.096 202.368V197.016H0.504ZM13.896 199.464V200.28H17.556V203.124H12.888V203.952H23.124V203.124H18.432V200.28H22.116V199.464H13.896ZM19.116 196.092L18.66 196.776C19.824 197.304 20.964 198.024 22.068 198.936L22.56 198.204C21.528 197.376 20.376 196.668 19.116 196.092ZM16.608 196.176C15.732 196.98 14.628 197.628 13.284 198.12L13.656 198.912C15.048 198.348 16.212 197.64 17.148 196.8L16.608 196.176ZM18.048 193.272L17.112 193.416C17.292 193.752 17.46 194.124 17.616 194.532H12.912V196.932H13.788V195.336H22.224V196.944H23.1V194.532H18.504C18.36 194.064 18.204 193.644 18.048 193.272ZM27.672 196.596V202.188H32.232V196.596H27.672ZM31.428 201.42H28.488V199.776H31.428V201.42ZM28.488 199.008V197.364H31.428V199.008H28.488ZM33.576 204.252C34.38 204.252 34.788 203.82 34.788 202.98V193.944H29.292V194.748H33.948V202.74C33.948 203.22 33.756 203.472 33.396 203.472L32.352 203.448L32.568 204.252H33.576ZM25.188 195.336V204.36H26.028V195.336H25.188ZM26.928 193.236L26.136 193.584C26.676 194.232 27.168 194.976 27.624 195.816L28.392 195.408C27.972 194.616 27.48 193.896 26.928 193.236ZM42.012 197.676C41.46 197.724 40.872 197.772 40.248 197.82V196.872H42.12V196.164H40.248V195.372H39.456V196.164H38.064C38.364 195.768 38.652 195.312 38.916 194.808H42.204V194.04H39.276C39.372 193.824 39.456 193.608 39.54 193.392L38.676 193.248C38.58 193.512 38.472 193.776 38.364 194.04H36.696V194.808H37.98C37.692 195.348 37.368 195.804 37.032 196.188L37.224 196.872H39.456V197.868C38.64 197.916 37.764 197.952 36.852 198L36.96 198.768C37.824 198.72 38.664 198.66 39.456 198.612V199.476H40.248V198.552C40.86 198.492 41.448 198.432 42.012 198.384V197.676ZM43.692 196.884H45.252V199.488H46.08V196.884H47.352V196.128H43.752V194.88C45.048 194.736 46.128 194.46 47.016 194.076L46.464 193.428C45.624 193.812 44.448 194.076 42.96 194.22V196.104C42.936 197.184 42.648 198.108 42.12 198.888L42.72 199.512C43.236 198.768 43.56 197.892 43.692 196.884ZM46.008 199.836H38.136V204.348H39.024V203.88H45.12V204.348H46.008V199.836ZM39.024 203.136V202.2H45.12V203.136H39.024ZM39.024 201.504V200.568H45.12V201.504H39.024ZM53.556 193.392V195.036H49.524V195.876H53.556V198H48.804V198.84H52.776C51.912 200.484 50.52 201.828 48.6 202.884L49.092 203.688C51.132 202.416 52.584 200.808 53.448 198.84H53.556V204.312H54.444V198.84H54.54C55.332 200.616 56.76 202.212 58.8 203.652L59.4 202.884C57.432 201.696 56.04 200.352 55.236 198.84H59.196V198H54.444V195.876H58.56V195.036H54.444V193.392H53.556ZM63.96 201.912C63 202.368 61.872 202.728 60.588 202.992L60.696 203.856C61.92 203.568 63 203.208 63.96 202.764V201.912ZM62.208 193.32C61.836 194.784 61.392 196.08 60.876 197.208C60.78 197.352 60.66 197.46 60.54 197.52L60.744 198.264C61.308 198.156 61.872 198.036 62.448 197.916C61.92 199.056 61.464 199.86 61.092 200.34C60.996 200.436 60.864 200.52 60.72 200.58L60.936 201.336C61.848 201.192 62.784 200.916 63.756 200.508V199.728C63.156 199.98 62.556 200.184 61.956 200.34C62.556 199.464 63.312 198.012 64.212 195.972L63.42 195.672C63.204 196.2 62.988 196.692 62.796 197.16C62.364 197.256 61.932 197.328 61.512 197.4C62.028 196.464 62.532 195.216 63.036 193.644L62.208 193.32ZM64.38 197.256V198.036H65.472V198.744C65.46 199.068 65.448 199.392 65.424 199.704H64.128V200.484H65.328C65.088 201.888 64.536 202.968 63.672 203.724L64.308 204.276C65.292 203.4 65.904 202.14 66.168 200.484H67.632V199.704H66.252C66.276 199.404 66.288 199.08 66.3 198.744V198.036H67.392V197.256H66.3V195.552H67.536V194.772H66.3V193.44H65.472V194.772H64.14V195.552H65.472V197.256H64.38ZM68.04 193.836V204.288H68.844V194.628H70.308C69.996 195.912 69.66 197.028 69.324 197.976C70.14 199.272 70.56 200.328 70.572 201.12C70.572 201.444 70.524 201.66 70.452 201.78C70.356 201.888 70.176 201.948 69.888 201.972C69.684 201.972 69.444 201.948 69.168 201.924L69.396 202.704C70.164 202.704 70.68 202.584 70.944 202.344C71.184 202.116 71.304 201.708 71.304 201.12C71.292 200.304 70.884 199.26 70.092 197.976C70.452 196.896 70.788 195.732 71.1 194.472V193.836H68.04ZM74.484 196.908V197.724H77.628V202.956C77.508 202.932 77.388 202.896 77.28 202.86C76.416 202.584 75.696 201.936 75.12 200.904C75.336 200.28 75.528 199.596 75.672 198.852L74.832 198.708C74.424 200.772 73.656 202.416 72.504 203.64L73.056 204.324C73.74 203.628 74.316 202.764 74.784 201.732C75.276 202.512 75.924 203.088 76.716 203.46C77.772 203.904 79.5 204.132 81.924 204.132H83.268L83.424 203.268C82.776 203.316 82.152 203.34 81.54 203.34C80.34 203.328 79.332 203.256 78.492 203.136V200.652H82.068V199.836H78.492V197.724H81.54V196.908H74.484ZM82.908 194.568H78.552C78.384 194.076 78.192 193.632 78 193.236L77.076 193.38C77.292 193.74 77.496 194.136 77.676 194.568H73.092V197.184H73.932V195.36H82.068V197.124H82.908V194.568ZM87.444 198.096C87.816 198.552 88.26 199.152 88.776 199.896L89.268 199.164C88.656 198.444 88.044 197.784 87.444 197.208V196.524H89.028V195.696H87.444V193.356H86.58V195.696H84.696V196.524H86.556C86.136 198.024 85.428 199.356 84.444 200.532L84.828 201.504C85.56 200.484 86.148 199.344 86.58 198.072V204.3H87.444V198.096ZM93.876 194.904C93.588 196.776 93.024 198.432 92.16 199.872C91.284 198.408 90.78 196.752 90.636 194.904H93.876ZM91.656 200.64C90.84 201.78 89.796 202.764 88.536 203.604L89.088 204.3C90.3 203.508 91.332 202.548 92.172 201.408C92.916 202.452 93.864 203.424 94.992 204.312L95.58 203.616C94.404 202.74 93.444 201.756 92.676 200.676C93.684 199.068 94.368 197.136 94.716 194.892V194.076H89.316V194.904H89.796C89.964 197.004 90.588 198.912 91.656 200.64ZM97.008 193.824V204.36H97.848V194.652H99.828C99.516 195.648 99.072 196.776 98.508 198.024C99.348 199.032 99.768 199.956 99.768 200.772C99.768 201.024 99.684 201.204 99.54 201.312C99.384 201.408 99.084 201.468 98.64 201.492C98.52 201.492 98.364 201.468 98.172 201.444L98.46 202.32C99.324 202.308 99.924 202.164 100.26 201.888C100.5 201.66 100.632 201.288 100.632 200.772C100.584 199.908 100.164 198.948 99.396 197.892C99.9 196.716 100.332 195.6 100.692 194.52V193.824H97.008ZM102.108 196.824H105.648V198.18H102.108V196.824ZM105.648 196.032H102.108V194.652H105.648V196.032ZM103.488 198.972C103.896 201.216 105.108 202.98 107.1 204.252L107.58 203.496C106.668 202.956 105.948 202.308 105.396 201.552C106.08 201.204 106.692 200.7 107.244 200.052L106.68 199.488C106.14 200.136 105.576 200.616 105 200.94C104.652 200.34 104.412 199.68 104.268 198.972H106.488V193.836H101.256V203.124C101.256 203.244 101.16 203.34 100.992 203.4L101.196 204.144C102.504 203.796 103.584 203.436 104.448 203.064L104.256 202.26C103.548 202.584 102.828 202.86 102.108 203.076V198.972H103.488ZM110.232 201.72C109.992 201.72 109.812 201.78 109.668 201.924C109.524 202.056 109.452 202.236 109.452 202.464C109.452 202.668 109.524 202.848 109.668 202.992C109.812 203.136 109.98 203.208 110.184 203.208C110.304 203.208 110.4 203.184 110.448 203.16C110.448 203.448 110.364 203.712 110.184 203.964C109.992 204.204 109.74 204.384 109.428 204.492V205.08C109.932 204.948 110.352 204.684 110.664 204.3C110.976 203.892 111.132 203.424 111.132 202.896C111.132 202.548 111.048 202.272 110.892 202.056C110.724 201.828 110.496 201.72 110.232 201.72ZM122.208 193.644L121.548 194.112C122.196 194.784 122.736 195.42 123.156 196.02L123.828 195.552C123.444 195 122.904 194.364 122.208 193.644ZM126.432 198.708L125.736 199.14C126.552 200.076 127.188 200.94 127.668 201.708L128.424 201.18C127.956 200.484 127.296 199.656 126.432 198.708ZM124.932 193.344V194.772C124.92 195.3 124.896 195.804 124.86 196.308H121.032V197.148H124.764C124.608 198.348 124.344 199.392 123.972 200.28C123.348 201.636 122.22 202.716 120.612 203.532L121.104 204.3C122.736 203.496 123.9 202.38 124.608 200.952C125.1 199.92 125.436 198.66 125.628 197.148H129.78C129.78 198.684 129.732 200.112 129.636 201.42C129.54 202.716 129.144 203.4 128.472 203.448C127.968 203.448 127.416 203.424 126.804 203.376L127.032 204.216C127.44 204.24 127.932 204.264 128.52 204.264C129.324 204.264 129.888 203.796 130.2 202.86C130.5 201.924 130.656 199.74 130.656 196.308H125.712C125.748 195.816 125.772 195.3 125.784 194.772V193.344H124.932ZM137.748 197.34V202.98C137.748 203.28 137.58 203.436 137.256 203.436C136.584 203.436 135.948 203.412 135.36 203.364L135.6 204.204C136.14 204.228 136.776 204.252 137.496 204.252C138.24 204.252 138.624 203.88 138.624 203.136V197.772C140.028 196.86 141.288 195.9 142.404 194.892V194.052H133.332V194.892H141.228C140.124 195.828 138.972 196.644 137.748 197.34ZM144.78 195.12V195.948H148.128C148.116 196.356 148.092 196.932 148.056 197.688C147.996 198.828 147.768 199.86 147.36 200.784C146.94 201.708 146.088 202.704 144.816 203.784L145.44 204.384C146.496 203.532 147.312 202.596 147.9 201.564C148.332 200.772 148.632 199.896 148.788 198.924H152.988C152.964 200.58 152.928 201.672 152.856 202.176C152.712 203.016 152.34 203.448 151.728 203.472C151.308 203.472 150.792 203.46 150.168 203.436L150.432 204.216C150.96 204.24 151.428 204.264 151.812 204.264C152.76 204.228 153.348 203.7 153.588 202.68C153.744 202.008 153.84 200.484 153.864 198.108H148.884V198.084L148.992 195.948H155.316V195.12H150.828C150.54 194.412 150.228 193.8 149.892 193.296L149.076 193.596C149.424 194.076 149.712 194.592 149.952 195.12H144.78ZM160.116 193.86V194.652H163.08V195.72H160.248V200.328H163.044C162.972 200.976 162.768 201.552 162.444 202.032C161.892 201.648 161.388 201.204 160.932 200.7L160.284 201.156C160.764 201.708 161.304 202.188 161.892 202.596C161.34 203.016 160.512 203.376 159.396 203.664L159.84 204.36C161.064 204.036 161.988 203.604 162.636 203.064C163.968 203.832 165.528 204.264 167.328 204.36L167.544 203.568C165.876 203.496 164.424 203.124 163.176 202.464C163.572 201.888 163.812 201.18 163.896 200.328H166.752V195.72H163.92V194.652H167.316V193.86H160.116ZM165.936 199.62H163.92V198.36H165.936V199.62ZM163.08 199.62H161.064V198.36H163.08V199.62ZM161.064 197.652V196.428H163.08V197.652H161.064ZM163.92 196.428H165.936V197.652H163.92V196.428ZM157.872 197.688V204.336H158.724V196.2C159.108 195.408 159.42 194.58 159.684 193.704L158.904 193.344C158.4 195.204 157.572 196.86 156.444 198.3L156.732 199.212C157.14 198.732 157.524 198.216 157.872 197.688ZM174.984 200.016C175.584 200.016 175.896 199.68 175.896 199.02V195.768H175.032V198.816C175.032 199.116 174.912 199.272 174.696 199.272C174.432 199.272 174.144 199.248 173.844 199.212L174.024 200.016H174.984ZM170.064 196.572V200.028H170.904V195.444C171.288 194.856 171.636 194.208 171.948 193.512L171.108 193.332C170.412 194.856 169.524 196.092 168.444 197.028L168.984 197.688C169.356 197.352 169.716 196.98 170.064 196.572ZM173.808 193.32C173.244 194.58 172.512 195.6 171.612 196.392L172.14 197.04C172.716 196.512 173.244 195.912 173.7 195.216H178.128C177.996 195.696 177.828 196.128 177.624 196.524L178.404 196.728C178.644 196.152 178.836 195.564 178.992 194.964V194.424H174.18C174.324 194.136 174.48 193.824 174.624 193.5L173.808 193.32ZM169.86 200.64C169.62 201.624 169.26 202.536 168.756 203.352L169.488 203.82C170.004 202.968 170.4 201.96 170.688 200.808L169.86 200.64ZM175.764 204.168C176.196 204.168 176.52 204.072 176.724 203.88C176.964 203.652 177.12 203.016 177.204 201.96L176.388 201.696C176.34 202.488 176.256 202.968 176.112 203.136C176.004 203.28 175.836 203.352 175.596 203.352H172.956C172.62 203.352 172.464 203.172 172.464 202.836V200.484H171.588V203.016C171.588 203.784 171.948 204.168 172.692 204.168H175.764ZM177.804 200.268L177.096 200.7C177.828 201.732 178.416 202.68 178.848 203.544L179.556 203.04C179.148 202.248 178.572 201.324 177.804 200.268ZM173.484 196.92C173.052 197.784 172.536 198.54 171.936 199.188L172.596 199.644C173.196 198.972 173.724 198.168 174.18 197.244L173.484 196.92ZM177.468 196.908L176.736 197.22C177.288 197.94 177.804 198.756 178.26 199.692L178.992 199.32C178.548 198.432 178.044 197.628 177.468 196.908ZM174.084 200.16L173.412 200.58C173.988 201.252 174.444 201.876 174.78 202.428L175.452 201.96C175.14 201.444 174.684 200.844 174.084 200.16ZM184.848 195.42H182.916C183.156 194.82 183.336 194.16 183.48 193.452L182.616 193.332C182.508 194.052 182.34 194.748 182.1 195.42H180.984V203.952H181.824V202.92H184.008V203.604H184.848V195.42ZM181.824 202.116V199.488H184.008V202.116H181.824ZM181.824 198.708V196.236H184.008V198.708H181.824ZM186.936 198.204L186.24 198.636C187.068 199.62 187.728 200.508 188.22 201.3L188.904 200.82C188.448 200.076 187.8 199.2 186.936 198.204ZM191.052 195.432H187.224C187.44 194.808 187.608 194.136 187.752 193.428L186.9 193.32C186.588 195.024 186.024 196.464 185.184 197.64L185.7 198.324C186.168 197.712 186.564 197.028 186.9 196.272H190.2C190.176 199.728 190.128 201.804 190.056 202.476C189.96 203.088 189.636 203.4 189.072 203.4C188.7 203.4 188.268 203.388 187.764 203.364L187.968 204.156C188.544 204.18 188.952 204.204 189.192 204.204C190.2 204.204 190.752 203.736 190.872 202.824C190.992 201.888 191.052 199.416 191.052 195.432ZM196.104 194.568V195.396H199.248V196.536H196.512V199.932H199.2C199.128 200.772 198.96 201.456 198.708 201.984C198.072 201.528 197.496 200.988 196.98 200.34L196.32 200.796C196.872 201.504 197.508 202.116 198.216 202.62C197.664 203.148 196.764 203.484 195.54 203.616L195.912 204.408C197.304 204.204 198.324 203.772 198.972 203.112C200.244 203.856 201.72 204.276 203.4 204.384L203.616 203.556C202.044 203.472 200.652 203.1 199.452 202.44C199.776 201.84 199.98 201.012 200.076 199.932H202.932V196.536H200.124V195.396H203.424V194.568H200.124V193.344H199.248V194.568H196.104ZM202.116 199.152H200.112C200.112 199.056 200.124 198.96 200.124 198.864V197.304H202.116V199.152ZM199.236 199.152H197.328V197.304H199.248V198.864C199.248 198.96 199.236 199.056 199.236 199.152ZM193.908 197.676V204.372H194.772V196.296C195.216 195.468 195.588 194.58 195.888 193.644L195.072 193.272C194.52 195.168 193.62 196.848 192.372 198.312L192.66 199.224C193.116 198.732 193.524 198.216 193.908 197.676ZM206.556 197.532H209.604V199.632H206.556V197.532ZM206.508 200.424H209.604V203.94H210.492V200.424H213.756V202.512C213.756 203.016 213.528 203.268 213.096 203.268C212.688 203.268 212.244 203.244 211.764 203.22L211.992 204.072H213.372C214.212 204.072 214.632 203.652 214.632 202.812V193.824H205.692V199.584C205.668 201.228 205.272 202.584 204.504 203.652L205.164 204.24C205.932 203.232 206.376 201.96 206.508 200.424ZM213.756 199.632H210.492V197.532H213.756V199.632ZM213.756 196.728H210.492V194.664H213.756V196.728ZM209.604 194.664V196.728H206.556V194.664H209.604ZM218.232 201.72C217.992 201.72 217.812 201.78 217.668 201.924C217.524 202.056 217.452 202.236 217.452 202.464C217.452 202.668 217.524 202.848 217.668 202.992C217.812 203.136 217.98 203.208 218.184 203.208C218.304 203.208 218.4 203.184 218.448 203.16C218.448 203.448 218.364 203.712 218.184 203.964C217.992 204.204 217.74 204.384 217.428 204.492V205.08C217.932 204.948 218.352 204.684 218.664 204.3C218.976 203.892 219.132 203.424 219.132 202.896C219.132 202.548 219.048 202.272 218.892 202.056C218.724 201.828 218.496 201.72 218.232 201.72ZM235.368 193.344V194.124H232.464V194.832H235.368V195.636H232.944V196.332H235.368V197.148H232.128V197.868H239.472V197.148H236.196V196.332H238.74V195.636H236.196V194.832H239.172V194.124H236.196V193.344H235.368ZM233.868 200.892H237.744V201.768H233.868V200.892ZM237.744 200.22H233.868V199.332H237.744V200.22ZM233.868 202.44H237.744V203.124C237.744 203.4 237.588 203.544 237.3 203.544L236.34 203.508L236.544 204.276H237.552C238.224 204.276 238.572 203.952 238.572 203.304V198.624H233.04V204.348H233.868V202.44ZM229.956 193.476L229.344 194.064C230.208 194.712 230.892 195.324 231.396 195.9L231.984 195.3C231.432 194.688 230.76 194.076 229.956 193.476ZM228.504 197.016V197.844H230.22V202.608C230.22 202.812 230.124 202.992 229.944 203.16L230.28 203.928C231.024 203.388 231.744 202.764 232.416 202.068L232.188 201.156C231.78 201.576 231.408 201.948 231.048 202.284V197.016H228.504ZM245.52 195.96V196.776H247.872V197.328C247.86 197.856 247.824 198.36 247.776 198.84H245.34V199.668H247.656C247.284 201.54 246.42 202.884 245.076 203.7L245.592 204.384C246.96 203.496 247.884 202.128 248.352 200.28C248.7 201.612 249.564 202.968 250.944 204.336L251.544 203.7C250.056 202.332 249.168 200.988 248.88 199.668H251.364V198.84H248.604C248.664 198.3 248.7 197.736 248.7 197.136V196.776H251.16V195.96H249.372C249.756 195.336 250.116 194.58 250.476 193.668L249.684 193.368C249.36 194.292 248.964 195.156 248.508 195.96H245.52ZM246.708 193.44L246.048 193.86C246.528 194.556 246.9 195.18 247.176 195.756L247.824 195.312C247.56 194.772 247.188 194.148 246.708 193.44ZM240.552 193.836V194.64H241.284V201.996L240.528 202.116L240.744 202.932C241.776 202.74 242.76 202.512 243.72 202.272V204.408H244.548V202.044C244.812 201.972 245.088 201.888 245.352 201.804V200.964C245.088 201.048 244.824 201.132 244.548 201.228V194.64H245.328V193.836H240.552ZM242.112 201.84V199.692H243.72V201.468C243.192 201.6 242.664 201.72 242.112 201.84ZM242.112 198.9V197.184H243.72V198.9H242.112ZM242.112 196.404V194.64H243.72V196.404H242.112ZM257.556 204.312C258.228 204.312 258.576 203.964 258.576 203.292V200.076C259.608 199.992 260.532 199.908 261.36 199.812C261.648 200.232 261.912 200.64 262.14 201.048L262.836 200.556C262.308 199.704 261.552 198.708 260.568 197.556L259.92 197.952C260.244 198.336 260.556 198.732 260.856 199.116C259.464 199.284 257.784 199.416 255.828 199.524C257.34 198.732 259.104 197.448 261.132 195.66L260.34 195.264C259.764 195.78 259.212 196.26 258.672 196.692C257.688 196.776 256.716 196.848 255.756 196.896C256.524 196.392 257.28 195.72 258.024 194.856C259.728 194.724 261.192 194.508 262.44 194.22L262.02 193.488C259.74 193.992 256.872 194.244 253.428 194.244L253.68 195C254.832 195 255.912 194.976 256.932 194.928C256.116 195.816 255.408 196.404 254.808 196.704C254.628 196.776 254.436 196.836 254.22 196.86L254.4 197.628C255.6 197.556 256.728 197.484 257.772 197.4C256.548 198.312 255.444 198.984 254.46 199.416C254.232 199.488 253.98 199.548 253.704 199.572L253.944 200.34C255.3 200.28 256.548 200.208 257.7 200.136V203.076C257.7 203.364 257.544 203.52 257.256 203.52C256.86 203.52 256.452 203.496 256.02 203.46L256.212 204.312H257.556ZM260.22 200.808L259.644 201.36C260.916 202.32 261.912 203.22 262.644 204.06L263.256 203.448C262.44 202.56 261.432 201.684 260.22 200.808ZM255.648 200.892C254.856 201.804 253.872 202.608 252.696 203.304L253.236 204C254.436 203.268 255.444 202.416 256.26 201.432L255.648 200.892ZM273.432 198.084H266.58V204.336H267.444V203.844H273.132V204.348H273.984V201.264H267.444V200.436H273.432V198.084ZM267.444 203.076V201.96H273.132V203.076H267.444ZM267.444 199.74V198.78H272.592V199.74H267.444ZM275.088 196.632H270.528C270.408 196.296 270.276 195.996 270.144 195.72L270.792 196.116C271.056 195.756 271.308 195.372 271.524 194.964H272.28C272.568 195.348 272.82 195.756 273.036 196.188L273.804 195.9C273.66 195.612 273.456 195.3 273.204 194.964H275.34V194.208H271.872C271.968 193.968 272.052 193.728 272.136 193.476L271.308 193.296C271.044 194.16 270.636 194.94 270.06 195.66L270.132 195.708L269.292 195.852C269.424 196.092 269.544 196.344 269.664 196.632H264.912V198.804H265.752V197.376H274.248V198.804H275.088V196.632ZM266.352 194.964H267.036C267.336 195.396 267.6 195.84 267.816 196.296L268.608 195.996C268.44 195.672 268.212 195.324 267.948 194.964H269.964V194.208H266.748C266.844 193.968 266.952 193.728 267.048 193.464L266.22 193.284C265.884 194.196 265.356 195.036 264.636 195.78L265.392 196.26C265.752 195.864 266.064 195.432 266.352 194.964ZM280.992 193.824V199.368H283.5V200.784H280.788V201.6H283.5V203.16H280.284V203.988H287.508V203.16H284.364V201.6H287.064V200.784H284.364V199.368H286.86V193.824H280.992ZM286.032 198.6H284.364V196.98H286.032V198.6ZM283.5 198.6H281.82V196.98H283.5V198.6ZM281.82 196.224V194.592H283.5V196.224H281.82ZM284.364 194.592H286.032V196.224H284.364V194.592ZM276.756 197.796V198.624H278.064V201.636C277.548 201.78 277.02 201.9 276.492 201.996L276.708 202.824C277.98 202.512 279.168 202.128 280.272 201.672V200.832C279.84 201.024 279.408 201.192 278.952 201.348V198.624H280.272V197.796H278.952V194.952H280.416V194.136H276.588V194.952H278.064V197.796H276.756ZM298.044 197.7H289.968V202.32H290.82V198.492H297.192V202.176H298.044V197.7ZM290.688 193.788V196.8H297.324V193.788H290.688ZM296.484 196.044H291.528V194.556H296.484V196.044ZM293.676 199.272C293.58 200.748 293.244 201.792 292.692 202.404C292.056 203.064 290.76 203.448 288.816 203.568L289.152 204.348C291.384 204.144 292.812 203.664 293.436 202.92C294.012 202.296 294.384 201.108 294.552 199.344L293.676 199.272ZM294.864 202.056L294.432 202.704C295.884 203.112 297.3 203.664 298.68 204.384L299.148 203.664C297.852 203.04 296.424 202.5 294.864 202.056ZM303.96 201.912C303 202.368 301.872 202.728 300.588 202.992L300.696 203.856C301.92 203.568 303 203.208 303.96 202.764V201.912ZM302.208 193.32C301.836 194.784 301.392 196.08 300.876 197.208C300.78 197.352 300.66 197.46 300.54 197.52L300.744 198.264C301.308 198.156 301.872 198.036 302.448 197.916C301.92 199.056 301.464 199.86 301.092 200.34C300.996 200.436 300.864 200.52 300.72 200.58L300.936 201.336C301.848 201.192 302.784 200.916 303.756 200.508V199.728C303.156 199.98 302.556 200.184 301.956 200.34C302.556 199.464 303.312 198.012 304.212 195.972L303.42 195.672C303.204 196.2 302.988 196.692 302.796 197.16C302.364 197.256 301.932 197.328 301.512 197.4C302.028 196.464 302.532 195.216 303.036 193.644L302.208 193.32ZM304.38 197.256V198.036H305.472V198.744C305.46 199.068 305.448 199.392 305.424 199.704H304.128V200.484H305.328C305.088 201.888 304.536 202.968 303.672 203.724L304.308 204.276C305.292 203.4 305.904 202.14 306.168 200.484H307.632V199.704H306.252C306.276 199.404 306.288 199.08 306.3 198.744V198.036H307.392V197.256H306.3V195.552H307.536V194.772H306.3V193.44H305.472V194.772H304.14V195.552H305.472V197.256H304.38ZM308.04 193.836V204.288H308.844V194.628H310.308C309.996 195.912 309.66 197.028 309.324 197.976C310.14 199.272 310.56 200.328 310.572 201.12C310.572 201.444 310.524 201.66 310.452 201.78C310.356 201.888 310.176 201.948 309.888 201.972C309.684 201.972 309.444 201.948 309.168 201.924L309.396 202.704C310.164 202.704 310.68 202.584 310.944 202.344C311.184 202.116 311.304 201.708 311.304 201.12C311.292 200.304 310.884 199.26 310.092 197.976C310.452 196.896 310.788 195.732 311.1 194.472V193.836H308.04ZM314.484 196.908V197.724H317.628V202.956C317.508 202.932 317.388 202.896 317.28 202.86C316.416 202.584 315.696 201.936 315.12 200.904C315.336 200.28 315.528 199.596 315.672 198.852L314.832 198.708C314.424 200.772 313.656 202.416 312.504 203.64L313.056 204.324C313.74 203.628 314.316 202.764 314.784 201.732C315.276 202.512 315.924 203.088 316.716 203.46C317.772 203.904 319.5 204.132 321.924 204.132H323.268L323.424 203.268C322.776 203.316 322.152 203.34 321.54 203.34C320.34 203.328 319.332 203.256 318.492 203.136V200.652H322.068V199.836H318.492V197.724H321.54V196.908H314.484ZM322.908 194.568H318.552C318.384 194.076 318.192 193.632 318 193.236L317.076 193.38C317.292 193.74 317.496 194.136 317.676 194.568H313.092V197.184H313.932V195.36H322.068V197.124H322.908V194.568Z" fill="#404E68"/>
<circle cx="134.454" cy="73.9363" r="71.9363" stroke="#D8E2EB" stroke-width="4" stroke-linecap="round"/>
<circle cx="134.454" cy="73.9368" r="65.0852" fill="#D8E2EB" fill-opacity="0.6"/>
<path d="M133.519 33.7617L168.579 54.0035V94.4872L133.519 114.729L98.4589 94.4872V54.0035L133.519 33.7617Z" fill="#10B981"/>
<path fill-rule="evenodd" clip-rule="evenodd" d="M140.352 62.5333C140.352 58.856 137.41 55.875 133.782 55.875C133.541 55.875 133.3 55.8884 133.06 55.9153C129.453 56.3192 126.853 59.6096 127.251 63.2646L127.675 67.1535C128.019 70.3082 130.65 72.6957 133.782 72.6957C136.914 72.6957 139.544 70.3082 139.888 67.1535L140.312 63.2646C140.339 63.0218 140.352 62.7777 140.352 62.5333ZM133.519 75.323C124.236 75.323 117.75 79.0558 117.75 84.4004V92.9321H149.289V84.4004C149.289 79.0558 142.802 75.323 133.519 75.323Z" fill="#F6F7FB"/>
<path d="M282.998 124.385C282.998 114.926 275.33 107.258 265.87 107.258H187.706V141.513H265.87C275.33 141.513 282.998 133.845 282.998 124.385Z" fill="#D8E2EB"/>
<rect x="202.031" y="119.715" width="64.7738" height="9.34237" fill="#EFF4F9"/>
<circle cx="188.952" cy="122.825" r="20.6847" fill="#324558" stroke="#EFF4F9" stroke-width="4"/>
<path d="M66.8472 4.14844L89.2316 17.0721V42.9193L66.8472 55.8429L44.4629 42.9193V17.0721L66.8472 4.14844Z" fill="#324558"/>
<path d="M68.4364 30.2267C68.4364 30.9768 67.8283 31.5849 67.0782 31.5849C66.3281 31.5849 65.72 30.9768 65.72 30.2267C65.72 29.4765 66.3281 28.8684 67.0782 28.8684C67.8283 28.8684 68.4364 29.4765 68.4364 30.2267Z" fill="white"/>
<path fill-rule="evenodd" clip-rule="evenodd" d="M64.3618 21.1719H62.5508V22.9828H60.7399C60.2398 22.9828 59.8344 23.3882 59.8344 23.8883V25.6993H58.0234V27.5102H59.8344V29.3212H58.0234V31.1321H59.8344V32.9431H58.0234V34.754H59.8344V36.565C59.8344 37.0651 60.2398 37.4705 60.7399 37.4705H62.5508V39.2814H64.3618V37.4705H66.1727V39.2814H67.9837V37.4705H69.7947V39.2814H71.6056V37.4705H73.4166C73.9166 37.4705 74.322 37.0651 74.322 36.565V34.754H76.133V32.9431H74.322V31.1321H76.133V29.3212H74.322V27.5102H76.133V25.6993H74.322V23.8883C74.322 23.3882 73.9166 22.9828 73.4166 22.9828H71.6056V21.1719H69.7947V22.9828H67.9837V21.1719H66.1727V22.9828H64.3618V21.1719ZM66.2186 26.6047L66.0372 27.5187C65.7347 27.6311 65.4549 27.7882 65.2093 27.9863L64.3159 27.6835L63.4563 29.1479L64.1712 29.7584C64.1458 29.9112 64.1294 30.0668 64.1294 30.2267C64.1294 30.3865 64.1458 30.5421 64.1712 30.695L63.4563 31.3054L64.3159 32.7698L65.2093 32.467C65.4549 32.6651 65.7347 32.8222 66.0372 32.9346L66.2186 33.8486H67.9378L68.1192 32.9346C68.4218 32.8222 68.7015 32.6651 68.9471 32.467L69.8405 32.7698L70.7001 31.3054L69.9853 30.695C70.0106 30.5421 70.027 30.3865 70.027 30.2267C70.027 30.0668 70.0106 29.9112 69.9853 29.7584L70.7001 29.1479L69.8405 27.6835L68.9471 27.9863C68.7015 27.7882 68.4218 27.6311 68.1192 27.5187L67.9378 26.6047H66.2186Z" fill="white"/>
<path fill-rule="evenodd" clip-rule="evenodd" d="M199.51 119.382C199.51 122.683 196.835 125.359 193.534 125.359C192.802 125.359 192.101 125.227 191.452 124.986L189.198 127.24C188.03 126.769 186.643 127.007 185.696 127.953C184.749 128.9 184.511 130.288 184.983 131.456L183.403 133.035C183.216 133.222 182.963 133.327 182.699 133.327H180.088C179.813 133.327 179.59 133.104 179.59 132.829L179.59 129.755C179.59 129.491 179.695 129.238 179.882 129.051L187.814 121.119C187.648 120.569 187.558 119.986 187.558 119.382C187.558 116.082 190.234 113.406 193.534 113.406C196.835 113.406 199.51 116.082 199.51 119.382ZM195.526 119.382C195.526 120.483 194.634 121.374 193.534 121.374C192.434 121.374 191.542 120.483 191.542 119.382C191.542 118.282 192.434 117.39 193.534 117.39C194.634 117.39 195.526 118.282 195.526 119.382Z" fill="white"/>
<path d="M60.9304 120.148L78.1906 130.114V150.044L60.9304 160.009L43.6702 150.044V130.114L60.9304 120.148Z" fill="#D8E2EB"/>
<path d="M54.7674 132.406C54.3673 132.406 54.043 132.731 54.043 133.131V135.304C54.043 135.704 54.3673 136.028 54.7674 136.028H56.5783V145.083C56.5783 145.483 56.9026 145.807 57.3027 145.807H62.0112V146.17C62.0112 146.57 62.3355 146.894 62.7356 146.894H67.8062C68.2063 146.894 68.5306 146.57 68.5306 146.17V143.996C68.5306 143.596 68.2063 143.272 67.8062 143.272H62.7356C62.3355 143.272 62.0112 143.596 62.0112 143.996V144.359H58.0271V140.374H62.0112V140.737C62.0112 141.137 62.3355 141.461 62.7356 141.461H67.8062C68.2063 141.461 68.5306 141.137 68.5306 140.737V138.563C68.5306 138.163 68.2063 137.839 67.8062 137.839H62.7356C62.3355 137.839 62.0112 138.163 62.0112 138.563V138.926H58.0271V136.028H59.838C60.2381 136.028 60.5624 135.704 60.5624 135.304V133.131C60.5624 132.731 60.2381 132.406 59.838 132.406H54.7674Z" fill="white"/>
<path d="M208.847 30.1484L231.232 43.0721V68.9193L208.847 81.8429L186.463 68.9193V43.0721L208.847 30.1484Z" fill="#C8D3DD"/>
<path fill-rule="evenodd" clip-rule="evenodd" d="M209.982 54.3016C211.544 53.8995 212.698 52.4815 212.698 50.7938C212.698 48.7935 211.077 47.1719 209.076 47.1719C207.076 47.1719 205.454 48.7935 205.454 50.7938C205.454 52.4815 206.609 53.8995 208.171 54.3016V56.3468L202.61 57.1412C202.164 57.205 201.832 57.587 201.832 58.0376V60.0031C200.777 60.376 200.021 61.3822 200.021 62.565C200.021 64.0652 201.238 65.2814 202.738 65.2814C204.238 65.2814 205.454 64.0652 205.454 62.565C205.454 61.3822 204.698 60.376 203.643 60.0031V58.8229L209.076 58.0468L214.509 58.8229V60.0031C213.454 60.376 212.698 61.3822 212.698 62.565C212.698 64.0652 213.914 65.2814 215.415 65.2814C216.915 65.2814 218.131 64.0652 218.131 62.565C218.131 61.3822 217.375 60.376 216.32 60.0031V58.0376C216.32 57.587 215.989 57.205 215.543 57.1412L209.982 56.3468V54.3016ZM210.887 50.7938C210.887 51.794 210.076 52.6047 209.076 52.6047C208.076 52.6047 207.265 51.794 207.265 50.7938C207.265 49.7936 208.076 48.9828 209.076 48.9828C210.076 48.9828 210.887 49.7936 210.887 50.7938Z" fill="white"/>
</svg>
