<?xml version="1.0" encoding="utf-8"?>
<!-- Generator: Adobe Illustrator 26.0.3, SVG Export Plug-In . SVG Version: 6.00 Build 0)  -->
<svg version="1.1" id="图层_1" xmlns="http://www.w3.org/2000/svg" xmlns:xlink="http://www.w3.org/1999/xlink" x="0px" y="0px"
	 viewBox="0 0 164 44" style="enable-background:new 0 0 164 44;" xml:space="preserve">
<style type="text/css">
	.st0{fill:#00A971;}
	.st1{fill:#FFFFFF;}
	.st2{fill-rule:evenodd;clip-rule:evenodd;fill:#FFFFFF;}
</style>
<path class="st0" d="M17.7,25.5C17.7,25.5,17.7,25.5,17.7,25.5l8.5-4.9c0,0,0,0,0,0c0,0,0,0,0,0v-9.7c0,0,0,0,0,0s0,0,0,0L17.7,6h0
	l-8.4,4.9c0,0,0,0,0,0s0,0,0,0v9.7c0,0,0,0,0,0s0,0,0,0L17.7,25.5C17.7,25.5,17.7,25.5,17.7,25.5z"/>
<path class="st0" d="M4,27.9h27.4v5.5H4V27.9z"/>
<path class="st1" d="M124.2,36.3v2.8l1.1,0v-3c0-1.2-0.6-1.9-1.8-1.9c-0.3,0-0.5,0-0.7,0.1s-0.4,0.3-0.6,0.4h-0.2v-2.5h-1.1v6.8h1.1
	v-2.5c0-0.2,0-0.3,0.1-0.5c0.1-0.2,0.1-0.3,0.3-0.4c0.1-0.1,0.3-0.2,0.4-0.3c0.2-0.1,0.3-0.1,0.5-0.1
	C123.8,35.1,124.2,35.5,124.2,36.3z"/>
<path class="st1" d="M109.4,33.4h2.1v-1h-5.4v1h2.1v5.7h1.1V33.4z"/>
<path class="st2" d="M111.9,36.8h3.5l0-0.4c0-1.2-0.8-2.2-2.2-2.2c-1.5,0-2.3,1-2.3,2.5c0,1.5,0.9,2.5,2.4,2.5
	c1.2,0,1.9-0.6,2.1-1.5h-1.1c-0.1,0.2-0.2,0.4-0.4,0.5s-0.4,0.2-0.6,0.1C112.3,38.3,111.9,37.7,111.9,36.8z M114.3,36h-2.4
	c0-0.3,0.2-0.5,0.4-0.7c0.2-0.2,0.5-0.3,0.8-0.2c0.3,0,0.6,0.1,0.8,0.2C114.1,35.4,114.3,35.7,114.3,36z"/>
<path class="st1" d="M120.2,37.5c-0.2,1-0.9,1.6-2.1,1.6c-1.5,0-2.4-1-2.4-2.5s0.9-2.5,2.4-2.5c1.2,0,1.9,0.6,2.1,1.6h-1
	c-0.1-0.2-0.2-0.4-0.4-0.5s-0.4-0.2-0.6-0.2c-0.9,0-1.3,0.7-1.3,1.6s0.4,1.6,1.3,1.6c0.2,0,0.5,0,0.7-0.2c0.2-0.1,0.3-0.3,0.4-0.6
	L120.2,37.5z"/>
<path class="st1" d="M129.5,39.1v-2.8c0-0.8-0.4-1.2-1.1-1.2c-0.2,0-0.3,0-0.5,0.1c-0.2,0.1-0.3,0.2-0.4,0.3
	c-0.1,0.1-0.2,0.3-0.3,0.4c-0.1,0.2-0.1,0.3-0.1,0.5v2.5h-1.1v-4.8h1v0.5h0.2c0.2-0.2,0.4-0.3,0.6-0.4c0.2-0.1,0.5-0.1,0.8-0.1
	c1.2,0,1.8,0.7,1.8,1.9v3L129.5,39.1z"/>
<path class="st2" d="M133.6,39.2c1.5,0,2.4-1,2.4-2.5c0-1.4-0.9-2.5-2.4-2.5s-2.4,1-2.4,2.5S132.1,39.2,133.6,39.2z M133.5,35.1
	c0.9,0,1.3,0.8,1.3,1.6c0,0.8-0.4,1.6-1.3,1.6c-0.9,0-1.3-0.8-1.3-1.6S132.6,35.1,133.5,35.1z"/>
<path class="st1" d="M137.7,32.3h-1.1v6.8h1.1V32.3z"/>
<path class="st2" d="M140.8,39.2c1.5,0,2.4-1,2.4-2.5l0,0c0-1.4-0.9-2.5-2.4-2.5c-1.5,0-2.4,1-2.4,2.5S139.3,39.2,140.8,39.2z
	 M140.7,35.1c0.9,0,1.3,0.8,1.3,1.6c0,0.8-0.4,1.6-1.3,1.6s-1.3-0.8-1.3-1.6S139.8,35.1,140.7,35.1z"/>
<path class="st2" d="M148.2,34.3v4.5c0,1.3-0.9,2.2-2.3,2.2c-1.3,0-2.1-0.5-2.2-1.5h1c0.1,0.5,0.5,0.7,1.2,0.7
	c0.9,0,1.3-0.6,1.3-1.4v-0.3h-0.2c-0.2,0.2-0.4,0.4-0.6,0.5s-0.5,0.1-0.7,0.1c-1.3,0-2.1-1-2.1-2.4c0-1.4,0.8-2.4,2.1-2.4
	c0.3,0,0.5,0,0.8,0.1c0.2,0.1,0.4,0.3,0.6,0.5h0.2v-0.5H148.2z M147.2,36.6c0-0.8-0.4-1.5-1.3-1.5c-0.8,0-1.3,0.6-1.3,1.5
	c0,0.9,0.5,1.5,1.3,1.5C146.8,38.1,147.2,37.4,147.2,36.6z"/>
<path class="st1" d="M150.3,32.3h-1.1v1h1.1V32.3z"/>
<path class="st1" d="M149.2,39.1h1.1l0-4.8h-1.1V39.1z"/>
<path class="st2" d="M155.5,36.8H152c0,1,0.5,1.5,1.3,1.5c0.2,0,0.4,0,0.6-0.1c0.2-0.1,0.3-0.3,0.4-0.5h1.1
	c-0.2,0.9-0.9,1.5-2.1,1.5c-1.5,0-2.4-1-2.4-2.5c0-1.5,0.9-2.5,2.3-2.5c1.5,0,2.2,1,2.2,2.2L155.5,36.8z M152,36h2.4
	c0-0.3-0.2-0.5-0.4-0.7c-0.2-0.2-0.5-0.3-0.8-0.2c-0.3,0-0.6,0.1-0.8,0.2C152.2,35.4,152.1,35.7,152,36z"/>
<path class="st1" d="M157.9,35.1c0.5,0,0.9,0.1,0.9,0.5l1.1,0c-0.1-0.8-0.8-1.4-2-1.4c-1.4,0-2,0.7-2,1.4c0,0.7,0.5,1.1,1.2,1.3
	l1,0.2c0.6,0.1,0.8,0.3,0.8,0.6c0,0.4-0.4,0.6-1,0.6c-0.6,0-1-0.2-1.1-0.7h-1.1c0.1,0.9,0.8,1.6,2.2,1.6c1.3,0,2-0.7,2-1.5
	c0-0.9-0.6-1.3-1.4-1.5l-0.9-0.1c-0.4-0.1-0.6-0.1-0.6-0.5C157,35.2,157.4,35.1,157.9,35.1z"/>
<path class="st2" d="M55.2,18.3c0,3-0.9,5.6-2.6,7.4l2.5,4.1H52l-1.5-2.6c-1.4,0.7-2.9,1-4.4,1c-6,0-9.1-4.3-9.1-9.9
	c0-5.6,3.2-9.9,9.1-9.9S55.2,12.8,55.2,18.3L55.2,18.3z M48.9,24.7l-3.2-5.4h2.9l2.2,3.6c0.8-1.4,1.2-2.9,1.1-4.5c0-3.8-1.8-7-5.8-7
	c-4,0-5.9,3.2-5.9,7c0,3.8,1.8,7,5.9,7C47.1,25.4,48,25.1,48.9,24.7z"/>
<path class="st1" d="M57.2,8.4h3.1v2.9h-3.1V8.4z"/>
<path class="st1" d="M60.2,27.9h-3V14.3h3V27.9z"/>
<path class="st1" d="M72.6,20v7.9h3v-8.5c0-3.4-1.7-5.5-5.1-5.5c-1.8,0-3.1,0.6-3.9,1.7h-0.6v-1.3H63v13.6h3v-7.3c0-2.1,1.4-4,3.5-4
	C71.6,16.6,72.6,17.7,72.6,20z"/>
<path class="st2" d="M90.8,14.3v13c0,3.9-2.6,6.3-6.6,6.3c-3.6,0-6.1-1.5-6.4-4.4h3c0.3,1.4,1.5,1.9,3.3,1.9c2.6,0,3.6-1.6,3.6-4
	v-0.9h-0.7c-0.6,0.9-1.8,1.7-3.8,1.7c-3.7,0-6-2.9-6-6.9c0-4,2.4-6.9,6-6.9c2,0,3.3,0.8,3.9,1.7h0.6v-1.3H90.8z M87.9,20.9
	c0-2.4-1.3-4.4-3.8-4.4c-2.4,0-3.7,1.8-3.7,4.4c0,2.6,1.4,4.3,3.7,4.3C86.6,25.2,87.9,23.2,87.9,20.9z"/>
<path class="st1" d="M101.9,28.2c4.3,0,7.2-2.5,7.8-6.1h-3.4c-0.5,2-2.1,3.2-4.4,3.2c-4,0-5.8-3.2-5.8-7c0-3.8,1.8-7,5.8-7
	c2.3,0,3.6,0.9,4.2,2.7h3.4c-0.7-3.4-3.5-5.6-7.6-5.6c-5.8,0-9,4.1-9,9.9C92.8,24.1,96.1,28.2,101.9,28.2z"/>
<path class="st1" d="M114.6,8.4h-3v19.5h3V8.4z"/>
<path class="st2" d="M123.4,28.3c4.3,0,6.9-3,6.9-7.2c0-4.1-2.6-7.1-6.9-7.1s-6.9,3-6.9,7.1C116.5,25.2,119.1,28.3,123.4,28.3z
	 M123.4,16.5c2.7,0,3.9,2.2,3.9,4.6c0,2.4-1.2,4.6-3.9,4.6s-3.9-2.2-3.9-4.6C119.5,18.7,120.7,16.5,123.4,16.5z"/>
<path class="st1" d="M135,14.3v7.9c0,2.2,1,3.3,3,3.3c2.2,0,3.5-1.8,3.5-4v-7.3h3v13.6h-2.9v-1.3H141c-0.8,1-2.1,1.7-3.9,1.7
	c-3.4,0-5.1-2.1-5.1-5.5v-8.5H135z"/>
<path class="st2" d="M157,15.6h-0.6c-0.7-1-1.9-1.7-3.9-1.7c-3.7,0-5.9,3.1-5.9,7.1c0,4.1,2.2,7.2,5.9,7.2c2,0,3.3-0.7,4-1.7h0.6
	v1.3h2.9V8.4h-3V15.6z M153.3,16.5c2.7,0,3.8,2.2,3.8,4.6c0,2.4-1.1,4.6-3.8,4.6c-2.5,0-3.7-2-3.7-4.6
	C149.5,18.5,150.8,16.5,153.3,16.5z"/>
</svg>
