<?xml version="1.0" encoding="utf-8"?>
<!-- Generator: Adobe Illustrator 26.0.3, SVG Export Plug-In . SVG Version: 6.00 Build 0)  -->
<svg version="1.1" id="图层_1" xmlns="http://www.w3.org/2000/svg" xmlns:xlink="http://www.w3.org/1999/xlink" x="0px" y="0px"
	 viewBox="0 0 27.4 27.4" style="enable-background:new 0 0 27.4 27.4;" xml:space="preserve">
<style type="text/css">
	.st0{fill:#00A971;}
</style>
<g>
	<path class="st0" d="M13.7,19.5C13.7,19.5,13.7,19.5,13.7,19.5l8.5-4.9c0,0,0,0,0,0c0,0,0,0,0,0V4.9c0,0,0,0,0,0s0,0,0,0L13.7,0h0
		L5.3,4.9c0,0,0,0,0,0s0,0,0,0v9.7c0,0,0,0,0,0s0,0,0,0L13.7,19.5C13.7,19.5,13.7,19.5,13.7,19.5z"/>
	<path class="st0" d="M0,21.9h27.4v5.5H0V21.9z"/>
</g>
</svg>
