<svg width="184" height="50" viewBox="0 0 184 50" fill="none" xmlns="http://www.w3.org/2000/svg">
<rect y="3" width="94" height="16" fill="#55BC8A"/>
<path d="M8.28223 13.6738L10.9004 15.752L9.78613 16.7295L7.21582 14.6719L8.28223 13.6738ZM10.9209 9.75V10.2969C10.9209 11.0488 10.8229 11.7233 10.627 12.3203C10.431 12.9173 10.1507 13.4255 9.78613 13.8447C9.42155 14.264 8.98633 14.5853 8.48047 14.8086C7.97461 15.0273 7.41406 15.1367 6.79883 15.1367C6.18815 15.1367 5.62988 15.0273 5.12402 14.8086C4.62272 14.5853 4.1875 14.264 3.81836 13.8447C3.44922 13.4255 3.16211 12.9173 2.95703 12.3203C2.75651 11.7233 2.65625 11.0488 2.65625 10.2969V9.75C2.65625 8.99805 2.75651 8.32585 2.95703 7.7334C3.15755 7.13639 3.4401 6.62826 3.80469 6.20898C4.17383 5.78516 4.60905 5.46387 5.11035 5.24512C5.61621 5.02181 6.17448 4.91016 6.78516 4.91016C7.40039 4.91016 7.96094 5.02181 8.4668 5.24512C8.97721 5.46387 9.41471 5.78516 9.7793 6.20898C10.1439 6.62826 10.4242 7.13639 10.6201 7.7334C10.8206 8.32585 10.9209 8.99805 10.9209 9.75ZM9.19824 10.2969V9.73633C9.19824 9.18034 9.14355 8.69043 9.03418 8.2666C8.92936 7.83822 8.77214 7.48047 8.5625 7.19336C8.35742 6.90169 8.10449 6.68294 7.80371 6.53711C7.50749 6.38672 7.16797 6.31152 6.78516 6.31152C6.41146 6.31152 6.0765 6.38672 5.78027 6.53711C5.48405 6.68294 5.23112 6.90169 5.02148 7.19336C4.81185 7.48047 4.65234 7.83822 4.54297 8.2666C4.43359 8.69043 4.37891 9.18034 4.37891 9.73633V10.2969C4.37891 10.8529 4.43359 11.3451 4.54297 11.7734C4.65234 12.2018 4.81185 12.5641 5.02148 12.8604C5.23568 13.152 5.49089 13.373 5.78711 13.5234C6.08789 13.6693 6.42513 13.7422 6.79883 13.7422C7.18164 13.7422 7.52116 13.6693 7.81738 13.5234C8.11361 13.373 8.36426 13.152 8.56934 12.8604C8.77441 12.5641 8.92936 12.2018 9.03418 11.7734C9.14355 11.3451 9.19824 10.8529 9.19824 10.2969ZM14.2637 7.60352V15H12.6094V7.60352H14.2637ZM12.5 5.66211C12.5 5.41146 12.582 5.2041 12.7461 5.04004C12.9147 4.87142 13.1471 4.78711 13.4434 4.78711C13.735 4.78711 13.9652 4.87142 14.1338 5.04004C14.3024 5.2041 14.3867 5.41146 14.3867 5.66211C14.3867 5.9082 14.3024 6.11328 14.1338 6.27734C13.9652 6.44141 13.735 6.52344 13.4434 6.52344C13.1471 6.52344 12.9147 6.44141 12.7461 6.27734C12.582 6.11328 12.5 5.9082 12.5 5.66211ZM17.7021 9.18262V15H16.0547V7.60352H17.6064L17.7021 9.18262ZM17.4082 11.0283L16.875 11.0215C16.8796 10.4974 16.9525 10.0166 17.0938 9.5791C17.2396 9.1416 17.4401 8.76562 17.6953 8.45117C17.9551 8.13672 18.265 7.89518 18.625 7.72656C18.985 7.55339 19.3861 7.4668 19.8281 7.4668C20.1836 7.4668 20.5049 7.51693 20.792 7.61719C21.0837 7.71289 21.332 7.87012 21.5371 8.08887C21.7467 8.30762 21.9062 8.59245 22.0156 8.94336C22.125 9.28971 22.1797 9.71582 22.1797 10.2217V15H20.5254V10.2148C20.5254 9.85938 20.473 9.5791 20.3682 9.37402C20.2679 9.16439 20.1198 9.01628 19.9238 8.92969C19.7324 8.83854 19.4932 8.79297 19.2061 8.79297C18.9235 8.79297 18.6706 8.85221 18.4473 8.9707C18.224 9.08919 18.0348 9.25098 17.8799 9.45605C17.7295 9.66113 17.6133 9.89811 17.5312 10.167C17.4492 10.4359 17.4082 10.723 17.4082 11.0283ZM28.5986 7.60352H30.0957V14.7949C30.0957 15.4603 29.9544 16.0254 29.6719 16.4902C29.3893 16.9551 28.9951 17.3083 28.4893 17.5498C27.9834 17.7959 27.3978 17.9189 26.7324 17.9189C26.4499 17.9189 26.1354 17.8779 25.7891 17.7959C25.4473 17.7139 25.1146 17.5817 24.791 17.3994C24.472 17.2217 24.2054 16.987 23.9912 16.6953L24.7637 15.7246C25.028 16.0391 25.3197 16.2692 25.6387 16.415C25.9577 16.5609 26.2926 16.6338 26.6436 16.6338C27.0218 16.6338 27.3431 16.5632 27.6074 16.4219C27.8763 16.2852 28.0837 16.0824 28.2295 15.8135C28.3753 15.5446 28.4482 15.2165 28.4482 14.8291V9.27832L28.5986 7.60352ZM23.5742 11.3838V11.2402C23.5742 10.6797 23.6426 10.1693 23.7793 9.70898C23.916 9.24414 24.112 8.84538 24.3672 8.5127C24.6224 8.17546 24.9323 7.91797 25.2969 7.74023C25.6615 7.55794 26.0739 7.4668 26.5342 7.4668C27.0127 7.4668 27.4206 7.55339 27.7578 7.72656C28.0996 7.89974 28.3844 8.14811 28.6123 8.47168C28.8402 8.79069 29.0179 9.1735 29.1455 9.62012C29.2777 10.0622 29.3757 10.5544 29.4395 11.0967V11.5547C29.3802 12.0833 29.2799 12.5664 29.1387 13.0039C28.9974 13.4414 28.8105 13.8197 28.5781 14.1387C28.3457 14.4577 28.0586 14.7038 27.7168 14.877C27.3796 15.0501 26.9808 15.1367 26.5205 15.1367C26.0693 15.1367 25.6615 15.0433 25.2969 14.8564C24.9368 14.6696 24.627 14.4076 24.3672 14.0703C24.112 13.7331 23.916 13.3366 23.7793 12.8809C23.6426 12.4206 23.5742 11.9215 23.5742 11.3838ZM25.2217 11.2402V11.3838C25.2217 11.721 25.2536 12.0355 25.3174 12.3271C25.3857 12.6188 25.4883 12.8763 25.625 13.0996C25.7663 13.3184 25.944 13.4915 26.1582 13.6191C26.377 13.7422 26.6344 13.8037 26.9307 13.8037C27.318 13.8037 27.6348 13.7217 27.8809 13.5576C28.1315 13.3936 28.3229 13.1725 28.4551 12.8945C28.5918 12.612 28.6875 12.2975 28.7422 11.9512V10.7139C28.7148 10.445 28.6579 10.1943 28.5713 9.96191C28.4893 9.72949 28.3776 9.52669 28.2363 9.35352C28.0951 9.17578 27.9173 9.03906 27.7031 8.94336C27.4889 8.8431 27.236 8.79297 26.9443 8.79297C26.6481 8.79297 26.3906 8.85677 26.1719 8.98438C25.9531 9.11198 25.7731 9.28743 25.6318 9.51074C25.4951 9.73405 25.3926 9.99382 25.3242 10.29C25.2559 10.5863 25.2217 10.903 25.2217 11.2402ZM37.8477 11.7598H39.5566C39.502 12.4115 39.3197 12.9925 39.0098 13.5029C38.6999 14.0088 38.2646 14.4076 37.7041 14.6992C37.1436 14.9909 36.4622 15.1367 35.6602 15.1367C35.0449 15.1367 34.4912 15.0273 33.999 14.8086C33.5068 14.5853 33.0853 14.2708 32.7344 13.8652C32.3835 13.4551 32.1146 12.9606 31.9277 12.3818C31.7454 11.8031 31.6543 11.1559 31.6543 10.4404V9.61328C31.6543 8.89779 31.7477 8.25065 31.9346 7.67188C32.126 7.0931 32.3994 6.59863 32.7549 6.18848C33.1104 5.77376 33.5365 5.45703 34.0332 5.23828C34.5345 5.01953 35.0973 4.91016 35.7217 4.91016C36.5146 4.91016 37.1846 5.05599 37.7314 5.34766C38.2783 5.63932 38.7021 6.04264 39.0029 6.55762C39.3083 7.07259 39.4951 7.66276 39.5635 8.32812H37.8545C37.8089 7.89974 37.7087 7.53288 37.5537 7.22754C37.4033 6.9222 37.18 6.68978 36.8838 6.53027C36.5876 6.36621 36.2002 6.28418 35.7217 6.28418C35.3298 6.28418 34.988 6.3571 34.6963 6.50293C34.4046 6.64876 34.1608 6.86296 33.9648 7.14551C33.7689 7.42806 33.6208 7.77669 33.5205 8.19141C33.4248 8.60156 33.377 9.07096 33.377 9.59961V10.4404C33.377 10.9417 33.4202 11.3975 33.5068 11.8076C33.598 12.2132 33.7347 12.5618 33.917 12.8535C34.1038 13.1452 34.3408 13.3708 34.6279 13.5303C34.915 13.6898 35.2591 13.7695 35.6602 13.7695C36.1478 13.7695 36.542 13.6921 36.8428 13.5371C37.1481 13.3822 37.3783 13.1566 37.5332 12.8604C37.6927 12.5596 37.7975 12.1927 37.8477 11.7598ZM42.7148 4.5V15H41.0605V4.5H42.7148ZM44.2051 11.3838V11.2266C44.2051 10.6934 44.2826 10.1989 44.4375 9.74316C44.5924 9.28288 44.8158 8.88411 45.1074 8.54688C45.4036 8.20508 45.7637 7.94076 46.1875 7.75391C46.6159 7.5625 47.099 7.4668 47.6367 7.4668C48.179 7.4668 48.6621 7.5625 49.0859 7.75391C49.5143 7.94076 49.8766 8.20508 50.1729 8.54688C50.4691 8.88411 50.6947 9.28288 50.8496 9.74316C51.0046 10.1989 51.082 10.6934 51.082 11.2266V11.3838C51.082 11.917 51.0046 12.4115 50.8496 12.8672C50.6947 13.3229 50.4691 13.7217 50.1729 14.0635C49.8766 14.4007 49.5166 14.665 49.0928 14.8564C48.6689 15.0433 48.1882 15.1367 47.6504 15.1367C47.1081 15.1367 46.6227 15.0433 46.1943 14.8564C45.7705 14.665 45.4105 14.4007 45.1143 14.0635C44.818 13.7217 44.5924 13.3229 44.4375 12.8672C44.2826 12.4115 44.2051 11.917 44.2051 11.3838ZM45.8525 11.2266V11.3838C45.8525 11.7165 45.8867 12.0309 45.9551 12.3271C46.0234 12.6234 46.1305 12.8831 46.2764 13.1064C46.4222 13.3298 46.609 13.5052 46.8369 13.6328C47.0648 13.7604 47.3359 13.8242 47.6504 13.8242C47.9557 13.8242 48.2201 13.7604 48.4434 13.6328C48.6712 13.5052 48.8581 13.3298 49.0039 13.1064C49.1497 12.8831 49.2568 12.6234 49.3252 12.3271C49.3981 12.0309 49.4346 11.7165 49.4346 11.3838V11.2266C49.4346 10.8984 49.3981 10.5885 49.3252 10.2969C49.2568 10.0007 49.1475 9.73861 48.9971 9.51074C48.8512 9.28288 48.6644 9.10514 48.4365 8.97754C48.2132 8.84538 47.9466 8.7793 47.6367 8.7793C47.3268 8.7793 47.0579 8.84538 46.8301 8.97754C46.6068 9.10514 46.4222 9.28288 46.2764 9.51074C46.1305 9.73861 46.0234 10.0007 45.9551 10.2969C45.8867 10.5885 45.8525 10.8984 45.8525 11.2266ZM56.9131 13.2568V7.60352H58.5674V15H57.0088L56.9131 13.2568ZM57.1455 11.7188L57.6992 11.7051C57.6992 12.2018 57.6445 12.6598 57.5352 13.0791C57.4258 13.4938 57.2572 13.8561 57.0293 14.166C56.8014 14.4714 56.5098 14.7106 56.1543 14.8838C55.7988 15.0524 55.3727 15.1367 54.876 15.1367C54.516 15.1367 54.1855 15.0843 53.8848 14.9795C53.584 14.8747 53.3242 14.7129 53.1055 14.4941C52.8913 14.2754 52.7249 13.9906 52.6064 13.6396C52.488 13.2887 52.4287 12.8695 52.4287 12.3818V7.60352H54.0762V12.3955C54.0762 12.6644 54.1081 12.89 54.1719 13.0723C54.2357 13.25 54.3223 13.3936 54.4316 13.5029C54.541 13.6123 54.6686 13.6898 54.8145 13.7354C54.9603 13.7809 55.1152 13.8037 55.2793 13.8037C55.7487 13.8037 56.1178 13.7126 56.3867 13.5303C56.6602 13.3434 56.8538 13.0928 56.9678 12.7783C57.0863 12.4639 57.1455 12.1107 57.1455 11.7188ZM64.7676 13.4688V4.5H66.4219V15H64.9248L64.7676 13.4688ZM59.9551 11.3838V11.2402C59.9551 10.6797 60.0212 10.1693 60.1533 9.70898C60.2855 9.24414 60.4769 8.84538 60.7275 8.5127C60.9782 8.17546 61.2835 7.91797 61.6436 7.74023C62.0036 7.55794 62.4092 7.4668 62.8604 7.4668C63.307 7.4668 63.6989 7.55339 64.0361 7.72656C64.3734 7.89974 64.6605 8.14811 64.8975 8.47168C65.1344 8.79069 65.3236 9.1735 65.4648 9.62012C65.6061 10.0622 65.7064 10.5544 65.7656 11.0967V11.5547C65.7064 12.0833 65.6061 12.5664 65.4648 13.0039C65.3236 13.4414 65.1344 13.8197 64.8975 14.1387C64.6605 14.4577 64.3711 14.7038 64.0293 14.877C63.6921 15.0501 63.2979 15.1367 62.8467 15.1367C62.4001 15.1367 61.9967 15.0433 61.6367 14.8564C61.2812 14.6696 60.9782 14.4076 60.7275 14.0703C60.4769 13.7331 60.2855 13.3366 60.1533 12.8809C60.0212 12.4206 59.9551 11.9215 59.9551 11.3838ZM61.6025 11.2402V11.3838C61.6025 11.721 61.6322 12.0355 61.6914 12.3271C61.7552 12.6188 61.8532 12.8763 61.9854 13.0996C62.1175 13.3184 62.2884 13.4915 62.498 13.6191C62.7122 13.7422 62.9674 13.8037 63.2637 13.8037C63.6374 13.8037 63.945 13.7217 64.1865 13.5576C64.4281 13.3936 64.6172 13.1725 64.7539 12.8945C64.8952 12.612 64.9909 12.2975 65.041 11.9512V10.7139C65.0137 10.445 64.9567 10.1943 64.8701 9.96191C64.7881 9.72949 64.6764 9.52669 64.5352 9.35352C64.3939 9.17578 64.2184 9.03906 64.0088 8.94336C63.8037 8.8431 63.5599 8.79297 63.2773 8.79297C62.9766 8.79297 62.7214 8.85677 62.5117 8.98438C62.3021 9.11198 62.1289 9.28743 61.9922 9.51074C61.86 9.73405 61.762 9.99382 61.6982 10.29C61.6344 10.5863 61.6025 10.903 61.6025 11.2402ZM73.627 5.04688V15H71.9111V5.04688H73.627ZM75.2812 11.3838V11.2266C75.2812 10.6934 75.3587 10.1989 75.5137 9.74316C75.6686 9.28288 75.8919 8.88411 76.1836 8.54688C76.4798 8.20508 76.8398 7.94076 77.2637 7.75391C77.6921 7.5625 78.1751 7.4668 78.7129 7.4668C79.2552 7.4668 79.7383 7.5625 80.1621 7.75391C80.5905 7.94076 80.9528 8.20508 81.249 8.54688C81.5452 8.88411 81.7708 9.28288 81.9258 9.74316C82.0807 10.1989 82.1582 10.6934 82.1582 11.2266V11.3838C82.1582 11.917 82.0807 12.4115 81.9258 12.8672C81.7708 13.3229 81.5452 13.7217 81.249 14.0635C80.9528 14.4007 80.5928 14.665 80.1689 14.8564C79.7451 15.0433 79.2643 15.1367 78.7266 15.1367C78.1842 15.1367 77.6989 15.0433 77.2705 14.8564C76.8467 14.665 76.4867 14.4007 76.1904 14.0635C75.8942 13.7217 75.6686 13.3229 75.5137 12.8672C75.3587 12.4115 75.2812 11.917 75.2812 11.3838ZM76.9287 11.2266V11.3838C76.9287 11.7165 76.9629 12.0309 77.0312 12.3271C77.0996 12.6234 77.2067 12.8831 77.3525 13.1064C77.4984 13.3298 77.6852 13.5052 77.9131 13.6328C78.141 13.7604 78.4121 13.8242 78.7266 13.8242C79.0319 13.8242 79.2962 13.7604 79.5195 13.6328C79.7474 13.5052 79.9342 13.3298 80.0801 13.1064C80.2259 12.8831 80.333 12.6234 80.4014 12.3271C80.4743 12.0309 80.5107 11.7165 80.5107 11.3838V11.2266C80.5107 10.8984 80.4743 10.5885 80.4014 10.2969C80.333 10.0007 80.2236 9.73861 80.0732 9.51074C79.9274 9.28288 79.7406 9.10514 79.5127 8.97754C79.2894 8.84538 79.0228 8.7793 78.7129 8.7793C78.403 8.7793 78.1341 8.84538 77.9062 8.97754C77.6829 9.10514 77.4984 9.28288 77.3525 9.51074C77.2067 9.73861 77.0996 10.0007 77.0312 10.2969C76.9629 10.5885 76.9287 10.8984 76.9287 11.2266ZM87.7979 5.04688V15H86.0957V5.04688H87.7979ZM90.9219 5.04688V6.41406H82.999V5.04688H90.9219Z" fill="#1A202C"/>
<path d="M8.838 28.204C8.37 30.85 7.56 32.884 6.426 34.306L7.686 35.368C8.28 34.648 8.802 33.73 9.27 32.65H10.17C9.504 35.908 8.28 38.284 6.516 39.796L7.614 41.074C9.594 39.31 10.944 36.502 11.682 32.65H12.726C12.402 35.242 11.898 37.312 11.25 38.878C10.494 40.534 9.396 42.028 7.92 43.36L8.982 44.71C10.602 43.198 11.844 41.506 12.672 39.598C13.356 37.888 13.878 35.566 14.274 32.65H15.084C15.048 37.78 14.976 40.786 14.868 41.686C14.724 42.73 14.148 43.252 13.158 43.252C12.726 43.252 12.24 43.216 11.664 43.162L12.06 44.692C12.708 44.728 13.158 44.764 13.41 44.764C15.228 44.764 16.236 43.99 16.452 42.442C16.632 41.002 16.722 37.186 16.722 30.994H9.864C10.08 30.274 10.278 29.482 10.458 28.618L8.838 28.204ZM2.646 33.514H3.798V37.978C2.826 38.32 1.818 38.59 0.81 38.806L1.206 40.462C2.088 40.192 2.952 39.904 3.798 39.58V44.854H5.454V38.914C5.868 38.734 6.282 38.536 6.696 38.338V36.718C6.3 36.916 5.886 37.114 5.454 37.312V33.514H6.768V31.858H5.454V28.258H3.798V31.858H2.862C2.934 31.156 2.988 30.436 3.024 29.716L1.512 29.608C1.44 31.696 1.134 33.694 0.594 35.602L2.088 36.016C2.304 35.206 2.502 34.378 2.646 33.514ZM26.226 32.02V33.64H29.61V34.666C29.61 35.224 29.574 35.782 29.52 36.322H25.938V37.978H29.286C28.746 40.57 27.522 42.424 25.614 43.576L26.64 44.944C28.89 43.504 30.312 41.182 30.924 37.978H35.118V36.322H31.158C31.212 35.674 31.248 34.99 31.248 34.27V33.64H34.794V32.02H32.418C32.94 31.138 33.462 30.076 33.966 28.852L32.382 28.258C31.914 29.59 31.356 30.85 30.708 32.02H26.226ZM28.188 28.366L26.874 29.194C27.612 30.22 28.206 31.156 28.638 32.002L29.916 31.102C29.52 30.328 28.944 29.41 28.188 28.366ZM18.774 28.852V30.436H19.728V40.894C19.386 40.93 19.044 40.984 18.702 41.02L19.098 42.622C20.574 42.37 22.014 42.1 23.382 41.812V44.872H25.038V41.416C25.362 41.326 25.722 41.236 26.082 41.146V39.526L25.038 39.814V30.436H26.046V28.852H18.774ZM21.348 40.624V37.996H23.382V40.21C22.716 40.354 22.032 40.498 21.348 40.624ZM21.348 36.448V34.252H23.382V36.448H21.348ZM21.348 32.704V30.436H23.382V32.704H21.348ZM31.608 39.04L30.636 40.138C31.896 41.488 33.102 43.072 34.272 44.872L35.406 43.63C34.272 41.974 33.012 40.444 31.608 39.04ZM44.298 40.696L45.432 39.58C44.748 38.536 44.1 37.582 43.488 36.718C43.92 35.224 44.262 33.568 44.532 31.768L42.966 31.498C42.786 32.776 42.552 33.982 42.282 35.116C41.598 34.252 40.986 33.514 40.41 32.902L39.366 33.928C40.194 34.9 40.986 35.89 41.742 36.934C41.166 38.644 40.464 40.138 39.618 41.416L40.716 42.748C41.544 41.56 42.264 40.156 42.876 38.536C43.362 39.22 43.83 39.94 44.298 40.696ZM49.482 41.56L50.634 40.426C49.914 39.238 49.23 38.158 48.582 37.168C49.086 35.566 49.5 33.784 49.824 31.822L48.24 31.552C48.024 32.92 47.754 34.234 47.43 35.458C46.782 34.54 46.17 33.766 45.594 33.118L44.532 34.126C45.324 35.134 46.098 36.196 46.854 37.312C46.224 39.04 45.45 40.552 44.514 41.866L45.594 43.18C46.494 41.992 47.268 40.588 47.934 38.968C48.456 39.796 48.978 40.66 49.482 41.56ZM50.544 44.746C51.732 44.746 52.344 44.134 52.344 42.91V28.87H37.656V44.854H39.348V30.508H50.652V42.532C50.652 42.946 50.418 43.162 49.986 43.162L48.294 43.09L48.744 44.746H50.544ZM55.692 28.924V30.598H62.064V36.97H54.972V38.608H62.064V44.836H63.792V38.608H71.028V36.97H63.792V30.598H70.344V28.924H55.692ZM58.212 31.444L56.61 32.218C57.276 33.406 57.906 34.756 58.5 36.268L60.102 35.476C59.49 34 58.86 32.668 58.212 31.444ZM67.932 31.372C67.428 32.686 66.762 34.018 65.916 35.386L67.464 36.178C68.292 34.846 68.976 33.496 69.498 32.11L67.932 31.372ZM87.156 37.222H74.844V44.872H76.572V44.134H85.428V44.872H87.156V37.222ZM76.572 42.496V38.86H85.428V42.496H76.572ZM73.674 35.548C78.282 35.368 82.476 35.116 86.238 34.792C86.652 35.458 87.066 36.16 87.498 36.916L89.172 36.088C87.858 33.91 86.472 31.93 85.014 30.13L83.466 30.868C84.06 31.624 84.654 32.416 85.23 33.28C82.368 33.55 79.416 33.748 76.356 33.856C77.868 32.488 79.344 30.796 80.802 28.78L79.02 28.168C76.608 31.696 74.718 33.622 73.35 33.928L73.674 35.548Z" fill="white"/>
</svg>
