<svg width="94" height="25" viewBox="0 0 94 25" fill="none" xmlns="http://www.w3.org/2000/svg">
<path d="M48.5846 4.65625C42.841 4.65625 38.1641 8.98446 38.1641 14.3178C38.1641 19.6511 42.8205 23.9793 48.5846 23.9793C52.8307 23.9793 55.4564 22.8306 57.0154 21.005L53.282 17.5793C52.5025 18.7075 51.0461 19.446 48.6051 19.446C46.3897 19.446 44.5025 18.2357 43.6205 16.5127H53.8153H58.5948H58.8615C58.9641 15.8152 59.0051 15.0768 59.0051 14.3178C58.9846 9.00497 54.3282 4.65625 48.5846 4.65625ZM43.6205 12.0819C44.523 10.3793 46.3897 9.18958 48.5846 9.18958C50.7589 9.18958 52.6461 10.3588 53.5487 12.0819H43.6205Z" fill="black"/>
<path d="M9.44599 0H4.09215V5.70256H0.666504V10.5231H4.09215V17.6C4.09215 19.0154 4.70753 20.3487 5.85625 21.3333L6.59471 21.9897C8.07163 23.3026 10.0409 24.0205 12.1332 24.0205H15.2921V19.1795H11.4152C10.3486 19.1795 9.4665 18.4205 9.4665 17.518V10.5231H15.2921V5.70256H9.4665V0H9.44599Z" fill="black"/>
<path d="M89.6922 19.1795C88.605 19.1795 87.7435 18.4205 87.7435 17.518V0H82.3896V17.6C82.3896 19.0154 83.005 20.3487 84.1332 21.3333L84.8717 21.9897C86.3486 23.3026 88.3178 24.0205 90.4102 24.0205H93.5691V19.1795H89.6922Z" fill="black"/>
<path d="M39.7228 22.0923C37.5485 18.9744 34.5946 16.1846 31.0869 13.9692C34.9639 10.1333 37.5485 5.49744 38.5946 0.512821L38.6767 0.0205129H38.2049H33.2818C31.9485 5.86667 27.9485 11.1179 22.3075 14.5231V0H16.9536V24H22.3075V20.0615C23.928 19.3026 25.4869 18.3795 27.0869 17.2718C30.2254 19.0769 32.81 21.3333 34.7587 24H40.2357H40.9741C40.9331 24 40.2152 22.7897 39.7228 22.0923Z" fill="black"/>
<path d="M70.3487 4.65625C64.6051 4.65625 59.9282 8.98446 59.9282 14.3178C59.9282 19.6511 64.5846 23.9793 70.3487 23.9793C74.5949 23.9793 77.2205 22.8306 78.7795 21.005L75.0462 17.5793C74.2667 18.7075 72.8103 19.446 70.3692 19.446C68.1539 19.446 66.2667 18.2357 65.3846 16.5127H75.5795H80.359H80.6257C80.7282 15.8152 80.7692 15.0768 80.7692 14.3178C80.7692 9.00497 76.0923 4.65625 70.3487 4.65625ZM65.3846 12.0819C66.2872 10.3793 68.1539 9.18958 70.3487 9.18958C72.5231 9.18958 74.4103 10.3588 75.3128 12.0819H65.3846Z" fill="black"/>
</svg>
