<svg width="268" height="51" viewBox="0 0 268 51" fill="none" xmlns="http://www.w3.org/2000/svg">
<path d="M180.388 4.52V22.52H181.612V4.52H180.388ZM198.892 5.636L197.992 6.482C199.216 7.436 200.17 8.336 200.872 9.2L201.754 8.3C200.98 7.418 200.026 6.536 198.892 5.636ZM196.804 10.838V12.08H199.306V19.208C199.306 19.496 199.162 19.766 198.91 20.018L199.414 21.17C200.674 20.342 201.88 19.406 203.014 18.344L202.654 16.976C201.916 17.678 201.214 18.29 200.566 18.83V10.838H196.804ZM203.194 12.944V14.204H204.184C204.688 15.77 205.606 17.174 206.974 18.434C205.624 19.388 203.95 20.162 201.952 20.756L202.672 21.854C204.778 21.206 206.56 20.36 208 19.28C209.26 20.252 210.844 21.098 212.716 21.854L213.418 20.738C211.654 20.09 210.16 19.352 208.936 18.506C210.25 17.282 211.186 15.824 211.762 14.132V12.944H203.194ZM205.408 14.204H210.484C209.908 15.536 209.044 16.688 207.892 17.696C206.704 16.67 205.876 15.5 205.408 14.204ZM204.58 5.996V7.994C204.58 9.416 203.788 10.514 202.222 11.288L203.086 12.278C204.922 11.234 205.858 9.758 205.858 7.85V7.22H209.35V10.154C209.35 11.216 209.89 11.756 211.006 11.756H212.986V10.568H211.33C210.862 10.568 210.628 10.334 210.628 9.884V5.996H204.58ZM215.272 10.388V11.378H222.13C222.058 11.72 222.004 12.062 221.932 12.404H217.558V20.342H214.948V21.386H231.058V20.342H228.448V12.404H223.228C223.3 12.08 223.354 11.738 223.426 11.378H230.734V10.388H223.57L223.678 9.344H229.51V5.978H216.478V9.344H222.382L222.274 10.388H215.272ZM218.818 20.342V19.154H227.17V20.342H218.818ZM218.818 18.344V17.21H227.17V18.344H218.818ZM218.818 16.382V15.248H227.17V16.382H218.818ZM218.818 14.438V13.304H227.17V14.438H218.818ZM228.286 8.426H225.604V6.932H228.286V8.426ZM224.416 8.426H221.572V6.932H224.416V8.426ZM220.402 8.426H217.72V6.932H220.402V8.426ZM248.518 6.77H241.714C241.534 6.194 241.336 5.672 241.138 5.222L239.77 5.438C239.986 5.834 240.202 6.284 240.4 6.77H233.47V10.442H234.73V7.94H247.258V10.442H248.518V6.77ZM240.4 16.31V19.838H236.062V16.904H234.784V21.8H236.062V21.044H246.196V21.818H247.474V16.742H246.196V19.838H241.696V16.31H240.4ZM240.148 8.318L239.194 8.912C239.986 9.704 240.616 10.442 241.084 11.108L242.038 10.442C241.606 9.83 240.976 9.128 240.148 8.318ZM244.738 8.732C243.226 10.532 241.3 12.062 238.942 13.304V10.262H237.7V13.916C236.224 14.582 234.604 15.158 232.804 15.644L233.308 16.742C234.964 16.292 236.512 15.752 237.952 15.122C238.204 15.554 238.672 15.77 239.374 15.77H243.478C244.198 15.77 244.72 15.626 245.062 15.356C245.44 15.05 245.692 14.204 245.836 12.8L244.612 12.404C244.54 13.484 244.378 14.132 244.144 14.348C243.964 14.51 243.658 14.6 243.244 14.6H239.734C239.554 14.6 239.392 14.564 239.266 14.492C241.876 13.16 244.018 11.468 245.674 9.452L244.738 8.732ZM246.322 10.532L245.386 11.198C246.502 12.512 247.402 13.754 248.122 14.942L249.148 14.222C248.482 13.16 247.546 11.936 246.322 10.532ZM235.918 9.596C235.468 11 234.73 12.278 233.704 13.43L234.766 14.096C235.756 12.908 236.53 11.486 237.07 9.848L235.918 9.596ZM256.798 11.612H253.486C253.954 10.352 254.296 9.002 254.548 7.562H257.266V6.302H251.128V7.562H253.324C252.892 10.244 251.992 12.638 250.624 14.726L251.272 15.77C251.704 15.158 252.1 14.528 252.46 13.88V21.206H253.666V19.838H255.61V20.864H256.798V11.612ZM253.666 18.668V12.8H255.61V18.668H253.666ZM259.228 8.534L258.256 14.366H265.528C265.528 17.246 265.384 18.992 265.096 19.604C264.826 20.18 263.998 20.486 262.612 20.486C262.288 20.486 261.73 20.45 260.938 20.378L261.298 21.638C261.874 21.674 262.414 21.692 262.918 21.692C264.502 21.692 265.528 21.35 266.032 20.702C266.5 20.018 266.752 17.516 266.752 13.16H264.844L265.834 6.05H258.094V7.274H264.43L263.53 13.16H259.714L260.506 8.624L259.228 8.534ZM257.698 16.652V17.876H264.286V16.652H257.698Z" fill="white"/>
<rect y="33" width="94" height="16" fill="#55BC8A"/>
<path d="M8.28223 44.6738L10.9004 46.752L9.78613 47.7295L7.21582 45.6719L8.28223 44.6738ZM10.9209 40.75V41.2969C10.9209 42.0488 10.8229 42.7233 10.627 43.3203C10.431 43.9173 10.1507 44.4255 9.78613 44.8447C9.42155 45.264 8.98633 45.5853 8.48047 45.8086C7.97461 46.0273 7.41406 46.1367 6.79883 46.1367C6.18815 46.1367 5.62988 46.0273 5.12402 45.8086C4.62272 45.5853 4.1875 45.264 3.81836 44.8447C3.44922 44.4255 3.16211 43.9173 2.95703 43.3203C2.75651 42.7233 2.65625 42.0488 2.65625 41.2969V40.75C2.65625 39.998 2.75651 39.3258 2.95703 38.7334C3.15755 38.1364 3.4401 37.6283 3.80469 37.209C4.17383 36.7852 4.60905 36.4639 5.11035 36.2451C5.61621 36.0218 6.17448 35.9102 6.78516 35.9102C7.40039 35.9102 7.96094 36.0218 8.4668 36.2451C8.97721 36.4639 9.41471 36.7852 9.7793 37.209C10.1439 37.6283 10.4242 38.1364 10.6201 38.7334C10.8206 39.3258 10.9209 39.998 10.9209 40.75ZM9.19824 41.2969V40.7363C9.19824 40.1803 9.14355 39.6904 9.03418 39.2666C8.92936 38.8382 8.77214 38.4805 8.5625 38.1934C8.35742 37.9017 8.10449 37.6829 7.80371 37.5371C7.50749 37.3867 7.16797 37.3115 6.78516 37.3115C6.41146 37.3115 6.0765 37.3867 5.78027 37.5371C5.48405 37.6829 5.23112 37.9017 5.02148 38.1934C4.81185 38.4805 4.65234 38.8382 4.54297 39.2666C4.43359 39.6904 4.37891 40.1803 4.37891 40.7363V41.2969C4.37891 41.8529 4.43359 42.3451 4.54297 42.7734C4.65234 43.2018 4.81185 43.5641 5.02148 43.8604C5.23568 44.152 5.49089 44.373 5.78711 44.5234C6.08789 44.6693 6.42513 44.7422 6.79883 44.7422C7.18164 44.7422 7.52116 44.6693 7.81738 44.5234C8.11361 44.373 8.36426 44.152 8.56934 43.8604C8.77441 43.5641 8.92936 43.2018 9.03418 42.7734C9.14355 42.3451 9.19824 41.8529 9.19824 41.2969ZM14.2637 38.6035V46H12.6094V38.6035H14.2637ZM12.5 36.6621C12.5 36.4115 12.582 36.2041 12.7461 36.04C12.9147 35.8714 13.1471 35.7871 13.4434 35.7871C13.735 35.7871 13.9652 35.8714 14.1338 36.04C14.3024 36.2041 14.3867 36.4115 14.3867 36.6621C14.3867 36.9082 14.3024 37.1133 14.1338 37.2773C13.9652 37.4414 13.735 37.5234 13.4434 37.5234C13.1471 37.5234 12.9147 37.4414 12.7461 37.2773C12.582 37.1133 12.5 36.9082 12.5 36.6621ZM17.7021 40.1826V46H16.0547V38.6035H17.6064L17.7021 40.1826ZM17.4082 42.0283L16.875 42.0215C16.8796 41.4974 16.9525 41.0166 17.0938 40.5791C17.2396 40.1416 17.4401 39.7656 17.6953 39.4512C17.9551 39.1367 18.265 38.8952 18.625 38.7266C18.985 38.5534 19.3861 38.4668 19.8281 38.4668C20.1836 38.4668 20.5049 38.5169 20.792 38.6172C21.0837 38.7129 21.332 38.8701 21.5371 39.0889C21.7467 39.3076 21.9062 39.5924 22.0156 39.9434C22.125 40.2897 22.1797 40.7158 22.1797 41.2217V46H20.5254V41.2148C20.5254 40.8594 20.473 40.5791 20.3682 40.374C20.2679 40.1644 20.1198 40.0163 19.9238 39.9297C19.7324 39.8385 19.4932 39.793 19.2061 39.793C18.9235 39.793 18.6706 39.8522 18.4473 39.9707C18.224 40.0892 18.0348 40.251 17.8799 40.4561C17.7295 40.6611 17.6133 40.8981 17.5312 41.167C17.4492 41.4359 17.4082 41.723 17.4082 42.0283ZM28.5986 38.6035H30.0957V45.7949C30.0957 46.4603 29.9544 47.0254 29.6719 47.4902C29.3893 47.9551 28.9951 48.3083 28.4893 48.5498C27.9834 48.7959 27.3978 48.9189 26.7324 48.9189C26.4499 48.9189 26.1354 48.8779 25.7891 48.7959C25.4473 48.7139 25.1146 48.5817 24.791 48.3994C24.472 48.2217 24.2054 47.987 23.9912 47.6953L24.7637 46.7246C25.028 47.0391 25.3197 47.2692 25.6387 47.415C25.9577 47.5609 26.2926 47.6338 26.6436 47.6338C27.0218 47.6338 27.3431 47.5632 27.6074 47.4219C27.8763 47.2852 28.0837 47.0824 28.2295 46.8135C28.3753 46.5446 28.4482 46.2165 28.4482 45.8291V40.2783L28.5986 38.6035ZM23.5742 42.3838V42.2402C23.5742 41.6797 23.6426 41.1693 23.7793 40.709C23.916 40.2441 24.112 39.8454 24.3672 39.5127C24.6224 39.1755 24.9323 38.918 25.2969 38.7402C25.6615 38.5579 26.0739 38.4668 26.5342 38.4668C27.0127 38.4668 27.4206 38.5534 27.7578 38.7266C28.0996 38.8997 28.3844 39.1481 28.6123 39.4717C28.8402 39.7907 29.0179 40.1735 29.1455 40.6201C29.2777 41.0622 29.3757 41.5544 29.4395 42.0967V42.5547C29.3802 43.0833 29.2799 43.5664 29.1387 44.0039C28.9974 44.4414 28.8105 44.8197 28.5781 45.1387C28.3457 45.4577 28.0586 45.7038 27.7168 45.877C27.3796 46.0501 26.9808 46.1367 26.5205 46.1367C26.0693 46.1367 25.6615 46.0433 25.2969 45.8564C24.9368 45.6696 24.627 45.4076 24.3672 45.0703C24.112 44.7331 23.916 44.3366 23.7793 43.8809C23.6426 43.4206 23.5742 42.9215 23.5742 42.3838ZM25.2217 42.2402V42.3838C25.2217 42.721 25.2536 43.0355 25.3174 43.3271C25.3857 43.6188 25.4883 43.8763 25.625 44.0996C25.7663 44.3184 25.944 44.4915 26.1582 44.6191C26.377 44.7422 26.6344 44.8037 26.9307 44.8037C27.318 44.8037 27.6348 44.7217 27.8809 44.5576C28.1315 44.3936 28.3229 44.1725 28.4551 43.8945C28.5918 43.612 28.6875 43.2975 28.7422 42.9512V41.7139C28.7148 41.445 28.6579 41.1943 28.5713 40.9619C28.4893 40.7295 28.3776 40.5267 28.2363 40.3535C28.0951 40.1758 27.9173 40.0391 27.7031 39.9434C27.4889 39.8431 27.236 39.793 26.9443 39.793C26.6481 39.793 26.3906 39.8568 26.1719 39.9844C25.9531 40.112 25.7731 40.2874 25.6318 40.5107C25.4951 40.734 25.3926 40.9938 25.3242 41.29C25.2559 41.5863 25.2217 41.903 25.2217 42.2402ZM37.8477 42.7598H39.5566C39.502 43.4115 39.3197 43.9925 39.0098 44.5029C38.6999 45.0088 38.2646 45.4076 37.7041 45.6992C37.1436 45.9909 36.4622 46.1367 35.6602 46.1367C35.0449 46.1367 34.4912 46.0273 33.999 45.8086C33.5068 45.5853 33.0853 45.2708 32.7344 44.8652C32.3835 44.4551 32.1146 43.9606 31.9277 43.3818C31.7454 42.8031 31.6543 42.1559 31.6543 41.4404V40.6133C31.6543 39.8978 31.7477 39.2507 31.9346 38.6719C32.126 38.0931 32.3994 37.5986 32.7549 37.1885C33.1104 36.7738 33.5365 36.457 34.0332 36.2383C34.5345 36.0195 35.0973 35.9102 35.7217 35.9102C36.5146 35.9102 37.1846 36.056 37.7314 36.3477C38.2783 36.6393 38.7021 37.0426 39.0029 37.5576C39.3083 38.0726 39.4951 38.6628 39.5635 39.3281H37.8545C37.8089 38.8997 37.7087 38.5329 37.5537 38.2275C37.4033 37.9222 37.18 37.6898 36.8838 37.5303C36.5876 37.3662 36.2002 37.2842 35.7217 37.2842C35.3298 37.2842 34.988 37.3571 34.6963 37.5029C34.4046 37.6488 34.1608 37.863 33.9648 38.1455C33.7689 38.4281 33.6208 38.7767 33.5205 39.1914C33.4248 39.6016 33.377 40.071 33.377 40.5996V41.4404C33.377 41.9417 33.4202 42.3975 33.5068 42.8076C33.598 43.2132 33.7347 43.5618 33.917 43.8535C34.1038 44.1452 34.3408 44.3708 34.6279 44.5303C34.915 44.6898 35.2591 44.7695 35.6602 44.7695C36.1478 44.7695 36.542 44.6921 36.8428 44.5371C37.1481 44.3822 37.3783 44.1566 37.5332 43.8604C37.6927 43.5596 37.7975 43.1927 37.8477 42.7598ZM42.7148 35.5V46H41.0605V35.5H42.7148ZM44.2051 42.3838V42.2266C44.2051 41.6934 44.2826 41.1989 44.4375 40.7432C44.5924 40.2829 44.8158 39.8841 45.1074 39.5469C45.4036 39.2051 45.7637 38.9408 46.1875 38.7539C46.6159 38.5625 47.099 38.4668 47.6367 38.4668C48.179 38.4668 48.6621 38.5625 49.0859 38.7539C49.5143 38.9408 49.8766 39.2051 50.1729 39.5469C50.4691 39.8841 50.6947 40.2829 50.8496 40.7432C51.0046 41.1989 51.082 41.6934 51.082 42.2266V42.3838C51.082 42.917 51.0046 43.4115 50.8496 43.8672C50.6947 44.3229 50.4691 44.7217 50.1729 45.0635C49.8766 45.4007 49.5166 45.665 49.0928 45.8564C48.6689 46.0433 48.1882 46.1367 47.6504 46.1367C47.1081 46.1367 46.6227 46.0433 46.1943 45.8564C45.7705 45.665 45.4105 45.4007 45.1143 45.0635C44.818 44.7217 44.5924 44.3229 44.4375 43.8672C44.2826 43.4115 44.2051 42.917 44.2051 42.3838ZM45.8525 42.2266V42.3838C45.8525 42.7165 45.8867 43.0309 45.9551 43.3271C46.0234 43.6234 46.1305 43.8831 46.2764 44.1064C46.4222 44.3298 46.609 44.5052 46.8369 44.6328C47.0648 44.7604 47.3359 44.8242 47.6504 44.8242C47.9557 44.8242 48.2201 44.7604 48.4434 44.6328C48.6712 44.5052 48.8581 44.3298 49.0039 44.1064C49.1497 43.8831 49.2568 43.6234 49.3252 43.3271C49.3981 43.0309 49.4346 42.7165 49.4346 42.3838V42.2266C49.4346 41.8984 49.3981 41.5885 49.3252 41.2969C49.2568 41.0007 49.1475 40.7386 48.9971 40.5107C48.8512 40.2829 48.6644 40.1051 48.4365 39.9775C48.2132 39.8454 47.9466 39.7793 47.6367 39.7793C47.3268 39.7793 47.0579 39.8454 46.8301 39.9775C46.6068 40.1051 46.4222 40.2829 46.2764 40.5107C46.1305 40.7386 46.0234 41.0007 45.9551 41.2969C45.8867 41.5885 45.8525 41.8984 45.8525 42.2266ZM56.9131 44.2568V38.6035H58.5674V46H57.0088L56.9131 44.2568ZM57.1455 42.7188L57.6992 42.7051C57.6992 43.2018 57.6445 43.6598 57.5352 44.0791C57.4258 44.4938 57.2572 44.8561 57.0293 45.166C56.8014 45.4714 56.5098 45.7106 56.1543 45.8838C55.7988 46.0524 55.3727 46.1367 54.876 46.1367C54.516 46.1367 54.1855 46.0843 53.8848 45.9795C53.584 45.8747 53.3242 45.7129 53.1055 45.4941C52.8913 45.2754 52.7249 44.9906 52.6064 44.6396C52.488 44.2887 52.4287 43.8695 52.4287 43.3818V38.6035H54.0762V43.3955C54.0762 43.6644 54.1081 43.89 54.1719 44.0723C54.2357 44.25 54.3223 44.3936 54.4316 44.5029C54.541 44.6123 54.6686 44.6898 54.8145 44.7354C54.9603 44.7809 55.1152 44.8037 55.2793 44.8037C55.7487 44.8037 56.1178 44.7126 56.3867 44.5303C56.6602 44.3434 56.8538 44.0928 56.9678 43.7783C57.0863 43.4639 57.1455 43.1107 57.1455 42.7188ZM64.7676 44.4688V35.5H66.4219V46H64.9248L64.7676 44.4688ZM59.9551 42.3838V42.2402C59.9551 41.6797 60.0212 41.1693 60.1533 40.709C60.2855 40.2441 60.4769 39.8454 60.7275 39.5127C60.9782 39.1755 61.2835 38.918 61.6436 38.7402C62.0036 38.5579 62.4092 38.4668 62.8604 38.4668C63.307 38.4668 63.6989 38.5534 64.0361 38.7266C64.3734 38.8997 64.6605 39.1481 64.8975 39.4717C65.1344 39.7907 65.3236 40.1735 65.4648 40.6201C65.6061 41.0622 65.7064 41.5544 65.7656 42.0967V42.5547C65.7064 43.0833 65.6061 43.5664 65.4648 44.0039C65.3236 44.4414 65.1344 44.8197 64.8975 45.1387C64.6605 45.4577 64.3711 45.7038 64.0293 45.877C63.6921 46.0501 63.2979 46.1367 62.8467 46.1367C62.4001 46.1367 61.9967 46.0433 61.6367 45.8564C61.2812 45.6696 60.9782 45.4076 60.7275 45.0703C60.4769 44.7331 60.2855 44.3366 60.1533 43.8809C60.0212 43.4206 59.9551 42.9215 59.9551 42.3838ZM61.6025 42.2402V42.3838C61.6025 42.721 61.6322 43.0355 61.6914 43.3271C61.7552 43.6188 61.8532 43.8763 61.9854 44.0996C62.1175 44.3184 62.2884 44.4915 62.498 44.6191C62.7122 44.7422 62.9674 44.8037 63.2637 44.8037C63.6374 44.8037 63.945 44.7217 64.1865 44.5576C64.4281 44.3936 64.6172 44.1725 64.7539 43.8945C64.8952 43.612 64.9909 43.2975 65.041 42.9512V41.7139C65.0137 41.445 64.9567 41.1943 64.8701 40.9619C64.7881 40.7295 64.6764 40.5267 64.5352 40.3535C64.3939 40.1758 64.2184 40.0391 64.0088 39.9434C63.8037 39.8431 63.5599 39.793 63.2773 39.793C62.9766 39.793 62.7214 39.8568 62.5117 39.9844C62.3021 40.112 62.1289 40.2874 61.9922 40.5107C61.86 40.734 61.762 40.9938 61.6982 41.29C61.6344 41.5863 61.6025 41.903 61.6025 42.2402ZM73.627 36.0469V46H71.9111V36.0469H73.627ZM75.2812 42.3838V42.2266C75.2812 41.6934 75.3587 41.1989 75.5137 40.7432C75.6686 40.2829 75.8919 39.8841 76.1836 39.5469C76.4798 39.2051 76.8398 38.9408 77.2637 38.7539C77.6921 38.5625 78.1751 38.4668 78.7129 38.4668C79.2552 38.4668 79.7383 38.5625 80.1621 38.7539C80.5905 38.9408 80.9528 39.2051 81.249 39.5469C81.5452 39.8841 81.7708 40.2829 81.9258 40.7432C82.0807 41.1989 82.1582 41.6934 82.1582 42.2266V42.3838C82.1582 42.917 82.0807 43.4115 81.9258 43.8672C81.7708 44.3229 81.5452 44.7217 81.249 45.0635C80.9528 45.4007 80.5928 45.665 80.1689 45.8564C79.7451 46.0433 79.2643 46.1367 78.7266 46.1367C78.1842 46.1367 77.6989 46.0433 77.2705 45.8564C76.8467 45.665 76.4867 45.4007 76.1904 45.0635C75.8942 44.7217 75.6686 44.3229 75.5137 43.8672C75.3587 43.4115 75.2812 42.917 75.2812 42.3838ZM76.9287 42.2266V42.3838C76.9287 42.7165 76.9629 43.0309 77.0312 43.3271C77.0996 43.6234 77.2067 43.8831 77.3525 44.1064C77.4984 44.3298 77.6852 44.5052 77.9131 44.6328C78.141 44.7604 78.4121 44.8242 78.7266 44.8242C79.0319 44.8242 79.2962 44.7604 79.5195 44.6328C79.7474 44.5052 79.9342 44.3298 80.0801 44.1064C80.2259 43.8831 80.333 43.6234 80.4014 43.3271C80.4743 43.0309 80.5107 42.7165 80.5107 42.3838V42.2266C80.5107 41.8984 80.4743 41.5885 80.4014 41.2969C80.333 41.0007 80.2236 40.7386 80.0732 40.5107C79.9274 40.2829 79.7406 40.1051 79.5127 39.9775C79.2894 39.8454 79.0228 39.7793 78.7129 39.7793C78.403 39.7793 78.1341 39.8454 77.9062 39.9775C77.6829 40.1051 77.4984 40.2829 77.3525 40.5107C77.2067 40.7386 77.0996 41.0007 77.0312 41.2969C76.9629 41.5885 76.9287 41.8984 76.9287 42.2266ZM87.7979 36.0469V46H86.0957V36.0469H87.7979ZM90.9219 36.0469V37.4141H82.999V36.0469H90.9219Z" fill="#1A202C"/>
<path d="M8.838 5.204C8.37 7.85 7.56 9.884 6.426 11.306L7.686 12.368C8.28 11.648 8.802 10.73 9.27 9.65H10.17C9.504 12.908 8.28 15.284 6.516 16.796L7.614 18.074C9.594 16.31 10.944 13.502 11.682 9.65H12.726C12.402 12.242 11.898 14.312 11.25 15.878C10.494 17.534 9.396 19.028 7.92 20.36L8.982 21.71C10.602 20.198 11.844 18.506 12.672 16.598C13.356 14.888 13.878 12.566 14.274 9.65H15.084C15.048 14.78 14.976 17.786 14.868 18.686C14.724 19.73 14.148 20.252 13.158 20.252C12.726 20.252 12.24 20.216 11.664 20.162L12.06 21.692C12.708 21.728 13.158 21.764 13.41 21.764C15.228 21.764 16.236 20.99 16.452 19.442C16.632 18.002 16.722 14.186 16.722 7.994H9.864C10.08 7.274 10.278 6.482 10.458 5.618L8.838 5.204ZM2.646 10.514H3.798V14.978C2.826 15.32 1.818 15.59 0.81 15.806L1.206 17.462C2.088 17.192 2.952 16.904 3.798 16.58V21.854H5.454V15.914C5.868 15.734 6.282 15.536 6.696 15.338V13.718C6.3 13.916 5.886 14.114 5.454 14.312V10.514H6.768V8.858H5.454V5.258H3.798V8.858H2.862C2.934 8.156 2.988 7.436 3.024 6.716L1.512 6.608C1.44 8.696 1.134 10.694 0.594 12.602L2.088 13.016C2.304 12.206 2.502 11.378 2.646 10.514ZM26.226 9.02V10.64H29.61V11.666C29.61 12.224 29.574 12.782 29.52 13.322H25.938V14.978H29.286C28.746 17.57 27.522 19.424 25.614 20.576L26.64 21.944C28.89 20.504 30.312 18.182 30.924 14.978H35.118V13.322H31.158C31.212 12.674 31.248 11.99 31.248 11.27V10.64H34.794V9.02H32.418C32.94 8.138 33.462 7.076 33.966 5.852L32.382 5.258C31.914 6.59 31.356 7.85 30.708 9.02H26.226ZM28.188 5.366L26.874 6.194C27.612 7.22 28.206 8.156 28.638 9.002L29.916 8.102C29.52 7.328 28.944 6.41 28.188 5.366ZM18.774 5.852V7.436H19.728V17.894C19.386 17.93 19.044 17.984 18.702 18.02L19.098 19.622C20.574 19.37 22.014 19.1 23.382 18.812V21.872H25.038V18.416C25.362 18.326 25.722 18.236 26.082 18.146V16.526L25.038 16.814V7.436H26.046V5.852H18.774ZM21.348 17.624V14.996H23.382V17.21C22.716 17.354 22.032 17.498 21.348 17.624ZM21.348 13.448V11.252H23.382V13.448H21.348ZM21.348 9.704V7.436H23.382V9.704H21.348ZM31.608 16.04L30.636 17.138C31.896 18.488 33.102 20.072 34.272 21.872L35.406 20.63C34.272 18.974 33.012 17.444 31.608 16.04ZM44.298 17.696L45.432 16.58C44.748 15.536 44.1 14.582 43.488 13.718C43.92 12.224 44.262 10.568 44.532 8.768L42.966 8.498C42.786 9.776 42.552 10.982 42.282 12.116C41.598 11.252 40.986 10.514 40.41 9.902L39.366 10.928C40.194 11.9 40.986 12.89 41.742 13.934C41.166 15.644 40.464 17.138 39.618 18.416L40.716 19.748C41.544 18.56 42.264 17.156 42.876 15.536C43.362 16.22 43.83 16.94 44.298 17.696ZM49.482 18.56L50.634 17.426C49.914 16.238 49.23 15.158 48.582 14.168C49.086 12.566 49.5 10.784 49.824 8.822L48.24 8.552C48.024 9.92 47.754 11.234 47.43 12.458C46.782 11.54 46.17 10.766 45.594 10.118L44.532 11.126C45.324 12.134 46.098 13.196 46.854 14.312C46.224 16.04 45.45 17.552 44.514 18.866L45.594 20.18C46.494 18.992 47.268 17.588 47.934 15.968C48.456 16.796 48.978 17.66 49.482 18.56ZM50.544 21.746C51.732 21.746 52.344 21.134 52.344 19.91V5.87H37.656V21.854H39.348V7.508H50.652V19.532C50.652 19.946 50.418 20.162 49.986 20.162L48.294 20.09L48.744 21.746H50.544ZM56.556 5.33L55.368 6.464C56.592 7.346 57.546 8.156 58.23 8.912L59.418 7.724C58.626 6.914 57.672 6.122 56.556 5.33ZM54.954 9.632V11.18H57.438C56.88 12.044 56.178 12.962 55.35 13.898V15.194H58.338C58.05 16.184 57.672 17.084 57.168 17.912C56.376 18.092 55.566 19.01 54.702 20.702L55.908 21.818C56.664 20.306 57.204 19.55 57.546 19.55C57.708 19.55 57.852 19.604 57.96 19.73C58.572 20.306 59.274 20.738 60.03 21.026C60.678 21.26 61.614 21.386 62.838 21.422C64.008 21.458 65.232 21.494 66.51 21.494H70.938L71.316 19.874C69.246 19.964 67.572 20.018 66.276 20.018C65.016 20.018 63.882 20 62.91 19.982C61.902 19.946 61.146 19.838 60.606 19.64C60.066 19.424 59.508 19.064 58.932 18.56C58.824 18.47 58.734 18.38 58.626 18.308C59.166 17.408 59.616 16.274 59.976 14.888V13.754H57.33C58.086 12.836 58.734 11.9 59.292 10.964V9.632H54.954ZM61.326 6.122V7.706H69.804V6.122H61.326ZM60.192 10.19V11.81H63.81C62.442 15.068 61.398 16.814 60.678 17.03L61.11 18.506C64.242 18.182 66.798 17.786 68.76 17.3C68.94 17.804 69.12 18.308 69.3 18.848L70.83 18.452C70.092 16.328 69.246 14.456 68.31 12.818L66.924 13.268C67.356 14.078 67.77 14.924 68.166 15.824C66.762 16.184 65.07 16.472 63.054 16.724C63.828 15.59 64.656 13.952 65.52 11.81H71.1V10.19H60.192ZM79.092 18.002C77.31 18.65 75.222 19.172 72.828 19.55L73.044 21.26C75.312 20.846 77.328 20.306 79.092 19.64V18.002ZM75.582 5.15C74.988 7.13 74.304 8.93 73.53 10.55C73.314 10.856 73.08 11.072 72.81 11.18L73.242 12.746C74.124 12.602 74.97 12.476 75.78 12.35C75.024 13.826 74.376 14.852 73.872 15.464C73.656 15.662 73.404 15.824 73.098 15.95L73.548 17.498C75.168 17.228 76.896 16.724 78.696 15.986V14.42C77.616 14.888 76.572 15.266 75.546 15.554C76.482 14.222 77.616 12.116 78.984 9.254L77.49 8.696C77.148 9.434 76.824 10.136 76.536 10.784C75.96 10.892 75.384 10.964 74.808 11.036C75.636 9.686 76.428 7.94 77.22 5.798L75.582 5.15ZM81.864 13.412H84.672V15.428H81.864V13.412ZM81.864 16.994H84.672V19.298H81.864V16.994ZM81.864 20.882H89.352V19.298H86.31V16.994H88.686V15.428H86.31V13.412H88.686V11.846H86.31V9.794H88.992V8.174H86.4C86.184 7.274 85.86 6.284 85.464 5.186L83.808 5.636C84.168 6.446 84.492 7.292 84.78 8.174H81.99C82.314 7.346 82.584 6.5 82.8 5.618L81.18 5.294C80.622 7.724 79.668 9.974 78.318 12.026L78.84 13.754C79.344 13.106 79.794 12.44 80.226 11.756V21.818H81.864V20.882ZM84.672 9.794V11.846H81.864V9.794H84.672ZM104.256 12.314H93.78V21.836H95.49V21.206H103.392V21.854H105.102V17.048H95.49V16.094H104.256V12.314ZM95.49 19.694V18.398H103.392V19.694H95.49ZM95.49 14.726V13.682H102.582V14.726H95.49ZM106.74 10.064H99.954C99.81 9.686 99.684 9.326 99.54 9.002L100.404 9.56C100.782 9.056 101.124 8.498 101.43 7.904H102.348C102.744 8.462 103.086 9.038 103.374 9.614L104.886 9.056C104.688 8.696 104.454 8.3 104.166 7.904H107.1V6.41H102.096C102.204 6.122 102.294 5.834 102.402 5.528L100.764 5.168C100.404 6.41 99.792 7.562 98.964 8.642L99.27 8.84L97.758 9.092C97.92 9.38 98.082 9.704 98.226 10.064H91.26V13.502H92.934V11.504H105.066V13.502H106.74V10.064ZM93.69 7.904H94.482C94.878 8.516 95.22 9.146 95.526 9.794L97.092 9.2C96.876 8.786 96.588 8.354 96.264 7.904H98.964V6.41H94.428C94.536 6.122 94.662 5.816 94.77 5.51L93.132 5.15C92.682 6.446 91.944 7.67 90.9 8.786L92.394 9.722C92.862 9.164 93.294 8.552 93.69 7.904ZM115.326 5.852V14.456H119.052V16.256H115.11V17.84H119.052V19.712H114.408V21.35H125.298V19.712H120.744V17.84H124.668V16.256H120.744V14.456H124.434V5.852H115.326ZM122.796 12.944H120.744V10.892H122.796V12.944ZM119.052 12.944H116.964V10.892H119.052V12.944ZM116.964 9.416V7.364H119.052V9.416H116.964ZM120.744 7.364H122.796V9.416H120.744V7.364ZM109.116 11.774V13.412H110.898V17.534C110.178 17.714 109.44 17.876 108.684 18.002L109.098 19.64C110.988 19.19 112.752 18.632 114.408 17.984V16.328C113.832 16.58 113.238 16.796 112.626 17.012V13.412H114.444V11.774H112.626V7.922H114.66V6.302H108.846V7.922H110.898V11.774H109.116ZM127.692 5.924V7.598H134.064V13.97H126.972V15.608H134.064V21.836H135.792V15.608H143.028V13.97H135.792V7.598H142.344V5.924H127.692ZM130.212 8.444L128.61 9.218C129.276 10.406 129.906 11.756 130.5 13.268L132.102 12.476C131.49 11 130.86 9.668 130.212 8.444ZM139.932 8.372C139.428 9.686 138.762 11.018 137.916 12.386L139.464 13.178C140.292 11.846 140.976 10.496 141.498 9.11L139.932 8.372ZM159.156 14.222H146.844V21.872H148.572V21.134H157.428V21.872H159.156V14.222ZM148.572 19.496V15.86H157.428V19.496H148.572ZM145.674 12.548C150.282 12.368 154.476 12.116 158.238 11.792C158.652 12.458 159.066 13.16 159.498 13.916L161.172 13.088C159.858 10.91 158.472 8.93 157.014 7.13L155.466 7.868C156.06 8.624 156.654 9.416 157.23 10.28C154.368 10.55 151.416 10.748 148.356 10.856C149.868 9.488 151.344 7.796 152.802 5.78L151.02 5.168C148.608 8.696 146.718 10.622 145.35 10.928L145.674 12.548Z" fill="white"/>
</svg>
