<svg width="160" height="52" viewBox="0 0 160 52" fill="none" xmlns="http://www.w3.org/2000/svg">
<path d="M12 16.4816C12.0037 16.4816 12.0073 16.4809 12.0107 16.4795L18.4778 12.743C18.4792 12.7401 18.4799 12.737 18.4799 12.7338C18.4799 12.7307 18.4792 12.7276 18.4778 12.7247V5.25781C18.4794 5.25503 18.4803 5.25188 18.4803 5.24868C18.4803 5.24547 18.4794 5.24232 18.4778 5.23954L12.0107 1.5H11.9894L5.52221 5.23954C5.52023 5.24218 5.51916 5.24538 5.51916 5.24868C5.51916 5.25197 5.52023 5.25518 5.52221 5.25781V12.7247C5.5206 12.7275 5.51976 12.7306 5.51976 12.7338C5.51976 12.7371 5.5206 12.7402 5.52221 12.743L11.9894 16.4795C11.9927 16.4809 11.9964 16.4816 12 16.4816Z" fill="#00A971"/>
<path d="M1.5 18.2976H22.5V22.5H1.5V18.2976Z" fill="#00A971"/>
<path d="M4.64648 43.0215L6.53906 44.7383L5.80664 45.4414L3.95508 43.748L4.64648 43.0215ZM6.42188 38.9961V40.4727C6.42188 41.0781 6.35547 41.6094 6.22266 42.0664C6.09375 42.5195 5.9043 42.8984 5.6543 43.2031C5.4043 43.5078 5.10156 43.7363 4.74609 43.8887C4.39453 44.041 3.99805 44.1172 3.55664 44.1172C3.13086 44.1172 2.74219 44.041 2.39062 43.8887C2.03906 43.7363 1.73633 43.5078 1.48242 43.2031C1.22852 42.8984 1.03125 42.5195 0.890625 42.0664C0.753906 41.6094 0.685547 41.0781 0.685547 40.4727V38.9961C0.685547 38.3906 0.753906 37.8613 0.890625 37.4082C1.02734 36.9551 1.22266 36.5762 1.47656 36.2715C1.73047 35.9629 2.0332 35.7324 2.38477 35.5801C2.73633 35.4277 3.125 35.3516 3.55078 35.3516C3.99219 35.3516 4.38867 35.4277 4.74023 35.5801C5.0957 35.7324 5.39844 35.9629 5.64844 36.2715C5.89844 36.5762 6.08984 36.9551 6.22266 37.4082C6.35547 37.8613 6.42188 38.3906 6.42188 38.9961ZM5.35547 40.4727V38.9844C5.35547 38.5156 5.31641 38.1133 5.23828 37.7773C5.16016 37.4375 5.04297 37.1602 4.88672 36.9453C4.73438 36.7305 4.54688 36.5723 4.32422 36.4707C4.10156 36.3652 3.84375 36.3125 3.55078 36.3125C3.27734 36.3125 3.0293 36.3652 2.80664 36.4707C2.58789 36.5723 2.40039 36.7305 2.24414 36.9453C2.08789 37.1602 1.9668 37.4375 1.88086 37.7773C1.79883 38.1133 1.75781 38.5156 1.75781 38.9844V40.4727C1.75781 40.9453 1.79883 41.3516 1.88086 41.6914C1.9668 42.0312 2.08789 42.3105 2.24414 42.5293C2.4043 42.7441 2.59375 42.9043 2.8125 43.0098C3.03516 43.1113 3.2832 43.1621 3.55664 43.1621C3.84961 43.1621 4.10742 43.1113 4.33008 43.0098C4.55664 42.9043 4.74609 42.7441 4.89844 42.5293C5.05078 42.3105 5.16406 42.0312 5.23828 41.6914C5.31641 41.3516 5.35547 40.9453 5.35547 40.4727ZM9.81133 37.6602V44H8.78008V37.6602H9.81133ZM8.72148 35.9785C8.72148 35.8027 8.77031 35.6543 8.86797 35.5332C8.96562 35.4121 9.11211 35.3516 9.30742 35.3516C9.50273 35.3516 9.64922 35.4121 9.74687 35.5332C9.84844 35.6543 9.89922 35.8027 9.89922 35.9785C9.89922 36.1465 9.84844 36.291 9.74687 36.4121C9.64922 36.5293 9.50273 36.5879 9.30742 36.5879C9.11211 36.5879 8.96562 36.5293 8.86797 36.4121C8.77031 36.291 8.72148 36.1465 8.72148 35.9785ZM13.1891 39.0137V44H12.152V37.6602H13.1305L13.1891 39.0137ZM12.9371 40.5898L12.5152 40.5723C12.5113 40.1387 12.5602 39.7383 12.6617 39.3711C12.7672 39 12.9156 38.6777 13.107 38.4043C13.3023 38.1309 13.5348 37.9199 13.8043 37.7715C14.0738 37.6191 14.3727 37.543 14.7008 37.543C14.9586 37.543 15.193 37.5859 15.4039 37.6719C15.6148 37.7539 15.7945 37.8867 15.943 38.0703C16.0914 38.2539 16.2047 38.4922 16.2828 38.7852C16.3648 39.0742 16.4059 39.4277 16.4059 39.8457V44H15.3687V39.834C15.3687 39.502 15.3316 39.2363 15.2574 39.0371C15.1871 38.834 15.0777 38.6875 14.9293 38.5977C14.7848 38.5039 14.6012 38.457 14.3785 38.457C14.1754 38.457 13.9859 38.5137 13.8102 38.627C13.6344 38.7402 13.4801 38.8965 13.3473 39.0957C13.2184 39.2949 13.1168 39.5234 13.0426 39.7812C12.9723 40.0352 12.9371 40.3047 12.9371 40.5898ZM22.098 37.6602H23.0297V44.0527C23.0297 44.6113 22.932 45.0723 22.7367 45.4355C22.5453 45.7988 22.2777 46.0664 21.934 46.2383C21.5902 46.4141 21.1938 46.502 20.7445 46.502C20.5844 46.502 20.3832 46.4727 20.141 46.4141C19.8988 46.3555 19.6566 46.2656 19.4145 46.1445C19.1723 46.0273 18.973 45.8789 18.8168 45.6992L19.2445 44.9785C19.4672 45.2051 19.7035 45.3672 19.9535 45.4648C20.2035 45.5625 20.4418 45.6113 20.6684 45.6113C20.9379 45.6113 21.1723 45.5625 21.3715 45.4648C21.5707 45.3672 21.725 45.207 21.8344 44.9844C21.9438 44.7656 21.9984 44.4727 21.9984 44.1055V39.0547L22.098 37.6602ZM18.4535 41.1348V40.543C18.4535 40.0195 18.5023 39.5703 18.6 39.1953C18.6977 38.8164 18.8383 38.5059 19.0219 38.2637C19.2094 38.0176 19.434 37.8359 19.6957 37.7188C19.9574 37.6016 20.2504 37.543 20.5746 37.543C20.9027 37.543 21.1859 37.6094 21.4242 37.7422C21.6625 37.875 21.8598 38.0684 22.016 38.3223C22.1762 38.5723 22.3012 38.877 22.391 39.2363C22.4848 39.5918 22.5492 39.9941 22.5844 40.4434V41.2344C22.5492 41.6797 22.4848 42.0801 22.391 42.4355C22.3012 42.791 22.1742 43.0938 22.0102 43.3438C21.85 43.5938 21.6508 43.7852 21.4125 43.918C21.1742 44.0508 20.891 44.1172 20.5629 44.1172C20.2426 44.1172 19.9535 44.0566 19.6957 43.9355C19.4379 43.8105 19.2152 43.625 19.0277 43.3789C18.8441 43.1289 18.7016 42.8184 18.6 42.4473C18.5023 42.0723 18.4535 41.6348 18.4535 41.1348ZM19.4906 40.543V41.1348C19.4906 41.4863 19.516 41.793 19.5668 42.0547C19.6176 42.3125 19.6957 42.5273 19.8012 42.6992C19.9105 42.8672 20.0492 42.9922 20.2172 43.0742C20.3891 43.1562 20.5941 43.1973 20.8324 43.1973C21.1215 43.1973 21.3578 43.127 21.5414 42.9863C21.725 42.8457 21.8715 42.6602 21.9809 42.4297C22.0941 42.1953 22.184 41.9434 22.2504 41.6738V40.0098C22.2113 39.8105 22.1547 39.6191 22.0805 39.4355C22.0102 39.248 21.9184 39.082 21.8051 38.9375C21.6918 38.7891 21.5551 38.6719 21.3949 38.5859C21.2387 38.5 21.0551 38.457 20.8441 38.457C20.6059 38.457 20.4008 38.5 20.2289 38.5859C20.057 38.6719 19.9164 38.8008 19.807 38.9727C19.6977 39.1445 19.6176 39.3613 19.5668 39.623C19.516 39.8848 19.4906 40.1914 19.4906 40.543ZM29.6945 41.2871H30.7727C30.7453 41.873 30.6262 42.3789 30.4152 42.8047C30.2082 43.2266 29.9055 43.5508 29.507 43.7773C29.1125 44.0039 28.6184 44.1172 28.0246 44.1172C27.5988 44.1172 27.2141 44.0332 26.8703 43.8652C26.5266 43.6973 26.2316 43.457 25.9855 43.1445C25.7434 42.8281 25.5578 42.4492 25.4289 42.0078C25.3 41.5664 25.2355 41.0703 25.2355 40.5195V38.9434C25.2355 38.3965 25.3 37.9023 25.4289 37.4609C25.5617 37.0195 25.7512 36.6426 25.9973 36.3301C26.2473 36.0137 26.55 35.7715 26.9055 35.6035C27.2648 35.4355 27.6711 35.3516 28.1242 35.3516C28.6789 35.3516 29.1477 35.4629 29.5305 35.6855C29.9172 35.9043 30.2141 36.2266 30.4211 36.6523C30.632 37.0742 30.7492 37.5918 30.7727 38.2051H29.6945C29.6672 37.7559 29.5969 37.3906 29.4836 37.1094C29.3703 36.8242 29.2023 36.6152 28.9797 36.4824C28.7609 36.3457 28.4758 36.2773 28.1242 36.2773C27.8117 36.2773 27.5402 36.3398 27.3098 36.4648C27.0832 36.5898 26.8957 36.7695 26.7473 37.0039C26.6027 37.2344 26.4934 37.5137 26.4191 37.8418C26.3488 38.166 26.3137 38.5293 26.3137 38.9316V40.5195C26.3137 40.8945 26.343 41.2441 26.4016 41.5684C26.4641 41.8926 26.5617 42.1777 26.6945 42.4238C26.8312 42.666 27.009 42.8555 27.2277 42.9922C27.4465 43.1289 27.7121 43.1973 28.0246 43.1973C28.4191 43.1973 28.7316 43.1328 28.9621 43.0039C29.1926 42.875 29.3625 42.6699 29.4719 42.3887C29.5852 42.1074 29.6594 41.7402 29.6945 41.2871ZM33.9043 35V44H32.873V35H33.9043ZM36.0281 41.1348V40.5312C36.0281 40.0391 36.0906 39.6074 36.2156 39.2363C36.3406 38.8613 36.5145 38.5488 36.7371 38.2988C36.9598 38.0488 37.2195 37.8613 37.5164 37.7363C37.8133 37.6074 38.1316 37.543 38.4715 37.543C38.8191 37.543 39.1414 37.6074 39.4383 37.7363C39.7352 37.8613 39.9949 38.0488 40.2176 38.2988C40.4441 38.5488 40.6199 38.8613 40.7449 39.2363C40.8699 39.6074 40.9324 40.0391 40.9324 40.5312V41.1348C40.9324 41.627 40.8699 42.0605 40.7449 42.4355C40.6199 42.8066 40.4461 43.1172 40.2234 43.3672C40.0008 43.6172 39.741 43.8047 39.4441 43.9297C39.1473 44.0547 38.827 44.1172 38.4832 44.1172C38.1395 44.1172 37.8191 44.0547 37.5223 43.9297C37.2254 43.8047 36.9637 43.6172 36.7371 43.3672C36.5145 43.1172 36.3406 42.8066 36.2156 42.4355C36.0906 42.0605 36.0281 41.627 36.0281 41.1348ZM37.0652 40.5312V41.1348C37.0652 41.4824 37.1004 41.7871 37.1707 42.0488C37.241 42.3105 37.3406 42.5293 37.4695 42.7051C37.5984 42.8809 37.7488 43.0137 37.9207 43.1035C38.0926 43.1895 38.2801 43.2324 38.4832 43.2324C38.7176 43.2324 38.9227 43.1895 39.0984 43.1035C39.2781 43.0137 39.4266 42.8809 39.5438 42.7051C39.6609 42.5293 39.7488 42.3105 39.8074 42.0488C39.866 41.7871 39.8953 41.4824 39.8953 41.1348V40.5312C39.8953 40.1836 39.8602 39.8809 39.7898 39.623C39.7195 39.3613 39.6199 39.1426 39.491 38.9668C39.3621 38.7871 39.2098 38.6543 39.034 38.5684C38.8621 38.4785 38.6746 38.4336 38.4715 38.4336C38.2723 38.4336 38.0867 38.4785 37.9148 38.5684C37.743 38.6543 37.5926 38.7871 37.4637 38.9668C37.3387 39.1426 37.241 39.3613 37.1707 39.623C37.1004 39.8809 37.0652 40.1836 37.0652 40.5312ZM46.1734 42.5352V37.6602H47.2105V44H46.2262L46.1734 42.5352ZM46.3668 41.1992L46.777 41.1875C46.777 41.6094 46.7398 42 46.6656 42.3594C46.5953 42.7148 46.4781 43.0234 46.3141 43.2852C46.1539 43.5469 45.941 43.752 45.6754 43.9004C45.4098 44.0449 45.0836 44.1172 44.6969 44.1172C44.4352 44.1172 44.1969 44.0723 43.982 43.9824C43.7711 43.8926 43.5875 43.7539 43.4313 43.5664C43.2789 43.3789 43.1598 43.1348 43.0738 42.834C42.9918 42.5332 42.9508 42.1719 42.9508 41.75V37.6602H43.982V41.7617C43.982 42.0469 44.0074 42.2832 44.0582 42.4707C44.109 42.6543 44.1773 42.8008 44.2633 42.9102C44.3492 43.0156 44.4449 43.0898 44.5504 43.1328C44.6559 43.1758 44.7633 43.1973 44.8727 43.1973C45.2398 43.1973 45.5328 43.1094 45.7516 42.9336C45.9703 42.7539 46.1266 42.5137 46.2203 42.2129C46.318 41.9082 46.3668 41.5703 46.3668 41.1992ZM52.7914 42.7695V35H53.8227V44H52.8793L52.7914 42.7695ZM49.2465 41.1348V40.543C49.2465 40.0195 49.2973 39.5703 49.3988 39.1953C49.5004 38.8164 49.6449 38.5059 49.8324 38.2637C50.0199 38.0176 50.2445 37.8359 50.5062 37.7188C50.768 37.6016 51.057 37.543 51.3734 37.543C51.7016 37.543 51.9828 37.6094 52.2172 37.7422C52.4555 37.875 52.6547 38.0684 52.8148 38.3223C52.975 38.5723 53.1 38.877 53.1898 39.2363C53.2836 39.5918 53.3461 39.9941 53.3773 40.4434V41.2344C53.3422 41.6797 53.2777 42.0801 53.184 42.4355C53.0941 42.791 52.9691 43.0938 52.809 43.3438C52.6488 43.5938 52.4496 43.7852 52.2113 43.918C51.973 44.0508 51.6898 44.1172 51.3617 44.1172C51.0492 44.1172 50.7641 44.0566 50.5062 43.9355C50.2484 43.8105 50.0238 43.625 49.8324 43.3789C49.6449 43.1289 49.5004 42.8184 49.3988 42.4473C49.2973 42.0723 49.2465 41.6348 49.2465 41.1348ZM50.2836 40.543V41.1348C50.2836 41.4863 50.309 41.793 50.3598 42.0547C50.4105 42.3125 50.4906 42.5273 50.6 42.6992C50.7094 42.8672 50.848 42.9922 51.016 43.0742C51.1879 43.1562 51.393 43.1973 51.6312 43.1973C51.9203 43.1973 52.1566 43.127 52.3402 42.9863C52.5238 42.8457 52.6703 42.6602 52.7797 42.4297C52.893 42.1953 52.9828 41.9434 53.0492 41.6738V40.0098C53.0102 39.8105 52.9535 39.6191 52.8793 39.4355C52.8051 39.248 52.7113 39.082 52.598 38.9375C52.4887 38.7891 52.3539 38.6719 52.1937 38.5859C52.0375 38.5 51.8539 38.457 51.643 38.457C51.4047 38.457 51.1977 38.5 51.0219 38.5859C50.85 38.6719 50.7094 38.8008 50.6 38.9727C50.4945 39.1445 50.4145 39.3613 50.3598 39.623C50.309 39.8848 50.2836 40.1914 50.2836 40.543ZM60.8418 35.4688V44H59.7637V35.4688H60.8418ZM63.0594 41.1348V40.5312C63.0594 40.0391 63.1219 39.6074 63.2469 39.2363C63.3719 38.8613 63.5457 38.5488 63.7684 38.2988C63.991 38.0488 64.2508 37.8613 64.5477 37.7363C64.8445 37.6074 65.1629 37.543 65.5027 37.543C65.8504 37.543 66.1727 37.6074 66.4695 37.7363C66.7664 37.8613 67.0262 38.0488 67.2488 38.2988C67.4754 38.5488 67.6512 38.8613 67.7762 39.2363C67.9012 39.6074 67.9637 40.0391 67.9637 40.5312V41.1348C67.9637 41.627 67.9012 42.0605 67.7762 42.4355C67.6512 42.8066 67.4773 43.1172 67.2547 43.3672C67.032 43.6172 66.7723 43.8047 66.4754 43.9297C66.1785 44.0547 65.8582 44.1172 65.5145 44.1172C65.1707 44.1172 64.8504 44.0547 64.5535 43.9297C64.2566 43.8047 63.9949 43.6172 63.7684 43.3672C63.5457 43.1172 63.3719 42.8066 63.2469 42.4355C63.1219 42.0605 63.0594 41.627 63.0594 41.1348ZM64.0965 40.5312V41.1348C64.0965 41.4824 64.1316 41.7871 64.202 42.0488C64.2723 42.3105 64.3719 42.5293 64.5008 42.7051C64.6297 42.8809 64.7801 43.0137 64.952 43.1035C65.1238 43.1895 65.3113 43.2324 65.5145 43.2324C65.7488 43.2324 65.9539 43.1895 66.1297 43.1035C66.3094 43.0137 66.4578 42.8809 66.575 42.7051C66.6922 42.5293 66.7801 42.3105 66.8387 42.0488C66.8973 41.7871 66.9266 41.4824 66.9266 41.1348V40.5312C66.9266 40.1836 66.8914 39.8809 66.8211 39.623C66.7508 39.3613 66.6512 39.1426 66.5223 38.9668C66.3934 38.7871 66.241 38.6543 66.0652 38.5684C65.8934 38.4785 65.7059 38.4336 65.5027 38.4336C65.3035 38.4336 65.118 38.4785 64.9461 38.5684C64.7742 38.6543 64.6238 38.7871 64.4949 38.9668C64.3699 39.1426 64.2723 39.3613 64.202 39.623C64.1316 39.8809 64.0965 40.1836 64.0965 40.5312ZM72.8824 35.4688V44H71.816V35.4688H72.8824ZM75.1266 35.4688V36.3945H69.5777V35.4688H75.1266ZM83.0246 40.6543H81.1613V39.7344H83.0246C83.3762 39.7344 83.6594 39.6641 83.8742 39.5234C84.093 39.3828 84.2512 39.1875 84.3488 38.9375C84.4504 38.6875 84.5012 38.4023 84.5012 38.082C84.5012 37.7891 84.4504 37.5137 84.3488 37.2559C84.2512 36.998 84.093 36.791 83.8742 36.6348C83.6594 36.4746 83.3762 36.3945 83.0246 36.3945H81.384V44H80.3059V35.4688H83.0246C83.5754 35.4688 84.0402 35.5801 84.4191 35.8027C84.798 36.0254 85.0852 36.334 85.2805 36.7285C85.4797 37.1191 85.5793 37.5664 85.5793 38.0703C85.5793 38.6172 85.4797 39.084 85.2805 39.4707C85.0852 39.8574 84.798 40.1523 84.4191 40.3555C84.0402 40.5547 83.5754 40.6543 83.0246 40.6543ZM88.6348 35V44H87.6035V35H88.6348ZM94.0809 42.916V39.4766C94.0809 39.2266 94.0418 39.0254 93.9637 38.873C93.8895 38.7207 93.7762 38.6094 93.6238 38.5391C93.4754 38.4688 93.2879 38.4336 93.0613 38.4336C92.8426 38.4336 92.6531 38.4785 92.493 38.5684C92.3367 38.6582 92.2156 38.7773 92.1297 38.9258C92.0477 39.0742 92.0066 39.2383 92.0066 39.418H90.9695C90.9695 39.1914 91.0184 38.9668 91.116 38.7441C91.2176 38.5215 91.3621 38.3203 91.5496 38.1406C91.7371 37.957 91.9617 37.8125 92.2234 37.707C92.4891 37.5977 92.7859 37.543 93.1141 37.543C93.5047 37.543 93.8504 37.6074 94.1512 37.7363C94.452 37.8613 94.6883 38.0664 94.8602 38.3516C95.032 38.6367 95.118 39.0156 95.118 39.4883V42.6172C95.118 42.8281 95.1336 43.0527 95.1648 43.291C95.2 43.5293 95.2488 43.7344 95.3113 43.9062V44H94.2391C94.1883 43.875 94.1492 43.709 94.1219 43.502C94.0945 43.291 94.0809 43.0957 94.0809 42.916ZM94.2449 40.1562L94.2566 40.918H93.5359C93.2898 40.918 93.0652 40.9453 92.8621 41C92.6629 41.0547 92.491 41.1348 92.3465 41.2402C92.202 41.3418 92.0906 41.4688 92.0125 41.6211C91.9383 41.7734 91.9012 41.9473 91.9012 42.1426C91.9012 42.3965 91.9363 42.5996 92.0066 42.752C92.077 42.9004 92.1824 43.0078 92.323 43.0742C92.4637 43.1406 92.6414 43.1738 92.8562 43.1738C93.118 43.1738 93.3484 43.1133 93.5477 42.9922C93.7469 42.8711 93.9012 42.7246 94.0105 42.5527C94.1238 42.3809 94.1766 42.2207 94.1687 42.0723L94.3973 42.5586C94.3816 42.7109 94.3309 42.877 94.2449 43.0566C94.1629 43.2324 94.0477 43.4023 93.8992 43.5664C93.7508 43.7266 93.575 43.8594 93.3719 43.9648C93.1727 44.0664 92.948 44.1172 92.698 44.1172C92.3309 44.1172 92.0086 44.0469 91.7312 43.9062C91.4578 43.7656 91.2449 43.5586 91.0926 43.2852C90.9402 43.0117 90.8641 42.6738 90.8641 42.2715C90.8641 41.9668 90.9168 41.6855 91.0223 41.4277C91.1277 41.1699 91.284 40.9473 91.491 40.7598C91.698 40.5684 91.9578 40.4199 92.2703 40.3145C92.5867 40.209 92.952 40.1562 93.366 40.1562H94.2449ZM99.7438 37.6602V38.4922H96.7848V37.6602H99.7438ZM97.7516 36.1191H98.7887V42.4297C98.7887 42.6445 98.8141 42.8066 98.8648 42.916C98.9195 43.0254 98.9879 43.0977 99.0699 43.1328C99.152 43.168 99.2398 43.1855 99.3336 43.1855C99.4039 43.1855 99.482 43.1777 99.568 43.1621C99.6539 43.1426 99.7125 43.127 99.7438 43.1152L99.7379 44C99.6676 44.0273 99.5738 44.0527 99.4566 44.0762C99.3395 44.1035 99.191 44.1172 99.0113 44.1172C98.7887 44.1172 98.5816 44.0645 98.3902 43.959C98.1988 43.8535 98.0445 43.6777 97.9273 43.4316C97.8102 43.1816 97.7516 42.8457 97.7516 42.4238V36.1191ZM103.174 44H102.137V36.9922C102.137 36.5352 102.209 36.1504 102.354 35.8379C102.502 35.5215 102.711 35.2832 102.981 35.123C103.254 34.959 103.579 34.877 103.954 34.877C104.059 34.877 104.164 34.8848 104.27 34.9004C104.379 34.916 104.483 34.9395 104.58 34.9707L104.534 35.8555C104.471 35.8359 104.395 35.8223 104.305 35.8145C104.219 35.8066 104.137 35.8027 104.059 35.8027C103.871 35.8027 103.711 35.8496 103.579 35.9434C103.446 36.0332 103.344 36.166 103.274 36.3418C103.207 36.5176 103.174 36.7344 103.174 36.9922V44ZM104.252 37.6602V38.4922H101.311V37.6602H104.252ZM105.96 41.1348V40.5312C105.96 40.0391 106.023 39.6074 106.148 39.2363C106.273 38.8613 106.446 38.5488 106.669 38.2988C106.892 38.0488 107.152 37.8613 107.448 37.7363C107.745 37.6074 108.064 37.543 108.404 37.543C108.751 37.543 109.073 37.6074 109.37 37.7363C109.667 37.8613 109.927 38.0488 110.15 38.2988C110.376 38.5488 110.552 38.8613 110.677 39.2363C110.802 39.6074 110.864 40.0391 110.864 40.5312V41.1348C110.864 41.627 110.802 42.0605 110.677 42.4355C110.552 42.8066 110.378 43.1172 110.155 43.3672C109.933 43.6172 109.673 43.8047 109.376 43.9297C109.079 44.0547 108.759 44.1172 108.415 44.1172C108.071 44.1172 107.751 44.0547 107.454 43.9297C107.157 43.8047 106.896 43.6172 106.669 43.3672C106.446 43.1172 106.273 42.8066 106.148 42.4355C106.023 42.0605 105.96 41.627 105.96 41.1348ZM106.997 40.5312V41.1348C106.997 41.4824 107.032 41.7871 107.103 42.0488C107.173 42.3105 107.273 42.5293 107.402 42.7051C107.53 42.8809 107.681 43.0137 107.853 43.1035C108.025 43.1895 108.212 43.2324 108.415 43.2324C108.65 43.2324 108.855 43.1895 109.03 43.1035C109.21 43.0137 109.359 42.8809 109.476 42.7051C109.593 42.5293 109.681 42.3105 109.739 42.0488C109.798 41.7871 109.827 41.4824 109.827 41.1348V40.5312C109.827 40.1836 109.792 39.8809 109.722 39.623C109.652 39.3613 109.552 39.1426 109.423 38.9668C109.294 38.7871 109.142 38.6543 108.966 38.5684C108.794 38.4785 108.607 38.4336 108.404 38.4336C108.204 38.4336 108.019 38.4785 107.847 38.5684C107.675 38.6543 107.525 38.7871 107.396 38.9668C107.271 39.1426 107.173 39.3613 107.103 39.623C107.032 39.8809 106.997 40.1836 106.997 40.5312ZM113.938 38.6562V44H112.9V37.6602H113.902L113.938 38.6562ZM115.514 37.625L115.52 38.6328C115.434 38.6133 115.355 38.6016 115.285 38.5977C115.219 38.5898 115.141 38.5859 115.051 38.5859C114.855 38.5859 114.684 38.625 114.535 38.7031C114.391 38.7812 114.266 38.8906 114.16 39.0312C114.055 39.1719 113.971 39.3398 113.908 39.5352C113.846 39.7266 113.803 39.9375 113.779 40.168L113.51 40.3438C113.51 39.9609 113.539 39.6016 113.598 39.2656C113.66 38.9297 113.756 38.6328 113.885 38.375C114.014 38.1133 114.178 37.9102 114.377 37.7656C114.58 37.6172 114.822 37.543 115.104 37.543C115.166 37.543 115.242 37.5527 115.332 37.5723C115.426 37.5879 115.486 37.6055 115.514 37.625ZM118.294 38.9199V44H117.262V37.6602H118.235L118.294 38.9199ZM118.083 40.5898L117.602 40.5723C117.598 40.1387 117.641 39.7383 117.731 39.3711C117.821 39 117.956 38.6777 118.136 38.4043C118.319 38.1309 118.548 37.9199 118.821 37.7715C119.098 37.6191 119.421 37.543 119.788 37.543C120.03 37.543 120.255 37.5859 120.462 37.6719C120.673 37.7539 120.856 37.8848 121.012 38.0645C121.169 38.2441 121.29 38.4746 121.376 38.7559C121.466 39.0371 121.511 39.377 121.511 39.7754V44H120.473V39.8281C120.473 39.4961 120.429 39.2305 120.339 39.0312C120.253 38.832 120.13 38.6875 119.97 38.5977C119.809 38.5039 119.618 38.457 119.395 38.457C119.141 38.457 118.929 38.5137 118.757 38.627C118.589 38.7402 118.454 38.8965 118.352 39.0957C118.255 39.2949 118.184 39.5234 118.141 39.7812C118.102 40.0352 118.083 40.3047 118.083 40.5898ZM121.499 39.9922L120.807 40.2148C120.804 39.8672 120.846 39.5332 120.936 39.2129C121.026 38.8926 121.159 38.6074 121.335 38.3574C121.514 38.1074 121.737 37.9102 122.003 37.7656C122.268 37.6172 122.577 37.543 122.929 37.543C123.218 37.543 123.473 37.5879 123.696 37.6777C123.919 37.7676 124.106 37.9062 124.259 38.0938C124.415 38.2773 124.532 38.5137 124.61 38.8027C124.688 39.0918 124.727 39.4355 124.727 39.834V44H123.69V39.8223C123.69 39.4668 123.645 39.1914 123.555 38.9961C123.47 38.7969 123.346 38.6582 123.186 38.5801C123.026 38.498 122.835 38.457 122.612 38.457C122.432 38.457 122.272 38.498 122.132 38.5801C121.995 38.6621 121.88 38.7754 121.786 38.9199C121.692 39.0605 121.62 39.2227 121.569 39.4062C121.522 39.5898 121.499 39.7852 121.499 39.9922Z" fill="#ABB4BE"/>
<path d="M131 35C131 32.7909 132.791 31 135 31H160V43C160 45.2091 158.209 47 156 47H135C132.791 47 131 45.2091 131 43V35Z" fill="#2D3748"/>
<path d="M137.42 42.0215L138.779 36.6602H139.834L137.953 43H137.268L137.42 42.0215ZM136.324 36.6602L137.742 42.0508L137.854 43H137.174L135.27 36.6602H136.324ZM145.588 42.1094V43H140.818V42.2207L143.168 39.1094C143.457 38.7266 143.678 38.4023 143.83 38.1367C143.982 37.8672 144.088 37.627 144.146 37.416C144.205 37.2012 144.234 36.9824 144.234 36.7598C144.234 36.4785 144.189 36.2246 144.1 35.998C144.01 35.7676 143.879 35.584 143.707 35.4473C143.535 35.3105 143.328 35.2422 143.086 35.2422C142.77 35.2422 142.51 35.3164 142.307 35.4648C142.107 35.6094 141.961 35.8125 141.867 36.0742C141.773 36.3359 141.727 36.6367 141.727 36.9766H140.689C140.689 36.4961 140.777 36.0566 140.953 35.6582C141.133 35.2598 141.4 34.9434 141.756 34.709C142.111 34.4707 142.555 34.3516 143.086 34.3516C143.543 34.3516 143.934 34.4473 144.258 34.6387C144.586 34.8262 144.836 35.0918 145.008 35.4355C145.184 35.7754 145.271 36.1738 145.271 36.6309C145.271 36.8809 145.236 37.1348 145.166 37.3926C145.1 37.6465 145.006 37.9004 144.885 38.1543C144.768 38.4082 144.629 38.6582 144.469 38.9043C144.309 39.1504 144.137 39.3926 143.953 39.6309L142.061 42.1094H145.588ZM146.906 42.4258C146.906 42.2422 146.963 42.0879 147.076 41.9629C147.193 41.834 147.361 41.7695 147.58 41.7695C147.799 41.7695 147.965 41.834 148.078 41.9629C148.195 42.0879 148.254 42.2422 148.254 42.4258C148.254 42.6055 148.195 42.7578 148.078 42.8828C147.965 43.0078 147.799 43.0703 147.58 43.0703C147.361 43.0703 147.193 43.0078 147.076 42.8828C146.963 42.7578 146.906 42.6055 146.906 42.4258ZM154.471 38.0547V39.3555C154.471 40.0547 154.416 40.6445 154.307 41.125C154.201 41.6055 154.049 41.9922 153.85 42.2852C153.65 42.5781 153.41 42.791 153.129 42.9238C152.852 43.0527 152.539 43.1172 152.191 43.1172C151.918 43.1172 151.662 43.0762 151.424 42.9941C151.189 42.9121 150.979 42.7812 150.791 42.6016C150.604 42.418 150.443 42.1797 150.311 41.8867C150.178 41.5938 150.076 41.2383 150.006 40.8203C149.936 40.4023 149.9 39.9141 149.9 39.3555V38.0547C149.9 37.3555 149.955 36.7695 150.064 36.2969C150.174 35.8242 150.328 35.4453 150.527 35.1602C150.73 34.8711 150.971 34.6641 151.248 34.5391C151.529 34.4141 151.842 34.3516 152.186 34.3516C152.463 34.3516 152.719 34.3926 152.953 34.4746C153.191 34.5527 153.402 34.6797 153.586 34.8555C153.773 35.0273 153.934 35.2578 154.066 35.5469C154.199 35.832 154.299 36.1816 154.365 36.5957C154.436 37.0098 154.471 37.4961 154.471 38.0547ZM153.439 39.5312V37.873C153.439 37.4902 153.422 37.1543 153.387 36.8652C153.352 36.5723 153.301 36.3223 153.234 36.1152C153.168 35.9082 153.082 35.7402 152.977 35.6113C152.875 35.4824 152.758 35.3887 152.625 35.3301C152.492 35.2676 152.346 35.2363 152.186 35.2363C151.986 35.2363 151.809 35.2852 151.652 35.3828C151.5 35.4766 151.369 35.627 151.26 35.834C151.154 36.041 151.074 36.3125 151.02 36.6484C150.965 36.9844 150.938 37.3926 150.938 37.873V39.5312C150.938 39.9141 150.955 40.252 150.99 40.5449C151.029 40.8379 151.082 41.0918 151.148 41.3066C151.219 41.5176 151.305 41.6914 151.406 41.8281C151.508 41.9648 151.625 42.0664 151.758 42.1328C151.891 42.1953 152.035 42.2266 152.191 42.2266C152.398 42.2266 152.578 42.1758 152.73 42.0742C152.887 41.9727 153.018 41.8145 153.123 41.5996C153.229 41.3809 153.307 41.1016 153.357 40.7617C153.412 40.418 153.439 40.0078 153.439 39.5312Z" fill="white"/>
<path d="M40.766 3.168C40.298 5.796 39.506 7.83 38.39 9.234L39.758 10.404C40.352 9.684 40.874 8.784 41.324 7.722H42.08C41.414 10.908 40.208 13.23 38.48 14.706L39.686 16.11C41.648 14.346 42.998 11.538 43.754 7.722H44.654C44.312 10.242 43.826 12.258 43.196 13.788C42.458 15.444 41.36 16.92 39.884 18.252L41.054 19.746C42.674 18.234 43.916 16.506 44.744 14.598C45.428 12.906 45.95 10.602 46.328 7.722H46.976C46.94 12.816 46.886 15.786 46.778 16.632C46.634 17.622 46.076 18.126 45.122 18.126C44.69 18.126 44.204 18.09 43.628 18.036L44.06 19.71C44.708 19.764 45.176 19.8 45.428 19.8C47.264 19.8 48.29 19.026 48.506 17.478C48.686 16.038 48.776 12.186 48.776 5.922H41.972C42.17 5.202 42.35 4.446 42.53 3.636L40.766 3.168ZM34.718 8.586H35.708V12.888C34.736 13.212 33.764 13.482 32.774 13.68L33.224 15.498C34.07 15.246 34.898 14.958 35.708 14.67V19.872H37.544V13.932C37.922 13.752 38.3 13.59 38.696 13.41V11.646C38.3 11.826 37.922 12.006 37.544 12.186V8.586H38.768V6.786H37.544V3.24H35.708V6.786H34.934C34.988 6.102 35.024 5.418 35.06 4.734L33.386 4.608C33.314 6.696 33.044 8.694 32.558 10.584L34.214 11.052C34.412 10.26 34.574 9.432 34.718 8.586ZM58.208 6.948V8.712H61.52V9.378C61.52 10.026 61.484 10.638 61.412 11.25H57.92V13.05H61.142C60.584 15.534 59.396 17.352 57.578 18.468L58.712 19.998C60.584 18.774 61.88 16.92 62.618 14.454C63.194 16.254 64.364 18.072 66.128 19.908L67.424 18.504C65.444 16.668 64.202 14.85 63.716 13.05H67.136V11.25H63.23C63.302 10.53 63.338 9.756 63.338 8.946V8.712H66.812V6.948H64.526C65.03 6.102 65.534 5.076 66.038 3.888L64.292 3.222C63.842 4.554 63.302 5.796 62.672 6.948H60.584L61.862 6.048C61.502 5.256 60.98 4.338 60.314 3.294L58.874 4.212C59.522 5.202 60.044 6.12 60.44 6.948H58.208ZM50.756 3.78V5.508H51.656V16.02L50.666 16.164L51.116 17.946C52.556 17.658 53.942 17.352 55.292 17.028V19.89H57.11V16.524C57.434 16.434 57.776 16.344 58.1 16.236V14.418C57.776 14.526 57.452 14.634 57.11 14.742V5.508H58.064V3.78H50.756ZM53.438 15.696V13.068H55.292V15.264C54.68 15.408 54.068 15.552 53.438 15.696ZM53.438 11.376V9.324H55.292V11.376H53.438ZM53.438 7.632V5.508H55.292V7.632H53.438ZM76.226 15.696L77.468 14.454C76.82 13.446 76.19 12.528 75.578 11.7C75.992 10.224 76.334 8.604 76.604 6.804L74.876 6.498C74.714 7.686 74.498 8.838 74.246 9.918C73.634 9.126 73.058 8.442 72.518 7.866L71.456 8.892V5.598H82.544V15.174C81.896 14.094 81.266 13.086 80.654 12.168C81.158 10.584 81.572 8.802 81.878 6.858L80.114 6.552C79.916 7.866 79.664 9.108 79.358 10.278C78.746 9.414 78.17 8.694 77.648 8.082L76.496 9.198C77.27 10.206 78.026 11.232 78.746 12.294C78.134 13.986 77.378 15.462 76.478 16.758L77.666 18.234C78.53 17.082 79.286 15.732 79.934 14.148C80.438 14.94 80.906 15.75 81.374 16.578L82.544 15.408V17.442C82.544 17.838 82.328 18.036 81.914 18.036L80.258 17.946L80.726 19.764H82.526C83.768 19.764 84.398 19.134 84.398 17.874V3.798H69.602V19.89H71.456V9.09C72.212 10.008 72.968 10.962 73.688 11.934C73.148 13.59 72.464 15.066 71.636 16.326L72.824 17.802C73.634 16.65 74.336 15.282 74.93 13.698C75.362 14.346 75.794 15.012 76.226 15.696ZM87.674 3.852V5.688H93.974V11.88H86.954V13.698H93.974V19.854H95.882V13.698H103.046V11.88H95.882V5.688H102.38V3.852H87.674ZM90.32 6.408L88.574 7.254C89.222 8.442 89.852 9.792 90.428 11.286L92.192 10.422C91.58 8.946 90.968 7.614 90.32 6.408ZM99.842 6.336C99.356 7.65 98.708 8.982 97.88 10.314L99.572 11.178C100.382 9.882 101.048 8.532 101.552 7.146L99.842 6.336ZM119.21 12.186H106.79V19.908H108.698V19.224H117.302V19.908H119.21V12.186ZM108.698 17.424V13.986H117.302V17.424H108.698ZM105.656 10.584C110.246 10.422 114.422 10.17 118.166 9.828C118.58 10.512 118.994 11.214 119.39 11.952L121.226 11.052C119.93 8.874 118.58 6.894 117.14 5.094L115.43 5.904C115.988 6.606 116.546 7.362 117.086 8.154C114.314 8.406 111.47 8.604 108.554 8.748C110.03 7.38 111.452 5.724 112.838 3.816L110.894 3.132C108.446 6.714 106.574 8.604 105.314 8.802L105.656 10.584Z" fill="white"/>
</svg>
