<svg width="157" height="180" viewBox="0 0 157 180" fill="none" xmlns="http://www.w3.org/2000/svg">
<path d="M156.084 45.0364L78.0784 0L0 45.0364V135.036L78.0784 180L156.084 135.036V45.0364Z" fill="url(#paint0_linear_3274_13314)"/>
<path d="M62.0271 54.0992C65.6023 54.0992 68.5006 51.2009 68.5006 47.6258C68.5006 44.0506 65.6023 41.1523 62.0271 41.1523C58.452 41.1523 55.5537 44.0506 55.5537 47.6258C55.5537 51.2009 58.452 54.0992 62.0271 54.0992Z" fill="#CCD3DB"/>
<path d="M72.3731 121.378H53.5875C40.5772 121.378 29.9785 110.779 29.9785 97.7689V76.6351C29.9785 71.7483 33.9768 67.75 38.8636 67.75C43.7504 67.75 47.7487 71.7483 47.7487 76.6351V97.7689C47.7487 101.006 50.3508 103.608 53.5875 103.608H72.3731C77.2599 103.608 81.2582 107.606 81.2582 112.493C81.2582 117.38 77.2599 121.378 72.3731 121.378Z" fill="#DDE1E8"/>
<path fill-rule="evenodd" clip-rule="evenodd" d="M42.4709 84.3157C42.7841 84.4499 42.9291 84.8125 42.7949 85.1256L40.891 89.5681C40.7568 89.8813 40.3942 90.0263 40.081 89.8921C39.7679 89.7579 39.6229 89.3953 39.7571 89.0822L41.661 84.6396C41.7952 84.3265 42.1578 84.1815 42.4709 84.3157Z" fill="#E9EDF4"/>
<path fill-rule="evenodd" clip-rule="evenodd" d="M34.8851 97.4591C35.093 97.1893 35.4803 97.1391 35.7502 97.347L39.6215 100.33C39.8914 100.538 39.9416 100.925 39.7337 101.195C39.5257 101.465 39.1384 101.515 38.8686 101.307L34.9972 98.3242C34.7274 98.1163 34.6772 97.729 34.8851 97.4591Z" fill="#E9EDF4"/>
<path fill-rule="evenodd" clip-rule="evenodd" d="M50.7949 110.746C50.987 110.464 51.3707 110.392 51.6521 110.584L55.6504 113.313C55.9318 113.505 56.0042 113.889 55.8122 114.17C55.6201 114.452 55.2363 114.524 54.955 114.332L50.9567 111.603C50.6753 111.411 50.6029 111.027 50.7949 110.746Z" fill="#E9EDF4"/>
<path fill-rule="evenodd" clip-rule="evenodd" d="M44.5022 108.308C44.8153 108.442 44.9604 108.805 44.8262 109.118L42.9222 113.56C42.788 113.873 42.4254 114.018 42.1123 113.884C41.7992 113.75 41.6541 113.387 41.7883 113.074L43.6923 108.632C43.8265 108.319 44.1891 108.174 44.5022 108.308Z" fill="#E9EDF4"/>
<path d="M62.5977 159.535C62.5977 161.192 63.9408 162.535 65.5977 162.535H95.6457C97.3026 162.535 98.6457 161.192 98.6457 159.535V54.2368C98.6457 43.9025 90.5857 35.543 80.6217 35.543C70.6577 35.543 62.5977 43.9025 62.5977 54.2368V159.535Z" fill="url(#paint1_linear_3274_13314)"/>
<path fill-rule="evenodd" clip-rule="evenodd" d="M72.7199 57.2646C73.0375 57.1413 73.3949 57.2988 73.5182 57.6164L75.6125 63.0109C75.7358 63.3285 75.5783 63.6859 75.2607 63.8092C74.9432 63.9325 74.5858 63.775 74.4625 63.4574L72.3682 58.0629C72.2449 57.7453 72.4024 57.3879 72.7199 57.2646Z" fill="white"/>
<path fill-rule="evenodd" clip-rule="evenodd" d="M91.301 66.4845C91.6072 66.6338 91.7343 67.0031 91.5849 67.3093L89.0463 72.5134C88.897 72.8196 88.5277 72.9467 88.2215 72.7973C87.9154 72.648 87.7882 72.2787 87.9376 71.9725L90.4762 66.7684C90.6255 66.4622 90.9948 66.3351 91.301 66.4845Z" fill="white"/>
<path fill-rule="evenodd" clip-rule="evenodd" d="M69.0613 91.4038C69.3494 91.222 69.7303 91.3083 69.9121 91.5964L72.5141 95.7216C72.6959 96.0098 72.6096 96.3907 72.3215 96.5724C72.0334 96.7542 71.6524 96.6679 71.4707 96.3798L68.8686 92.2546C68.6869 91.9664 68.7731 91.5855 69.0613 91.4038Z" fill="white"/>
<path fill-rule="evenodd" clip-rule="evenodd" d="M90.3442 104.603C90.6322 104.785 90.7182 105.166 90.5363 105.454L87.49 110.277C87.3081 110.565 86.9271 110.651 86.6391 110.47C86.3511 110.288 86.265 109.907 86.4469 109.619L89.4933 104.795C89.6752 104.507 90.0561 104.421 90.3442 104.603Z" fill="white"/>
<path fill-rule="evenodd" clip-rule="evenodd" d="M84.9493 85.2294C85.2453 85.0608 85.622 85.1641 85.7906 85.4601L88.6465 90.4738C88.8151 90.7698 88.7119 91.1465 88.4158 91.3151C88.1198 91.4837 87.7432 91.3804 87.5746 91.0844L84.7187 86.0707C84.55 85.7747 84.6533 85.398 84.9493 85.2294Z" fill="white"/>
<path fill-rule="evenodd" clip-rule="evenodd" d="M69.3141 132.147C69.6015 131.964 69.9827 132.049 70.1656 132.337L73.2754 137.223C73.4583 137.511 73.3736 137.892 73.0862 138.075C72.7988 138.258 72.4175 138.173 72.2346 137.886L69.1248 132.999C68.9419 132.711 69.0267 132.33 69.3141 132.147Z" fill="white"/>
<path fill-rule="evenodd" clip-rule="evenodd" d="M90.7657 135.921C91.0378 136.126 91.0922 136.513 90.8872 136.785L87.3966 141.418C87.1916 141.69 86.8049 141.744 86.5328 141.539C86.2607 141.334 86.2063 140.948 86.4113 140.676L89.9019 136.043C90.1069 135.77 90.4936 135.716 90.7657 135.921Z" fill="white"/>
<path fill-rule="evenodd" clip-rule="evenodd" d="M80.2306 116.691C80.5026 116.896 80.557 117.282 80.352 117.554L76.8615 122.187C76.6565 122.459 76.2697 122.514 75.9976 122.309C75.7256 122.104 75.6712 121.717 75.8762 121.445L79.3667 116.812C79.5717 116.54 79.9585 116.486 80.2306 116.691Z" fill="white"/>
<path d="M62.5976 103.613H56.8857V121.383H62.5976V103.613Z" fill="url(#paint2_linear_3274_13314)"/>
<path d="M106.899 105.315H88.1136C83.2268 105.315 79.2285 101.317 79.2285 96.4303C79.2285 91.5435 83.2268 87.5452 88.1136 87.5452H106.899C110.136 87.5452 112.738 84.9431 112.738 81.7064V60.5726C112.738 55.6858 116.736 51.6875 121.623 51.6875C126.51 51.6875 130.508 55.6858 130.508 60.5726V81.7064C130.508 94.7167 119.91 105.315 106.899 105.315Z" fill="#E3E7EE"/>
<path fill-rule="evenodd" clip-rule="evenodd" d="M123.023 67.2602C123.289 67.473 123.332 67.8612 123.119 68.1272L120.073 71.9351C119.86 72.2011 119.472 72.2442 119.206 72.0314C118.94 71.8186 118.897 71.4304 119.11 71.1644L122.156 67.3565C122.369 67.0905 122.757 67.0474 123.023 67.2602Z" fill="white"/>
<path fill-rule="evenodd" clip-rule="evenodd" d="M121.795 80.3488C122.055 80.1289 122.444 80.1617 122.664 80.4219L125.774 84.1029C125.994 84.3631 125.961 84.7523 125.701 84.9721C125.441 85.192 125.051 85.1592 124.832 84.899L121.722 81.218C121.502 80.9578 121.535 80.5686 121.795 80.3488Z" fill="white"/>
<path fill-rule="evenodd" clip-rule="evenodd" d="M101.994 92.4504C102.299 92.2998 102.669 92.4255 102.82 92.731L104.977 97.1101C105.128 97.4157 105.002 97.7855 104.697 97.9361C104.391 98.0866 104.021 97.961 103.871 97.6554L101.713 93.2763C101.563 92.9707 101.688 92.601 101.994 92.4504Z" fill="white"/>
<path fill-rule="evenodd" clip-rule="evenodd" d="M116.699 95.8638C116.869 96.1591 116.767 96.5362 116.472 96.7062L112.283 99.1178C111.988 99.2878 111.611 99.1863 111.441 98.8911C111.271 98.5958 111.372 98.2187 111.668 98.0487L115.856 95.6371C116.151 95.4671 116.529 95.5686 116.699 95.8638Z" fill="white"/>
<path d="M98.7386 104.86C98.7386 104.86 84.9256 107.454 83.2852 97.9961V120.246L98.7386 120.244V104.86Z" fill="url(#paint3_linear_3274_13314)"/>
<path d="M81.8188 166.979C117.968 166.979 147.273 160.008 147.273 151.409C147.273 142.811 117.968 135.84 81.8188 135.84C45.6693 135.84 16.3643 142.811 16.3643 151.409C16.3643 160.008 45.6693 166.979 81.8188 166.979Z" fill="url(#paint4_linear_3274_13314)"/>
<defs>
<linearGradient id="paint0_linear_3274_13314" x1="78.042" y1="0" x2="78.042" y2="143.25" gradientUnits="userSpaceOnUse">
<stop stop-color="#E0E9F1"/>
<stop offset="1" stop-color="#EFF4F9" stop-opacity="0"/>
</linearGradient>
<linearGradient id="paint1_linear_3274_13314" x1="76.1537" y1="39.0029" x2="76.1537" y2="217.187" gradientUnits="userSpaceOnUse">
<stop stop-color="#E1E5EC"/>
<stop offset="1" stop-color="#E7EBF1"/>
</linearGradient>
<linearGradient id="paint2_linear_3274_13314" x1="56.1728" y1="112.469" x2="62.0838" y2="112.469" gradientUnits="userSpaceOnUse">
<stop stop-color="#DDE1E8"/>
<stop offset="0.9945" stop-color="#D0D3D6"/>
</linearGradient>
<linearGradient id="paint3_linear_3274_13314" x1="92.1797" y1="122.363" x2="92.1797" y2="104.195" gradientUnits="userSpaceOnUse">
<stop offset="0.302083" stop-color="#E5E9F0" stop-opacity="0.41"/>
<stop offset="0.9945" stop-color="#C7CDD8"/>
</linearGradient>
<linearGradient id="paint4_linear_3274_13314" x1="81.8207" y1="163.079" x2="81.8207" y2="130.801" gradientUnits="userSpaceOnUse">
<stop stop-color="#EFF4F9"/>
<stop offset="1" stop-color="#E4E8EF"/>
</linearGradient>
</defs>
</svg>
