<svg width="16" height="16" viewBox="0 0 16 16" fill="none" xmlns="http://www.w3.org/2000/svg">
<rect width="16" height="16" transform="translate(0 16) rotate(-90)" fill="#FAEBEC"/>
<path fill-rule="evenodd" clip-rule="evenodd" d="M1.33334 12.0003C1.33334 10.5276 2.52725 9.33366 4.00001 9.33366C4.93376 9.33366 5.75542 9.81358 6.23178 10.5402C6.70699 10.1468 7.00001 9.63486 7.00001 9.00029L7.00001 7.00032C7.00001 6.06063 7.28485 5.31547 7.76533 4.75084C8.20909 4.22936 8.78421 3.90312 9.35028 3.69811C9.50035 2.36764 10.6294 1.33366 12 1.33366C13.4728 1.33366 14.6667 2.52757 14.6667 4.00032C14.6667 5.47308 13.4728 6.66699 12 6.66699C10.9021 6.66699 9.95915 6.00348 9.55028 5.05557C9.24251 5.19713 8.97976 5.3811 8.78076 5.61495C8.52366 5.91708 8.33334 6.34808 8.33334 7.00032L8.33334 9.00029C8.33334 9.97946 7.92 10.7581 7.33918 11.3337L10 11.3337L10 10.3337C10 9.96547 10.2985 9.66699 10.6667 9.66699L14 9.66699C14.3682 9.66699 14.6667 9.96547 14.6667 10.3337L14.6667 13.667C14.6667 14.0352 14.3682 14.3337 14 14.3337L10.6667 14.3337C10.2985 14.3337 10 14.0352 10 13.667L10 12.667L6.58267 12.667C6.28664 13.8171 5.24257 14.667 4.00001 14.667C2.52725 14.667 1.33334 13.4731 1.33334 12.0003ZM11.3333 13.0003L13.3333 13.0003L13.3333 11.0003L11.3333 11.0003L11.3333 13.0003Z" fill="#FA7474"/>
</svg>
