<svg width="48" height="48" viewBox="0 0 48 48" fill="none" xmlns="http://www.w3.org/2000/svg">
<path d="M29.8995 40.7279L7.27209 18.1004L22.1213 3.25119C22.9024 2.47014 24.1687 2.47014 24.9498 3.25119L27.0711 5.37258L24.9498 11.7365L31.3137 9.61522L36.0967 14.3982L31.147 23.5905L40.3394 18.6408L44.7488 23.0502C45.5298 23.8312 45.5298 25.0976 44.7488 25.8786L29.8995 40.7279Z" fill="#B6C2CD"/>
<path fill-rule="evenodd" clip-rule="evenodd" d="M7.27207 18.1005L29.8995 40.7279L27.7782 42.8492C26.9971 43.6302 25.7308 43.6302 24.9497 42.8492L17.4073 35.3068L11.7791 42.4561C10.1336 44.5463 7.03183 44.7303 5.15075 42.8492C3.26967 40.9682 3.45365 37.8664 5.54391 36.2209L12.6932 30.5927L5.15075 23.0502C4.3697 22.2692 4.3697 21.0028 5.15075 20.2218L7.27207 18.1005ZM10.1005 37.8994C9.31944 37.1184 8.05311 37.1184 7.27207 37.8994C6.49102 38.6805 6.49102 39.9468 7.27207 40.7279C8.05311 41.5089 9.31944 41.5089 10.1005 40.7279C10.8815 39.9468 10.8815 38.6805 10.1005 37.8994Z" fill="#324558"/>
</svg>
