<svg width="20" height="20" viewBox="0 0 20 20" fill="none" xmlns="http://www.w3.org/2000/svg">
  <path fill-rule="evenodd" clip-rule="evenodd" d="M4.16659 3.33301C3.70635 3.33301 3.33325 3.7061 3.33325 4.16634V15.833C3.33325 16.2932 3.70635 16.6663 4.16659 16.6663H15.8333C16.2935 16.6663 16.6666 16.2932 16.6666 15.833V4.16634C16.6666 3.7061 16.2935 3.33301 15.8333 3.33301H4.16659ZM6.04159 7.91634C6.38676 7.91634 6.66659 7.63652 6.66659 7.29134C6.66659 6.94616 6.38676 6.66634 6.04159 6.66634C5.69641 6.66634 5.41659 6.94616 5.41659 7.29134C5.41659 7.63652 5.69641 7.91634 6.04159 7.91634ZM10.8333 11.5241C11.8042 11.1809 12.4999 10.2549 12.4999 9.16634C12.4999 7.78563 11.3806 6.66634 9.99992 6.66634C8.61921 6.66634 7.49992 7.78563 7.49992 9.16634C7.49992 10.2549 8.19559 11.1809 9.16659 11.5241V13.7497H10.8333V11.5241ZM6.04159 11.2497C6.38676 11.2497 6.66659 10.9699 6.66659 10.6247C6.66659 10.2795 6.38676 9.99967 6.04159 9.99967C5.69641 9.99967 5.41659 10.2795 5.41659 10.6247C5.41659 10.9699 5.69641 11.2497 6.04159 11.2497ZM14.5833 7.29134C14.5833 7.63652 14.3034 7.91634 13.9583 7.91634C13.6131 7.91634 13.3333 7.63652 13.3333 7.29134C13.3333 6.94616 13.6131 6.66634 13.9583 6.66634C14.3034 6.66634 14.5833 6.94616 14.5833 7.29134ZM13.9583 11.2497C14.3034 11.2497 14.5833 10.9699 14.5833 10.6247C14.5833 10.2795 14.3034 9.99967 13.9583 9.99967C13.6131 9.99967 13.3333 10.2795 13.3333 10.6247C13.3333 10.9699 13.6131 11.2497 13.9583 11.2497Z" fill="#B6C2CD"/>
  <path d="M5.83341 1.66699H7.50008V3.33366H5.83341V1.66699Z" fill="#324558"/>
  <path d="M1.66675 5.83366H3.33341V7.50033H1.66675V5.83366Z" fill="#324558"/>
  <path d="M3.33341 9.16699H1.66675V10.8337H3.33341V9.16699Z" fill="#324558"/>
  <path d="M1.66675 12.5003H3.33341V14.167H1.66675V12.5003Z" fill="#324558"/>
  <path d="M18.3334 5.83366H16.6667V7.50033H18.3334V5.83366Z" fill="#324558"/>
  <path d="M16.6667 9.16699H18.3334V10.8337H16.6667V9.16699Z" fill="#324558"/>
  <path d="M18.3334 12.5003H16.6667V14.167H18.3334V12.5003Z" fill="#324558"/>
  <path d="M9.16675 1.66699H10.8334V3.33366H9.16675V1.66699Z" fill="#324558"/>
  <path d="M14.1667 1.66699H12.5001V3.33366H14.1667V1.66699Z" fill="#324558"/>
  <path d="M5.83341 18.3337V16.667H7.50008V18.3337H5.83341Z" fill="#324558"/>
  <path d="M10.8334 18.3337V16.667H9.16675V18.3337H10.8334Z" fill="#324558"/>
  <path d="M12.5001 18.3337V16.667H14.1667V18.3337H12.5001Z" fill="#324558"/>
  <path d="M6.66675 7.29199C6.66675 7.63717 6.38693 7.91699 6.04175 7.91699C5.69657 7.91699 5.41675 7.63717 5.41675 7.29199C5.41675 6.94681 5.69657 6.66699 6.04175 6.66699C6.38693 6.66699 6.66675 6.94681 6.66675 7.29199Z" fill="#324558"/>
  <path d="M10.8334 11.5247C11.8044 11.1815 12.5001 10.2555 12.5001 9.16699C12.5001 7.78628 11.3808 6.66699 10.0001 6.66699C8.61937 6.66699 7.50008 7.78628 7.50008 9.16699C7.50008 10.2555 8.19575 11.1815 9.16675 11.5247V13.7503H10.8334V11.5247Z" fill="#324558"/>
  <path d="M6.66675 10.6253C6.66675 10.9705 6.38693 11.2503 6.04175 11.2503C5.69657 11.2503 5.41675 10.9705 5.41675 10.6253C5.41675 10.2801 5.69657 10.0003 6.04175 10.0003C6.38693 10.0003 6.66675 10.2801 6.66675 10.6253Z" fill="#324558"/>
  <path d="M14.5834 7.29199C14.5834 7.63717 14.3036 7.91699 13.9584 7.91699C13.6132 7.91699 13.3334 7.63717 13.3334 7.29199C13.3334 6.94681 13.6132 6.66699 13.9584 6.66699C14.3036 6.66699 14.5834 6.94681 14.5834 7.29199Z" fill="#324558"/>
  <path d="M14.5834 10.6253C14.5834 10.9705 14.3036 11.2503 13.9584 11.2503C13.6132 11.2503 13.3334 10.9705 13.3334 10.6253C13.3334 10.2801 13.6132 10.0003 13.9584 10.0003C14.3036 10.0003 14.5834 10.2801 14.5834 10.6253Z" fill="#324558"/>
</svg>
