<svg width="116" height="116" viewBox="0 0 116 116" fill="none" xmlns="http://www.w3.org/2000/svg">
<path opacity="0.8" d="M105.357 50.9076L102.57 40.5922L73.0466 48.4655L92.696 25.1583L84.4711 18.2814L63.3691 43.3274V10.6426H52.6316V41.0611L35.1022 16.1519L26.3081 22.2669L43.8375 47.1956L15.1191 36.7826L11.4484 46.8244L40.1667 57.2374L10.6436 65.0912L13.431 75.4261L42.9345 67.5528L23.3048 90.8405L31.5296 97.7174L52.6316 72.6909V105.356H63.3691V74.9572L80.8985 99.8664L89.6926 93.7319L72.1632 68.8227L100.882 79.2162L104.552 69.1743L75.834 58.7808L105.357 50.9076Z" fill="url(#paint0_radial_6673_105374)"/>
<path opacity="0.3" d="M105.579 63.4067L105.556 52.7214L75.0011 52.6852L100.013 35.2578L93.8485 26.4865L66.9832 45.2175L75.4426 13.6464L65.071 10.8673L57.1981 40.2494L46.713 11.652L36.6359 15.2825L47.1159 43.8987L22.0712 26.4077L15.9265 35.1573L40.9712 52.6483L10.4213 52.5933L10.4389 63.2975L40.9749 63.3286L15.9867 80.7422L22.1515 89.5135L49.0117 70.8014L40.5573 102.354L50.9289 105.133L58.7968 75.7695L69.2819 104.367L79.3641 100.718L68.879 72.1201L93.9287 89.5923L100.073 80.8427L75.0237 63.3705L105.579 63.4067Z" fill="url(#paint1_radial_6673_105374)"/>
<path opacity="0.6" d="M98.7433 31.766L100.698 35.0367L103.969 36.9912L100.698 38.9458L98.7433 42.2165L96.7888 38.9458L93.5181 36.9912L96.7888 35.0367L98.7433 31.766Z" fill="#55BC8A"/>
<path d="M15.1231 44.9752L16.5124 46.2397L18.3349 46.6952L17.0704 48.0845L16.6148 49.907L15.2256 48.6425L13.4031 48.1869L14.6676 46.7977L15.1231 44.9752Z" fill="#C4E6D4"/>
<path d="M108.694 80.3828L108.526 82.2539L109.264 83.9814L107.393 83.813L105.665 84.5511L105.833 82.68L105.095 80.9525L106.966 81.1209L108.694 80.3828Z" fill="#C4E6D4"/>
<path opacity="0.6" d="M14.2824 72.6442L17.1375 75.1672L20.8472 76.0367L18.3242 78.8918L17.4547 82.6015L14.5995 80.0785L10.8898 79.209L13.4129 76.3538L14.2824 72.6442Z" fill="#55BC8A"/>
<circle cx="57.507" cy="57.9994" r="23.6784" fill="#C4E6D4"/>
<circle cx="57.5067" cy="57.9985" r="20.6483" fill="#E9F5F2"/>
<path fill-rule="evenodd" clip-rule="evenodd" d="M68.9606 51.6945L55.6132 65.0418C54.8427 65.8124 53.5933 65.8124 52.8227 65.0418L46.0527 58.2718L47.9131 56.4114L54.218 62.7163L67.1002 49.8341L68.9606 51.6945Z" fill="#55BC8A"/>
<defs>
<radialGradient id="paint0_radial_6673_105374" cx="0" cy="0" r="1" gradientUnits="userSpaceOnUse" gradientTransform="translate(58.0004 57.9994) rotate(90) scale(47.3568)">
<stop stop-color="#55BC8A" stop-opacity="0.35"/>
<stop offset="0.859375" stop-color="#55BC8A" stop-opacity="0"/>
</radialGradient>
<radialGradient id="paint1_radial_6673_105374" cx="0" cy="0" r="1" gradientUnits="userSpaceOnUse" gradientTransform="translate(58 58) rotate(105) scale(47.3568)">
<stop stop-color="#55BC8A" stop-opacity="0.35"/>
<stop offset="0.859375" stop-color="#55BC8A" stop-opacity="0"/>
</radialGradient>
</defs>
</svg>
