<svg width="28" height="28" viewBox="0 0 28 28" fill="none" xmlns="http://www.w3.org/2000/svg">
<path d="M10.4999 2.33398C9.85559 2.33398 9.33325 2.85632 9.33325 3.50065V5.83398H18.6666V3.50065C18.6666 2.85632 18.1443 2.33398 17.4999 2.33398H10.4999Z" fill="#324558"/>
<path d="M25.3076 14.0007L27.9999 16.6929L26.205 18.4877L23.5127 15.7955L25.3076 14.0007Z" fill="#324558"/>
<path d="M22.6153 16.6932L25.3076 19.3854L19.0256 25.6673H16.3333V22.9751L22.6153 16.6932Z" fill="#324558"/>
<path d="M9.33341 4.08398H5.83341C5.18908 4.08398 4.66675 4.60632 4.66675 5.25065V24.5007C4.66675 25.145 5.18908 25.6673 5.83341 25.6673H14.5834V22.2502L23.3334 13.5002V5.25065C23.3334 4.60632 22.8111 4.08398 22.1667 4.08398H18.6667V5.83398H9.33341V4.08398Z" fill="#B6C2CD"/>
</svg>
