<svg width="16" height="16" viewBox="0 0 16 16" fill="none" xmlns="http://www.w3.org/2000/svg">
<path fill-rule="evenodd" clip-rule="evenodd" d="M10.6663 7.99992C10.6663 6.52716 9.47243 5.33325 7.99967 5.33325C6.52692 5.33325 5.33301 6.52716 5.33301 7.99992C5.33301 9.47268 6.52692 10.6666 7.99967 10.6666C9.47243 10.6666 10.6663 9.47268 10.6663 7.99992ZM9.33301 7.99992C9.33301 7.26354 8.73605 6.66659 7.99967 6.66659C7.2633 6.66659 6.66634 7.26354 6.66634 7.99992C6.66634 8.7363 7.2633 9.33325 7.99967 9.33325C8.73605 9.33325 9.33301 8.7363 9.33301 7.99992Z" fill="#B6C2CD"/>
<path fill-rule="evenodd" clip-rule="evenodd" d="M14.6663 7.99992C14.6663 11.6818 11.6816 14.6666 7.99967 14.6666C4.31778 14.6666 1.33301 11.6818 1.33301 7.99992C1.33301 4.31802 4.31778 1.33325 7.99967 1.33325C11.6816 1.33325 14.6663 4.31802 14.6663 7.99992ZM11.9997 7.99992C11.9997 10.2091 10.2088 11.9999 7.99967 11.9999C5.79054 11.9999 3.99967 10.2091 3.99967 7.99992C3.99967 5.79078 5.79054 3.99992 7.99967 3.99992C10.2088 3.99992 11.9997 5.79078 11.9997 7.99992Z" fill="#B6C2CD"/>
<path d="M8 6.66667C8.73638 6.66667 9.33333 7.26362 9.33333 8C9.33333 8.73638 8.73638 9.33333 8 9.33333C7.26362 9.33333 6.66667 8.73638 6.66667 8C6.66667 7.26362 7.26362 6.66667 8 6.66667Z" fill="#324558"/>
<path fill-rule="evenodd" clip-rule="evenodd" d="M8 12C10.2091 12 12 10.2091 12 8C12 5.79086 10.2091 4 8 4C5.79086 4 4 5.79086 4 8C4 10.2091 5.79086 12 8 12ZM8 5.33333C9.47276 5.33333 10.6667 6.52724 10.6667 8C10.6667 9.47276 9.47276 10.6667 8 10.6667C6.52724 10.6667 5.33333 9.47276 5.33333 8C5.33333 6.52724 6.52724 5.33333 8 5.33333Z" fill="#324558"/>
</svg>
