<svg width="48" height="48" viewBox="0 0 48 48" fill="none" xmlns="http://www.w3.org/2000/svg">
<path d="M21.1715 23.9999L14.5857 17.4141L17.4141 14.5857L23.9999 21.1715L30.5857 14.5858L33.4141 17.4142L26.8284 23.9999L33.4141 30.5857L30.5857 33.4141L23.9999 26.8284L17.4141 33.4142L14.5857 30.5858L21.1715 23.9999Z" fill="#324558"/>
<path fill-rule="evenodd" clip-rule="evenodd" d="M24 44C35.0457 44 44 35.0457 44 24C44 12.9543 35.0457 4 24 4C12.9543 4 4 12.9543 4 24C4 35.0457 12.9543 44 24 44ZM14.5858 17.4142L21.1716 24.0001L14.5858 30.5859L17.4142 33.4143L24.0001 26.8285L30.5858 33.4142L33.4142 30.5858L26.8285 24.0001L33.4142 17.4143L30.5858 14.5859L24.0001 21.1716L17.4142 14.5858L14.5858 17.4142Z" fill="#B6C2CD"/>
</svg>
