<svg width="16" height="16" viewBox="0 0 16 16" fill="none" xmlns="http://www.w3.org/2000/svg">
<path d="M2.00004 2.33398C1.63185 2.33398 1.33337 2.63246 1.33337 3.00065V13.0007C1.33337 13.3688 1.63185 13.6673 2.00004 13.6673H2.33337L4.20336 6.49904C4.27994 6.20548 4.54506 6.00065 4.84844 6.00065L14 6.00065V4.33398C14 3.96579 13.7016 3.66732 13.3334 3.66732H8.00004L6.33337 2.33398H2.00004Z" fill="#324558"/>
<path d="M2.33337 13.6667L4.20336 6.49839C4.27994 6.20483 4.54506 6 4.84844 6L15.1372 6C15.5737 6 15.8924 6.41256 15.7822 6.83495L14.1301 13.1683C14.0535 13.4618 13.7884 13.6667 13.485 13.6667L2.33337 13.6667Z" fill="#B6C2CD"/>
</svg>
