<svg width="48" height="48" viewBox="0 0 48 48" fill="none" xmlns="http://www.w3.org/2000/svg">
<path d="M31 24C31 27.866 27.866 31 24 31C20.134 31 17 27.866 17 24C17 20.134 20.134 17 24 17C27.866 17 31 20.134 31 24Z" fill="#324558"/>
<path fill-rule="evenodd" clip-rule="evenodd" d="M18.8562 3.8053C18.9492 3.33721 19.3599 3 19.8371 3H28.1629C28.6401 3 29.0508 3.33721 29.1437 3.8053L29.927 7.75115C29.9946 8.09175 30.2349 8.37094 30.5565 8.50188C31.9384 9.06452 33.2315 9.79155 34.4023 10.6724C34.6759 10.8783 35.0325 10.9438 35.3568 10.8339L39.2449 9.51622C39.694 9.36403 40.1882 9.54815 40.4283 9.95707L44.5758 17.0225C44.8212 17.4406 44.7315 17.9744 44.3628 18.2892L41.2846 20.9179C41.0181 21.1456 40.8922 21.4959 40.9401 21.8432C41.0377 22.5495 41.0972 23.267 41.0972 24C41.0972 24.733 41.0377 25.4505 40.9401 26.1568C40.8922 26.5041 41.0181 26.8544 41.2846 27.0821L44.3628 29.7108C44.7315 30.0256 44.8212 30.5594 44.5758 30.9775L40.4283 38.0429C40.1882 38.4518 39.694 38.636 39.2449 38.4838L35.3568 37.1661C35.0325 37.0562 34.6759 37.1217 34.4023 37.3276C33.2315 38.2085 31.9384 38.9355 30.5565 39.4981C30.2349 39.6291 29.9946 39.9082 29.927 40.2488L29.1437 44.1947C29.0508 44.6628 28.6401 45 28.1629 45H19.8371C19.3599 45 18.9492 44.6628 18.8562 44.1947L18.073 40.2488C18.0054 39.9082 17.7651 39.6291 17.4435 39.4981C16.0616 38.9355 14.7685 38.2085 13.5977 37.3276C13.3241 37.1217 12.9675 37.0562 12.6432 37.1661L8.75505 38.4838C8.30596 38.636 7.81174 38.4518 7.5717 38.0429L3.42415 30.9775C3.17876 30.5594 3.26852 30.0256 3.63714 29.7108L6.71535 27.0821C6.98192 26.8544 7.10781 26.5041 7.05985 26.1568C6.96229 25.4505 6.9028 24.733 6.9028 24C6.9028 23.267 6.96229 22.5495 7.05985 21.8432C7.10781 21.4959 6.98192 21.1456 6.71535 20.9179L3.63714 18.2892C3.26852 17.9744 3.17875 17.4406 3.42415 17.0225L7.5717 9.95707C7.81174 9.54815 8.30596 9.36403 8.75505 9.51622L12.6432 10.8339C12.9675 10.9438 13.3241 10.8783 13.5977 10.6724C14.7685 9.79155 16.0616 9.06452 17.4435 8.50188C17.7651 8.37094 18.0054 8.09175 18.073 7.75115L18.8562 3.8053ZM24 31C27.866 31 31 27.866 31 24C31 20.134 27.866 17 24 17C20.134 17 17 20.134 17 24C17 27.866 20.134 31 24 31Z" fill="#B6C2CD"/>
</svg>
