<svg width="40" height="40" viewBox="0 0 40 40" fill="none" xmlns="http://www.w3.org/2000/svg">
<path d="M32.4999 32.4991L32.4999 2.49905C30.3286 2.4215 28.1846 3.00255 26.3495 4.16587L15.8333 10.8326L15.8333 24.3889L26.3282 30.8663C28.1789 32.0085 30.3265 32.5767 32.4999 32.4991Z" fill="#B6C2CD"/>
<path d="M1.66675 14.7323C1.66675 13.9236 2.24734 13.2315 3.04377 13.091L15.8334 10.834V37.5007H13.891C13.0856 37.5007 12.3953 36.9246 12.2513 36.1321L10.0415 23.9786L3.04377 22.7437C2.24734 22.6031 1.66675 21.9111 1.66675 21.1023V14.7323Z" fill="#324558"/>
<path d="M37.5001 17.5006C37.5001 14.5619 35.327 12.1307 32.5001 11.7264V23.2749C35.327 22.8705 37.5001 20.4394 37.5001 17.5006Z" fill="#324558"/>
</svg>
