<svg width="48" height="48" viewBox="0 0 48 48" fill="none" xmlns="http://www.w3.org/2000/svg">
<path fill-rule="evenodd" clip-rule="evenodd" d="M30 30L33.4163 30.9526C33.7478 31.045 34.0499 31.2215 34.2933 31.4649L43.9983 41.1699L41.1699 43.9983L31.4649 34.2933C31.2215 34.0499 31.045 33.7478 30.9526 33.4163L30 30Z" fill="#324558"/>
<path fill-rule="evenodd" clip-rule="evenodd" d="M20 32C26.6274 32 32 26.6274 32 20C32 13.3726 26.6274 8 20 8C13.3726 8 8 13.3726 8 20C8 26.6274 13.3726 32 20 32ZM20 36C28.8366 36 36 28.8366 36 20C36 11.1634 28.8366 4 20 4C11.1634 4 4 11.1634 4 20C4 28.8366 11.1634 36 20 36Z" fill="#B6C2CD"/>
</svg>
