<svg width="28" height="28" viewBox="0 0 28 28" fill="none" xmlns="http://www.w3.org/2000/svg">
<path fill-rule="evenodd" clip-rule="evenodd" d="M3.49967 3.5C2.85534 3.5 2.33301 4.02233 2.33301 4.66667V24.7228C2.33301 25.1565 2.78936 25.4385 3.17722 25.2446L6.99967 23.3333H24.4997C25.144 23.3333 25.6663 22.811 25.6663 22.1667V4.66667C25.6663 4.02233 25.144 3.5 24.4997 3.5H3.49967ZM15.1663 15.1667H12.833L12.5413 7H15.458L15.1663 15.1667ZM12.833 16.9167H15.1663V19.25H12.833V16.9167Z" fill="#B6C2CD"/>
<path d="M12.8337 15.1667H15.167L15.4587 7H12.542L12.8337 15.1667Z" fill="#324558"/>
<path d="M15.167 16.9167H12.8337V19.25H15.167V16.9167Z" fill="#324558"/>
</svg>
