<svg width="28" height="28" viewBox="0 0 28 28" fill="none" xmlns="http://www.w3.org/2000/svg">
<path d="M11.0832 21V24.5C11.0832 25.1443 11.6055 25.6667 12.2498 25.6667H25.0832V23.3333H13.4165V21H11.0832Z" fill="#324558"/>
<path d="M16.9165 10.5H25.0832V8.16666H16.9165V10.5Z" fill="#324558"/>
<path d="M6.4165 12.8333H9.9165V14.5833L13.4165 11.6667L9.9165 8.74999V10.5H6.4165V12.8333Z" fill="#324558"/>
<path fill-rule="evenodd" clip-rule="evenodd" d="M2.9165 3.50001C2.9165 2.85568 3.43884 2.33334 4.08317 2.33334H15.7498C16.3942 2.33334 16.9165 2.85568 16.9165 3.50001V19.8333C16.9165 20.4777 16.3942 21 15.7498 21H4.08317C3.43884 21 2.9165 20.4777 2.9165 19.8333V3.50001ZM9.9165 12.8333H6.4165V10.5H9.9165V8.75001L13.4165 11.6667L9.9165 14.5833V12.8333Z" fill="#B6C2CD"/>
<path d="M21.5832 19.8333L18.0832 16.9167L21.5832 14V15.75H25.0832V18.0833H21.5832V19.8333Z" fill="#B6C2CD"/>
</svg>
