<svg width="32" height="32" viewBox="0 0 32 32" fill="none" xmlns="http://www.w3.org/2000/svg">
<path d="M18.5199 7.21073C19.0145 8.34824 19.4217 9.7482 19.6965 11.3333H12.3035C12.5782 9.7482 12.9855 8.34824 13.4801 7.21073C13.9508 6.12803 14.4662 5.36232 14.9496 4.89203C15.4249 4.42967 15.7774 4.33331 16 4.33331C16.2225 4.33331 16.575 4.42967 17.0503 4.89203C17.5337 5.36232 18.0492 6.12803 18.5199 7.21073Z" fill="#B6C2CD"/>
<path d="M12.8023 27.223C9.43415 26.2652 6.68711 23.8321 5.30408 20.6666H10.5292C10.9654 23.3708 11.7698 25.6636 12.8023 27.223Z" fill="#B6C2CD"/>
<path d="M16.4003 27.5743C14.9489 25.6379 15.1037 22.8789 16.8647 21.1179L17.3159 20.6666H12.3035C12.5782 22.2518 12.9855 23.6517 13.4801 24.7892C13.9508 25.8719 14.4662 26.6376 14.9496 27.1079C15.4249 27.5703 15.7774 27.6666 16 27.6666C16.1048 27.6666 16.2385 27.6453 16.4003 27.5743Z" fill="#B6C2CD"/>
<path d="M10.5292 11.3333C10.9654 8.62918 11.7698 6.33637 12.8023 4.77698C9.43415 5.73479 6.68711 8.16789 5.30408 11.3333H10.5292Z" fill="#B6C2CD"/>
<path d="M21.4708 11.3333C21.0345 8.62918 20.2302 6.33637 19.1977 4.77698C22.5658 5.73479 25.3128 8.16789 26.6959 11.3333H21.4708Z" fill="#B6C2CD"/>
<path d="M10.3049 13.0833C10.2144 14.0223 10.1667 14.9983 10.1667 16C10.1667 17.0016 10.2144 17.9776 10.3049 18.9166H4.70093C4.46099 17.9844 4.33337 17.0071 4.33337 16C4.33337 14.9929 4.46099 14.0155 4.70093 13.0833H10.3049Z" fill="#324558"/>
<path d="M20.0175 17.9652L19.066 18.9166H12.0635C11.9681 17.9871 11.9167 17.0107 11.9167 16C11.9167 14.9893 11.9681 14.0129 12.0635 13.0833H19.9365C20.032 14.0129 20.0834 14.9893 20.0834 16C20.0834 16.6714 20.0607 17.3277 20.0175 17.9652Z" fill="#324558"/>
<path d="M22.2851 15.6976C23.7171 14.2655 25.8092 13.8957 27.5821 14.588C27.5203 14.0755 27.4252 13.5732 27.2992 13.0833H21.6951C21.7857 14.0223 21.8334 14.9983 21.8334 16C21.8334 16.0499 21.8333 16.0998 21.833 16.1496L22.2851 15.6976Z" fill="#324558"/>
<path d="M26.802 20.2145L24.9951 22.0214L26.2325 23.2588L28.0394 21.452C29.2867 20.2046 29.2867 18.1823 28.0394 16.935C26.7921 15.6877 24.7698 15.6877 23.5225 16.935L21.7156 18.7419L22.953 19.9794L24.7599 18.1725C25.3238 17.6086 26.2381 17.6086 26.802 18.1725C27.3659 18.7364 27.3659 19.6506 26.802 20.2145Z" fill="#324558"/>
<path d="M18.1022 22.3553L19.9088 20.5487L21.1463 21.7861L19.3396 23.5928C18.7757 24.1567 18.7757 25.0709 19.3396 25.6348C19.9035 26.1987 20.8178 26.1987 21.3817 25.6348L23.1883 23.8282L24.4258 25.0656L22.6191 26.8723C21.3718 28.1196 19.3495 28.1196 18.1022 26.8723C16.8549 25.6249 16.8549 23.6026 18.1022 22.3553Z" fill="#324558"/>
<path d="M21.4899 22.1298L23.2967 20.3231L24.6517 21.6781L22.845 23.4849L21.4899 22.1298Z" fill="#324558"/>
</svg>
