<svg width="32" height="32" viewBox="0 0 32 32" fill="none" xmlns="http://www.w3.org/2000/svg">
<path d="M16.0003 3.33398C18.5775 3.33398 20.6667 5.35434 20.6667 7.84659C20.6667 8.01217 20.6573 8.17763 20.6385 8.3422L20.3373 10.9778C20.0931 13.1159 18.2247 14.734 16.0003 14.734C13.7759 14.734 11.9075 13.1159 11.6632 10.9778L11.3621 8.3422C11.079 5.86504 12.9261 3.63501 15.4877 3.36128C15.6579 3.3431 15.8291 3.33398 16.0003 3.33398Z" fill="#CCD3DB"/>
<path d="M6.66675 23.0854C6.66675 19.2869 10.0001 16.634 16.0001 16.634C22.0001 16.634 25.3334 19.2869 25.3334 23.0854V28.6673H6.66675V23.0854Z" fill="#CCD3DB"/>
<path d="M9.37485 8.56796C9.30345 7.94334 9.32412 7.33261 9.42559 6.74743C9.18105 6.6941 8.92719 6.66602 8.66672 6.66602C8.53632 6.66602 8.40605 6.67321 8.27639 6.68757C6.32564 6.90366 4.91897 8.66422 5.13452 10.6199L5.36387 12.7006C5.54991 14.3886 6.97274 15.666 8.66672 15.666C9.64965 15.666 10.5413 15.2359 11.153 14.545C10.3583 13.635 9.82292 12.4896 9.67599 11.2035L9.37485 8.56796Z" fill="#324558"/>
<path d="M30.6666 26.6661H27.3332V23.0842C27.3332 20.7504 26.3713 18.7048 24.6118 17.221C28.5186 17.5696 30.6666 19.5436 30.6666 22.2594V26.6661Z" fill="#324558"/>
<path d="M20.8472 14.5451C21.6419 13.6351 22.1773 12.4897 22.3243 11.2035L22.6255 8.56796C22.6529 8.32804 22.6666 8.08678 22.6666 7.84529C22.6666 7.47038 22.6346 7.10394 22.5733 6.74817C22.6941 6.7218 22.8175 6.70148 22.9431 6.68757C23.0727 6.67321 23.203 6.66602 23.3334 6.66602C25.2961 6.66602 26.8871 8.26104 26.8871 10.2286C26.8871 10.3593 26.8799 10.4899 26.8656 10.6199L26.6363 12.7006C26.4502 14.3886 25.0274 15.666 23.3334 15.666C22.3505 15.666 21.4589 15.2359 20.8472 14.5451Z" fill="#324558"/>
<path d="M4.66658 23.0842C4.66658 20.7504 5.62849 18.7048 7.38804 17.221C3.48119 17.5696 1.33325 19.5436 1.33325 22.2594V26.6661H4.66658V23.0842Z" fill="#324558"/>
</svg>
