<svg width="48" height="48" viewBox="0 0 48 48" fill="none" xmlns="http://www.w3.org/2000/svg">
<path d="M27 4.76667C27 2.10833 25.02 0 22.5 0C19.98 0 18 2.10833 18 4.76667C18 5.59167 18.18 6.23333 18.54 6.96667C18.568 7.02361 18.5963 7.0809 18.6247 7.13855C18.9133 7.72271 19.2198 8.3432 19.3646 9H25.6446C25.8079 8.29509 26.1547 7.58867 26.46 6.96667C26.82 6.23333 27 5.59167 27 4.76667Z" fill="#324558"/>
<path d="M39 28.6446L39 22.3646C39.6568 22.2197 40.2773 21.9133 40.8615 21.6247C40.9191 21.5963 40.9764 21.568 41.0333 21.54C41.7667 21.18 42.4083 21 43.2333 21C45.8917 21 48 22.98 48 25.5C48 28.02 45.8917 30 43.2333 30C42.4083 30 41.7667 29.82 41.0333 29.46C40.4113 29.1547 39.7049 28.8079 39 28.6446Z" fill="#324558"/>
<path d="M37 42C38.1046 42 39 41.1046 39 40L39 11C39 9.89543 38.1046 9 37 9L8 9C6.89543 9 6 9.89543 6 11L6 21.81C6.09167 22.26 6.64167 22.44 7.00833 22.44C8.04 22.5244 8.99103 22.0547 9.86143 21.6247L10.0333 21.54C10.7667 21.18 11.4083 21 12.2333 21C14.8917 21 17 22.98 17 25.5C17 28.02 14.8917 30 12.2333 30C11.4083 30 10.7667 29.82 10.0333 29.46C9.11667 29.01 8.01667 28.47 7.00833 28.56C6.64167 28.65 6.09167 28.83 6 29.19L6.00001 40C6.00001 41.1046 6.89544 42 8.00001 42L18.81 42C19.26 41.9083 19.44 41.3583 19.44 40.9917C19.5244 39.96 19.0547 39.009 18.6247 38.1386C18.5963 38.0809 18.568 38.0236 18.54 37.9667C18.18 37.2333 18 36.5917 18 35.7667C18 33.1083 19.98 31 22.5 31C25.02 31 27 33.1083 27 35.7667C27 36.5917 26.82 37.2333 26.46 37.9667C26.01 38.8833 25.47 39.9833 25.56 40.9917C25.65 41.3583 25.83 41.9083 26.19 42H37Z" fill="#B6C2CD"/>
</svg>
