<svg xmlns="http://www.w3.org/2000/svg" xmlns:xlink="http://www.w3.org/1999/xlink" version="1.1" id="图层_1" x="0px" y="0px" viewBox="0 0 20 20" style="enable-background:new 0 0 20 20;" xml:space="preserve">
<style type="text/css">
	.st0{clip-path:url(#SVGID_2_);}
</style>
<g>
	<defs>
		<rect id="SVGID_1_" width="20" height="20"/>
	</defs>
	<clipPath id="SVGID_2_">
		<use xlink:href="#SVGID_1_" style="overflow:visible;"/>
	</clipPath>
	<g class="st0">
		<g>
			<path class="st1" fill="#324558"  d="M18,4c1.1,0,2-0.9,2-2s-0.9-2-2-2c-1.1,0-2,0.9-2,2S16.9,4,18,4z"/>
			<circle class="st1" fill="#324558" cx="2" cy="18" r="2"/>
			<path class="st1" fill="#36435C" d="M14.1,8.2h-8C4.9,8.2,4,7.3,4,6.1C4,5,4.9,4,6.1,4h2v0c0,0,0,0,0.1,0c1.1,0,2-0.9,2-2s-0.9-2-2-2     c0,0-0.1,0-0.1,0h-2C2.7,0,0,2.7,0,6.1c0,3.4,2.7,6.1,6.1,6.1h8c1,0,1.9,0.8,1.9,1.9c0,1-0.8,1.9-1.9,1.9h-1.3v0c0,0-0.1,0-0.1,0     c-1.1,0-2,0.9-2,2s0.9,2,2,2c0,0,0.1,0,0.1,0v0h1.3c3.2,0,5.9-2.6,5.9-5.9S17.4,8.2,14.1,8.2z"/>
		</g>
		<path class="st2" fill="#B6C2CD" d="M18,4C18,4,18,4,18,4c-1.1,0-2-0.9-2-2c0-1.1,0.8-2,1.9-2H8.3c1.1,0,1.9,0.9,1.9,2c0,1.1-0.9,2-2,2    c0,0,0,0-0.1,0v0L18,4L18,4z"/>
		<path class="st2" fill="#B6C2CD" d="M2,20c1.1,0,2-0.9,2-2s-0.9-2-2-2h10.7c-1.1,0-2,0.9-2,2s0.9,2,2,2c0,0,0.1,0,0.1,0v0L2,20z"/>
		<path class="st2" fill="#B6C2CD" d="M12.7,16h0.1v0C12.8,16,12.7,16,12.7,16z"/>
	</g>
</g>
</svg>
