<svg width="16" height="16" viewBox="0 0 16 16" fill="none" xmlns="http://www.w3.org/2000/svg">
<g clip-path="url(#clip0_6673_104038)">
<rect x="10.3999" y="3.19995" width="4.8" height="3.2" fill="#B6C2CD" fill-opacity="0.48"/>
<circle cx="14.4" cy="4.69619" r="1.6" fill="#324558"/>
<rect x="6.71753" y="7.96558" width="8.0872" height="3.2" fill="#B6C2CD" fill-opacity="0.48"/>
<circle cx="14.4" cy="9.53115" r="1.6" fill="#324558"/>
<rect x="6.71753" y="12.8" width="8.0872" height="3.2" fill="#B6C2CD" fill-opacity="0.48"/>
<circle cx="14.4" cy="14.3656" r="1.6" fill="#324558"/>
<path fill-rule="evenodd" clip-rule="evenodd" d="M5.6 11.2C8.69279 11.2 11.2 8.69279 11.2 5.6C11.2 2.50721 8.69279 0 5.6 0C2.50721 0 0 2.50721 0 5.6C0 8.69279 2.50721 11.2 5.6 11.2ZM4.8 2.4V6.4C4.8 6.84183 5.15817 7.2 5.6 7.2H9.6V5.6H6.4V2.4H4.8Z" fill="#324558"/>
</g>
<defs>
<clipPath id="clip0_6673_104038">
<rect width="16" height="16" fill="#324558"/>
</clipPath>
</defs>
</svg>
