<svg width="48" height="48" viewBox="0 0 48 48" fill="none" xmlns="http://www.w3.org/2000/svg">
<path fill-rule="evenodd" clip-rule="evenodd" d="M32.8531 13.0255C33.1064 13.4572 33.4183 13.864 33.7887 14.2345C34.1508 14.5965 34.5476 14.9026 34.9685 15.1528L32.1031 18.0182C34.3417 21.4185 33.9653 26.0347 30.9739 29.0261C27.9825 32.0175 23.3663 32.3939 19.966 30.1553L16.896 33.2252C17.5948 34.3144 18 35.6099 18 37C18 40.866 14.866 44 11 44C7.13401 44 4 40.866 4 37C4 33.134 7.13401 30 11 30C12.3901 30 13.6856 30.4052 14.7747 31.1039L17.7771 28.1016C15.185 24.6683 15.4533 19.7626 18.5818 16.634C21.7104 13.5055 26.6161 13.2372 30.0494 15.8292L32.8531 13.0255ZM8 37C8 38.6568 9.34314 40 11 40C12.6569 40 14 38.6568 14 37C14 35.3431 12.6569 34 11 34C9.34315 34 8 35.3431 8 37Z" fill="#324558"/>
<path fill-rule="evenodd" clip-rule="evenodd" d="M32.862 13.0406C33.1137 13.4667 33.4226 13.8683 33.7887 14.2345C34.1508 14.5965 34.5476 14.9026 34.9685 15.1528C37.2712 16.5217 40.2929 16.2155 42.274 14.2345C44.6172 11.8913 44.6172 8.09233 42.274 5.74918C39.9309 3.40603 36.1319 3.40603 33.7887 5.74918C31.816 7.7219 31.5042 10.7265 32.8531 13.0255C32.8561 13.0305 32.859 13.0356 32.862 13.0406ZM36.6172 8.57761C35.8361 9.35866 35.8361 10.625 36.6172 11.406C37.3982 12.1871 38.6645 12.1871 39.4456 11.406C40.2266 10.625 40.2266 9.35866 39.4456 8.57761C38.6645 7.79656 37.3982 7.79656 36.6172 8.57761Z" fill="#B6C2CD"/>
<path d="M18.9846 16.2556L16.7804 14.3144C17.2728 12.9091 16.9574 11.2837 15.8339 10.1602C14.2718 8.59812 11.7392 8.59812 10.1771 10.1602C8.61497 11.7223 8.61497 14.255 10.1771 15.8171C11.4273 17.0673 13.2992 17.3169 14.7977 16.5659L17.1034 18.5964C17.4921 17.8926 17.9849 17.231 18.5818 16.634C18.713 16.5028 18.8474 16.3767 18.9846 16.2556Z" fill="#B6C2CD"/>
<path d="M29.9471 29.907C30.306 29.6441 30.6495 29.3505 30.9739 29.0261C31.3737 28.6263 31.7267 28.1976 32.0331 27.7466L34.631 30.0344C35.5914 29.3815 36.7512 29 38 29C41.3137 29 44 31.6863 44 35C44 38.3137 41.3137 41 38 41C34.6863 41 32 38.3137 32 35C32 34.023 32.2335 33.1005 32.6478 32.2854L29.9471 29.907Z" fill="#B6C2CD"/>
</svg>
