<svg width="16" height="17" viewBox="0 0 16 17" fill="none" xmlns="http://www.w3.org/2000/svg">
<path fill-rule="evenodd" clip-rule="evenodd" d="M2.66667 2.74414C2.29848 2.74414 2 3.04262 2 3.41081V11.7441H3.33333C4.25381 11.7441 5 12.4903 5 13.4108V14.7441H13.3333C13.7015 14.7441 14 14.4457 14 14.0775V3.41081C14 3.04262 13.7015 2.74414 13.3333 2.74414H2.66667ZM6.01547 8.24414H4.36712C4.56909 6.76295 5.65563 5.56321 7.07699 5.19466C6.50721 5.78854 6.09834 6.9151 6.01547 8.24414ZM7.48021 6.36293C7.24992 6.82351 7.0725 7.47691 7.01768 8.24414H8.98232C8.9275 7.47691 8.75008 6.82351 8.51979 6.36293C8.38049 6.08434 8.24047 5.91316 8.13265 5.82195C8.08106 5.77831 8.04405 5.75898 8.0243 5.7509C8.01457 5.74691 8.00839 5.74538 8.00544 5.74478C8.00261 5.74421 8.00106 5.74414 8 5.74414C7.99931 5.74414 7.99841 5.74417 7.99709 5.74435L7.99456 5.74478C7.99161 5.74538 7.98543 5.74691 7.9757 5.7509C7.95595 5.75898 7.91894 5.77831 7.86735 5.82195C7.75953 5.91316 7.61951 6.08434 7.48021 6.36293ZM7.07709 12.2937C5.65566 11.9252 4.56906 10.7254 4.36711 9.24414H6.01547C6.09834 10.5733 6.50726 11.6999 7.07709 12.2937ZM8.51979 11.1254C8.75008 10.6648 8.9275 10.0114 8.98232 9.24414H7.01768C7.0725 10.0114 7.24992 10.6648 7.48021 11.1254C7.61951 11.4039 7.75953 11.5751 7.86735 11.6663C7.91894 11.71 7.95595 11.7293 7.9757 11.7374C7.98543 11.7414 7.99161 11.7429 7.99456 11.7435C7.9964 11.7439 7.9977 11.744 7.99868 11.7441L8 11.7441C8.00106 11.7441 8.00261 11.7441 8.00544 11.7435C8.00839 11.7429 8.01457 11.7414 8.0243 11.7374C8.04405 11.7293 8.08106 11.71 8.13265 11.6663C8.24047 11.5751 8.38049 11.4039 8.51979 11.1254ZM8.92293 12.2937C9.49275 11.6999 9.90166 10.5733 9.98453 9.24414H11.6328C11.4309 10.7254 10.3443 11.9252 8.92293 12.2937ZM11.6328 8.24414C11.4309 6.76298 10.3444 5.56325 8.92303 5.19468C9.4928 5.78856 9.90166 6.91511 9.98453 8.24414H11.6328Z" fill="currentColor"/>
<path d="M3.33333 12.7441C3.70152 12.7441 4 13.0426 4 13.4108V14.7441H2.66667C2.29848 14.7441 2 14.4457 2 14.0775V12.7441H3.33333Z"/>
</svg>
