<svg width="24" height="25" viewBox="0 0 24 25" fill="none" xmlns="http://www.w3.org/2000/svg">
<path fill-rule="evenodd" clip-rule="evenodd" d="M20.5 8.24414H3.5V13.7441C3.5 18.4386 7.30558 22.2441 12 22.2441C16.6944 22.2441 20.5 18.4386 20.5 13.7441V8.24414ZM12 11.2441C10.3431 11.2441 9 12.5873 9 14.2441V16.7441C9 18.401 10.3431 19.7441 12 19.7441C13.6569 19.7441 15 18.401 15 16.7441V14.2441C15 12.5873 13.6569 11.2441 12 11.2441Z" fill="#B6C2CD"/>
<path d="M3 4.24414C2.44772 4.24414 2 4.69186 2 5.24414V8.24414H22V5.24414C22 4.69186 21.5523 4.24414 21 4.24414H3Z" fill="#324558"/>
<path d="M12 18.7441C13.1046 18.7441 14 17.8487 14 16.7441C14 15.6396 13.1046 14.7441 12 14.7441C10.8954 14.7441 10 15.6396 10 16.7441C10 17.8487 10.8954 18.7441 12 18.7441Z" fill="#324558"/>
</svg>
