<svg width="70" height="80" viewBox="0 0 70 80" fill="none" xmlns="http://www.w3.org/2000/svg">
<path d="M69.3706 20.0162L34.7015 0L0 20.0162V60.0162L34.7015 80L69.3706 60.0162V20.0162Z" fill="url(#paint0_linear_7600_98538)"/>
<path d="M34.6856 67.5465C50.7521 67.5465 63.7765 64.4485 63.7765 60.6268C63.7765 56.8051 50.7521 53.707 34.6856 53.707C18.6192 53.707 5.59473 56.8051 5.59473 60.6268C5.59473 64.4485 18.6192 67.5465 34.6856 67.5465Z" fill="url(#paint1_linear_7600_98538)"/>
<path d="M51.8105 52.832C51.8105 56.1457 49.1243 58.832 45.8105 58.832L20.2198 58.832L20.2198 21.9076C20.2198 19.6985 22.0107 17.9076 24.2198 17.9076L51.8106 17.9076L51.8105 52.832Z" fill="url(#paint2_linear_7600_98538)"/>
<path d="M12.3223 50.3555H49.3004V58.832H20.3223C15.904 58.832 12.3223 55.2503 12.3223 50.832V50.3555Z" fill="url(#paint3_linear_7600_98538)"/>
<rect x="51.5342" y="17.9062" width="3.35664" height="4.47552" fill="#EFF2F8"/>
<path fill-rule="evenodd" clip-rule="evenodd" d="M51.822 56.1617L51.822 50.4568L46.4814 50.4568L46.4814 56.1617C46.4814 57.6369 47.6765 58.832 49.1517 58.832C50.6269 58.832 51.822 57.6369 51.822 56.1617Z" fill="#E6EAF0"/>
<path d="M37.1406 38.1003C37.1258 38.7322 36.6093 39.2368 35.9772 39.2368C35.3446 39.2368 34.8279 38.7315 34.8137 38.0991L34.6201 29.4508C34.603 28.687 35.2174 28.0586 35.9814 28.0586C36.7459 28.0586 37.3606 28.6878 37.3427 29.4521L37.1406 38.1003ZM34.5127 42.6545C34.5127 42.2409 34.6469 41.8999 34.9154 41.6314C35.1839 41.3556 35.5503 41.2178 36.0147 41.2178C36.4791 41.2178 36.8456 41.3556 37.1141 41.6314C37.3825 41.8999 37.5168 42.2409 37.5168 42.6545C37.5168 43.0536 37.3862 43.3874 37.1249 43.6559C36.8637 43.9244 36.4936 44.0586 36.0147 44.0586C35.5358 44.0586 35.1658 43.9244 34.9045 43.6559C34.6433 43.3874 34.5127 43.0536 34.5127 42.6545Z" fill="#CCD3DB"/>
<path fill-rule="evenodd" clip-rule="evenodd" d="M51.811 20.5256V29.6545H57.0498V20.5256C57.0498 19.0786 55.8775 17.9062 54.4304 17.9062C52.9833 17.9062 51.811 19.0786 51.811 20.5256Z" fill="url(#paint4_linear_7600_98538)"/>
<defs>
<linearGradient id="paint0_linear_7600_98538" x1="34.6853" y1="0" x2="34.6853" y2="63.6667" gradientUnits="userSpaceOnUse">
<stop stop-color="#F4F7FB"/>
<stop offset="1" stop-color="#F4F7FB" stop-opacity="0"/>
</linearGradient>
<linearGradient id="paint1_linear_7600_98538" x1="34.6865" y1="65.8131" x2="34.6865" y2="46.0179" gradientUnits="userSpaceOnUse">
<stop stop-color="white"/>
<stop offset="1" stop-color="#E5E9F0"/>
</linearGradient>
<linearGradient id="paint2_linear_7600_98538" x1="39.9307" y1="67.036" x2="39.9307" y2="-9.74451" gradientUnits="userSpaceOnUse">
<stop stop-color="#E1E5EC"/>
<stop offset="1" stop-color="#F7FAFF"/>
</linearGradient>
<linearGradient id="paint3_linear_7600_98538" x1="33.6059" y1="48.3974" x2="33.6059" y2="58.7471" gradientUnits="userSpaceOnUse">
<stop stop-color="#E5E9F0" stop-opacity="0.41"/>
<stop offset="1" stop-color="#C7CDD8"/>
</linearGradient>
<linearGradient id="paint4_linear_7600_98538" x1="54.0345" y1="8.31178" x2="54.0345" y2="29.4808" gradientUnits="userSpaceOnUse">
<stop stop-color="#E5E9F0" stop-opacity="0.41"/>
<stop offset="1" stop-color="#C7CDD8"/>
</linearGradient>
</defs>
</svg>
