<svg width="194" height="52" viewBox="0 0 194 52" fill="none" xmlns="http://www.w3.org/2000/svg">
<path d="M12 16.4816C12.0037 16.4816 12.0073 16.4809 12.0107 16.4795L18.4778 12.743C18.4792 12.7401 18.4799 12.737 18.4799 12.7338C18.4799 12.7307 18.4792 12.7276 18.4778 12.7247V5.25781C18.4794 5.25503 18.4803 5.25188 18.4803 5.24868C18.4803 5.24547 18.4794 5.24232 18.4778 5.23954L12.0107 1.5H11.9894L5.52221 5.23954C5.52023 5.24218 5.51916 5.24538 5.51916 5.24868C5.51916 5.25197 5.52023 5.25518 5.52221 5.25781V12.7247C5.5206 12.7275 5.51976 12.7306 5.51976 12.7338C5.51976 12.7371 5.5206 12.7402 5.52221 12.743L11.9894 16.4795C11.9927 16.4809 11.9964 16.4816 12 16.4816Z" fill="#00A971"/>
<path d="M1.5 18.2976H22.5V22.5H1.5V18.2976Z" fill="#00A971"/>
<path d="M40.766 3.168C40.298 5.796 39.506 7.83 38.39 9.234L39.758 10.404C40.352 9.684 40.874 8.784 41.324 7.722H42.08C41.414 10.908 40.208 13.23 38.48 14.706L39.686 16.11C41.648 14.346 42.998 11.538 43.754 7.722H44.654C44.312 10.242 43.826 12.258 43.196 13.788C42.458 15.444 41.36 16.92 39.884 18.252L41.054 19.746C42.674 18.234 43.916 16.506 44.744 14.598C45.428 12.906 45.95 10.602 46.328 7.722H46.976C46.94 12.816 46.886 15.786 46.778 16.632C46.634 17.622 46.076 18.126 45.122 18.126C44.69 18.126 44.204 18.09 43.628 18.036L44.06 19.71C44.708 19.764 45.176 19.8 45.428 19.8C47.264 19.8 48.29 19.026 48.506 17.478C48.686 16.038 48.776 12.186 48.776 5.922H41.972C42.17 5.202 42.35 4.446 42.53 3.636L40.766 3.168ZM34.718 8.586H35.708V12.888C34.736 13.212 33.764 13.482 32.774 13.68L33.224 15.498C34.07 15.246 34.898 14.958 35.708 14.67V19.872H37.544V13.932C37.922 13.752 38.3 13.59 38.696 13.41V11.646C38.3 11.826 37.922 12.006 37.544 12.186V8.586H38.768V6.786H37.544V3.24H35.708V6.786H34.934C34.988 6.102 35.024 5.418 35.06 4.734L33.386 4.608C33.314 6.696 33.044 8.694 32.558 10.584L34.214 11.052C34.412 10.26 34.574 9.432 34.718 8.586ZM58.208 6.948V8.712H61.52V9.378C61.52 10.026 61.484 10.638 61.412 11.25H57.92V13.05H61.142C60.584 15.534 59.396 17.352 57.578 18.468L58.712 19.998C60.584 18.774 61.88 16.92 62.618 14.454C63.194 16.254 64.364 18.072 66.128 19.908L67.424 18.504C65.444 16.668 64.202 14.85 63.716 13.05H67.136V11.25H63.23C63.302 10.53 63.338 9.756 63.338 8.946V8.712H66.812V6.948H64.526C65.03 6.102 65.534 5.076 66.038 3.888L64.292 3.222C63.842 4.554 63.302 5.796 62.672 6.948H60.584L61.862 6.048C61.502 5.256 60.98 4.338 60.314 3.294L58.874 4.212C59.522 5.202 60.044 6.12 60.44 6.948H58.208ZM50.756 3.78V5.508H51.656V16.02L50.666 16.164L51.116 17.946C52.556 17.658 53.942 17.352 55.292 17.028V19.89H57.11V16.524C57.434 16.434 57.776 16.344 58.1 16.236V14.418C57.776 14.526 57.452 14.634 57.11 14.742V5.508H58.064V3.78H50.756ZM53.438 15.696V13.068H55.292V15.264C54.68 15.408 54.068 15.552 53.438 15.696ZM53.438 11.376V9.324H55.292V11.376H53.438ZM53.438 7.632V5.508H55.292V7.632H53.438ZM76.226 15.696L77.468 14.454C76.82 13.446 76.19 12.528 75.578 11.7C75.992 10.224 76.334 8.604 76.604 6.804L74.876 6.498C74.714 7.686 74.498 8.838 74.246 9.918C73.634 9.126 73.058 8.442 72.518 7.866L71.456 8.892V5.598H82.544V15.174C81.896 14.094 81.266 13.086 80.654 12.168C81.158 10.584 81.572 8.802 81.878 6.858L80.114 6.552C79.916 7.866 79.664 9.108 79.358 10.278C78.746 9.414 78.17 8.694 77.648 8.082L76.496 9.198C77.27 10.206 78.026 11.232 78.746 12.294C78.134 13.986 77.378 15.462 76.478 16.758L77.666 18.234C78.53 17.082 79.286 15.732 79.934 14.148C80.438 14.94 80.906 15.75 81.374 16.578L82.544 15.408V17.442C82.544 17.838 82.328 18.036 81.914 18.036L80.258 17.946L80.726 19.764H82.526C83.768 19.764 84.398 19.134 84.398 17.874V3.798H69.602V19.89H71.456V9.09C72.212 10.008 72.968 10.962 73.688 11.934C73.148 13.59 72.464 15.066 71.636 16.326L72.824 17.802C73.634 16.65 74.336 15.282 74.93 13.698C75.362 14.346 75.794 15.012 76.226 15.696ZM88.52 3.348L87.206 4.59C88.502 5.634 89.492 6.606 90.194 7.506L91.544 6.174C90.716 5.238 89.708 4.284 88.52 3.348ZM98.762 19.584H102.884L103.352 17.73C102.848 17.766 102.146 17.802 101.228 17.838C100.292 17.838 99.392 17.856 98.492 17.856C97.124 17.856 95.918 17.838 94.892 17.82C93.848 17.784 93.074 17.64 92.552 17.37C92.138 17.136 91.724 16.776 91.328 16.308L91.148 16.128V9.27H87.026V10.998H89.402V15.93C88.682 16.326 87.89 17.244 86.99 18.684L88.376 19.98C89.276 18.36 89.888 17.55 90.23 17.55C90.446 17.55 90.662 17.694 90.896 18C91.418 18.612 92.03 19.026 92.75 19.242C93.506 19.422 94.442 19.53 95.594 19.548C96.728 19.566 97.79 19.584 98.762 19.584ZM93.308 4.05V5.778H101.804V4.05H93.308ZM92.156 8.1V9.882H95.738C94.406 13.014 93.38 14.688 92.66 14.904L93.128 16.542C96.242 16.218 98.762 15.804 100.706 15.3C100.886 15.786 101.048 16.29 101.228 16.83L102.902 16.416C102.182 14.292 101.354 12.42 100.418 10.764L98.888 11.268C99.302 12.042 99.698 12.852 100.058 13.698C98.726 14.04 97.124 14.328 95.234 14.58C96.026 13.428 96.818 11.862 97.61 9.882H103.118V8.1H92.156ZM111.092 15.912C109.292 16.56 107.204 17.064 104.81 17.442L105.062 19.314C107.312 18.9 109.328 18.36 111.092 17.712V15.912ZM107.474 3.114C106.916 5.04 106.268 6.804 105.53 8.406C105.296 8.73 105.044 8.964 104.756 9.09L105.206 10.8C106.034 10.674 106.844 10.548 107.618 10.44C106.916 11.826 106.34 12.798 105.872 13.338C105.638 13.554 105.35 13.734 105.026 13.878L105.512 15.57C107.132 15.318 108.86 14.814 110.696 14.058V12.33C109.688 12.78 108.68 13.14 107.708 13.41C108.608 12.078 109.724 10.044 111.02 7.29L109.382 6.66C109.058 7.398 108.734 8.082 108.446 8.73L106.934 8.946C107.726 7.614 108.518 5.922 109.274 3.834L107.474 3.114ZM113.972 11.484H116.618V13.32H113.972V11.484ZM113.972 15.03H116.618V17.172H113.972V15.03ZM113.972 18.918H121.37V17.172H118.418V15.03H120.704V13.32H118.418V11.484H120.704V9.756H118.418V7.866H121.01V6.102H118.49C118.256 5.202 117.95 4.23 117.572 3.168L115.754 3.654C116.114 4.446 116.42 5.274 116.69 6.102H114.116C114.404 5.31 114.674 4.482 114.89 3.636L113.108 3.276C112.568 5.688 111.632 7.902 110.3 9.918L110.876 11.826C111.326 11.232 111.758 10.62 112.172 9.972V19.836H113.972V18.918ZM116.618 7.866V9.756H113.972V7.866H116.618ZM136.292 10.278H125.726V19.872H127.616V19.278H135.284V19.89H137.138V14.994H127.616V14.148H136.292V10.278ZM127.616 17.622V16.47H135.284V17.622H127.616ZM127.616 12.672V11.772H134.474V12.672H127.616ZM138.776 7.992H132.008C131.9 7.668 131.774 7.362 131.666 7.074L132.494 7.596C132.854 7.092 133.196 6.552 133.502 5.976H134.312C134.69 6.516 135.014 7.074 135.302 7.65L136.958 7.02C136.778 6.696 136.562 6.336 136.31 5.976H139.154V4.338H134.204C134.294 4.086 134.384 3.816 134.474 3.546L132.692 3.15C132.332 4.374 131.738 5.526 130.91 6.606L131.27 6.84L129.686 7.11C129.83 7.38 129.974 7.668 130.118 7.992H123.224V11.52H125.06V9.576H136.94V11.52H138.776V7.992ZM125.762 5.976H126.428C126.824 6.57 127.166 7.182 127.454 7.83L129.164 7.164C128.966 6.786 128.714 6.39 128.426 5.976H130.982V4.338H126.554C126.662 4.068 126.752 3.798 126.86 3.528L125.042 3.132C124.628 4.392 123.908 5.598 122.864 6.714L124.502 7.758C124.97 7.218 125.384 6.624 125.762 5.976ZM147.272 3.78V12.51H150.962V14.166H147.074V15.912H150.962V17.586H146.39V19.404H157.316V17.586H152.834V15.912H156.704V14.166H152.834V12.51H156.488V3.78H147.272ZM154.688 10.854H152.834V8.946H154.688V10.854ZM150.962 10.854H149.072V8.946H150.962V10.854ZM149.072 7.344V5.436H150.962V7.344H149.072ZM152.834 5.436H154.688V7.344H152.834V5.436ZM141.098 9.684V11.484H142.808V15.444C142.106 15.624 141.386 15.768 140.648 15.894L141.116 17.694C142.988 17.244 144.752 16.704 146.408 16.056V14.238C145.85 14.472 145.292 14.688 144.716 14.886V11.484H146.462V9.684H144.716V6.012H146.678V4.23H140.828V6.012H142.808V9.684H141.098ZM159.674 3.852V5.688H165.974V11.88H158.954V13.698H165.974V19.854H167.882V13.698H175.046V11.88H167.882V5.688H174.38V3.852H159.674ZM162.32 6.408L160.574 7.254C161.222 8.442 161.852 9.792 162.428 11.286L164.192 10.422C163.58 8.946 162.968 7.614 162.32 6.408ZM171.842 6.336C171.356 7.65 170.708 8.982 169.88 10.314L171.572 11.178C172.382 9.882 173.048 8.532 173.552 7.146L171.842 6.336ZM191.21 12.186H178.79V19.908H180.698V19.224H189.302V19.908H191.21V12.186ZM180.698 17.424V13.986H189.302V17.424H180.698ZM177.656 10.584C182.246 10.422 186.422 10.17 190.166 9.828C190.58 10.512 190.994 11.214 191.39 11.952L193.226 11.052C191.93 8.874 190.58 6.894 189.14 5.094L187.43 5.904C187.988 6.606 188.546 7.362 189.086 8.154C186.314 8.406 183.47 8.604 180.554 8.748C182.03 7.38 183.452 5.724 184.838 3.816L182.894 3.132C180.446 6.714 178.574 8.604 177.314 8.802L177.656 10.584Z" fill="white"/>
<path d="M4.64648 43.0215L6.53906 44.7383L5.80664 45.4414L3.95508 43.748L4.64648 43.0215ZM6.42188 38.9961V40.4727C6.42188 41.0781 6.35547 41.6094 6.22266 42.0664C6.09375 42.5195 5.9043 42.8984 5.6543 43.2031C5.4043 43.5078 5.10156 43.7363 4.74609 43.8887C4.39453 44.041 3.99805 44.1172 3.55664 44.1172C3.13086 44.1172 2.74219 44.041 2.39062 43.8887C2.03906 43.7363 1.73633 43.5078 1.48242 43.2031C1.22852 42.8984 1.03125 42.5195 0.890625 42.0664C0.753906 41.6094 0.685547 41.0781 0.685547 40.4727V38.9961C0.685547 38.3906 0.753906 37.8613 0.890625 37.4082C1.02734 36.9551 1.22266 36.5762 1.47656 36.2715C1.73047 35.9629 2.0332 35.7324 2.38477 35.5801C2.73633 35.4277 3.125 35.3516 3.55078 35.3516C3.99219 35.3516 4.38867 35.4277 4.74023 35.5801C5.0957 35.7324 5.39844 35.9629 5.64844 36.2715C5.89844 36.5762 6.08984 36.9551 6.22266 37.4082C6.35547 37.8613 6.42188 38.3906 6.42188 38.9961ZM5.35547 40.4727V38.9844C5.35547 38.5156 5.31641 38.1133 5.23828 37.7773C5.16016 37.4375 5.04297 37.1602 4.88672 36.9453C4.73438 36.7305 4.54688 36.5723 4.32422 36.4707C4.10156 36.3652 3.84375 36.3125 3.55078 36.3125C3.27734 36.3125 3.0293 36.3652 2.80664 36.4707C2.58789 36.5723 2.40039 36.7305 2.24414 36.9453C2.08789 37.1602 1.9668 37.4375 1.88086 37.7773C1.79883 38.1133 1.75781 38.5156 1.75781 38.9844V40.4727C1.75781 40.9453 1.79883 41.3516 1.88086 41.6914C1.9668 42.0312 2.08789 42.3105 2.24414 42.5293C2.4043 42.7441 2.59375 42.9043 2.8125 43.0098C3.03516 43.1113 3.2832 43.1621 3.55664 43.1621C3.84961 43.1621 4.10742 43.1113 4.33008 43.0098C4.55664 42.9043 4.74609 42.7441 4.89844 42.5293C5.05078 42.3105 5.16406 42.0312 5.23828 41.6914C5.31641 41.3516 5.35547 40.9453 5.35547 40.4727ZM9.81133 37.6602V44H8.78008V37.6602H9.81133ZM8.72148 35.9785C8.72148 35.8027 8.77031 35.6543 8.86797 35.5332C8.96562 35.4121 9.11211 35.3516 9.30742 35.3516C9.50273 35.3516 9.64922 35.4121 9.74687 35.5332C9.84844 35.6543 9.89922 35.8027 9.89922 35.9785C9.89922 36.1465 9.84844 36.291 9.74687 36.4121C9.64922 36.5293 9.50273 36.5879 9.30742 36.5879C9.11211 36.5879 8.96562 36.5293 8.86797 36.4121C8.77031 36.291 8.72148 36.1465 8.72148 35.9785ZM13.1891 39.0137V44H12.152V37.6602H13.1305L13.1891 39.0137ZM12.9371 40.5898L12.5152 40.5723C12.5113 40.1387 12.5602 39.7383 12.6617 39.3711C12.7672 39 12.9156 38.6777 13.107 38.4043C13.3023 38.1309 13.5348 37.9199 13.8043 37.7715C14.0738 37.6191 14.3727 37.543 14.7008 37.543C14.9586 37.543 15.193 37.5859 15.4039 37.6719C15.6148 37.7539 15.7945 37.8867 15.943 38.0703C16.0914 38.2539 16.2047 38.4922 16.2828 38.7852C16.3648 39.0742 16.4059 39.4277 16.4059 39.8457V44H15.3687V39.834C15.3687 39.502 15.3316 39.2363 15.2574 39.0371C15.1871 38.834 15.0777 38.6875 14.9293 38.5977C14.7848 38.5039 14.6012 38.457 14.3785 38.457C14.1754 38.457 13.9859 38.5137 13.8102 38.627C13.6344 38.7402 13.4801 38.8965 13.3473 39.0957C13.2184 39.2949 13.1168 39.5234 13.0426 39.7812C12.9723 40.0352 12.9371 40.3047 12.9371 40.5898ZM22.098 37.6602H23.0297V44.0527C23.0297 44.6113 22.932 45.0723 22.7367 45.4355C22.5453 45.7988 22.2777 46.0664 21.934 46.2383C21.5902 46.4141 21.1938 46.502 20.7445 46.502C20.5844 46.502 20.3832 46.4727 20.141 46.4141C19.8988 46.3555 19.6566 46.2656 19.4145 46.1445C19.1723 46.0273 18.973 45.8789 18.8168 45.6992L19.2445 44.9785C19.4672 45.2051 19.7035 45.3672 19.9535 45.4648C20.2035 45.5625 20.4418 45.6113 20.6684 45.6113C20.9379 45.6113 21.1723 45.5625 21.3715 45.4648C21.5707 45.3672 21.725 45.207 21.8344 44.9844C21.9438 44.7656 21.9984 44.4727 21.9984 44.1055V39.0547L22.098 37.6602ZM18.4535 41.1348V40.543C18.4535 40.0195 18.5023 39.5703 18.6 39.1953C18.6977 38.8164 18.8383 38.5059 19.0219 38.2637C19.2094 38.0176 19.434 37.8359 19.6957 37.7188C19.9574 37.6016 20.2504 37.543 20.5746 37.543C20.9027 37.543 21.1859 37.6094 21.4242 37.7422C21.6625 37.875 21.8598 38.0684 22.016 38.3223C22.1762 38.5723 22.3012 38.877 22.391 39.2363C22.4848 39.5918 22.5492 39.9941 22.5844 40.4434V41.2344C22.5492 41.6797 22.4848 42.0801 22.391 42.4355C22.3012 42.791 22.1742 43.0938 22.0102 43.3438C21.85 43.5938 21.6508 43.7852 21.4125 43.918C21.1742 44.0508 20.891 44.1172 20.5629 44.1172C20.2426 44.1172 19.9535 44.0566 19.6957 43.9355C19.4379 43.8105 19.2152 43.625 19.0277 43.3789C18.8441 43.1289 18.7016 42.8184 18.6 42.4473C18.5023 42.0723 18.4535 41.6348 18.4535 41.1348ZM19.4906 40.543V41.1348C19.4906 41.4863 19.516 41.793 19.5668 42.0547C19.6176 42.3125 19.6957 42.5273 19.8012 42.6992C19.9105 42.8672 20.0492 42.9922 20.2172 43.0742C20.3891 43.1562 20.5941 43.1973 20.8324 43.1973C21.1215 43.1973 21.3578 43.127 21.5414 42.9863C21.725 42.8457 21.8715 42.6602 21.9809 42.4297C22.0941 42.1953 22.184 41.9434 22.2504 41.6738V40.0098C22.2113 39.8105 22.1547 39.6191 22.0805 39.4355C22.0102 39.248 21.9184 39.082 21.8051 38.9375C21.6918 38.7891 21.5551 38.6719 21.3949 38.5859C21.2387 38.5 21.0551 38.457 20.8441 38.457C20.6059 38.457 20.4008 38.5 20.2289 38.5859C20.057 38.6719 19.9164 38.8008 19.807 38.9727C19.6977 39.1445 19.6176 39.3613 19.5668 39.623C19.516 39.8848 19.4906 40.1914 19.4906 40.543ZM29.6945 41.2871H30.7727C30.7453 41.873 30.6262 42.3789 30.4152 42.8047C30.2082 43.2266 29.9055 43.5508 29.507 43.7773C29.1125 44.0039 28.6184 44.1172 28.0246 44.1172C27.5988 44.1172 27.2141 44.0332 26.8703 43.8652C26.5266 43.6973 26.2316 43.457 25.9855 43.1445C25.7434 42.8281 25.5578 42.4492 25.4289 42.0078C25.3 41.5664 25.2355 41.0703 25.2355 40.5195V38.9434C25.2355 38.3965 25.3 37.9023 25.4289 37.4609C25.5617 37.0195 25.7512 36.6426 25.9973 36.3301C26.2473 36.0137 26.55 35.7715 26.9055 35.6035C27.2648 35.4355 27.6711 35.3516 28.1242 35.3516C28.6789 35.3516 29.1477 35.4629 29.5305 35.6855C29.9172 35.9043 30.2141 36.2266 30.4211 36.6523C30.632 37.0742 30.7492 37.5918 30.7727 38.2051H29.6945C29.6672 37.7559 29.5969 37.3906 29.4836 37.1094C29.3703 36.8242 29.2023 36.6152 28.9797 36.4824C28.7609 36.3457 28.4758 36.2773 28.1242 36.2773C27.8117 36.2773 27.5402 36.3398 27.3098 36.4648C27.0832 36.5898 26.8957 36.7695 26.7473 37.0039C26.6027 37.2344 26.4934 37.5137 26.4191 37.8418C26.3488 38.166 26.3137 38.5293 26.3137 38.9316V40.5195C26.3137 40.8945 26.343 41.2441 26.4016 41.5684C26.4641 41.8926 26.5617 42.1777 26.6945 42.4238C26.8312 42.666 27.009 42.8555 27.2277 42.9922C27.4465 43.1289 27.7121 43.1973 28.0246 43.1973C28.4191 43.1973 28.7316 43.1328 28.9621 43.0039C29.1926 42.875 29.3625 42.6699 29.4719 42.3887C29.5852 42.1074 29.6594 41.7402 29.6945 41.2871ZM33.9043 35V44H32.873V35H33.9043ZM36.0281 41.1348V40.5312C36.0281 40.0391 36.0906 39.6074 36.2156 39.2363C36.3406 38.8613 36.5145 38.5488 36.7371 38.2988C36.9598 38.0488 37.2195 37.8613 37.5164 37.7363C37.8133 37.6074 38.1316 37.543 38.4715 37.543C38.8191 37.543 39.1414 37.6074 39.4383 37.7363C39.7352 37.8613 39.9949 38.0488 40.2176 38.2988C40.4441 38.5488 40.6199 38.8613 40.7449 39.2363C40.8699 39.6074 40.9324 40.0391 40.9324 40.5312V41.1348C40.9324 41.627 40.8699 42.0605 40.7449 42.4355C40.6199 42.8066 40.4461 43.1172 40.2234 43.3672C40.0008 43.6172 39.741 43.8047 39.4441 43.9297C39.1473 44.0547 38.827 44.1172 38.4832 44.1172C38.1395 44.1172 37.8191 44.0547 37.5223 43.9297C37.2254 43.8047 36.9637 43.6172 36.7371 43.3672C36.5145 43.1172 36.3406 42.8066 36.2156 42.4355C36.0906 42.0605 36.0281 41.627 36.0281 41.1348ZM37.0652 40.5312V41.1348C37.0652 41.4824 37.1004 41.7871 37.1707 42.0488C37.241 42.3105 37.3406 42.5293 37.4695 42.7051C37.5984 42.8809 37.7488 43.0137 37.9207 43.1035C38.0926 43.1895 38.2801 43.2324 38.4832 43.2324C38.7176 43.2324 38.9227 43.1895 39.0984 43.1035C39.2781 43.0137 39.4266 42.8809 39.5438 42.7051C39.6609 42.5293 39.7488 42.3105 39.8074 42.0488C39.866 41.7871 39.8953 41.4824 39.8953 41.1348V40.5312C39.8953 40.1836 39.8602 39.8809 39.7898 39.623C39.7195 39.3613 39.6199 39.1426 39.491 38.9668C39.3621 38.7871 39.2098 38.6543 39.034 38.5684C38.8621 38.4785 38.6746 38.4336 38.4715 38.4336C38.2723 38.4336 38.0867 38.4785 37.9148 38.5684C37.743 38.6543 37.5926 38.7871 37.4637 38.9668C37.3387 39.1426 37.241 39.3613 37.1707 39.623C37.1004 39.8809 37.0652 40.1836 37.0652 40.5312ZM46.1734 42.5352V37.6602H47.2105V44H46.2262L46.1734 42.5352ZM46.3668 41.1992L46.777 41.1875C46.777 41.6094 46.7398 42 46.6656 42.3594C46.5953 42.7148 46.4781 43.0234 46.3141 43.2852C46.1539 43.5469 45.941 43.752 45.6754 43.9004C45.4098 44.0449 45.0836 44.1172 44.6969 44.1172C44.4352 44.1172 44.1969 44.0723 43.982 43.9824C43.7711 43.8926 43.5875 43.7539 43.4313 43.5664C43.2789 43.3789 43.1598 43.1348 43.0738 42.834C42.9918 42.5332 42.9508 42.1719 42.9508 41.75V37.6602H43.982V41.7617C43.982 42.0469 44.0074 42.2832 44.0582 42.4707C44.109 42.6543 44.1773 42.8008 44.2633 42.9102C44.3492 43.0156 44.4449 43.0898 44.5504 43.1328C44.6559 43.1758 44.7633 43.1973 44.8727 43.1973C45.2398 43.1973 45.5328 43.1094 45.7516 42.9336C45.9703 42.7539 46.1266 42.5137 46.2203 42.2129C46.318 41.9082 46.3668 41.5703 46.3668 41.1992ZM52.7914 42.7695V35H53.8227V44H52.8793L52.7914 42.7695ZM49.2465 41.1348V40.543C49.2465 40.0195 49.2973 39.5703 49.3988 39.1953C49.5004 38.8164 49.6449 38.5059 49.8324 38.2637C50.0199 38.0176 50.2445 37.8359 50.5062 37.7188C50.768 37.6016 51.057 37.543 51.3734 37.543C51.7016 37.543 51.9828 37.6094 52.2172 37.7422C52.4555 37.875 52.6547 38.0684 52.8148 38.3223C52.975 38.5723 53.1 38.877 53.1898 39.2363C53.2836 39.5918 53.3461 39.9941 53.3773 40.4434V41.2344C53.3422 41.6797 53.2777 42.0801 53.184 42.4355C53.0941 42.791 52.9691 43.0938 52.809 43.3438C52.6488 43.5938 52.4496 43.7852 52.2113 43.918C51.973 44.0508 51.6898 44.1172 51.3617 44.1172C51.0492 44.1172 50.7641 44.0566 50.5062 43.9355C50.2484 43.8105 50.0238 43.625 49.8324 43.3789C49.6449 43.1289 49.5004 42.8184 49.3988 42.4473C49.2973 42.0723 49.2465 41.6348 49.2465 41.1348ZM50.2836 40.543V41.1348C50.2836 41.4863 50.309 41.793 50.3598 42.0547C50.4105 42.3125 50.4906 42.5273 50.6 42.6992C50.7094 42.8672 50.848 42.9922 51.016 43.0742C51.1879 43.1562 51.393 43.1973 51.6312 43.1973C51.9203 43.1973 52.1566 43.127 52.3402 42.9863C52.5238 42.8457 52.6703 42.6602 52.7797 42.4297C52.893 42.1953 52.9828 41.9434 53.0492 41.6738V40.0098C53.0102 39.8105 52.9535 39.6191 52.8793 39.4355C52.8051 39.248 52.7113 39.082 52.598 38.9375C52.4887 38.7891 52.3539 38.6719 52.1937 38.5859C52.0375 38.5 51.8539 38.457 51.643 38.457C51.4047 38.457 51.1977 38.5 51.0219 38.5859C50.85 38.6719 50.7094 38.8008 50.6 38.9727C50.4945 39.1445 50.4145 39.3613 50.3598 39.623C50.309 39.8848 50.2836 40.1914 50.2836 40.543ZM60.8418 35.4688V44H59.7637V35.4688H60.8418ZM63.0594 41.1348V40.5312C63.0594 40.0391 63.1219 39.6074 63.2469 39.2363C63.3719 38.8613 63.5457 38.5488 63.7684 38.2988C63.991 38.0488 64.2508 37.8613 64.5477 37.7363C64.8445 37.6074 65.1629 37.543 65.5027 37.543C65.8504 37.543 66.1727 37.6074 66.4695 37.7363C66.7664 37.8613 67.0262 38.0488 67.2488 38.2988C67.4754 38.5488 67.6512 38.8613 67.7762 39.2363C67.9012 39.6074 67.9637 40.0391 67.9637 40.5312V41.1348C67.9637 41.627 67.9012 42.0605 67.7762 42.4355C67.6512 42.8066 67.4773 43.1172 67.2547 43.3672C67.032 43.6172 66.7723 43.8047 66.4754 43.9297C66.1785 44.0547 65.8582 44.1172 65.5145 44.1172C65.1707 44.1172 64.8504 44.0547 64.5535 43.9297C64.2566 43.8047 63.9949 43.6172 63.7684 43.3672C63.5457 43.1172 63.3719 42.8066 63.2469 42.4355C63.1219 42.0605 63.0594 41.627 63.0594 41.1348ZM64.0965 40.5312V41.1348C64.0965 41.4824 64.1316 41.7871 64.202 42.0488C64.2723 42.3105 64.3719 42.5293 64.5008 42.7051C64.6297 42.8809 64.7801 43.0137 64.952 43.1035C65.1238 43.1895 65.3113 43.2324 65.5145 43.2324C65.7488 43.2324 65.9539 43.1895 66.1297 43.1035C66.3094 43.0137 66.4578 42.8809 66.575 42.7051C66.6922 42.5293 66.7801 42.3105 66.8387 42.0488C66.8973 41.7871 66.9266 41.4824 66.9266 41.1348V40.5312C66.9266 40.1836 66.8914 39.8809 66.8211 39.623C66.7508 39.3613 66.6512 39.1426 66.5223 38.9668C66.3934 38.7871 66.241 38.6543 66.0652 38.5684C65.8934 38.4785 65.7059 38.4336 65.5027 38.4336C65.3035 38.4336 65.118 38.4785 64.9461 38.5684C64.7742 38.6543 64.6238 38.7871 64.4949 38.9668C64.3699 39.1426 64.2723 39.3613 64.202 39.623C64.1316 39.8809 64.0965 40.1836 64.0965 40.5312ZM72.8824 35.4688V44H71.816V35.4688H72.8824ZM75.1266 35.4688V36.3945H69.5777V35.4688H75.1266ZM85.8547 38.9961V40.4785C85.8547 41.0801 85.7883 41.6094 85.6555 42.0664C85.5266 42.5195 85.3371 42.8984 85.0871 43.2031C84.8371 43.5078 84.5363 43.7363 84.1848 43.8887C83.8332 44.041 83.4367 44.1172 82.9953 44.1172C82.5695 44.1172 82.1809 44.041 81.8293 43.8887C81.4777 43.7363 81.175 43.5078 80.9211 43.2031C80.6672 42.8984 80.4699 42.5195 80.3293 42.0664C80.1926 41.6094 80.1242 41.0801 80.1242 40.4785V38.9961C80.1242 38.3945 80.1926 37.8672 80.3293 37.4141C80.466 36.957 80.6613 36.5762 80.9152 36.2715C81.1691 35.9668 81.4719 35.7383 81.8234 35.5859C82.175 35.4297 82.5637 35.3516 82.9895 35.3516C83.4309 35.3516 83.8273 35.4297 84.1789 35.5859C84.5344 35.7383 84.8352 35.9668 85.0813 36.2715C85.3313 36.5762 85.5227 36.957 85.6555 37.4141C85.7883 37.8672 85.8547 38.3945 85.8547 38.9961ZM84.7883 40.4785V38.9844C84.7883 38.5156 84.7492 38.1133 84.6711 37.7773C84.593 37.4375 84.4777 37.1602 84.3254 36.9453C84.173 36.7305 83.9855 36.5723 83.7629 36.4707C83.5402 36.3652 83.2824 36.3125 82.9895 36.3125C82.7121 36.3125 82.4621 36.3652 82.2395 36.4707C82.0207 36.5723 81.8332 36.7305 81.677 36.9453C81.5207 37.1602 81.3996 37.4375 81.3137 37.7773C81.2316 38.1133 81.1906 38.5156 81.1906 38.9844V40.4785C81.1906 40.9512 81.2316 41.3574 81.3137 41.6973C81.3996 42.0332 81.5207 42.3105 81.677 42.5293C81.8371 42.7441 82.0285 42.9043 82.2512 43.0098C82.4738 43.1113 82.7219 43.1621 82.9953 43.1621C83.2883 43.1621 83.5461 43.1113 83.7688 43.0098C83.9953 42.9043 84.1828 42.7441 84.3313 42.5293C84.4836 42.3105 84.5969 42.0332 84.6711 41.6973C84.7492 41.3574 84.7883 40.9512 84.7883 40.4785ZM89.4727 39.2656L90.5215 38.3574C90.7285 38.1895 90.8828 38.0215 90.9844 37.8535C91.0859 37.6816 91.1367 37.4473 91.1367 37.1504C91.1367 36.9199 91.0645 36.7109 90.9199 36.5234C90.7793 36.332 90.5781 36.2363 90.3164 36.2363C90.1406 36.2363 89.9922 36.2891 89.8711 36.3945C89.75 36.5 89.6582 36.6406 89.5957 36.8164C89.5371 36.9883 89.5078 37.1777 89.5078 37.3848C89.5078 37.5605 89.5449 37.7422 89.6191 37.9297C89.6973 38.1172 89.8008 38.3125 89.9297 38.5156C90.0586 38.7188 90.2051 38.9336 90.3691 39.1602L93.7266 44H92.4902L89.7773 40.0391C89.5312 39.6953 89.3086 39.3809 89.1094 39.0957C88.9141 38.8066 88.7578 38.5273 88.6406 38.2578C88.5273 37.9883 88.4707 37.709 88.4707 37.4199C88.4707 36.9746 88.5469 36.5996 88.6992 36.2949C88.8555 35.9863 89.0723 35.752 89.3496 35.5918C89.627 35.4316 89.9512 35.3516 90.3223 35.3516C90.6855 35.3516 90.998 35.4355 91.2598 35.6035C91.5254 35.7676 91.7305 35.9863 91.875 36.2598C92.0195 36.5293 92.0918 36.8262 92.0918 37.1504C92.0918 37.4238 92.0527 37.6699 91.9746 37.8887C91.8965 38.1035 91.7832 38.3008 91.6348 38.4805C91.4902 38.6602 91.3164 38.8359 91.1133 39.0078L89.6484 40.2676C89.4297 40.4746 89.2695 40.6719 89.168 40.8594C89.0703 41.0469 89.0078 41.2129 88.9805 41.3574C88.957 41.502 88.9453 41.6172 88.9453 41.7031C88.9453 41.9805 88.9922 42.2344 89.0859 42.4648C89.1836 42.6953 89.3301 42.8809 89.5254 43.0215C89.7207 43.1582 89.9668 43.2266 90.2637 43.2266C90.5254 43.2266 90.7793 43.1523 91.0254 43.0039C91.2754 42.8516 91.5 42.6367 91.6992 42.3594C91.8984 42.0781 92.0566 41.7441 92.1738 41.3574C92.2949 40.9668 92.3555 40.5352 92.3555 40.0625H93.2812C93.2812 40.4492 93.25 40.8145 93.1875 41.1582C93.125 41.502 93.0254 41.8223 92.8887 42.1191C92.7559 42.4121 92.584 42.6797 92.373 42.9219C92.3457 42.957 92.3223 42.998 92.3027 43.0449C92.2832 43.0918 92.2598 43.1328 92.2324 43.168C91.9863 43.4844 91.6816 43.7227 91.3184 43.8828C90.959 44.0391 90.6074 44.1172 90.2637 44.1172C89.7793 44.1172 89.3613 44.0137 89.0098 43.8066C88.6582 43.5996 88.3867 43.3145 88.1953 42.9512C88.0039 42.5879 87.9082 42.1719 87.9082 41.7031C87.9082 41.3438 87.9746 41.0273 88.1074 40.7539C88.2402 40.4805 88.4238 40.2246 88.6582 39.9863C88.8965 39.748 89.168 39.5078 89.4727 39.2656ZM95.7918 35.4688H96.8348L99.0672 42.4238L101.294 35.4688H102.337L99.4715 44H98.6512L95.7918 35.4688ZM95.452 35.4688H96.366L96.5242 40.6719V44H95.452V35.4688ZM101.757 35.4688H102.671V44H101.598V40.6719L101.757 35.4688ZM111.395 40.6543H109.532V39.7344H111.395C111.746 39.7344 112.03 39.6641 112.245 39.5234C112.463 39.3828 112.621 39.1875 112.719 38.9375C112.821 38.6875 112.871 38.4023 112.871 38.082C112.871 37.7891 112.821 37.5137 112.719 37.2559C112.621 36.998 112.463 36.791 112.245 36.6348C112.03 36.4746 111.746 36.3945 111.395 36.3945H109.754V44H108.676V35.4688H111.395C111.946 35.4688 112.411 35.5801 112.789 35.8027C113.168 36.0254 113.455 36.334 113.651 36.7285C113.85 37.1191 113.95 37.5664 113.95 38.0703C113.95 38.6172 113.85 39.084 113.651 39.4707C113.455 39.8574 113.168 40.1523 112.789 40.3555C112.411 40.5547 111.946 40.6543 111.395 40.6543ZM117.005 35V44H115.974V35H117.005ZM122.451 42.916V39.4766C122.451 39.2266 122.412 39.0254 122.334 38.873C122.26 38.7207 122.146 38.6094 121.994 38.5391C121.846 38.4688 121.658 38.4336 121.432 38.4336C121.213 38.4336 121.023 38.4785 120.863 38.5684C120.707 38.6582 120.586 38.7773 120.5 38.9258C120.418 39.0742 120.377 39.2383 120.377 39.418H119.34C119.34 39.1914 119.389 38.9668 119.486 38.7441C119.588 38.5215 119.732 38.3203 119.92 38.1406C120.107 37.957 120.332 37.8125 120.594 37.707C120.859 37.5977 121.156 37.543 121.484 37.543C121.875 37.543 122.221 37.6074 122.521 37.7363C122.822 37.8613 123.059 38.0664 123.23 38.3516C123.402 38.6367 123.488 39.0156 123.488 39.4883V42.6172C123.488 42.8281 123.504 43.0527 123.535 43.291C123.57 43.5293 123.619 43.7344 123.682 43.9062V44H122.609C122.559 43.875 122.52 43.709 122.492 43.502C122.465 43.291 122.451 43.0957 122.451 42.916ZM122.615 40.1562L122.627 40.918H121.906C121.66 40.918 121.436 40.9453 121.232 41C121.033 41.0547 120.861 41.1348 120.717 41.2402C120.572 41.3418 120.461 41.4688 120.383 41.6211C120.309 41.7734 120.271 41.9473 120.271 42.1426C120.271 42.3965 120.307 42.5996 120.377 42.752C120.447 42.9004 120.553 43.0078 120.693 43.0742C120.834 43.1406 121.012 43.1738 121.227 43.1738C121.488 43.1738 121.719 43.1133 121.918 42.9922C122.117 42.8711 122.271 42.7246 122.381 42.5527C122.494 42.3809 122.547 42.2207 122.539 42.0723L122.768 42.5586C122.752 42.7109 122.701 42.877 122.615 43.0566C122.533 43.2324 122.418 43.4023 122.27 43.5664C122.121 43.7266 121.945 43.8594 121.742 43.9648C121.543 44.0664 121.318 44.1172 121.068 44.1172C120.701 44.1172 120.379 44.0469 120.102 43.9062C119.828 43.7656 119.615 43.5586 119.463 43.2852C119.311 43.0117 119.234 42.6738 119.234 42.2715C119.234 41.9668 119.287 41.6855 119.393 41.4277C119.498 41.1699 119.654 40.9473 119.861 40.7598C120.068 40.5684 120.328 40.4199 120.641 40.3145C120.957 40.209 121.322 40.1562 121.736 40.1562H122.615ZM128.114 37.6602V38.4922H125.155V37.6602H128.114ZM126.122 36.1191H127.159V42.4297C127.159 42.6445 127.184 42.8066 127.235 42.916C127.29 43.0254 127.358 43.0977 127.44 43.1328C127.522 43.168 127.61 43.1855 127.704 43.1855C127.774 43.1855 127.852 43.1777 127.938 43.1621C128.024 43.1426 128.083 43.127 128.114 43.1152L128.108 44C128.038 44.0273 127.944 44.0527 127.827 44.0762C127.71 44.1035 127.561 44.1172 127.382 44.1172C127.159 44.1172 126.952 44.0645 126.761 43.959C126.569 43.8535 126.415 43.6777 126.298 43.4316C126.18 43.1816 126.122 42.8457 126.122 42.4238V36.1191ZM131.545 44H130.507V36.9922C130.507 36.5352 130.58 36.1504 130.724 35.8379C130.873 35.5215 131.082 35.2832 131.351 35.123C131.625 34.959 131.949 34.877 132.324 34.877C132.429 34.877 132.535 34.8848 132.64 34.9004C132.75 34.916 132.853 34.9395 132.951 34.9707L132.904 35.8555C132.841 35.8359 132.765 35.8223 132.675 35.8145C132.589 35.8066 132.507 35.8027 132.429 35.8027C132.242 35.8027 132.082 35.8496 131.949 35.9434C131.816 36.0332 131.714 36.166 131.644 36.3418C131.578 36.5176 131.545 36.7344 131.545 36.9922V44ZM132.623 37.6602V38.4922H129.681V37.6602H132.623ZM134.33 41.1348V40.5312C134.33 40.0391 134.393 39.6074 134.518 39.2363C134.643 38.8613 134.817 38.5488 135.039 38.2988C135.262 38.0488 135.522 37.8613 135.819 37.7363C136.116 37.6074 136.434 37.543 136.774 37.543C137.121 37.543 137.444 37.6074 137.741 37.7363C138.038 37.8613 138.297 38.0488 138.52 38.2988C138.746 38.5488 138.922 38.8613 139.047 39.2363C139.172 39.6074 139.235 40.0391 139.235 40.5312V41.1348C139.235 41.627 139.172 42.0605 139.047 42.4355C138.922 42.8066 138.748 43.1172 138.526 43.3672C138.303 43.6172 138.043 43.8047 137.746 43.9297C137.45 44.0547 137.129 44.1172 136.786 44.1172C136.442 44.1172 136.121 44.0547 135.825 43.9297C135.528 43.8047 135.266 43.6172 135.039 43.3672C134.817 43.1172 134.643 42.8066 134.518 42.4355C134.393 42.0605 134.33 41.627 134.33 41.1348ZM135.368 40.5312V41.1348C135.368 41.4824 135.403 41.7871 135.473 42.0488C135.543 42.3105 135.643 42.5293 135.772 42.7051C135.901 42.8809 136.051 43.0137 136.223 43.1035C136.395 43.1895 136.582 43.2324 136.786 43.2324C137.02 43.2324 137.225 43.1895 137.401 43.1035C137.58 43.0137 137.729 42.8809 137.846 42.7051C137.963 42.5293 138.051 42.3105 138.11 42.0488C138.168 41.7871 138.198 41.4824 138.198 41.1348V40.5312C138.198 40.1836 138.163 39.8809 138.092 39.623C138.022 39.3613 137.922 39.1426 137.793 38.9668C137.664 38.7871 137.512 38.6543 137.336 38.5684C137.164 38.4785 136.977 38.4336 136.774 38.4336C136.575 38.4336 136.389 38.4785 136.217 38.5684C136.045 38.6543 135.895 38.7871 135.766 38.9668C135.641 39.1426 135.543 39.3613 135.473 39.623C135.403 39.8809 135.368 40.1836 135.368 40.5312ZM142.308 38.6562V44H141.271V37.6602H142.273L142.308 38.6562ZM143.884 37.625L143.89 38.6328C143.804 38.6133 143.726 38.6016 143.655 38.5977C143.589 38.5898 143.511 38.5859 143.421 38.5859C143.226 38.5859 143.054 38.625 142.905 38.7031C142.761 38.7812 142.636 38.8906 142.53 39.0312C142.425 39.1719 142.341 39.3398 142.279 39.5352C142.216 39.7266 142.173 39.9375 142.15 40.168L141.88 40.3438C141.88 39.9609 141.909 39.6016 141.968 39.2656C142.03 38.9297 142.126 38.6328 142.255 38.375C142.384 38.1133 142.548 37.9102 142.747 37.7656C142.95 37.6172 143.193 37.543 143.474 37.543C143.536 37.543 143.613 37.5527 143.702 37.5723C143.796 37.5879 143.857 37.6055 143.884 37.625ZM146.664 38.9199V44H145.633V37.6602H146.605L146.664 38.9199ZM146.453 40.5898L145.973 40.5723C145.969 40.1387 146.012 39.7383 146.102 39.3711C146.191 39 146.326 38.6777 146.506 38.4043C146.689 38.1309 146.918 37.9199 147.191 37.7715C147.469 37.6191 147.791 37.543 148.158 37.543C148.4 37.543 148.625 37.5859 148.832 37.6719C149.043 37.7539 149.227 37.8848 149.383 38.0645C149.539 38.2441 149.66 38.4746 149.746 38.7559C149.836 39.0371 149.881 39.377 149.881 39.7754V44H148.844V39.8281C148.844 39.4961 148.799 39.2305 148.709 39.0312C148.623 38.832 148.5 38.6875 148.34 38.5977C148.18 38.5039 147.988 38.457 147.766 38.457C147.512 38.457 147.299 38.5137 147.127 38.627C146.959 38.7402 146.824 38.8965 146.723 39.0957C146.625 39.2949 146.555 39.5234 146.512 39.7812C146.473 40.0352 146.453 40.3047 146.453 40.5898ZM149.869 39.9922L149.178 40.2148C149.174 39.8672 149.217 39.5332 149.307 39.2129C149.396 38.8926 149.529 38.6074 149.705 38.3574C149.885 38.1074 150.107 37.9102 150.373 37.7656C150.639 37.6172 150.947 37.543 151.299 37.543C151.588 37.543 151.844 37.5879 152.066 37.6777C152.289 37.7676 152.477 37.9062 152.629 38.0938C152.785 38.2773 152.902 38.5137 152.98 38.8027C153.059 39.0918 153.098 39.4355 153.098 39.834V44H152.061V39.8223C152.061 39.4668 152.016 39.1914 151.926 38.9961C151.84 38.7969 151.717 38.6582 151.557 38.5801C151.396 38.498 151.205 38.457 150.982 38.457C150.803 38.457 150.643 38.498 150.502 38.5801C150.365 38.6621 150.25 38.7754 150.156 38.9199C150.062 39.0605 149.99 39.2227 149.939 39.4062C149.893 39.5898 149.869 39.7852 149.869 39.9922Z" fill="#ABB4BE"/>
<path d="M158 35C158 32.7909 159.791 31 162 31H187V43C187 45.2091 185.209 47 183 47H162C159.791 47 158 45.2091 158 43V35Z" fill="#2D3748"/>
<path d="M164.42 42.0215L165.779 36.6602H166.834L164.953 43H164.268L164.42 42.0215ZM163.324 36.6602L164.742 42.0508L164.854 43H164.174L162.27 36.6602H163.324ZM172.588 42.1094V43H167.818V42.2207L170.168 39.1094C170.457 38.7266 170.678 38.4023 170.83 38.1367C170.982 37.8672 171.088 37.627 171.146 37.416C171.205 37.2012 171.234 36.9824 171.234 36.7598C171.234 36.4785 171.189 36.2246 171.1 35.998C171.01 35.7676 170.879 35.584 170.707 35.4473C170.535 35.3105 170.328 35.2422 170.086 35.2422C169.77 35.2422 169.51 35.3164 169.307 35.4648C169.107 35.6094 168.961 35.8125 168.867 36.0742C168.773 36.3359 168.727 36.6367 168.727 36.9766H167.689C167.689 36.4961 167.777 36.0566 167.953 35.6582C168.133 35.2598 168.4 34.9434 168.756 34.709C169.111 34.4707 169.555 34.3516 170.086 34.3516C170.543 34.3516 170.934 34.4473 171.258 34.6387C171.586 34.8262 171.836 35.0918 172.008 35.4355C172.184 35.7754 172.271 36.1738 172.271 36.6309C172.271 36.8809 172.236 37.1348 172.166 37.3926C172.1 37.6465 172.006 37.9004 171.885 38.1543C171.768 38.4082 171.629 38.6582 171.469 38.9043C171.309 39.1504 171.137 39.3926 170.953 39.6309L169.061 42.1094H172.588ZM173.906 42.4258C173.906 42.2422 173.963 42.0879 174.076 41.9629C174.193 41.834 174.361 41.7695 174.58 41.7695C174.799 41.7695 174.965 41.834 175.078 41.9629C175.195 42.0879 175.254 42.2422 175.254 42.4258C175.254 42.6055 175.195 42.7578 175.078 42.8828C174.965 43.0078 174.799 43.0703 174.58 43.0703C174.361 43.0703 174.193 43.0078 174.076 42.8828C173.963 42.7578 173.906 42.6055 173.906 42.4258ZM181.471 38.0547V39.3555C181.471 40.0547 181.416 40.6445 181.307 41.125C181.201 41.6055 181.049 41.9922 180.85 42.2852C180.65 42.5781 180.41 42.791 180.129 42.9238C179.852 43.0527 179.539 43.1172 179.191 43.1172C178.918 43.1172 178.662 43.0762 178.424 42.9941C178.189 42.9121 177.979 42.7812 177.791 42.6016C177.604 42.418 177.443 42.1797 177.311 41.8867C177.178 41.5938 177.076 41.2383 177.006 40.8203C176.936 40.4023 176.9 39.9141 176.9 39.3555V38.0547C176.9 37.3555 176.955 36.7695 177.064 36.2969C177.174 35.8242 177.328 35.4453 177.527 35.1602C177.73 34.8711 177.971 34.6641 178.248 34.5391C178.529 34.4141 178.842 34.3516 179.186 34.3516C179.463 34.3516 179.719 34.3926 179.953 34.4746C180.191 34.5527 180.402 34.6797 180.586 34.8555C180.773 35.0273 180.934 35.2578 181.066 35.5469C181.199 35.832 181.299 36.1816 181.365 36.5957C181.436 37.0098 181.471 37.4961 181.471 38.0547ZM180.439 39.5312V37.873C180.439 37.4902 180.422 37.1543 180.387 36.8652C180.352 36.5723 180.301 36.3223 180.234 36.1152C180.168 35.9082 180.082 35.7402 179.977 35.6113C179.875 35.4824 179.758 35.3887 179.625 35.3301C179.492 35.2676 179.346 35.2363 179.186 35.2363C178.986 35.2363 178.809 35.2852 178.652 35.3828C178.5 35.4766 178.369 35.627 178.26 35.834C178.154 36.041 178.074 36.3125 178.02 36.6484C177.965 36.9844 177.938 37.3926 177.938 37.873V39.5312C177.938 39.9141 177.955 40.252 177.99 40.5449C178.029 40.8379 178.082 41.0918 178.148 41.3066C178.219 41.5176 178.305 41.6914 178.406 41.8281C178.508 41.9648 178.625 42.0664 178.758 42.1328C178.891 42.1953 179.035 42.2266 179.191 42.2266C179.398 42.2266 179.578 42.1758 179.73 42.0742C179.887 41.9727 180.018 41.8145 180.123 41.5996C180.229 41.3809 180.307 41.1016 180.357 40.7617C180.412 40.418 180.439 40.0078 180.439 39.5312Z" fill="white"/>
</svg>
