<svg width="200" height="61" viewBox="0 0 200 61" fill="none" xmlns="http://www.w3.org/2000/svg">
<path d="M12 16.4816C12.0037 16.4816 12.0073 16.4809 12.0107 16.4795L18.4778 12.743C18.4792 12.7401 18.4799 12.737 18.4799 12.7338C18.4799 12.7307 18.4792 12.7276 18.4778 12.7247V5.25781C18.4794 5.25503 18.4803 5.25188 18.4803 5.24868C18.4803 5.24547 18.4794 5.24232 18.4778 5.23954L12.0107 1.5H11.9894L5.52221 5.23954C5.52023 5.24218 5.51916 5.24538 5.51916 5.24868C5.51916 5.25197 5.52023 5.25518 5.52221 5.25781V12.7247C5.5206 12.7275 5.51976 12.7306 5.51976 12.7338C5.51976 12.7371 5.5206 12.7402 5.52221 12.743L11.9894 16.4795C11.9927 16.4809 11.9964 16.4816 12 16.4816Z" fill="#00A971"/>
<path d="M1.5 18.2976H22.5V22.5H1.5V18.2976Z" fill="#00A971"/>
<path d="M40.838 3.204C40.37 5.85 39.56 7.884 38.426 9.306L39.686 10.368C40.28 9.648 40.802 8.73 41.27 7.65H42.17C41.504 10.908 40.28 13.284 38.516 14.796L39.614 16.074C41.594 14.31 42.944 11.502 43.682 7.65H44.726C44.402 10.242 43.898 12.312 43.25 13.878C42.494 15.534 41.396 17.028 39.92 18.36L40.982 19.71C42.602 18.198 43.844 16.506 44.672 14.598C45.356 12.888 45.878 10.566 46.274 7.65H47.084C47.048 12.78 46.976 15.786 46.868 16.686C46.724 17.73 46.148 18.252 45.158 18.252C44.726 18.252 44.24 18.216 43.664 18.162L44.06 19.692C44.708 19.728 45.158 19.764 45.41 19.764C47.228 19.764 48.236 18.99 48.452 17.442C48.632 16.002 48.722 12.186 48.722 5.994H41.864C42.08 5.274 42.278 4.482 42.458 3.618L40.838 3.204ZM34.646 8.514H35.798V12.978C34.826 13.32 33.818 13.59 32.81 13.806L33.206 15.462C34.088 15.192 34.952 14.904 35.798 14.58V19.854H37.454V13.914C37.868 13.734 38.282 13.536 38.696 13.338V11.718C38.3 11.916 37.886 12.114 37.454 12.312V8.514H38.768V6.858H37.454V3.258H35.798V6.858H34.862C34.934 6.156 34.988 5.436 35.024 4.716L33.512 4.608C33.44 6.696 33.134 8.694 32.594 10.602L34.088 11.016C34.304 10.206 34.502 9.378 34.646 8.514ZM58.226 7.02V8.64H61.61V9.342C61.592 10.026 61.556 10.692 61.502 11.34H57.956V12.978H61.25C60.674 15.57 59.468 17.424 57.596 18.576L58.622 19.944C60.53 18.684 61.862 16.794 62.6 14.238C63.176 16.092 64.382 17.964 66.218 19.872L67.388 18.594C65.336 16.686 64.076 14.814 63.608 12.978H67.1V11.34H63.14C63.212 10.584 63.248 9.792 63.248 8.964V8.64H66.794V7.02H64.4C64.922 6.138 65.444 5.076 65.948 3.852L64.364 3.258C63.896 4.59 63.338 5.85 62.69 7.02H58.226ZM60.242 3.33L58.928 4.158C59.612 5.202 60.17 6.138 60.566 6.984L61.826 6.102C61.466 5.31 60.926 4.374 60.242 3.33ZM50.774 3.852V5.436H51.728V16.092L50.702 16.254L51.116 17.874C52.592 17.586 54.014 17.28 55.382 16.92V19.89H57.02V16.488L58.082 16.164V14.508C57.722 14.616 57.38 14.742 57.02 14.85V5.436H58.046V3.852H50.774ZM53.366 15.786V12.996H55.382V15.318C54.734 15.48 54.05 15.642 53.366 15.786ZM53.366 11.448V9.252H55.382V11.448H53.366ZM53.366 7.704V5.436H55.382V7.704H53.366ZM76.298 15.696L77.432 14.58C76.748 13.536 76.1 12.582 75.488 11.718C75.92 10.224 76.262 8.568 76.532 6.768L74.966 6.498C74.786 7.776 74.552 8.982 74.282 10.116C73.598 9.252 72.986 8.514 72.41 7.902L71.366 8.928C72.194 9.9 72.986 10.89 73.742 11.934C73.166 13.644 72.464 15.138 71.618 16.416L72.716 17.748C73.544 16.56 74.264 15.156 74.876 13.536C75.362 14.22 75.83 14.94 76.298 15.696ZM81.482 16.56L82.634 15.426C81.914 14.238 81.23 13.158 80.582 12.168C81.086 10.566 81.5 8.784 81.824 6.822L80.24 6.552C80.024 7.92 79.754 9.234 79.43 10.458C78.782 9.54 78.17 8.766 77.594 8.118L76.532 9.126C77.324 10.134 78.098 11.196 78.854 12.312C78.224 14.04 77.45 15.552 76.514 16.866L77.594 18.18C78.494 16.992 79.268 15.588 79.934 13.968C80.456 14.796 80.978 15.66 81.482 16.56ZM82.544 19.746C83.732 19.746 84.344 19.134 84.344 17.91V3.87H69.656V19.854H71.348V5.508H82.652V17.532C82.652 17.946 82.418 18.162 81.986 18.162L80.294 18.09L80.744 19.746H82.544ZM88.43 3.384L87.242 4.518C88.538 5.562 89.546 6.516 90.248 7.416L91.49 6.21C90.644 5.274 89.618 4.338 88.43 3.384ZM98.744 19.548H102.884L103.316 17.856C102.812 17.892 102.11 17.928 101.21 17.946C100.292 17.964 99.392 17.982 98.51 17.982C97.142 17.982 95.954 17.964 94.946 17.946C93.902 17.91 93.11 17.748 92.588 17.496C92.156 17.262 91.724 16.902 91.31 16.416C91.22 16.308 91.148 16.236 91.076 16.164V9.342H87.044V10.926H89.474V16.02C88.754 16.38 87.926 17.298 87.026 18.756L88.286 19.926C89.204 18.306 89.852 17.496 90.23 17.496C90.446 17.496 90.662 17.64 90.896 17.946C91.436 18.558 92.048 18.99 92.768 19.206C93.506 19.386 94.442 19.494 95.594 19.512C96.728 19.53 97.772 19.548 98.744 19.548ZM93.326 4.122V5.706H101.75V4.122H93.326ZM92.192 8.19V9.81H95.81C94.46 13.068 93.416 14.814 92.696 15.03L93.128 16.506C96.26 16.182 98.816 15.786 100.76 15.3C100.94 15.804 101.12 16.308 101.3 16.848L102.83 16.452C102.092 14.328 101.246 12.456 100.31 10.818L98.924 11.268C99.356 12.078 99.77 12.924 100.166 13.824C98.78 14.184 97.088 14.472 95.072 14.724C95.846 13.59 96.656 11.952 97.52 9.81H103.064V8.19H92.192ZM111.092 16.002C109.31 16.65 107.222 17.172 104.828 17.55L105.044 19.26C107.312 18.846 109.328 18.306 111.092 17.64V16.002ZM107.582 3.15C106.988 5.13 106.304 6.93 105.53 8.55C105.314 8.856 105.08 9.072 104.81 9.18L105.242 10.746C106.124 10.602 106.97 10.476 107.78 10.35C107.024 11.826 106.376 12.852 105.872 13.464C105.656 13.662 105.404 13.824 105.098 13.95L105.548 15.498C107.168 15.228 108.896 14.724 110.696 13.986V12.42C109.616 12.888 108.572 13.266 107.546 13.554C108.482 12.222 109.616 10.116 110.984 7.254L109.49 6.696C109.148 7.434 108.824 8.136 108.536 8.784C107.96 8.892 107.384 8.964 106.808 9.036C107.636 7.686 108.428 5.94 109.22 3.798L107.582 3.15ZM113.864 11.412H116.672V13.428H113.864V11.412ZM113.864 14.994H116.672V17.298H113.864V14.994ZM113.864 18.882H121.352V17.298H118.31V14.994H120.686V13.428H118.31V11.412H120.686V9.846H118.31V7.794H120.992V6.174H118.4C118.184 5.274 117.86 4.284 117.464 3.186L115.808 3.636C116.168 4.446 116.492 5.292 116.78 6.174H113.99C114.314 5.346 114.584 4.5 114.8 3.618L113.18 3.294C112.622 5.724 111.668 7.974 110.318 10.026L110.84 11.754C111.344 11.106 111.794 10.44 112.226 9.756V19.818H113.864V18.882ZM116.672 7.794V9.846H113.864V7.794H116.672ZM136.256 10.314H125.78V19.836H127.49V19.206H135.392V19.854H137.102V15.048H127.49V14.094H136.256V10.314ZM127.49 17.694V16.398H135.392V17.694H127.49ZM127.49 12.726V11.682H134.582V12.726H127.49ZM138.74 8.064H131.954C131.81 7.686 131.684 7.326 131.54 7.002L132.404 7.56C132.782 7.056 133.124 6.498 133.43 5.904H134.348C134.744 6.462 135.086 7.038 135.374 7.614L136.886 7.056C136.688 6.696 136.454 6.3 136.166 5.904H139.1V4.41H134.096C134.204 4.122 134.294 3.834 134.402 3.528L132.764 3.168C132.404 4.41 131.792 5.562 130.964 6.642L131.27 6.84L129.758 7.092C129.92 7.38 130.082 7.704 130.226 8.064H123.26V11.502H124.934V9.504H137.066V11.502H138.74V8.064ZM125.69 5.904H126.482C126.878 6.516 127.22 7.146 127.526 7.794L129.092 7.2C128.876 6.786 128.588 6.354 128.264 5.904H130.964V4.41H126.428C126.536 4.122 126.662 3.816 126.77 3.51L125.132 3.15C124.682 4.446 123.944 5.67 122.9 6.786L124.394 7.722C124.862 7.164 125.294 6.552 125.69 5.904ZM147.326 3.852V12.456H151.052V14.256H147.11V15.84H151.052V17.712H146.408V19.35H157.298V17.712H152.744V15.84H156.668V14.256H152.744V12.456H156.434V3.852H147.326ZM154.796 10.944H152.744V8.892H154.796V10.944ZM151.052 10.944H148.964V8.892H151.052V10.944ZM148.964 7.416V5.364H151.052V7.416H148.964ZM152.744 5.364H154.796V7.416H152.744V5.364ZM141.116 9.774V11.412H142.898V15.534C142.178 15.714 141.44 15.876 140.684 16.002L141.098 17.64C142.988 17.19 144.752 16.632 146.408 15.984V14.328C145.832 14.58 145.238 14.796 144.626 15.012V11.412H146.444V9.774H144.626V5.922H146.66V4.302H140.846V5.922H142.898V9.774H141.116ZM159.692 3.924V5.598H166.064V11.97H158.972V13.608H166.064V19.836H167.792V13.608H175.028V11.97H167.792V5.598H174.344V3.924H159.692ZM162.212 6.444L160.61 7.218C161.276 8.406 161.906 9.756 162.5 11.268L164.102 10.476C163.49 9 162.86 7.668 162.212 6.444ZM171.932 6.372C171.428 7.686 170.762 9.018 169.916 10.386L171.464 11.178C172.292 9.846 172.976 8.496 173.498 7.11L171.932 6.372ZM191.156 12.222H178.844V19.872H180.572V19.134H189.428V19.872H191.156V12.222ZM180.572 17.496V13.86H189.428V17.496H180.572ZM177.674 10.548C182.282 10.368 186.476 10.116 190.238 9.792C190.652 10.458 191.066 11.16 191.498 11.916L193.172 11.088C191.858 8.91 190.472 6.93 189.014 5.13L187.466 5.868C188.06 6.624 188.654 7.416 189.23 8.28C186.368 8.55 183.416 8.748 180.356 8.856C181.868 7.488 183.344 5.796 184.802 3.78L183.02 3.168C180.608 6.696 178.718 8.622 177.35 8.928L177.674 10.548Z" fill="white"/>
<path opacity="0.8" d="M4.64648 43.0215L6.53906 44.7383L5.80664 45.4414L3.95508 43.748L4.64648 43.0215ZM6.42188 38.9961V40.4727C6.42188 41.0781 6.35547 41.6094 6.22266 42.0664C6.09375 42.5195 5.9043 42.8984 5.6543 43.2031C5.4043 43.5078 5.10156 43.7363 4.74609 43.8887C4.39453 44.041 3.99805 44.1172 3.55664 44.1172C3.13086 44.1172 2.74219 44.041 2.39062 43.8887C2.03906 43.7363 1.73633 43.5078 1.48242 43.2031C1.22852 42.8984 1.03125 42.5195 0.890625 42.0664C0.753906 41.6094 0.685547 41.0781 0.685547 40.4727V38.9961C0.685547 38.3906 0.753906 37.8613 0.890625 37.4082C1.02734 36.9551 1.22266 36.5762 1.47656 36.2715C1.73047 35.9629 2.0332 35.7324 2.38477 35.5801C2.73633 35.4277 3.125 35.3516 3.55078 35.3516C3.99219 35.3516 4.38867 35.4277 4.74023 35.5801C5.0957 35.7324 5.39844 35.9629 5.64844 36.2715C5.89844 36.5762 6.08984 36.9551 6.22266 37.4082C6.35547 37.8613 6.42188 38.3906 6.42188 38.9961ZM5.35547 40.4727V38.9844C5.35547 38.5156 5.31641 38.1133 5.23828 37.7773C5.16016 37.4375 5.04297 37.1602 4.88672 36.9453C4.73438 36.7305 4.54688 36.5723 4.32422 36.4707C4.10156 36.3652 3.84375 36.3125 3.55078 36.3125C3.27734 36.3125 3.0293 36.3652 2.80664 36.4707C2.58789 36.5723 2.40039 36.7305 2.24414 36.9453C2.08789 37.1602 1.9668 37.4375 1.88086 37.7773C1.79883 38.1133 1.75781 38.5156 1.75781 38.9844V40.4727C1.75781 40.9453 1.79883 41.3516 1.88086 41.6914C1.9668 42.0312 2.08789 42.3105 2.24414 42.5293C2.4043 42.7441 2.59375 42.9043 2.8125 43.0098C3.03516 43.1113 3.2832 43.1621 3.55664 43.1621C3.84961 43.1621 4.10742 43.1113 4.33008 43.0098C4.55664 42.9043 4.74609 42.7441 4.89844 42.5293C5.05078 42.3105 5.16406 42.0312 5.23828 41.6914C5.31641 41.3516 5.35547 40.9453 5.35547 40.4727ZM9.81133 37.6602V44H8.78008V37.6602H9.81133ZM8.72148 35.9785C8.72148 35.8027 8.77031 35.6543 8.86797 35.5332C8.96562 35.4121 9.11211 35.3516 9.30742 35.3516C9.50273 35.3516 9.64922 35.4121 9.74687 35.5332C9.84844 35.6543 9.89922 35.8027 9.89922 35.9785C9.89922 36.1465 9.84844 36.291 9.74687 36.4121C9.64922 36.5293 9.50273 36.5879 9.30742 36.5879C9.11211 36.5879 8.96562 36.5293 8.86797 36.4121C8.77031 36.291 8.72148 36.1465 8.72148 35.9785ZM13.1891 39.0137V44H12.152V37.6602H13.1305L13.1891 39.0137ZM12.9371 40.5898L12.5152 40.5723C12.5113 40.1387 12.5602 39.7383 12.6617 39.3711C12.7672 39 12.9156 38.6777 13.107 38.4043C13.3023 38.1309 13.5348 37.9199 13.8043 37.7715C14.0738 37.6191 14.3727 37.543 14.7008 37.543C14.9586 37.543 15.193 37.5859 15.4039 37.6719C15.6148 37.7539 15.7945 37.8867 15.943 38.0703C16.0914 38.2539 16.2047 38.4922 16.2828 38.7852C16.3648 39.0742 16.4059 39.4277 16.4059 39.8457V44H15.3687V39.834C15.3687 39.502 15.3316 39.2363 15.2574 39.0371C15.1871 38.834 15.0777 38.6875 14.9293 38.5977C14.7848 38.5039 14.6012 38.457 14.3785 38.457C14.1754 38.457 13.9859 38.5137 13.8102 38.627C13.6344 38.7402 13.4801 38.8965 13.3473 39.0957C13.2184 39.2949 13.1168 39.5234 13.0426 39.7812C12.9723 40.0352 12.9371 40.3047 12.9371 40.5898ZM22.098 37.6602H23.0297V44.0527C23.0297 44.6113 22.932 45.0723 22.7367 45.4355C22.5453 45.7988 22.2777 46.0664 21.934 46.2383C21.5902 46.4141 21.1938 46.502 20.7445 46.502C20.5844 46.502 20.3832 46.4727 20.141 46.4141C19.8988 46.3555 19.6566 46.2656 19.4145 46.1445C19.1723 46.0273 18.973 45.8789 18.8168 45.6992L19.2445 44.9785C19.4672 45.2051 19.7035 45.3672 19.9535 45.4648C20.2035 45.5625 20.4418 45.6113 20.6684 45.6113C20.9379 45.6113 21.1723 45.5625 21.3715 45.4648C21.5707 45.3672 21.725 45.207 21.8344 44.9844C21.9438 44.7656 21.9984 44.4727 21.9984 44.1055V39.0547L22.098 37.6602ZM18.4535 41.1348V40.543C18.4535 40.0195 18.5023 39.5703 18.6 39.1953C18.6977 38.8164 18.8383 38.5059 19.0219 38.2637C19.2094 38.0176 19.434 37.8359 19.6957 37.7188C19.9574 37.6016 20.2504 37.543 20.5746 37.543C20.9027 37.543 21.1859 37.6094 21.4242 37.7422C21.6625 37.875 21.8598 38.0684 22.016 38.3223C22.1762 38.5723 22.3012 38.877 22.391 39.2363C22.4848 39.5918 22.5492 39.9941 22.5844 40.4434V41.2344C22.5492 41.6797 22.4848 42.0801 22.391 42.4355C22.3012 42.791 22.1742 43.0938 22.0102 43.3438C21.85 43.5938 21.6508 43.7852 21.4125 43.918C21.1742 44.0508 20.891 44.1172 20.5629 44.1172C20.2426 44.1172 19.9535 44.0566 19.6957 43.9355C19.4379 43.8105 19.2152 43.625 19.0277 43.3789C18.8441 43.1289 18.7016 42.8184 18.6 42.4473C18.5023 42.0723 18.4535 41.6348 18.4535 41.1348ZM19.4906 40.543V41.1348C19.4906 41.4863 19.516 41.793 19.5668 42.0547C19.6176 42.3125 19.6957 42.5273 19.8012 42.6992C19.9105 42.8672 20.0492 42.9922 20.2172 43.0742C20.3891 43.1562 20.5941 43.1973 20.8324 43.1973C21.1215 43.1973 21.3578 43.127 21.5414 42.9863C21.725 42.8457 21.8715 42.6602 21.9809 42.4297C22.0941 42.1953 22.184 41.9434 22.2504 41.6738V40.0098C22.2113 39.8105 22.1547 39.6191 22.0805 39.4355C22.0102 39.248 21.9184 39.082 21.8051 38.9375C21.6918 38.7891 21.5551 38.6719 21.3949 38.5859C21.2387 38.5 21.0551 38.457 20.8441 38.457C20.6059 38.457 20.4008 38.5 20.2289 38.5859C20.057 38.6719 19.9164 38.8008 19.807 38.9727C19.6977 39.1445 19.6176 39.3613 19.5668 39.623C19.516 39.8848 19.4906 40.1914 19.4906 40.543ZM29.6945 41.2871H30.7727C30.7453 41.873 30.6262 42.3789 30.4152 42.8047C30.2082 43.2266 29.9055 43.5508 29.507 43.7773C29.1125 44.0039 28.6184 44.1172 28.0246 44.1172C27.5988 44.1172 27.2141 44.0332 26.8703 43.8652C26.5266 43.6973 26.2316 43.457 25.9855 43.1445C25.7434 42.8281 25.5578 42.4492 25.4289 42.0078C25.3 41.5664 25.2355 41.0703 25.2355 40.5195V38.9434C25.2355 38.3965 25.3 37.9023 25.4289 37.4609C25.5617 37.0195 25.7512 36.6426 25.9973 36.3301C26.2473 36.0137 26.55 35.7715 26.9055 35.6035C27.2648 35.4355 27.6711 35.3516 28.1242 35.3516C28.6789 35.3516 29.1477 35.4629 29.5305 35.6855C29.9172 35.9043 30.2141 36.2266 30.4211 36.6523C30.632 37.0742 30.7492 37.5918 30.7727 38.2051H29.6945C29.6672 37.7559 29.5969 37.3906 29.4836 37.1094C29.3703 36.8242 29.2023 36.6152 28.9797 36.4824C28.7609 36.3457 28.4758 36.2773 28.1242 36.2773C27.8117 36.2773 27.5402 36.3398 27.3098 36.4648C27.0832 36.5898 26.8957 36.7695 26.7473 37.0039C26.6027 37.2344 26.4934 37.5137 26.4191 37.8418C26.3488 38.166 26.3137 38.5293 26.3137 38.9316V40.5195C26.3137 40.8945 26.343 41.2441 26.4016 41.5684C26.4641 41.8926 26.5617 42.1777 26.6945 42.4238C26.8312 42.666 27.009 42.8555 27.2277 42.9922C27.4465 43.1289 27.7121 43.1973 28.0246 43.1973C28.4191 43.1973 28.7316 43.1328 28.9621 43.0039C29.1926 42.875 29.3625 42.6699 29.4719 42.3887C29.5852 42.1074 29.6594 41.7402 29.6945 41.2871ZM33.9043 35V44H32.873V35H33.9043ZM36.0281 41.1348V40.5312C36.0281 40.0391 36.0906 39.6074 36.2156 39.2363C36.3406 38.8613 36.5145 38.5488 36.7371 38.2988C36.9598 38.0488 37.2195 37.8613 37.5164 37.7363C37.8133 37.6074 38.1316 37.543 38.4715 37.543C38.8191 37.543 39.1414 37.6074 39.4383 37.7363C39.7352 37.8613 39.9949 38.0488 40.2176 38.2988C40.4441 38.5488 40.6199 38.8613 40.7449 39.2363C40.8699 39.6074 40.9324 40.0391 40.9324 40.5312V41.1348C40.9324 41.627 40.8699 42.0605 40.7449 42.4355C40.6199 42.8066 40.4461 43.1172 40.2234 43.3672C40.0008 43.6172 39.741 43.8047 39.4441 43.9297C39.1473 44.0547 38.827 44.1172 38.4832 44.1172C38.1395 44.1172 37.8191 44.0547 37.5223 43.9297C37.2254 43.8047 36.9637 43.6172 36.7371 43.3672C36.5145 43.1172 36.3406 42.8066 36.2156 42.4355C36.0906 42.0605 36.0281 41.627 36.0281 41.1348ZM37.0652 40.5312V41.1348C37.0652 41.4824 37.1004 41.7871 37.1707 42.0488C37.241 42.3105 37.3406 42.5293 37.4695 42.7051C37.5984 42.8809 37.7488 43.0137 37.9207 43.1035C38.0926 43.1895 38.2801 43.2324 38.4832 43.2324C38.7176 43.2324 38.9227 43.1895 39.0984 43.1035C39.2781 43.0137 39.4266 42.8809 39.5438 42.7051C39.6609 42.5293 39.7488 42.3105 39.8074 42.0488C39.866 41.7871 39.8953 41.4824 39.8953 41.1348V40.5312C39.8953 40.1836 39.8602 39.8809 39.7898 39.623C39.7195 39.3613 39.6199 39.1426 39.491 38.9668C39.3621 38.7871 39.2098 38.6543 39.034 38.5684C38.8621 38.4785 38.6746 38.4336 38.4715 38.4336C38.2723 38.4336 38.0867 38.4785 37.9148 38.5684C37.743 38.6543 37.5926 38.7871 37.4637 38.9668C37.3387 39.1426 37.241 39.3613 37.1707 39.623C37.1004 39.8809 37.0652 40.1836 37.0652 40.5312ZM46.1734 42.5352V37.6602H47.2105V44H46.2262L46.1734 42.5352ZM46.3668 41.1992L46.777 41.1875C46.777 41.6094 46.7398 42 46.6656 42.3594C46.5953 42.7148 46.4781 43.0234 46.3141 43.2852C46.1539 43.5469 45.941 43.752 45.6754 43.9004C45.4098 44.0449 45.0836 44.1172 44.6969 44.1172C44.4352 44.1172 44.1969 44.0723 43.982 43.9824C43.7711 43.8926 43.5875 43.7539 43.4313 43.5664C43.2789 43.3789 43.1598 43.1348 43.0738 42.834C42.9918 42.5332 42.9508 42.1719 42.9508 41.75V37.6602H43.982V41.7617C43.982 42.0469 44.0074 42.2832 44.0582 42.4707C44.109 42.6543 44.1773 42.8008 44.2633 42.9102C44.3492 43.0156 44.4449 43.0898 44.5504 43.1328C44.6559 43.1758 44.7633 43.1973 44.8727 43.1973C45.2398 43.1973 45.5328 43.1094 45.7516 42.9336C45.9703 42.7539 46.1266 42.5137 46.2203 42.2129C46.318 41.9082 46.3668 41.5703 46.3668 41.1992ZM52.7914 42.7695V35H53.8227V44H52.8793L52.7914 42.7695ZM49.2465 41.1348V40.543C49.2465 40.0195 49.2973 39.5703 49.3988 39.1953C49.5004 38.8164 49.6449 38.5059 49.8324 38.2637C50.0199 38.0176 50.2445 37.8359 50.5062 37.7188C50.768 37.6016 51.057 37.543 51.3734 37.543C51.7016 37.543 51.9828 37.6094 52.2172 37.7422C52.4555 37.875 52.6547 38.0684 52.8148 38.3223C52.975 38.5723 53.1 38.877 53.1898 39.2363C53.2836 39.5918 53.3461 39.9941 53.3773 40.4434V41.2344C53.3422 41.6797 53.2777 42.0801 53.184 42.4355C53.0941 42.791 52.9691 43.0938 52.809 43.3438C52.6488 43.5938 52.4496 43.7852 52.2113 43.918C51.973 44.0508 51.6898 44.1172 51.3617 44.1172C51.0492 44.1172 50.7641 44.0566 50.5062 43.9355C50.2484 43.8105 50.0238 43.625 49.8324 43.3789C49.6449 43.1289 49.5004 42.8184 49.3988 42.4473C49.2973 42.0723 49.2465 41.6348 49.2465 41.1348ZM50.2836 40.543V41.1348C50.2836 41.4863 50.309 41.793 50.3598 42.0547C50.4105 42.3125 50.4906 42.5273 50.6 42.6992C50.7094 42.8672 50.848 42.9922 51.016 43.0742C51.1879 43.1562 51.393 43.1973 51.6312 43.1973C51.9203 43.1973 52.1566 43.127 52.3402 42.9863C52.5238 42.8457 52.6703 42.6602 52.7797 42.4297C52.893 42.1953 52.9828 41.9434 53.0492 41.6738V40.0098C53.0102 39.8105 52.9535 39.6191 52.8793 39.4355C52.8051 39.248 52.7113 39.082 52.598 38.9375C52.4887 38.7891 52.3539 38.6719 52.1937 38.5859C52.0375 38.5 51.8539 38.457 51.643 38.457C51.4047 38.457 51.1977 38.5 51.0219 38.5859C50.85 38.6719 50.7094 38.8008 50.6 38.9727C50.4945 39.1445 50.4145 39.3613 50.3598 39.623C50.309 39.8848 50.2836 40.1914 50.2836 40.543ZM60.8418 35.4688V44H59.7637V35.4688H60.8418ZM63.0594 41.1348V40.5312C63.0594 40.0391 63.1219 39.6074 63.2469 39.2363C63.3719 38.8613 63.5457 38.5488 63.7684 38.2988C63.991 38.0488 64.2508 37.8613 64.5477 37.7363C64.8445 37.6074 65.1629 37.543 65.5027 37.543C65.8504 37.543 66.1727 37.6074 66.4695 37.7363C66.7664 37.8613 67.0262 38.0488 67.2488 38.2988C67.4754 38.5488 67.6512 38.8613 67.7762 39.2363C67.9012 39.6074 67.9637 40.0391 67.9637 40.5312V41.1348C67.9637 41.627 67.9012 42.0605 67.7762 42.4355C67.6512 42.8066 67.4773 43.1172 67.2547 43.3672C67.032 43.6172 66.7723 43.8047 66.4754 43.9297C66.1785 44.0547 65.8582 44.1172 65.5145 44.1172C65.1707 44.1172 64.8504 44.0547 64.5535 43.9297C64.2566 43.8047 63.9949 43.6172 63.7684 43.3672C63.5457 43.1172 63.3719 42.8066 63.2469 42.4355C63.1219 42.0605 63.0594 41.627 63.0594 41.1348ZM64.0965 40.5312V41.1348C64.0965 41.4824 64.1316 41.7871 64.202 42.0488C64.2723 42.3105 64.3719 42.5293 64.5008 42.7051C64.6297 42.8809 64.7801 43.0137 64.952 43.1035C65.1238 43.1895 65.3113 43.2324 65.5145 43.2324C65.7488 43.2324 65.9539 43.1895 66.1297 43.1035C66.3094 43.0137 66.4578 42.8809 66.575 42.7051C66.6922 42.5293 66.7801 42.3105 66.8387 42.0488C66.8973 41.7871 66.9266 41.4824 66.9266 41.1348V40.5312C66.9266 40.1836 66.8914 39.8809 66.8211 39.623C66.7508 39.3613 66.6512 39.1426 66.5223 38.9668C66.3934 38.7871 66.241 38.6543 66.0652 38.5684C65.8934 38.4785 65.7059 38.4336 65.5027 38.4336C65.3035 38.4336 65.118 38.4785 64.9461 38.5684C64.7742 38.6543 64.6238 38.7871 64.4949 38.9668C64.3699 39.1426 64.2723 39.3613 64.202 39.623C64.1316 39.8809 64.0965 40.1836 64.0965 40.5312ZM72.8824 35.4688V44H71.816V35.4688H72.8824ZM75.1266 35.4688V36.3945H69.5777V35.4688H75.1266ZM85.8547 38.9961V40.4785C85.8547 41.0801 85.7883 41.6094 85.6555 42.0664C85.5266 42.5195 85.3371 42.8984 85.0871 43.2031C84.8371 43.5078 84.5363 43.7363 84.1848 43.8887C83.8332 44.041 83.4367 44.1172 82.9953 44.1172C82.5695 44.1172 82.1809 44.041 81.8293 43.8887C81.4777 43.7363 81.175 43.5078 80.9211 43.2031C80.6672 42.8984 80.4699 42.5195 80.3293 42.0664C80.1926 41.6094 80.1242 41.0801 80.1242 40.4785V38.9961C80.1242 38.3945 80.1926 37.8672 80.3293 37.4141C80.466 36.957 80.6613 36.5762 80.9152 36.2715C81.1691 35.9668 81.4719 35.7383 81.8234 35.5859C82.175 35.4297 82.5637 35.3516 82.9895 35.3516C83.4309 35.3516 83.8273 35.4297 84.1789 35.5859C84.5344 35.7383 84.8352 35.9668 85.0813 36.2715C85.3313 36.5762 85.5227 36.957 85.6555 37.4141C85.7883 37.8672 85.8547 38.3945 85.8547 38.9961ZM84.7883 40.4785V38.9844C84.7883 38.5156 84.7492 38.1133 84.6711 37.7773C84.593 37.4375 84.4777 37.1602 84.3254 36.9453C84.173 36.7305 83.9855 36.5723 83.7629 36.4707C83.5402 36.3652 83.2824 36.3125 82.9895 36.3125C82.7121 36.3125 82.4621 36.3652 82.2395 36.4707C82.0207 36.5723 81.8332 36.7305 81.677 36.9453C81.5207 37.1602 81.3996 37.4375 81.3137 37.7773C81.2316 38.1133 81.1906 38.5156 81.1906 38.9844V40.4785C81.1906 40.9512 81.2316 41.3574 81.3137 41.6973C81.3996 42.0332 81.5207 42.3105 81.677 42.5293C81.8371 42.7441 82.0285 42.9043 82.2512 43.0098C82.4738 43.1113 82.7219 43.1621 82.9953 43.1621C83.2883 43.1621 83.5461 43.1113 83.7688 43.0098C83.9953 42.9043 84.1828 42.7441 84.3313 42.5293C84.4836 42.3105 84.5969 42.0332 84.6711 41.6973C84.7492 41.3574 84.7883 40.9512 84.7883 40.4785ZM89.4727 39.2656L90.5215 38.3574C90.7285 38.1895 90.8828 38.0215 90.9844 37.8535C91.0859 37.6816 91.1367 37.4473 91.1367 37.1504C91.1367 36.9199 91.0645 36.7109 90.9199 36.5234C90.7793 36.332 90.5781 36.2363 90.3164 36.2363C90.1406 36.2363 89.9922 36.2891 89.8711 36.3945C89.75 36.5 89.6582 36.6406 89.5957 36.8164C89.5371 36.9883 89.5078 37.1777 89.5078 37.3848C89.5078 37.5605 89.5449 37.7422 89.6191 37.9297C89.6973 38.1172 89.8008 38.3125 89.9297 38.5156C90.0586 38.7188 90.2051 38.9336 90.3691 39.1602L93.7266 44H92.4902L89.7773 40.0391C89.5312 39.6953 89.3086 39.3809 89.1094 39.0957C88.9141 38.8066 88.7578 38.5273 88.6406 38.2578C88.5273 37.9883 88.4707 37.709 88.4707 37.4199C88.4707 36.9746 88.5469 36.5996 88.6992 36.2949C88.8555 35.9863 89.0723 35.752 89.3496 35.5918C89.627 35.4316 89.9512 35.3516 90.3223 35.3516C90.6855 35.3516 90.998 35.4355 91.2598 35.6035C91.5254 35.7676 91.7305 35.9863 91.875 36.2598C92.0195 36.5293 92.0918 36.8262 92.0918 37.1504C92.0918 37.4238 92.0527 37.6699 91.9746 37.8887C91.8965 38.1035 91.7832 38.3008 91.6348 38.4805C91.4902 38.6602 91.3164 38.8359 91.1133 39.0078L89.6484 40.2676C89.4297 40.4746 89.2695 40.6719 89.168 40.8594C89.0703 41.0469 89.0078 41.2129 88.9805 41.3574C88.957 41.502 88.9453 41.6172 88.9453 41.7031C88.9453 41.9805 88.9922 42.2344 89.0859 42.4648C89.1836 42.6953 89.3301 42.8809 89.5254 43.0215C89.7207 43.1582 89.9668 43.2266 90.2637 43.2266C90.5254 43.2266 90.7793 43.1523 91.0254 43.0039C91.2754 42.8516 91.5 42.6367 91.6992 42.3594C91.8984 42.0781 92.0566 41.7441 92.1738 41.3574C92.2949 40.9668 92.3555 40.5352 92.3555 40.0625H93.2812C93.2812 40.4492 93.25 40.8145 93.1875 41.1582C93.125 41.502 93.0254 41.8223 92.8887 42.1191C92.7559 42.4121 92.584 42.6797 92.373 42.9219C92.3457 42.957 92.3223 42.998 92.3027 43.0449C92.2832 43.0918 92.2598 43.1328 92.2324 43.168C91.9863 43.4844 91.6816 43.7227 91.3184 43.8828C90.959 44.0391 90.6074 44.1172 90.2637 44.1172C89.7793 44.1172 89.3613 44.0137 89.0098 43.8066C88.6582 43.5996 88.3867 43.3145 88.1953 42.9512C88.0039 42.5879 87.9082 42.1719 87.9082 41.7031C87.9082 41.3438 87.9746 41.0273 88.1074 40.7539C88.2402 40.4805 88.4238 40.2246 88.6582 39.9863C88.8965 39.748 89.168 39.5078 89.4727 39.2656ZM95.7918 35.4688H96.8348L99.0672 42.4238L101.294 35.4688H102.337L99.4715 44H98.6512L95.7918 35.4688ZM95.452 35.4688H96.366L96.5242 40.6719V44H95.452V35.4688ZM101.757 35.4688H102.671V44H101.598V40.6719L101.757 35.4688ZM111.395 40.6543H109.532V39.7344H111.395C111.746 39.7344 112.03 39.6641 112.245 39.5234C112.463 39.3828 112.621 39.1875 112.719 38.9375C112.821 38.6875 112.871 38.4023 112.871 38.082C112.871 37.7891 112.821 37.5137 112.719 37.2559C112.621 36.998 112.463 36.791 112.245 36.6348C112.03 36.4746 111.746 36.3945 111.395 36.3945H109.754V44H108.676V35.4688H111.395C111.946 35.4688 112.411 35.5801 112.789 35.8027C113.168 36.0254 113.455 36.334 113.651 36.7285C113.85 37.1191 113.95 37.5664 113.95 38.0703C113.95 38.6172 113.85 39.084 113.651 39.4707C113.455 39.8574 113.168 40.1523 112.789 40.3555C112.411 40.5547 111.946 40.6543 111.395 40.6543ZM117.005 35V44H115.974V35H117.005ZM122.451 42.916V39.4766C122.451 39.2266 122.412 39.0254 122.334 38.873C122.26 38.7207 122.146 38.6094 121.994 38.5391C121.846 38.4688 121.658 38.4336 121.432 38.4336C121.213 38.4336 121.023 38.4785 120.863 38.5684C120.707 38.6582 120.586 38.7773 120.5 38.9258C120.418 39.0742 120.377 39.2383 120.377 39.418H119.34C119.34 39.1914 119.389 38.9668 119.486 38.7441C119.588 38.5215 119.732 38.3203 119.92 38.1406C120.107 37.957 120.332 37.8125 120.594 37.707C120.859 37.5977 121.156 37.543 121.484 37.543C121.875 37.543 122.221 37.6074 122.521 37.7363C122.822 37.8613 123.059 38.0664 123.23 38.3516C123.402 38.6367 123.488 39.0156 123.488 39.4883V42.6172C123.488 42.8281 123.504 43.0527 123.535 43.291C123.57 43.5293 123.619 43.7344 123.682 43.9062V44H122.609C122.559 43.875 122.52 43.709 122.492 43.502C122.465 43.291 122.451 43.0957 122.451 42.916ZM122.615 40.1562L122.627 40.918H121.906C121.66 40.918 121.436 40.9453 121.232 41C121.033 41.0547 120.861 41.1348 120.717 41.2402C120.572 41.3418 120.461 41.4688 120.383 41.6211C120.309 41.7734 120.271 41.9473 120.271 42.1426C120.271 42.3965 120.307 42.5996 120.377 42.752C120.447 42.9004 120.553 43.0078 120.693 43.0742C120.834 43.1406 121.012 43.1738 121.227 43.1738C121.488 43.1738 121.719 43.1133 121.918 42.9922C122.117 42.8711 122.271 42.7246 122.381 42.5527C122.494 42.3809 122.547 42.2207 122.539 42.0723L122.768 42.5586C122.752 42.7109 122.701 42.877 122.615 43.0566C122.533 43.2324 122.418 43.4023 122.27 43.5664C122.121 43.7266 121.945 43.8594 121.742 43.9648C121.543 44.0664 121.318 44.1172 121.068 44.1172C120.701 44.1172 120.379 44.0469 120.102 43.9062C119.828 43.7656 119.615 43.5586 119.463 43.2852C119.311 43.0117 119.234 42.6738 119.234 42.2715C119.234 41.9668 119.287 41.6855 119.393 41.4277C119.498 41.1699 119.654 40.9473 119.861 40.7598C120.068 40.5684 120.328 40.4199 120.641 40.3145C120.957 40.209 121.322 40.1562 121.736 40.1562H122.615ZM128.114 37.6602V38.4922H125.155V37.6602H128.114ZM126.122 36.1191H127.159V42.4297C127.159 42.6445 127.184 42.8066 127.235 42.916C127.29 43.0254 127.358 43.0977 127.44 43.1328C127.522 43.168 127.61 43.1855 127.704 43.1855C127.774 43.1855 127.852 43.1777 127.938 43.1621C128.024 43.1426 128.083 43.127 128.114 43.1152L128.108 44C128.038 44.0273 127.944 44.0527 127.827 44.0762C127.71 44.1035 127.561 44.1172 127.382 44.1172C127.159 44.1172 126.952 44.0645 126.761 43.959C126.569 43.8535 126.415 43.6777 126.298 43.4316C126.18 43.1816 126.122 42.8457 126.122 42.4238V36.1191ZM131.545 44H130.507V36.9922C130.507 36.5352 130.58 36.1504 130.724 35.8379C130.873 35.5215 131.082 35.2832 131.351 35.123C131.625 34.959 131.949 34.877 132.324 34.877C132.429 34.877 132.535 34.8848 132.64 34.9004C132.75 34.916 132.853 34.9395 132.951 34.9707L132.904 35.8555C132.841 35.8359 132.765 35.8223 132.675 35.8145C132.589 35.8066 132.507 35.8027 132.429 35.8027C132.242 35.8027 132.082 35.8496 131.949 35.9434C131.816 36.0332 131.714 36.166 131.644 36.3418C131.578 36.5176 131.545 36.7344 131.545 36.9922V44ZM132.623 37.6602V38.4922H129.681V37.6602H132.623ZM134.33 41.1348V40.5312C134.33 40.0391 134.393 39.6074 134.518 39.2363C134.643 38.8613 134.817 38.5488 135.039 38.2988C135.262 38.0488 135.522 37.8613 135.819 37.7363C136.116 37.6074 136.434 37.543 136.774 37.543C137.121 37.543 137.444 37.6074 137.741 37.7363C138.038 37.8613 138.297 38.0488 138.52 38.2988C138.746 38.5488 138.922 38.8613 139.047 39.2363C139.172 39.6074 139.235 40.0391 139.235 40.5312V41.1348C139.235 41.627 139.172 42.0605 139.047 42.4355C138.922 42.8066 138.748 43.1172 138.526 43.3672C138.303 43.6172 138.043 43.8047 137.746 43.9297C137.45 44.0547 137.129 44.1172 136.786 44.1172C136.442 44.1172 136.121 44.0547 135.825 43.9297C135.528 43.8047 135.266 43.6172 135.039 43.3672C134.817 43.1172 134.643 42.8066 134.518 42.4355C134.393 42.0605 134.33 41.627 134.33 41.1348ZM135.368 40.5312V41.1348C135.368 41.4824 135.403 41.7871 135.473 42.0488C135.543 42.3105 135.643 42.5293 135.772 42.7051C135.901 42.8809 136.051 43.0137 136.223 43.1035C136.395 43.1895 136.582 43.2324 136.786 43.2324C137.02 43.2324 137.225 43.1895 137.401 43.1035C137.58 43.0137 137.729 42.8809 137.846 42.7051C137.963 42.5293 138.051 42.3105 138.11 42.0488C138.168 41.7871 138.198 41.4824 138.198 41.1348V40.5312C138.198 40.1836 138.163 39.8809 138.092 39.623C138.022 39.3613 137.922 39.1426 137.793 38.9668C137.664 38.7871 137.512 38.6543 137.336 38.5684C137.164 38.4785 136.977 38.4336 136.774 38.4336C136.575 38.4336 136.389 38.4785 136.217 38.5684C136.045 38.6543 135.895 38.7871 135.766 38.9668C135.641 39.1426 135.543 39.3613 135.473 39.623C135.403 39.8809 135.368 40.1836 135.368 40.5312ZM142.308 38.6562V44H141.271V37.6602H142.273L142.308 38.6562ZM143.884 37.625L143.89 38.6328C143.804 38.6133 143.726 38.6016 143.655 38.5977C143.589 38.5898 143.511 38.5859 143.421 38.5859C143.226 38.5859 143.054 38.625 142.905 38.7031C142.761 38.7812 142.636 38.8906 142.53 39.0312C142.425 39.1719 142.341 39.3398 142.279 39.5352C142.216 39.7266 142.173 39.9375 142.15 40.168L141.88 40.3438C141.88 39.9609 141.909 39.6016 141.968 39.2656C142.03 38.9297 142.126 38.6328 142.255 38.375C142.384 38.1133 142.548 37.9102 142.747 37.7656C142.95 37.6172 143.193 37.543 143.474 37.543C143.536 37.543 143.613 37.5527 143.702 37.5723C143.796 37.5879 143.857 37.6055 143.884 37.625ZM146.664 38.9199V44H145.633V37.6602H146.605L146.664 38.9199ZM146.453 40.5898L145.973 40.5723C145.969 40.1387 146.012 39.7383 146.102 39.3711C146.191 39 146.326 38.6777 146.506 38.4043C146.689 38.1309 146.918 37.9199 147.191 37.7715C147.469 37.6191 147.791 37.543 148.158 37.543C148.4 37.543 148.625 37.5859 148.832 37.6719C149.043 37.7539 149.227 37.8848 149.383 38.0645C149.539 38.2441 149.66 38.4746 149.746 38.7559C149.836 39.0371 149.881 39.377 149.881 39.7754V44H148.844V39.8281C148.844 39.4961 148.799 39.2305 148.709 39.0312C148.623 38.832 148.5 38.6875 148.34 38.5977C148.18 38.5039 147.988 38.457 147.766 38.457C147.512 38.457 147.299 38.5137 147.127 38.627C146.959 38.7402 146.824 38.8965 146.723 39.0957C146.625 39.2949 146.555 39.5234 146.512 39.7812C146.473 40.0352 146.453 40.3047 146.453 40.5898ZM149.869 39.9922L149.178 40.2148C149.174 39.8672 149.217 39.5332 149.307 39.2129C149.396 38.8926 149.529 38.6074 149.705 38.3574C149.885 38.1074 150.107 37.9102 150.373 37.7656C150.639 37.6172 150.947 37.543 151.299 37.543C151.588 37.543 151.844 37.5879 152.066 37.6777C152.289 37.7676 152.477 37.9062 152.629 38.0938C152.785 38.2773 152.902 38.5137 152.98 38.8027C153.059 39.0918 153.098 39.4355 153.098 39.834V44H152.061V39.8223C152.061 39.4668 152.016 39.1914 151.926 38.9961C151.84 38.7969 151.717 38.6582 151.557 38.5801C151.396 38.498 151.205 38.457 150.982 38.457C150.803 38.457 150.643 38.498 150.502 38.5801C150.365 38.6621 150.25 38.7754 150.156 38.9199C150.062 39.0605 149.99 39.2227 149.939 39.4062C149.893 39.5898 149.869 39.7852 149.869 39.9922Z" fill="#ABB4BE"/>
<rect width="200" height="1" transform="matrix(1 0 0 -1 0 61)" fill="url(#paint0_linear_7641_99051)"/>
<defs>
<linearGradient id="paint0_linear_7641_99051" x1="200" y1="0" x2="0" y2="0" gradientUnits="userSpaceOnUse">
<stop stop-color="#404E68" stop-opacity="0"/>
<stop offset="0.510417" stop-color="#404E68"/>
<stop offset="1" stop-color="#404E68" stop-opacity="0"/>
</linearGradient>
</defs>
</svg>
