<svg width="127" height="40" viewBox="0 0 127 40" fill="none" xmlns="http://www.w3.org/2000/svg">
<path d="M59.8955 22.8506H61.6045C61.5498 23.5023 61.3675 24.0833 61.0576 24.5938C60.7477 25.0996 60.3125 25.4984 59.752 25.79C59.1914 26.0817 58.5101 26.2275 57.708 26.2275C57.0928 26.2275 56.5391 26.1182 56.0469 25.8994C55.5547 25.6761 55.1331 25.3617 54.7822 24.9561C54.4313 24.5459 54.1624 24.0514 53.9756 23.4727C53.7933 22.8939 53.7021 22.2467 53.7021 21.5312V20.7041C53.7021 19.9886 53.7956 19.3415 53.9824 18.7627C54.1738 18.1839 54.4473 17.6895 54.8027 17.2793C55.1582 16.8646 55.5843 16.5479 56.0811 16.3291C56.5824 16.1104 57.1452 16.001 57.7695 16.001C58.5625 16.001 59.2324 16.1468 59.7793 16.4385C60.3262 16.7301 60.75 17.1335 61.0508 17.6484C61.3561 18.1634 61.543 18.7536 61.6113 19.4189H59.9023C59.8568 18.9906 59.7565 18.6237 59.6016 18.3184C59.4512 18.013 59.2279 17.7806 58.9316 17.6211C58.6354 17.457 58.248 17.375 57.7695 17.375C57.3776 17.375 57.0358 17.4479 56.7441 17.5938C56.4525 17.7396 56.2087 17.9538 56.0127 18.2363C55.8167 18.5189 55.6686 18.8675 55.5684 19.2822C55.4727 19.6924 55.4248 20.1618 55.4248 20.6904V21.5312C55.4248 22.0326 55.4681 22.4883 55.5547 22.8984C55.6458 23.304 55.7826 23.6527 55.9648 23.9443C56.1517 24.236 56.3887 24.4616 56.6758 24.6211C56.9629 24.7806 57.307 24.8604 57.708 24.8604C58.1956 24.8604 58.5898 24.7829 58.8906 24.6279C59.196 24.473 59.4261 24.2474 59.5811 23.9512C59.7406 23.6504 59.8454 23.2835 59.8955 22.8506ZM64.7627 15.5908V26.0908H63.1084V15.5908H64.7627ZM68.3311 18.6943V26.0908H66.6768V18.6943H68.3311ZM66.5674 16.7529C66.5674 16.5023 66.6494 16.2949 66.8135 16.1309C66.9821 15.9622 67.2145 15.8779 67.5107 15.8779C67.8024 15.8779 68.0326 15.9622 68.2012 16.1309C68.3698 16.2949 68.4541 16.5023 68.4541 16.7529C68.4541 16.999 68.3698 17.2041 68.2012 17.3682C68.0326 17.5322 67.8024 17.6143 67.5107 17.6143C67.2145 17.6143 66.9821 17.5322 66.8135 17.3682C66.6494 17.2041 66.5674 16.999 66.5674 16.7529ZM73.1572 24.915C73.4261 24.915 73.6676 24.8626 73.8818 24.7578C74.1006 24.6484 74.276 24.498 74.4082 24.3066C74.5449 24.1152 74.6201 23.8942 74.6338 23.6436H76.1855C76.1764 24.1221 76.0352 24.5573 75.7617 24.9492C75.4883 25.3411 75.126 25.6533 74.6748 25.8857C74.2236 26.1136 73.7246 26.2275 73.1777 26.2275C72.6126 26.2275 72.1204 26.1318 71.7012 25.9404C71.2819 25.7445 70.9333 25.4756 70.6553 25.1338C70.3773 24.792 70.1676 24.3978 70.0264 23.9512C69.8896 23.5046 69.8213 23.026 69.8213 22.5156V22.2764C69.8213 21.766 69.8896 21.2874 70.0264 20.8408C70.1676 20.3896 70.3773 19.9932 70.6553 19.6514C70.9333 19.3096 71.2819 19.043 71.7012 18.8516C72.1204 18.6556 72.6104 18.5576 73.1709 18.5576C73.7633 18.5576 74.2829 18.6761 74.7295 18.9131C75.1761 19.1455 75.527 19.4714 75.7822 19.8906C76.042 20.3053 76.1764 20.7884 76.1855 21.3398H74.6338C74.6201 21.0664 74.5518 20.8203 74.4287 20.6016C74.3102 20.3783 74.1416 20.2005 73.9229 20.0684C73.7087 19.9362 73.4512 19.8701 73.1504 19.8701C72.8177 19.8701 72.542 19.9385 72.3232 20.0752C72.1045 20.2074 71.9336 20.3896 71.8105 20.6221C71.6875 20.8499 71.5986 21.1074 71.5439 21.3945C71.4938 21.6771 71.4688 21.971 71.4688 22.2764V22.5156C71.4688 22.821 71.4938 23.1172 71.5439 23.4043C71.5941 23.6914 71.6807 23.9489 71.8037 24.1768C71.9313 24.4001 72.1045 24.5801 72.3232 24.7168C72.542 24.849 72.82 24.915 73.1572 24.915ZM79.1113 15.5908V26.0908H77.457V15.5908H79.1113ZM83.7051 18.6943L80.4854 22.2627L78.7217 24.0674L78.291 22.6729L79.624 21.0254L81.7158 18.6943H83.7051ZM82.0713 26.0908L79.6719 22.6182L80.7109 21.4629L83.9785 26.0908H82.0713ZM89.8643 15.5908V26.0908H88.2236V15.5908H89.8643ZM89.5771 22.1191L89.0439 22.1123C89.0485 21.6019 89.1191 21.1302 89.2559 20.6973C89.3971 20.2643 89.5931 19.8883 89.8438 19.5693C90.099 19.2458 90.4043 18.9974 90.7598 18.8242C91.1152 18.6465 91.5094 18.5576 91.9424 18.5576C92.307 18.5576 92.6351 18.6077 92.9268 18.708C93.223 18.8083 93.4782 18.9701 93.6924 19.1934C93.9066 19.4121 94.0684 19.6992 94.1777 20.0547C94.2917 20.4056 94.3486 20.834 94.3486 21.3398V26.0908H92.6943V21.3262C92.6943 20.9707 92.6419 20.6882 92.5371 20.4785C92.4368 20.2689 92.2887 20.1185 92.0928 20.0273C91.8968 19.9316 91.6576 19.8838 91.375 19.8838C91.0788 19.8838 90.8167 19.943 90.5889 20.0615C90.3656 20.18 90.1787 20.3418 90.0283 20.5469C89.8779 20.752 89.764 20.9889 89.6865 21.2578C89.6136 21.5267 89.5771 21.8138 89.5771 22.1191ZM95.7021 22.4746V22.3174C95.7021 21.7842 95.7796 21.2897 95.9346 20.834C96.0895 20.3737 96.3128 19.9749 96.6045 19.6377C96.9007 19.2959 97.2607 19.0316 97.6846 18.8447C98.113 18.6533 98.596 18.5576 99.1338 18.5576C99.6761 18.5576 100.159 18.6533 100.583 18.8447C101.011 19.0316 101.374 19.2959 101.67 19.6377C101.966 19.9749 102.192 20.3737 102.347 20.834C102.502 21.2897 102.579 21.7842 102.579 22.3174V22.4746C102.579 23.0078 102.502 23.5023 102.347 23.958C102.192 24.4137 101.966 24.8125 101.67 25.1543C101.374 25.4915 101.014 25.7559 100.59 25.9473C100.166 26.1341 99.6852 26.2275 99.1475 26.2275C98.6051 26.2275 98.1198 26.1341 97.6914 25.9473C97.2676 25.7559 96.9076 25.4915 96.6113 25.1543C96.3151 24.8125 96.0895 24.4137 95.9346 23.958C95.7796 23.5023 95.7021 23.0078 95.7021 22.4746ZM97.3496 22.3174V22.4746C97.3496 22.8073 97.3838 23.1217 97.4521 23.418C97.5205 23.7142 97.6276 23.974 97.7734 24.1973C97.9193 24.4206 98.1061 24.596 98.334 24.7236C98.5618 24.8512 98.833 24.915 99.1475 24.915C99.4528 24.915 99.7171 24.8512 99.9404 24.7236C100.168 24.596 100.355 24.4206 100.501 24.1973C100.647 23.974 100.754 23.7142 100.822 23.418C100.895 23.1217 100.932 22.8073 100.932 22.4746V22.3174C100.932 21.9893 100.895 21.6794 100.822 21.3877C100.754 21.0915 100.645 20.8294 100.494 20.6016C100.348 20.3737 100.161 20.196 99.9336 20.0684C99.7103 19.9362 99.4437 19.8701 99.1338 19.8701C98.8239 19.8701 98.555 19.9362 98.3271 20.0684C98.1038 20.196 97.9193 20.3737 97.7734 20.6016C97.6276 20.8294 97.5205 21.0915 97.4521 21.3877C97.3838 21.6794 97.3496 21.9893 97.3496 22.3174ZM108.41 24.3477V18.6943H110.064V26.0908H108.506L108.41 24.3477ZM108.643 22.8096L109.196 22.7959C109.196 23.2926 109.142 23.7507 109.032 24.1699C108.923 24.5846 108.754 24.9469 108.526 25.2568C108.299 25.5622 108.007 25.8014 107.651 25.9746C107.296 26.1432 106.87 26.2275 106.373 26.2275C106.013 26.2275 105.683 26.1751 105.382 26.0703C105.081 25.9655 104.821 25.8037 104.603 25.585C104.388 25.3662 104.222 25.0814 104.104 24.7305C103.985 24.3796 103.926 23.9603 103.926 23.4727V18.6943H105.573V23.4863C105.573 23.7552 105.605 23.9808 105.669 24.1631C105.733 24.3408 105.819 24.4844 105.929 24.5938C106.038 24.7031 106.166 24.7806 106.312 24.8262C106.457 24.8717 106.612 24.8945 106.776 24.8945C107.246 24.8945 107.615 24.8034 107.884 24.6211C108.157 24.4342 108.351 24.1836 108.465 23.8691C108.583 23.5547 108.643 23.2015 108.643 22.8096ZM115.902 24.0879C115.902 23.9238 115.861 23.7757 115.779 23.6436C115.697 23.5068 115.54 23.3838 115.308 23.2744C115.08 23.165 114.743 23.0648 114.296 22.9736C113.904 22.887 113.544 22.7845 113.216 22.666C112.892 22.543 112.614 22.3949 112.382 22.2217C112.149 22.0485 111.969 21.8434 111.842 21.6064C111.714 21.3695 111.65 21.096 111.65 20.7861C111.65 20.4854 111.716 20.2005 111.849 19.9316C111.981 19.6628 112.17 19.4258 112.416 19.2207C112.662 19.0156 112.961 18.8538 113.312 18.7354C113.667 18.6169 114.063 18.5576 114.501 18.5576C115.121 18.5576 115.652 18.6624 116.094 18.8721C116.54 19.0771 116.882 19.3574 117.119 19.7129C117.356 20.0638 117.475 20.4603 117.475 20.9023H115.827C115.827 20.7064 115.777 20.5241 115.677 20.3555C115.581 20.1823 115.435 20.0433 115.239 19.9385C115.043 19.8291 114.797 19.7744 114.501 19.7744C114.218 19.7744 113.984 19.82 113.797 19.9111C113.615 19.9977 113.478 20.1117 113.387 20.2529C113.3 20.3942 113.257 20.5492 113.257 20.7178C113.257 20.8408 113.28 20.9525 113.325 21.0527C113.375 21.1484 113.457 21.2373 113.571 21.3193C113.685 21.3968 113.84 21.4697 114.036 21.5381C114.237 21.6064 114.487 21.6725 114.788 21.7363C115.353 21.8548 115.839 22.0075 116.244 22.1943C116.654 22.3766 116.969 22.6136 117.188 22.9053C117.406 23.1924 117.516 23.557 117.516 23.999C117.516 24.3271 117.445 24.6279 117.304 24.9014C117.167 25.1702 116.966 25.4049 116.702 25.6055C116.438 25.8014 116.121 25.9541 115.752 26.0635C115.387 26.1729 114.977 26.2275 114.521 26.2275C113.852 26.2275 113.284 26.109 112.819 25.8721C112.354 25.6305 112.001 25.3229 111.76 24.9492C111.523 24.571 111.404 24.179 111.404 23.7734H112.997C113.015 24.0788 113.1 24.3226 113.25 24.5049C113.405 24.6826 113.596 24.8125 113.824 24.8945C114.057 24.972 114.296 25.0107 114.542 25.0107C114.838 25.0107 115.087 24.972 115.287 24.8945C115.488 24.8125 115.64 24.7031 115.745 24.5664C115.85 24.4251 115.902 24.2656 115.902 24.0879ZM122.219 26.2275C121.672 26.2275 121.177 26.1387 120.735 25.9609C120.298 25.7786 119.924 25.5257 119.614 25.2021C119.309 24.8786 119.074 24.498 118.91 24.0605C118.746 23.623 118.664 23.1514 118.664 22.6455V22.3721C118.664 21.7933 118.748 21.2692 118.917 20.7998C119.086 20.3304 119.32 19.9294 119.621 19.5967C119.922 19.2594 120.277 19.002 120.688 18.8242C121.098 18.6465 121.542 18.5576 122.021 18.5576C122.549 18.5576 123.012 18.6465 123.408 18.8242C123.805 19.002 124.133 19.2526 124.393 19.5762C124.657 19.8952 124.853 20.2757 124.98 20.7178C125.113 21.1598 125.179 21.6475 125.179 22.1807V22.8848H119.464V21.7021H123.552V21.5723C123.543 21.276 123.483 20.998 123.374 20.7383C123.269 20.4785 123.107 20.2689 122.889 20.1094C122.67 19.9499 122.378 19.8701 122.014 19.8701C121.74 19.8701 121.496 19.9294 121.282 20.0479C121.073 20.1618 120.897 20.3281 120.756 20.5469C120.615 20.7656 120.505 21.0299 120.428 21.3398C120.355 21.6452 120.318 21.9893 120.318 22.3721V22.6455C120.318 22.9691 120.362 23.2699 120.448 23.5479C120.539 23.8213 120.672 24.0605 120.845 24.2656C121.018 24.4707 121.228 24.6325 121.474 24.751C121.72 24.8649 122 24.9219 122.314 24.9219C122.711 24.9219 123.064 24.8421 123.374 24.6826C123.684 24.5231 123.953 24.2975 124.181 24.0059L125.049 24.8467C124.889 25.0791 124.682 25.3024 124.427 25.5166C124.172 25.7262 123.859 25.8971 123.49 26.0293C123.126 26.1615 122.702 26.2275 122.219 26.2275Z" fill="#242E42"/>
<g clip-path="url(#clip0_6673_106386)">
<path d="M0.00244141 35H5.00246V40H0.00244141V35Z" fill="#FF0000"/>
<path d="M0.00244141 0H5.00242V35H0.00244141V0ZM10.0024 0H15.0024V40H10.0024V0ZM20.0023 0H25.0023V40H20.0023V0ZM30.0023 0H35.0023V40H30.0023V0ZM40.0022 16.25H45.0022V23.75H40.0022V16.25Z" fill="#FFCC00"/>
</g>
<defs>
<clipPath id="clip0_6673_106386">
<rect width="45.0045" height="40" fill="white"/>
</clipPath>
</defs>
</svg>
