<svg width="44" height="44" viewBox="0 0 44 44" fill="none" xmlns="http://www.w3.org/2000/svg">
<path d="M38.263 10.13C37.9494 8.71856 37.1225 7.84345 35.6969 7.42001C33.3874 6.74251 31.0779 6.03678 28.7684 5.33105C25.1758 4.23011 21.6117 3.10094 18.0476 2C17.7625 2 17.4774 2 17.1923 2C16.622 2.31052 15.9662 2.56458 15.4815 2.98802C11.3472 6.74251 7.21289 10.5252 3.07858 14.3079C2.08064 15.2113 1.82403 16.3404 2.10915 17.639C3.42073 23.2848 4.7323 28.9307 6.04388 34.5765C6.32901 35.8468 7.09884 36.6373 8.32488 37.0042C13.6852 38.6133 19.0171 40.2224 24.3774 41.8314C25.689 42.2267 26.801 41.9161 27.7989 41.0128C32.1328 37.0325 36.4667 33.0522 40.8292 29.1001C41.8841 28.1403 42.1978 27.0111 41.8841 25.6843C40.6581 20.4901 39.4605 15.296 38.263 10.13ZM32.3039 9.76304C32.3039 9.93241 32.3039 10.1018 32.3039 10.2429C30.0514 10.6664 27.8274 11.1463 25.575 11.5133C25.2043 11.5697 24.634 11.2874 24.3204 10.9769C22.9803 9.65012 21.7258 8.26689 20.4427 6.88366C20.3286 6.77074 20.3001 6.57314 20.0435 6.09324C24.3204 7.39178 28.3122 8.57741 32.3039 9.76304ZM27.7989 27.8015C27.6564 27.9144 27.5138 28.0556 27.3712 28.1685C22.8378 26.8135 18.3043 25.4303 13.7708 24.0753C13.7137 23.9059 13.6852 23.7365 13.6282 23.5671C17.1067 20.3772 20.6138 17.1873 24.0923 13.9692C24.2349 13.9974 24.4059 14.0539 24.5485 14.0821C25.8031 18.627 26.744 23.2284 27.7989 27.8015ZM6.55711 15.5218C9.89307 12.5013 13.229 9.42429 16.5935 6.43199C16.9071 6.1497 17.8195 6.00855 18.0476 6.23438C20.015 8.15397 21.8968 10.1865 24.0068 12.4448C19.9865 16.1428 16.1943 19.615 12.3737 23.0872C11.946 22.8332 11.6038 22.7485 11.4042 22.5226C9.722 20.8007 8.09678 19.0505 6.44306 17.3285C5.81578 16.7074 5.92983 16.0864 6.55711 15.5218ZM8.83811 31.3866C7.86868 27.2934 6.92777 23.2284 5.95834 19.1351C6.07239 19.0787 6.18644 19.0222 6.30049 18.9658C7.81166 20.6031 9.35133 22.2121 10.834 23.8777C11.0906 24.1599 11.2332 24.6963 11.1476 25.0351C10.5489 27.1522 9.86456 29.2694 9.20877 31.3866C9.09472 31.3866 8.95216 31.3866 8.83811 31.3866ZM25.4609 37.6817C25.2328 38.331 24.6911 38.4157 24.0638 38.2181C19.6729 36.8913 15.2819 35.5646 10.891 34.2378C10.2067 34.0402 9.80753 33.645 10.0356 32.8828C10.7484 30.568 11.4327 28.225 12.1741 25.9102C12.4877 24.9221 13.2575 25.0633 14.0559 25.3173C16.622 26.1078 19.2167 26.8982 21.8113 27.6604C23.4365 28.1685 25.0902 28.6202 26.6869 29.1847C27.1717 29.3541 27.5138 29.8623 27.8845 30.1728C27.0006 32.8546 26.2593 35.2823 25.4609 37.6817ZM27.3998 36.9196C27.3142 36.8913 27.2002 36.8349 27.1146 36.8066C27.2002 36.4114 27.2857 35.988 27.4283 35.5928C27.913 34.0402 28.3407 32.4593 28.9394 30.935C29.139 30.3986 29.6522 29.7211 30.1655 29.5517C32.2469 28.9589 34.3568 28.5355 36.4667 28.0556C36.5523 28.1685 36.6378 28.3096 36.7234 28.4226C33.587 31.2737 30.5076 34.0966 27.3998 36.9196ZM38.2345 26.3901C37.5502 26.5877 37.037 26.7853 36.4952 26.8982C34.6134 27.3216 32.7031 27.7451 30.8213 28.1403C29.4527 28.4226 29.2246 28.2814 28.8539 26.87C28.5117 25.4585 28.1696 24.047 27.856 22.6638C27.2002 19.8973 26.6014 17.1309 25.9171 14.3644C25.689 13.3764 25.9456 12.8683 26.9721 12.6424C29.196 12.1625 31.42 11.6826 33.6155 11.1463C34.5849 10.9204 35.0696 11.2874 35.2692 12.1625C36.2671 16.4251 37.2651 20.6878 38.2345 24.9786C38.32 25.402 38.2345 25.8819 38.2345 26.3901Z" fill="url(#paint0_linear_12625_93857)"/>
<defs>
<linearGradient id="paint0_linear_12625_93857" x1="4.54717" y1="21.9994" x2="172.171" y2="21.9994" gradientUnits="userSpaceOnUse">
<stop offset="0.0484863" stop-color="#0093F4"/>
<stop offset="1" stop-color="#00CDFF"/>
</linearGradient>
</defs>
</svg>
