<svg width="95" height="44" viewBox="0 0 95 44" fill="none" xmlns="http://www.w3.org/2000/svg">
<path fill-rule="evenodd" clip-rule="evenodd" d="M21.7744 11.2821C22.3385 11.3949 23.0154 11.8462 23.3538 12.5231C23.8051 13.2 23.8051 13.9897 23.5795 14.6667C23.3538 15.2308 23.0154 15.9077 22.3385 16.2462C21.6615 16.5846 20.9846 16.6974 20.3077 16.4718C19.6308 16.2462 19.0667 15.9077 18.7282 15.2308C18.3897 14.5538 18.2769 13.8769 18.5026 13.2C18.7282 12.5231 19.0667 11.8462 19.7436 11.5077C20.4205 11.1692 21.0974 11.0564 21.7744 11.2821ZM12.5231 16.8103C11.5077 15.6821 10.1538 14.8923 8.57436 14.6667V11.5077C9.58974 11.2821 10.6051 10.7179 11.3949 9.81538C12.4103 8.8 13.0872 7.33333 13.0872 5.75385C13.0872 4.17436 12.4103 2.70769 11.3949 1.69231C10.3795 0.676923 8.91282 0 7.33333 0C5.75385 0 4.28718 0.676923 3.27179 1.80513C2.25641 2.82051 1.57949 4.28718 1.57949 5.86667C1.57949 7.44615 2.25641 8.91282 3.27179 9.81538C4.06154 10.6051 4.9641 11.1692 6.09231 11.3949V14.5538C4.62564 14.8923 3.15897 15.5692 2.14359 16.6974C0.789743 18.0513 0 19.9692 0 22C0 24.0308 0.789743 25.9487 2.14359 27.3026C3.15897 28.318 4.51282 29.1077 6.09231 29.3333V32.6051C5.07692 32.8308 4.06154 33.3949 3.27179 34.1846C2.25641 35.2 1.57949 36.6667 1.57949 38.2462C1.57949 39.8256 2.25641 41.2923 3.27179 42.3077C4.28718 43.3231 5.75385 44 7.33333 44C8.91282 44 10.3795 43.3231 11.6205 42.1949C12.6359 41.1795 13.3128 39.7128 13.3128 38.1333C13.3128 36.5538 12.6359 35.0872 11.6205 34.0718C10.8308 33.2821 9.9282 32.7179 8.8 32.4923V29.3333C10.2667 29.1077 11.7333 28.4308 12.7487 27.3026C12.8051 27.1897 12.8897 27.1051 12.9744 27.0205C13.059 26.9359 13.1436 26.8513 13.2 26.7385L15.7949 28.318C15.4564 29.3333 15.3436 30.5744 15.682 31.5897C16.1333 32.9436 17.0359 34.2974 18.3897 35.0872C19.8564 35.8769 21.3231 35.9897 22.7897 35.6513C24.1436 35.3128 25.3846 34.4103 26.1744 33.0564V32.9436C26.9641 31.5897 27.0769 30.0103 26.7385 28.5436C26.4 27.0769 25.4974 25.8359 24.1436 25.0462H24.0308C22.5641 24.2564 21.0974 24.1436 19.6308 24.4821C18.5026 24.7077 17.6 25.2718 16.8103 26.1744L14.2154 24.5949C14.5538 23.8051 14.6667 22.9026 14.6667 22C14.6667 21.0974 14.5538 20.1949 14.2154 19.4051L16.8103 17.8256C17.6 18.6154 18.6154 19.2923 19.6308 19.5179C20.8718 19.8564 22.3385 19.7436 23.5795 19.1795L23.9179 18.841C25.3846 18.0513 26.2872 16.8103 26.6256 15.3436C26.9641 13.8769 26.8513 12.2974 26.0615 10.9436C25.2718 9.58974 24.0308 8.57436 22.5641 8.2359C21.2103 7.89744 19.6308 8.01026 18.1641 9.02564C16.6974 9.81538 15.7949 11.0564 15.4564 12.5231C15.2308 13.5385 15.2308 14.6667 15.5692 15.7949L12.9744 17.3744C12.9179 17.2615 12.8333 17.1769 12.7487 17.0923C12.6641 17.0077 12.5795 16.9231 12.5231 16.8103ZM7.33333 18.0513C8.34872 18.0513 9.3641 18.5026 10.041 19.1795C10.7179 19.9692 11.1692 20.759 11.1692 21.8872C11.1692 23.0154 10.7179 24.0308 10.041 24.7077C9.3641 25.3846 8.34872 25.8359 7.33333 25.8359C6.31795 25.8359 5.30256 25.3846 4.62564 24.7077C3.94872 23.9179 3.49744 22.9026 3.49744 21.8872C3.49744 20.8718 3.94872 19.8564 4.62564 19.1795C5.30256 18.5026 6.31795 18.0513 7.33333 18.0513ZM23.3538 31.4769C23.0154 32.1538 22.4513 32.4923 21.7744 32.7179C21.0974 32.8308 20.4205 32.8308 19.7436 32.4923C19.0667 32.041 18.7282 31.4769 18.5026 30.8C18.2769 30.1231 18.3897 29.4462 18.7282 28.7692C19.0667 28.0923 19.6308 27.641 20.3077 27.5282C20.9846 27.3026 21.6615 27.4154 22.3385 27.7538C23.0154 28.2051 23.3538 28.7692 23.5795 29.4462C23.6923 30.0103 23.6923 30.8 23.3538 31.3641V31.4769ZM9.25128 40.0513C8.68718 40.5026 8.12308 40.841 7.33333 40.841C6.54359 40.841 5.97949 40.6154 5.41538 40.0513C4.9641 39.6 4.62564 38.9231 4.62564 38.1333C4.62564 37.3436 4.9641 36.6667 5.41538 36.2154C5.97949 35.7641 6.54359 35.4256 7.33333 35.4256C8.12308 35.4256 8.8 35.7641 9.25128 36.2154C9.70256 36.6667 10.041 37.3436 10.041 38.1333C10.041 38.9231 9.70256 39.6 9.25128 40.0513ZM7.33333 3.15897C8.12308 3.15897 8.68718 3.38462 9.25128 3.94872C9.70256 4.4 10.041 5.07692 10.041 5.86667C10.041 6.65641 9.70256 7.33333 9.25128 7.78462C8.68718 8.2359 8.12308 8.57436 7.33333 8.57436C6.54359 8.57436 5.86667 8.2359 5.41538 7.78462C4.9641 7.33333 4.62564 6.65641 4.62564 5.86667C4.62564 5.07692 4.9641 4.4 5.41538 3.94872C5.97949 3.38462 6.54359 3.15897 7.33333 3.15897ZM38.1341 13.4264H35.2008V30.4623H38.1341V24.1443L42.5341 30.4623H45.9188L40.729 23.4674L45.9188 17.8264H42.4213L38.1341 22.6777V13.4264ZM59.7956 30.4613H56.8623V28.6562C56.0726 30.1228 54.3803 30.7998 52.6879 30.7998C48.7392 30.7998 46.37 27.6408 46.37 24.1433C46.37 20.1946 49.1905 17.4869 52.6879 17.4869C54.9444 17.4869 56.2982 18.728 56.8623 19.7433V17.9382H59.7956V30.4613ZM49.3033 24.2562C49.3033 25.8357 50.4315 28.0921 53.0264 28.0921C54.7187 28.0921 55.7341 27.1895 56.2982 26.0613C56.6367 25.4972 56.7495 24.9331 56.7495 24.2562C56.7495 23.6921 56.6367 23.0151 56.411 22.451C55.8469 21.21 54.7187 20.1946 52.9136 20.1946C50.6572 20.3075 49.3033 22.2254 49.3033 24.2562ZM61.5997 20.1957H63.1792V30.4623H66.2254V20.3085H68.1433V17.9393H66.2254V17.3752C66.2254 15.57 67.3536 15.57 68.1433 15.57V13.2008C65.9997 13.2008 63.1792 13.4264 63.1792 17.1495V17.8264H61.5997V20.1957ZM70.0619 13.4264H73.108V22.6777L77.2824 17.8264H80.8927L75.7029 23.4674L80.8927 30.4623H77.508L73.108 24.1443V30.4623H70.0619V13.4264ZM91.8362 30.4613H94.7695V17.9382H91.8362V19.7433C91.2721 18.728 89.9182 17.4869 87.6618 17.4869C84.1644 17.4869 81.3439 20.1946 81.3439 24.1433C81.3439 27.6408 83.7131 30.7998 87.6618 30.7998C89.3541 30.7998 91.0464 30.1228 91.8362 28.6562V30.4613ZM88.0003 28.0921C85.4054 28.0921 84.2772 25.8357 84.2772 24.2562C84.2772 22.2254 85.6311 20.3075 87.8875 20.1946C89.6926 20.1946 90.8208 21.21 91.3849 22.451C91.6105 23.0151 91.7234 23.6921 91.7234 24.2562C91.7234 24.9331 91.6105 25.4972 91.2721 26.0613C90.708 27.1895 89.6926 28.0921 88.0003 28.0921Z" fill="url(#paint0_linear_6673_106461)"/>
<defs>
<linearGradient id="paint0_linear_6673_106461" x1="-20" y1="26" x2="95.488" y2="6.38202" gradientUnits="userSpaceOnUse">
<stop stop-color="#231F20"/>
<stop offset="1" stop-color="#45908F"/>
</linearGradient>
</defs>
</svg>
