<svg width="65" height="44" viewBox="0 0 65 44" fill="none" xmlns="http://www.w3.org/2000/svg">
<g clip-path="url(#clip0_6673_106372)">
<path d="M15.2128 40.1656H12.7715C12.6856 36.0337 12.4476 32.1484 12.0586 28.509H12.0371L8.32013 40.1656H6.461L2.76637 28.509H2.74452C2.47048 32.0043 2.29783 35.8896 2.2261 40.1656H0C0.143788 34.9652 0.503747 30.0902 1.08004 25.5397H4.10594L7.62826 36.2864H7.64978L11.1938 25.5397H14.0891C14.7231 30.8692 15.0974 35.7456 15.2123 40.1656H15.2128ZM25.8032 29.3749C24.809 34.7836 23.4976 38.7141 21.8699 41.1662C20.6016 43.0555 19.2123 44.0001 17.6994 44.0001C17.2961 44.0001 16.7987 43.8783 16.2086 43.6364V42.3325C16.497 42.3749 16.8352 42.3974 17.2242 42.3974C17.9301 42.3974 18.4989 42.2018 18.9316 41.8115C19.45 41.3358 19.7092 40.801 19.7092 40.2086C19.7092 39.804 19.5071 38.9735 19.1042 37.7174L16.4247 29.3749H18.8232L20.7462 35.6142C21.1782 37.0309 21.3585 38.0198 21.2863 38.5836C22.3381 35.7668 23.0729 32.697 23.4909 29.3749H25.8031" fill="#00758F"/>
<path d="M36.498 36.1116C36.498 37.3519 36.0435 38.3702 35.1374 39.1669C34.2306 39.9601 33.0123 40.3578 31.4869 40.3578C30.0601 40.3578 28.6773 39.9001 27.3379 38.9921L27.9644 37.7358C29.117 38.3136 30.1604 38.602 31.0968 38.602C31.9753 38.602 32.663 38.406 33.1604 38.0187C33.6568 37.6286 33.9543 37.0845 33.9543 36.3945C33.9543 35.526 33.3501 34.7838 32.2419 34.161C31.2187 33.5979 29.1741 32.4227 29.1741 32.4227C28.0661 31.6124 27.5107 30.7429 27.5107 29.3104C27.5107 28.1255 27.9248 27.1679 28.7523 26.4393C29.5815 25.7091 30.6512 25.3441 31.9613 25.3441C33.3156 25.3441 34.5469 25.7065 35.656 26.4286L35.0926 27.6839C34.1437 27.2804 33.208 27.0779 32.2852 27.0779C31.5366 27.0779 30.9598 27.258 30.5575 27.6208C30.1532 27.9801 29.9031 28.4426 29.9031 29.0063C29.9031 29.8725 30.5203 30.6239 31.6597 31.2587C32.6957 31.8219 34.7906 33.02 34.7906 33.02C35.9302 33.8288 36.498 34.6912 36.498 36.1116Z" fill="#F29111"/>
<path fill-rule="evenodd" clip-rule="evenodd" d="M40.8627 37.2398C40.2717 36.2864 39.9758 34.7564 39.9758 32.6468C39.9758 28.9641 41.0925 27.1214 43.3253 27.1214C44.4926 27.1214 45.3494 27.5622 45.8974 28.4427C46.4875 29.3964 46.7834 30.9132 46.7834 32.9933C46.7834 36.7055 45.6665 38.5626 43.4339 38.5626C42.2668 38.5626 41.4098 38.1222 40.8627 37.2399V37.2398ZM49.5493 40.5184L46.8682 39.1927C47.1068 38.9964 47.3336 38.7846 47.5389 38.5394C48.6773 37.1977 49.2469 35.2116 49.2469 32.5821C49.2469 27.7435 47.3525 25.3228 43.5638 25.3228C41.7054 25.3228 40.257 25.9364 39.22 27.1653C38.0813 28.5086 37.5127 30.4874 37.5127 33.1018C37.5127 35.6728 38.0164 37.5588 39.0249 38.7569C39.9437 39.8397 41.3333 40.3819 43.1934 40.3819C43.8876 40.3819 44.5244 40.2962 45.1031 40.1248L48.5948 42.1622L49.5468 40.5182" fill="#F29111"/>
<path d="M58.3013 40.1655H51.3652V25.5397H53.6993V38.3664H58.3013V40.1655ZM59.9658 40.1641H60.3525V38.676H60.8586V38.3721H59.4401V38.676H59.9658V40.1641ZM62.9086 40.1641H63.2732V38.3721H62.7249L62.2787 39.5935L61.7929 38.3721H61.2647V40.1641H61.6095V38.8002H61.629L62.1378 40.1641H62.4006L62.9086 38.8002V40.1641Z" fill="#F29111"/>
<path fill-rule="evenodd" clip-rule="evenodd" d="M61.2311 20.6408C59.8204 20.6054 58.728 20.7464 57.8118 21.1356C57.5474 21.2415 57.125 21.2415 57.0888 21.5774C57.2306 21.7184 57.2477 21.9479 57.3719 22.1431C57.5829 22.4967 57.9523 22.9729 58.2878 23.221C58.6579 23.504 59.0281 23.7857 59.4163 24.0329C60.1033 24.459 60.8789 24.7053 61.5478 25.1295C61.9368 25.3767 62.3232 25.6944 62.7122 25.9603C62.9054 26.1015 63.0276 26.3317 63.2754 26.4191V26.3656C63.1512 26.207 63.1166 25.9773 62.9939 25.7996C62.8178 25.6241 62.6413 25.4641 62.4647 25.2881C61.9533 24.599 61.318 23.9988 60.6323 23.504C60.0679 23.1142 58.8335 22.5839 58.6052 21.9319L58.5694 21.8959C58.9574 21.8601 59.4163 21.7184 59.7862 21.6113C60.3845 21.4527 60.931 21.4885 61.5478 21.3299C61.8302 21.2587 62.1122 21.1698 62.3956 21.0829V20.9227C62.0765 20.6054 61.8483 20.1806 61.5136 19.8804C60.6153 19.1031 59.6272 18.3438 58.6052 17.7067C58.0581 17.3532 57.3532 17.1247 56.7712 16.8234C56.5609 16.7171 56.2088 16.6648 56.0849 16.4871C55.7674 16.0984 55.5904 15.5867 55.3618 15.1265C54.8512 14.1556 54.3568 13.078 53.9169 12.0515C53.5999 11.3627 53.4059 10.6739 53.018 10.0375C51.2019 7.03257 49.2287 5.21353 46.197 3.4284C45.5449 3.05671 44.7696 2.89776 43.9419 2.70343C43.5006 2.68485 43.0603 2.65045 42.6198 2.63317C42.3372 2.50894 42.0549 2.17295 41.8085 2.01383C40.8035 1.37803 38.2138 -1.87159e-05 37.473 1.81983C36.997 2.96916 38.1781 4.09958 38.5836 4.68305C38.8831 5.08898 39.2712 5.5492 39.4818 6.00796C39.6053 6.30841 39.6406 6.62713 39.7645 6.9447C40.0462 7.72217 40.3102 8.58832 40.6811 9.31313C40.8742 9.68434 41.0855 10.0736 41.3322 10.4078C41.4745 10.6035 41.7205 10.6905 41.7735 11.0097C41.5277 11.3627 41.5084 11.8928 41.3676 12.335C40.7334 14.332 40.9797 16.8058 41.879 18.2724C42.1604 18.7142 42.831 19.6863 43.7298 19.3142C44.5229 18.9968 44.3467 17.9895 44.5756 17.1064C44.6284 16.8928 44.593 16.7526 44.6983 16.6116V16.6473C44.945 17.1413 45.1925 17.6173 45.4214 18.1137C45.9686 18.9787 46.9196 19.8803 47.7132 20.4805C48.1351 20.7999 48.4701 21.3468 48.9988 21.5418V21.4884H48.9642C48.8581 21.3297 48.6998 21.2585 48.5586 21.1354C48.2415 20.8172 47.8899 20.4282 47.6421 20.0749C46.9021 19.0857 46.2492 17.9895 45.6688 16.8586C45.386 16.3095 45.1398 15.7093 44.9104 15.1618C44.805 14.9507 44.805 14.6317 44.6284 14.526C44.3633 14.9142 43.9765 15.2505 43.783 15.7262C43.4478 16.4869 43.4129 17.4233 43.2885 18.3958C43.2184 18.4142 43.2539 18.3958 43.2184 18.4308C42.6551 18.2896 42.4611 17.7065 42.2492 17.2133C41.7205 15.9571 41.6317 13.9426 42.0906 12.4933C42.2133 12.1229 42.7437 10.9566 42.5312 10.6032C42.4246 10.266 42.0726 10.0733 41.8791 9.80726C41.6504 9.47143 41.4023 9.04821 41.2453 8.67635C40.8219 7.68712 40.6092 6.59093 40.1524 5.6017C39.9408 5.14148 39.5699 4.6643 39.2712 4.24092C38.9357 3.76375 38.566 3.42808 38.3012 2.8632C38.2138 2.66838 38.0903 2.34999 38.2308 2.13871C38.2654 1.99704 38.3369 1.94373 38.4783 1.90836C38.706 1.71387 39.3589 1.96085 39.5877 2.06682C40.2402 2.33124 40.7865 2.58002 41.3322 2.95041C41.5793 3.12746 41.8436 3.46313 42.1604 3.5523H42.5312C43.095 3.67506 43.7298 3.58654 44.259 3.7463C45.1925 4.0466 46.0382 4.48823 46.7966 4.96557C49.1048 6.43247 51.0082 8.51822 52.2942 11.0094C52.5061 11.4153 52.5951 11.7869 52.7886 12.2101C53.1587 13.0777 53.6175 13.9613 53.9869 14.8087C54.3568 15.6393 54.7099 16.4869 55.2394 17.1771C55.503 17.5475 56.5607 17.742 57.0368 17.9365C57.3886 18.095 57.9357 18.2367 58.2531 18.4308C58.8522 18.8012 59.4502 19.2261 60.0151 19.6331C60.2965 19.8451 61.1779 20.2865 61.2311 20.6405" fill="#00758F"/>
<path fill-rule="evenodd" clip-rule="evenodd" d="M43.2533 5.28206C43.0096 5.28028 42.7668 5.31015 42.5308 5.37091V5.40628H42.565C42.7073 5.68832 42.9543 5.88428 43.1291 6.13126C43.2709 6.41411 43.3947 6.69582 43.5354 6.979C43.5528 6.96156 43.5696 6.94313 43.5696 6.94313C43.8182 6.76706 43.9413 6.4847 43.9413 6.05986C43.8349 5.9353 43.8182 5.81254 43.7294 5.68832C43.6239 5.51209 43.3947 5.42373 43.2533 5.28206Z" fill="#00758F"/>
</g>
<defs>
<clipPath id="clip0_6673_106372">
<rect width="64.6298" height="44" fill="white"/>
</clipPath>
</defs>
</svg>
