<svg width="104" height="80" viewBox="0 0 104 80" fill="none" xmlns="http://www.w3.org/2000/svg">
<path opacity="0.79" d="M52 79.9998C80.7188 79.9998 104 74.462 104 67.6308C104 60.7995 80.7188 55.2617 52 55.2617C23.2812 55.2617 0 60.7995 0 67.6308C0 74.462 23.2812 79.9998 52 79.9998Z" fill="url(#paint0_linear_3521_14029)"/>
<path opacity="0.6" d="M98.4775 54.0423C99.1497 54.0423 99.7009 54.5863 99.7009 55.2646C99.7009 55.9361 99.1564 56.4868 98.4775 56.4868C97.7986 56.4868 97.2541 55.9294 97.2541 55.2579C97.2541 54.5863 97.7986 54.0423 98.4775 54.0423ZM98.4775 52.6992C97.0591 52.6992 95.9097 53.8476 95.9097 55.2579C95.9097 56.6748 97.0591 57.8232 98.4775 57.8232C99.8958 57.8232 101.045 56.6748 101.045 55.2579C101.039 53.8476 99.8891 52.6992 98.4775 52.6992Z" fill="#E8EEF4"/>
<path d="M53.0631 34.7349V71.8666L23.1421 65.6515V31.2266L53.0631 34.7349Z" fill="url(#paint1_linear_3521_14029)"/>
<path fill-rule="evenodd" clip-rule="evenodd" d="M9.60376 60.4671C13.8582 65.1123 19.6635 68.0831 25.9627 68.7948L53.0767 71.8584L23.1308 65.6246V57.6289L19.3091 58.0112C15.6249 58.7205 12.3563 59.5471 9.60376 60.4671Z" fill="url(#paint2_linear_3521_14029)"/>
<path d="M46.3041 49.257L53.1639 34.2656V57.8235L23.1523 52.2553V44.9738L46.3041 49.257Z" fill="url(#paint3_linear_3521_14029)"/>
<path d="M53.063 34.7345V71.8663L79.7857 63.8412V29.3633L53.063 34.7345Z" fill="url(#paint4_linear_3521_14029)"/>
<path d="M61.9703 49.4145L52.9807 34.5039V58.0618L79.8442 52.7074L79.8442 44.1705L61.9703 49.4145Z" fill="url(#paint5_linear_3521_14029)"/>
<path d="M23.1421 31.2258L48.6004 26.1836V34.2989L23.1421 31.2258Z" fill="url(#paint6_linear_3521_14029)"/>
<path d="M48.6001 26.1836V34.2989L53.0627 34.7341L79.7855 29.3628L48.6001 26.1836Z" fill="url(#paint7_linear_3521_14029)"/>
<path d="M23.1418 31.2266L16.4106 44.0921L46.1882 49.5005L53.0628 34.7349L23.1418 31.2266Z" fill="url(#paint8_linear_3521_14029)"/>
<path d="M53.063 34.7345L79.7857 29.3633L88.6951 41.5335L62.0627 49.5002L53.063 34.7345Z" fill="url(#paint9_linear_3521_14029)"/>
<path fill-rule="evenodd" clip-rule="evenodd" d="M72.1233 15.6208C75.7489 13.9865 78.0376 11.5889 78.0376 8.91671C78.0376 3.99215 70.2644 0 60.6758 0C51.0871 0 43.314 3.99215 43.314 8.91671C43.314 12.1208 46.6045 14.9301 51.5446 16.502C52.7371 17.0176 54.4939 18.1849 53.4237 20.3527C53.4237 20.3527 63.0702 20.4584 72.1233 15.6208Z" fill="url(#paint10_linear_3521_14029)"/>
<path d="M54.3966 10.5802C55.2739 10.5802 55.9851 9.86967 55.9851 8.99321C55.9851 8.11676 55.2739 7.40625 54.3966 7.40625C53.5193 7.40625 52.8081 8.11676 52.8081 8.99321C52.8081 9.86967 53.5193 10.5802 54.3966 10.5802Z" fill="white"/>
<path d="M60.6761 10.5802C61.5534 10.5802 62.2646 9.86967 62.2646 8.99321C62.2646 8.11676 61.5534 7.40625 60.6761 7.40625C59.7988 7.40625 59.0876 8.11676 59.0876 8.99321C59.0876 9.86967 59.7988 10.5802 60.6761 10.5802Z" fill="white"/>
<path d="M66.9559 10.5802C67.8332 10.5802 68.5444 9.86967 68.5444 8.99321C68.5444 8.11676 67.8332 7.40625 66.9559 7.40625C66.0786 7.40625 65.3674 8.11676 65.3674 8.99321C65.3674 9.86967 66.0786 10.5802 66.9559 10.5802Z" fill="white"/>
<path opacity="0.6" d="M91.6504 17.8242H100.168" stroke="#D9E3ED" stroke-width="2" stroke-miterlimit="10" stroke-linecap="round"/>
<path opacity="0.6" d="M1.51416 36.0391H7.05288" stroke="#D9E3ED" stroke-width="2" stroke-miterlimit="10" stroke-linecap="round"/>
<path opacity="0.6" d="M95.9038 13.5625V22.072" stroke="#D9E3ED" stroke-width="2" stroke-miterlimit="10" stroke-linecap="round"/>
<path opacity="0.6" d="M4.2793 33.2656V38.799" stroke="#D9E3ED" stroke-width="2" stroke-miterlimit="10" stroke-linecap="round"/>
<defs>
<linearGradient id="paint0_linear_3521_14029" x1="52.0015" y1="76.9014" x2="52.0015" y2="41.5173" gradientUnits="userSpaceOnUse">
<stop stop-color="#E4EEF9" stop-opacity="0"/>
<stop offset="1" stop-color="#C9D7E3"/>
</linearGradient>
<linearGradient id="paint1_linear_3521_14029" x1="48.8762" y1="60.8245" x2="23.1945" y2="-3.4413" gradientUnits="userSpaceOnUse">
<stop stop-color="#C9D7E3"/>
<stop offset="1" stop-color="#F5F8FB"/>
</linearGradient>
<linearGradient id="paint2_linear_3521_14029" x1="41.7537" y1="66.0033" x2="11.2041" y2="64.1703" gradientUnits="userSpaceOnUse">
<stop offset="0.395833" stop-color="#97A9BA"/>
<stop offset="1" stop-color="#CBD9E4" stop-opacity="0"/>
</linearGradient>
<linearGradient id="paint3_linear_3521_14029" x1="38.1581" y1="34.2656" x2="38.1581" y2="54.8252" gradientUnits="userSpaceOnUse">
<stop stop-color="#B4C2D0"/>
<stop offset="1" stop-color="#CBD9E4" stop-opacity="0.17"/>
</linearGradient>
<linearGradient id="paint4_linear_3521_14029" x1="66.4243" y1="29.3633" x2="66.4243" y2="71.8663" gradientUnits="userSpaceOnUse">
<stop stop-color="#EEF3F8"/>
<stop offset="1" stop-color="#E1EAF2"/>
</linearGradient>
<linearGradient id="paint5_linear_3521_14029" x1="67.9865" y1="34.5039" x2="70.3598" y2="51.1078" gradientUnits="userSpaceOnUse">
<stop stop-color="#B4C2D0"/>
<stop offset="1" stop-color="#E6EDF5"/>
</linearGradient>
<linearGradient id="paint6_linear_3521_14029" x1="36.014" y1="25.7001" x2="39.8661" y2="36.4105" gradientUnits="userSpaceOnUse">
<stop stop-color="#E3E8ED"/>
<stop offset="1" stop-color="#A5B6C7"/>
</linearGradient>
<linearGradient id="paint7_linear_3521_14029" x1="64.1928" y1="26.1836" x2="64.1928" y2="34.7341" gradientUnits="userSpaceOnUse">
<stop stop-color="#DCE3EA"/>
<stop offset="1" stop-color="#C9D7E3"/>
</linearGradient>
<linearGradient id="paint8_linear_3521_14029" x1="40.7299" y1="63.3944" x2="41.5857" y2="30.8417" gradientUnits="userSpaceOnUse">
<stop stop-color="#C9D7E3"/>
<stop offset="1" stop-color="#EDF2F7"/>
</linearGradient>
<linearGradient id="paint9_linear_3521_14029" x1="55.3274" y1="19.9517" x2="70.8556" y2="49.5125" gradientUnits="userSpaceOnUse">
<stop stop-color="#C9D7E3"/>
<stop offset="1" stop-color="#F4F7FA"/>
</linearGradient>
<linearGradient id="paint10_linear_3521_14029" x1="60.6758" y1="0" x2="60.6758" y2="20.3529" gradientUnits="userSpaceOnUse">
<stop stop-color="#55BC8A" stop-opacity="0.37"/>
<stop offset="1" stop-color="#55BC8A"/>
</linearGradient>
</defs>
</svg>
