<svg width="307" height="116" viewBox="0 0 307 116" fill="none" xmlns="http://www.w3.org/2000/svg">
<path d="M271 91.9633V45.9633L231 23L191 45.9633V91.9633L231 115L271 91.9633Z" fill="url(#paint0_linear_4949_137152)"/>
<path d="M296 22.5224V11.5673L286.5 6L277 11.5673V22.5224L286.5 28L296 22.5224Z" fill="url(#paint1_linear_4949_137152)"/>
<path d="M49 65.9748V41.0769L27.5 28.4238L6 41.0769V65.9748L27.5 78.4238L49 65.9748Z" fill="url(#paint2_linear_4949_137152)"/>
<path d="M96.0019 111.424H48.002V115.424H96.0019V111.424Z" fill="url(#paint3_linear_4949_137152)"/>
<path d="M17 111.424H0V115.424H17V111.424Z" fill="url(#paint4_linear_4949_137152)"/>
<path d="M101.157 52.505H100.431C99.9129 52.505 99.498 52.0894 99.498 51.5698V41.5935C99.498 41.0739 99.9129 40.6582 100.431 40.6582H101.157C101.676 40.6582 102.091 41.0739 102.091 41.5935V51.5698C102.091 52.0894 101.676 52.505 101.157 52.505Z" fill="#F4BD40"/>
<path d="M109.661 52.505H108.935C108.417 52.505 108.002 52.0894 108.002 51.5698V41.5935C108.002 41.0739 108.417 40.6582 108.935 40.6582H109.661C110.18 40.6582 110.595 41.0739 110.595 41.5935V51.5698C110.595 52.0894 110.18 52.505 109.661 52.505Z" fill="#00AB47"/>
<path d="M118.165 52.505H117.439C116.921 52.505 116.506 52.0894 116.506 51.5698V41.5935C116.506 41.0739 116.921 40.6582 117.439 40.6582H118.165C118.684 40.6582 119.099 41.0739 119.099 41.5935V51.5698C119.099 52.0894 118.684 52.505 118.165 52.505Z" fill="#00AB47"/>
<path d="M211.183 51.4668H88.3906V112.26H211.183V51.4668Z" fill="#B2BFCF"/>
<path d="M201.745 51.4668H88.3906V112.26H201.745V51.4668Z" fill="#DEE3F1"/>
<path d="M97.8269 58.8438H95.3379V66.0142H97.8269V58.8438Z" fill="#B2BFCF"/>
<path d="M102.079 58.8438H99.5898V66.0142H102.079V58.8438Z" fill="#B2BFCF"/>
<path d="M106.227 58.8438H103.738V66.0142H106.227V58.8438Z" fill="#B2BFCF"/>
<path d="M110.479 58.8438H107.99V66.0142H110.479V58.8438Z" fill="#B2BFCF"/>
<path d="M180.588 62.4818C181.791 62.4818 182.766 61.5048 182.766 60.2995C182.766 59.0942 181.791 58.1172 180.588 58.1172C179.385 58.1172 178.41 59.0942 178.41 60.2995C178.41 61.5048 179.385 62.4818 180.588 62.4818Z" fill="#6BDEB2"/>
<path d="M172.498 62.4818C173.701 62.4818 174.676 61.5048 174.676 60.2995C174.676 59.0942 173.701 58.1172 172.498 58.1172C171.295 58.1172 170.32 59.0942 170.32 60.2995C170.32 61.5048 171.295 62.4818 172.498 62.4818Z" fill="#B2BFCF"/>
<path d="M202.263 115.584H92.85C92.2277 115.584 91.6055 115.064 91.6055 114.337V113.401C91.6055 112.778 92.124 112.154 92.85 112.154H202.16V115.584H202.263Z" fill="#CBD3E1"/>
<path d="M201.744 115.584H207.137C207.759 115.584 208.382 115.064 208.382 114.337V113.401C208.382 112.778 207.863 112.154 207.137 112.154H201.744V115.584Z" fill="#B2BFCF"/>
<path d="M179.759 104.983H97.1021C95.2353 104.983 93.6797 103.424 93.6797 101.554V83.1598C93.6797 81.2893 95.2353 79.7305 97.1021 79.7305H179.655C181.522 79.7305 183.077 81.2893 183.077 83.1598V101.658C183.077 103.528 181.625 104.983 179.759 104.983Z" fill="#3D4D64"/>
<path d="M117.74 94.1786C116.703 94.1786 115.873 93.3473 115.873 92.3081C115.873 91.2689 116.703 90.4375 117.74 90.4375C118.777 90.4375 119.607 91.2689 119.607 92.3081C119.607 93.3473 118.777 94.1786 117.74 94.1786Z" fill="#DA4C8F"/>
<g opacity="0.5">
<path opacity="0.5" d="M108.718 90.4345C107.681 90.4345 106.852 89.6031 106.852 88.5639C106.852 87.5247 107.681 86.6934 108.718 86.6934C109.755 86.6934 110.585 87.5247 110.585 88.5639C110.481 89.6031 109.652 90.4345 108.718 90.4345Z" fill="#B2BFCF"/>
<path opacity="0.5" d="M108.718 97.9169C107.681 97.9169 106.852 97.0855 106.852 96.0463C106.852 95.0071 107.681 94.1758 108.718 94.1758C109.755 94.1758 110.585 95.0071 110.585 96.0463C110.481 97.0855 109.652 97.9169 108.718 97.9169Z" fill="#B2BFCF"/>
</g>
<g opacity="0.1">
<path d="M117.74 86.7997C116.703 86.7997 115.873 85.9683 115.873 84.9291C115.873 83.8899 116.703 83.0586 117.74 83.0586C118.777 83.0586 119.607 83.8899 119.607 84.9291C119.607 85.9683 118.777 86.7997 117.74 86.7997Z" fill="#B2BFCF"/>
<path d="M117.74 101.659C116.703 101.659 115.873 100.828 115.873 99.7885C115.873 98.7493 116.703 97.918 117.74 97.918C118.777 97.918 119.607 98.7493 119.607 99.7885C119.607 100.828 118.777 101.659 117.74 101.659Z" fill="#B2BFCF"/>
</g>
<g opacity="0.5">
<path opacity="0.5" d="M125.933 90.4345C124.896 90.4345 124.066 89.6031 124.066 88.5639C124.066 87.5247 124.896 86.6934 125.933 86.6934C126.97 86.6934 127.8 87.5247 127.8 88.5639C127.8 89.6031 126.97 90.4345 125.933 90.4345Z" fill="#B2BFCF"/>
<path opacity="0.5" d="M125.933 97.9169C124.896 97.9169 124.066 97.0855 124.066 96.0463C124.066 95.0071 124.896 94.1758 125.933 94.1758C126.97 94.1758 127.8 95.0071 127.8 96.0463C127.8 97.0855 126.97 97.9169 125.933 97.9169Z" fill="#B2BFCF"/>
</g>
<g opacity="0.1">
<path d="M135.058 86.7997C134.021 86.7997 133.191 85.9683 133.191 84.9291C133.191 83.8899 134.021 83.0586 135.058 83.0586C136.095 83.0586 136.925 83.8899 136.925 84.9291C136.821 85.9683 135.992 86.7997 135.058 86.7997Z" fill="#B2BFCF"/>
<path d="M135.058 94.1786C134.021 94.1786 133.191 93.3473 133.191 92.3081C133.191 91.2689 134.021 90.4375 135.058 90.4375C136.095 90.4375 136.925 91.2689 136.925 92.3081C136.821 93.3473 135.992 94.1786 135.058 94.1786Z" fill="#B2BFCF"/>
<path d="M135.058 101.659C134.021 101.659 133.191 100.828 133.191 99.7885C133.191 98.7493 134.021 97.918 135.058 97.918C136.095 97.918 136.925 98.7493 136.925 99.7885C136.821 100.828 135.992 101.659 135.058 101.659Z" fill="#B2BFCF"/>
</g>
<g opacity="0.5">
<path opacity="0.5" d="M143.252 90.4345C142.214 90.4345 141.385 89.6031 141.385 88.5639C141.385 87.5247 142.214 86.6934 143.252 86.6934C144.289 86.6934 145.118 87.5247 145.118 88.5639C145.118 89.6031 144.289 90.4345 143.252 90.4345Z" fill="#B2BFCF"/>
<path opacity="0.5" d="M143.252 97.9169C142.214 97.9169 141.385 97.0855 141.385 96.0463C141.385 95.0071 142.214 94.1758 143.252 94.1758C144.289 94.1758 145.118 95.0071 145.118 96.0463C145.118 97.0855 144.289 97.9169 143.252 97.9169Z" fill="#B2BFCF"/>
</g>
<g opacity="0.1">
<path d="M152.275 86.7997C151.238 86.7997 150.408 85.9683 150.408 84.9291C150.408 83.8899 151.238 83.0586 152.275 83.0586C153.312 83.0586 154.142 83.8899 154.142 84.9291C154.142 85.9683 153.312 86.7997 152.275 86.7997Z" fill="#B2BFCF"/>
<path d="M152.275 94.1786C151.238 94.1786 150.408 93.3473 150.408 92.3081C150.408 91.2689 151.238 90.4375 152.275 90.4375C153.312 90.4375 154.142 91.2689 154.142 92.3081C154.142 93.3473 153.312 94.1786 152.275 94.1786Z" fill="#B2BFCF"/>
<path d="M152.275 101.659C151.238 101.659 150.408 100.828 150.408 99.7885C150.408 98.7493 151.238 97.918 152.275 97.918C153.312 97.918 154.142 98.7493 154.142 99.7885C154.142 100.828 153.312 101.659 152.275 101.659Z" fill="#B2BFCF"/>
</g>
<g opacity="0.5">
<path opacity="0.5" d="M160.468 90.4345C159.431 90.4345 158.602 89.6031 158.602 88.5639C158.602 87.5247 159.431 86.6934 160.468 86.6934C161.505 86.6934 162.335 87.5247 162.335 88.5639C162.335 89.6031 161.505 90.4345 160.468 90.4345Z" fill="#B2BFCF"/>
<path opacity="0.5" d="M160.468 97.9169C159.431 97.9169 158.602 97.0855 158.602 96.0463C158.602 95.0071 159.431 94.1758 160.468 94.1758C161.505 94.1758 162.335 95.0071 162.335 96.0463C162.335 97.0855 161.505 97.9169 160.468 97.9169Z" fill="#B2BFCF"/>
</g>
<g opacity="0.1">
<path d="M169.801 86.7993C168.66 86.7993 167.727 85.864 167.727 84.7209C167.727 83.7856 168.453 83.1621 169.282 83.1621H169.801C170.734 83.1621 171.356 83.8895 171.356 84.7209V85.2405C171.356 86.0718 170.734 86.7993 169.801 86.7993Z" fill="#B2BFCF"/>
<path d="M169.801 94.1782C168.66 94.1782 167.727 93.2429 167.727 92.0998C167.727 91.1645 168.453 90.541 169.282 90.541H169.801C170.734 90.541 171.356 91.2685 171.356 92.0998V92.6194C171.356 93.4508 170.734 94.1782 169.801 94.1782Z" fill="#B2BFCF"/>
<path d="M169.593 101.659C168.556 101.659 167.727 100.828 167.727 99.7885C167.727 98.7493 168.556 97.918 169.593 97.918C170.63 97.918 171.46 98.7493 171.46 99.7885C171.356 100.828 170.63 101.659 169.593 101.659Z" fill="#B2BFCF"/>
</g>
<g opacity="0.5">
<path opacity="0.5" d="M177.789 90.4345C176.752 90.4345 175.922 89.6031 175.922 88.5639C175.922 87.5247 176.752 86.6934 177.789 86.6934C178.826 86.6934 179.655 87.5247 179.655 88.5639C179.655 89.6031 178.826 90.4345 177.789 90.4345Z" fill="#B2BFCF"/>
<path opacity="0.5" d="M177.789 97.9169C176.752 97.9169 175.922 97.0855 175.922 96.0463C175.922 95.0071 176.752 94.1758 177.789 94.1758C178.826 94.1758 179.655 95.0071 179.655 96.0463C179.655 97.0855 178.826 97.9169 177.789 97.9169Z" fill="#B2BFCF"/>
</g>
<path d="M93.7832 76.8223H182.766" stroke="#B2BFCF" stroke-width="2" stroke-miterlimit="10"/>
<path fill-rule="evenodd" clip-rule="evenodd" d="M137.353 2.93528C137.353 3.24703 137.664 3.55879 137.975 3.55879C138.286 3.55879 138.597 3.24703 138.597 2.93528V2.62352C138.597 2.31176 138.286 2 137.975 2C137.664 2 137.353 2.31176 137.353 2.62352V2.93528ZM117.751 35.9825C117.44 35.9825 117.129 35.6708 117.129 35.359V35.2551V34.7355C117.129 34.4237 117.44 34.112 117.855 34.112C118.166 34.112 118.477 34.4237 118.477 34.8394V35.2551V35.359C118.373 35.6708 118.166 35.9825 117.751 35.9825ZM118.373 32.9689C118.27 32.9689 118.166 32.9689 118.166 32.8649C117.855 32.761 117.647 32.3453 117.855 32.0336L118.166 31.4101C118.373 31.0983 118.685 30.9944 118.996 31.2022C119.307 31.4101 119.411 31.7218 119.203 32.0336C119.175 32.0893 119.148 32.1375 119.122 32.1823C119.051 32.3046 118.996 32.401 118.996 32.5532C118.892 32.8649 118.581 32.9689 118.373 32.9689ZM120.136 30.4748C119.985 30.4748 119.888 30.4191 119.766 30.3485C119.722 30.3226 119.674 30.2948 119.618 30.2669C119.411 29.9552 119.411 29.6434 119.618 29.3317C119.722 29.2797 119.799 29.2018 119.877 29.1238C119.955 29.0459 120.033 28.968 120.136 28.916C120.448 28.7082 120.862 28.7082 121.07 29.0199C121.277 29.3317 121.277 29.7473 120.966 29.9552C120.914 30.0071 120.837 30.0591 120.759 30.1111L120.759 30.1111C120.681 30.163 120.603 30.215 120.551 30.2669C120.448 30.4748 120.344 30.4748 120.136 30.4748ZM122.833 28.916C122.522 28.916 122.314 28.7082 122.211 28.5003C122.107 28.1886 122.314 27.7729 122.626 27.669C122.729 27.617 122.833 27.591 122.937 27.565L122.937 27.565L122.937 27.565C123.04 27.5391 123.144 27.5131 123.248 27.4611C123.559 27.3572 123.974 27.565 123.974 27.9807C124.077 28.2925 123.87 28.7082 123.455 28.7082C123.334 28.7082 123.212 28.7438 123.112 28.7733L123.112 28.7734C123.04 28.7942 122.98 28.8121 122.937 28.8121C122.937 28.8641 122.937 28.89 122.924 28.903C122.911 28.916 122.885 28.916 122.833 28.916ZM129.574 28.6042H128.952C128.641 28.6042 128.33 28.2925 128.33 27.9807C128.33 27.669 128.641 27.3572 128.952 27.3572H129.574C129.885 27.3572 130.196 27.669 130.196 27.9807C130.196 28.2925 129.989 28.6042 129.574 28.6042ZM126.463 28.6042H125.841C125.529 28.6042 125.218 28.2925 125.218 27.9807C125.218 27.669 125.529 27.3572 125.841 27.3572H126.463C126.774 27.3572 127.085 27.669 127.085 27.9807C127.085 28.2925 126.878 28.6042 126.463 28.6042ZM132.063 28.5003C131.752 28.5003 131.545 28.2925 131.441 27.9807C131.337 27.669 131.648 27.2533 131.959 27.2533C132.081 27.2533 132.202 27.2176 132.303 27.1881L132.303 27.1881C132.374 27.1672 132.435 27.1494 132.478 27.1494C132.789 27.0454 133.204 27.2533 133.308 27.565C133.411 27.8768 133.204 28.2925 132.893 28.3964C132.685 28.5003 132.478 28.5003 132.27 28.5003H132.063ZM134.863 27.3572C134.656 27.3572 134.448 27.2533 134.345 27.0454C134.137 26.7337 134.241 26.318 134.448 26.1102C134.5 26.0582 134.578 26.0062 134.656 25.9543C134.734 25.9023 134.811 25.8504 134.863 25.7984C135.174 25.5906 135.485 25.5906 135.797 25.9023C136.004 26.2141 136.004 26.5258 135.693 26.8376C135.589 26.8896 135.511 26.9675 135.434 27.0454C135.356 27.1234 135.278 27.2013 135.174 27.2533C135.174 27.2533 134.967 27.3572 134.863 27.3572ZM136.937 25.071C136.834 25.071 136.73 25.071 136.626 24.967C136.315 24.7592 136.211 24.4475 136.419 24.1357C136.471 24.0318 136.523 23.9538 136.574 23.8759L136.574 23.8759C136.626 23.7979 136.678 23.72 136.73 23.6161C136.834 23.3043 137.249 23.2004 137.56 23.3043C137.871 23.4083 137.975 23.8239 137.871 24.1357L137.56 24.7592C137.352 24.967 137.145 25.071 136.937 25.071ZM137.871 22.1612C137.456 22.1612 137.249 21.8495 137.249 21.4338V20.9142C137.249 20.6024 137.56 20.2907 137.871 20.2907C138.182 20.2907 138.493 20.6024 138.493 20.9142V21.5377C138.493 21.9534 138.182 22.1612 137.871 22.1612ZM137.975 19.0436C137.663 19.0436 137.352 18.7319 137.352 18.4201V17.7966C137.352 17.4848 137.663 17.1731 137.975 17.1731C138.286 17.1731 138.597 17.4848 138.597 17.7966V18.4201C138.597 18.7319 138.286 19.0436 137.975 19.0436ZM137.975 15.926C137.663 15.926 137.352 15.6143 137.352 15.3025V14.679C137.352 14.3672 137.663 14.0555 137.975 14.0555C138.286 14.0555 138.597 14.3672 138.597 14.679V15.3025C138.597 15.7182 138.286 15.926 137.975 15.926ZM137.975 12.9124C137.663 12.9124 137.352 12.6006 137.352 12.2889V11.6653C137.352 11.3536 137.663 11.0418 137.975 11.0418C138.286 11.0418 138.597 11.3536 138.597 11.6653V12.2889C138.597 12.6006 138.286 12.9124 137.975 12.9124ZM137.975 9.79478C137.663 9.79478 137.352 9.48302 137.352 9.17126V8.54775C137.352 8.23599 137.663 7.92423 137.975 7.92423C138.286 7.92423 138.597 8.23599 138.597 8.54775V9.17126C138.597 9.48302 138.286 9.79478 137.975 9.79478ZM137.975 6.67719C137.663 6.67719 137.352 6.36543 137.352 6.05368V5.43016C137.352 5.1184 137.663 4.80664 137.975 4.80664C138.286 4.80664 138.597 5.1184 138.597 5.43016V6.05368C138.597 6.36543 138.286 6.67719 137.975 6.67719ZM117.751 38.7873C117.44 38.7873 117.129 38.4756 117.129 38.1638V37.852C117.129 37.5403 117.44 37.2285 117.751 37.2285C118.062 37.2285 118.373 37.5403 118.373 37.852V38.1638C118.373 38.4756 118.166 38.7873 117.751 38.7873Z" fill="url(#paint5_linear_4949_137152)"/>
<path fill-rule="evenodd" clip-rule="evenodd" d="M80 2.93528C80 3.24703 80.3111 3.55879 80.6223 3.55879C80.9334 3.55879 81.2445 3.24703 81.2445 2.93528V2.62352C81.2445 2.31176 80.9334 2 80.6223 2C80.3111 2 80 2.31176 80 2.62352V2.93528ZM100.742 35.9825C100.431 35.9825 100.12 35.6708 100.12 35.359V35.2551V34.8394C100.12 34.5277 100.327 34.2159 100.742 34.112C101.053 34.112 101.364 34.3198 101.468 34.7355V35.2551V35.359C101.468 35.6708 101.157 35.9825 100.742 35.9825ZM100.223 32.9689C100.016 32.9689 99.7048 32.8649 99.6011 32.5532C99.5733 32.4975 99.5455 32.4493 99.5198 32.4046L99.5197 32.4045C99.4492 32.2822 99.3937 32.1857 99.3937 32.0336C99.1863 31.7218 99.3937 31.3061 99.6011 31.2022C99.9122 30.9944 100.327 31.2022 100.431 31.4101L100.742 32.0336C100.846 32.3453 100.742 32.761 100.431 32.8649L100.431 32.865C100.327 32.9689 100.327 32.9689 100.223 32.9689ZM98.3566 30.4748C98.2529 30.4748 98.0454 30.3709 97.9417 30.2669C97.8899 30.215 97.8121 30.163 97.7344 30.1111L97.7343 30.1111L97.7343 30.1111C97.6565 30.0591 97.5787 30.0071 97.5269 29.9552C97.2158 29.7473 97.2158 29.3317 97.4232 29.0199C97.6306 28.7082 98.0454 28.7082 98.3566 28.916C98.4603 28.968 98.5381 29.0459 98.6159 29.1238L98.6159 29.1238C98.6936 29.2018 98.7714 29.2797 98.8751 29.3317C99.1863 29.5395 99.1863 29.9552 98.8751 30.2669C98.7714 30.3709 98.564 30.4748 98.3566 30.4748ZM95.7638 28.916H95.5564C95.349 28.8121 95.2453 28.8121 95.0379 28.8121C94.7267 28.7082 94.5193 28.3964 94.5193 28.0846C94.623 27.7729 94.9342 27.565 95.2453 27.565C95.4527 27.565 95.6601 27.669 95.8675 27.7729C96.1787 27.8768 96.3861 28.1886 96.2824 28.6042C96.2824 28.8121 95.9713 28.916 95.7638 28.916ZM92.6526 28.6042H92.0303C91.7192 28.6042 91.408 28.2925 91.408 27.9807C91.408 27.669 91.7192 27.3572 92.0303 27.3572H92.6526C92.9637 27.3572 93.2748 27.669 93.2748 27.9807C93.2748 28.2925 93.0674 28.6042 92.6526 28.6042ZM89.645 28.6042H89.0227C88.7116 28.6042 88.4005 28.2925 88.4005 27.9807C88.4005 27.669 88.7116 27.3572 89.0227 27.3572H89.645C89.9561 27.3572 90.2672 27.669 90.2672 27.9807C90.2672 28.2925 89.9561 28.6042 89.645 28.6042ZM86.5337 28.5003H86.43C86.3263 28.5003 86.2226 28.4743 86.1189 28.4484C86.0152 28.4224 85.9114 28.3964 85.8077 28.3964C85.4966 28.2925 85.2892 27.9807 85.3929 27.565C85.4966 27.2533 85.8077 27.0454 86.2226 27.1494C86.3441 27.1494 86.4656 27.185 86.5662 27.2146L86.5662 27.2146C86.6374 27.2355 86.6982 27.2533 86.7411 27.2533C87.0522 27.3572 87.3634 27.669 87.2597 27.9807C87.0522 28.2925 86.8448 28.5003 86.5337 28.5003ZM83.7335 27.3572C83.6298 27.3572 83.5261 27.3572 83.3187 27.2533C83.215 27.2013 83.1372 27.1234 83.0594 27.0454C82.9816 26.9675 82.9039 26.8896 82.8002 26.8376C82.489 26.6298 82.489 26.2141 82.6964 25.9023C82.9039 25.5906 83.3187 25.5906 83.6298 25.7984C83.6817 25.8504 83.7595 25.9023 83.8372 25.9543C83.915 26.0062 83.9928 26.0582 84.0447 26.1102C84.3558 26.318 84.3558 26.7337 84.1484 27.0454C84.0447 27.2533 83.941 27.3572 83.7335 27.3572ZM81.6594 25.071C81.4519 25.071 81.2445 24.967 81.1408 24.7592L80.8297 24.1357C80.726 23.8239 80.8297 23.4083 81.1408 23.3043C81.4519 23.2004 81.8668 23.3043 81.9705 23.6161C82.0223 23.72 82.0742 23.798 82.126 23.8759C82.1779 23.9538 82.2298 24.0318 82.2816 24.1357C82.489 24.4475 82.3853 24.8631 82.0742 24.967C81.8668 25.071 81.7631 25.071 81.6594 25.071ZM80.6223 22.1612C80.3111 22.1612 80 21.9534 80 21.5377V20.9142C80 20.6024 80.3111 20.2907 80.6223 20.2907C81.0371 20.2907 81.2445 20.6024 81.2445 20.9142V21.4338C81.3482 21.7455 81.0371 22.0573 80.6223 22.1612ZM80.6223 19.0436C80.3111 19.0436 80 18.7319 80 18.4201V17.7966C80 17.4848 80.3111 17.1731 80.6223 17.1731C80.9334 17.1731 81.2445 17.4848 81.2445 17.7966V18.4201C81.2445 18.7319 80.9334 19.0436 80.6223 19.0436ZM80.6223 15.926C80.3111 15.926 80 15.6143 80 15.3025V14.679C80 14.3672 80.3111 14.0555 80.6223 14.0555C80.9334 14.0555 81.2445 14.3672 81.2445 14.679V15.3025C81.2445 15.7182 80.9334 15.926 80.6223 15.926ZM80.6223 12.9124C80.3111 12.9124 80 12.6006 80 12.2889V11.6653C80 11.3536 80.3111 11.0418 80.6223 11.0418C80.9334 11.0418 81.2445 11.3536 81.2445 11.6653V12.2889C81.2445 12.6006 80.9334 12.9124 80.6223 12.9124ZM80.6223 9.79478C80.3111 9.79478 80 9.48302 80 9.17126V8.54775C80 8.23599 80.3111 7.92423 80.6223 7.92423C80.9334 7.92423 81.2445 8.23599 81.2445 8.54775V9.17126C81.2445 9.48302 80.9334 9.79478 80.6223 9.79478ZM80.6223 6.67719C80.3111 6.67719 80 6.36543 80 6.05368V5.43016C80 5.1184 80.3111 4.80664 80.6223 4.80664C80.9334 4.80664 81.2445 5.1184 81.2445 5.43016V6.05368C81.2445 6.36543 80.9334 6.67719 80.6223 6.67719ZM100.741 38.7873C100.43 38.7873 100.119 38.4756 100.119 38.1638V37.852C100.119 37.5403 100.43 37.2285 100.741 37.2285C101.053 37.2285 101.364 37.5403 101.364 37.852V38.1638C101.467 38.4756 101.156 38.7873 100.741 38.7873Z" fill="url(#paint6_linear_4949_137152)"/>
<path d="M109.247 38.7875C108.936 38.7875 108.625 38.4758 108.625 38.164V37.5405C108.625 37.2287 108.936 36.917 109.247 36.917C109.558 36.917 109.87 37.2287 109.87 37.5405V38.164C109.87 38.4758 109.662 38.7875 109.247 38.7875ZM109.247 35.566C108.936 35.566 108.625 35.2543 108.625 34.9425V34.319C108.625 34.0072 108.936 33.6955 109.247 33.6955C109.558 33.6955 109.87 34.0072 109.87 34.319V34.9425C109.87 35.3582 109.662 35.566 109.247 35.566ZM109.247 32.4485C108.936 32.4485 108.625 32.1367 108.625 31.8249V31.2014C108.625 30.8897 108.936 30.5779 109.247 30.5779C109.558 30.5779 109.87 30.8897 109.87 31.2014V31.8249C109.87 32.1367 109.662 32.4485 109.247 32.4485ZM109.247 29.2269C108.936 29.2269 108.625 28.9152 108.625 28.6034V27.9799C108.625 27.6681 108.936 27.3564 109.247 27.3564C109.558 27.3564 109.87 27.6681 109.87 27.9799V28.6034C109.87 28.9152 109.662 29.2269 109.247 29.2269ZM109.247 26.1094C108.936 26.1094 108.625 25.7976 108.625 25.4858V24.8623C108.625 24.5506 108.936 24.2388 109.247 24.2388C109.558 24.2388 109.87 24.5506 109.87 24.8623V25.4858C109.87 25.7976 109.662 26.1094 109.247 26.1094ZM109.247 22.8878C108.936 22.8878 108.625 22.5761 108.625 22.2643V21.6408C108.625 21.3291 108.936 21.0173 109.247 21.0173C109.558 21.0173 109.87 21.3291 109.87 21.6408V22.2643C109.87 22.5761 109.662 22.8878 109.247 22.8878ZM109.247 19.6663C108.936 19.6663 108.625 19.3546 108.625 19.0428V18.4193C108.625 18.1075 108.936 17.7958 109.247 17.7958C109.558 17.7958 109.87 18.1075 109.87 18.4193V19.0428C109.87 19.4585 109.662 19.6663 109.247 19.6663ZM109.247 16.5487C108.936 16.5487 108.625 16.237 108.625 15.9252V15.3017C108.625 14.99 108.936 14.6782 109.247 14.6782C109.558 14.6782 109.87 14.99 109.87 15.3017V15.9252C109.87 16.237 109.662 16.5487 109.247 16.5487ZM109.247 13.3272C108.936 13.3272 108.625 13.0155 108.625 12.7037V12.0802C108.625 11.7684 108.936 11.4567 109.247 11.4567C109.558 11.4567 109.87 11.7684 109.87 12.0802V12.7037C109.87 13.0155 109.662 13.3272 109.247 13.3272ZM109.247 10.2097C108.936 10.2097 108.625 9.89789 108.625 9.58613V8.96262C108.625 8.65086 108.936 8.3391 109.247 8.3391C109.558 8.3391 109.87 8.65086 109.87 8.96262V9.58613C109.87 9.89789 109.662 10.2097 109.247 10.2097ZM109.247 6.98814C108.936 6.98814 108.625 6.67638 108.625 6.36462V5.74111C108.625 5.42935 108.936 5.11759 109.247 5.11759C109.558 5.11759 109.87 5.42935 109.87 5.74111V6.36462C109.87 6.67638 109.662 6.98814 109.247 6.98814ZM109.247 3.76663C108.936 3.76663 108.625 3.45488 108.625 3.14312V2.62352C108.625 2.31176 108.936 2 109.247 2C109.558 2 109.87 2.31176 109.87 2.62352V3.14312C109.87 3.55879 109.662 3.76663 109.247 3.76663Z" fill="url(#paint7_linear_4949_137152)"/>
<g opacity="0.1">
<path d="M100.523 86.5907C99.4859 86.5907 98.6562 85.7594 98.6562 84.7202C98.6562 83.681 99.4859 82.8496 100.523 82.8496C101.56 82.8496 102.39 83.681 102.39 84.7202C102.39 85.7594 101.56 86.5907 100.523 86.5907Z" fill="#B2BFCF"/>
<path d="M100.523 94.0732C99.4859 94.0732 98.6562 93.2418 98.6562 92.2026C98.6562 91.1634 99.4859 90.332 100.523 90.332C101.56 90.332 102.39 91.1634 102.39 92.2026C102.39 93.2418 101.56 94.0732 100.523 94.0732Z" fill="#B2BFCF"/>
<path d="M100.523 101.317C99.4859 101.317 98.6562 100.486 98.6562 99.4467C98.6562 98.4075 99.4859 97.5762 100.523 97.5762C101.56 97.5762 102.39 98.4075 102.39 99.4467C102.39 100.382 101.56 101.317 100.523 101.317Z" fill="#B2BFCF"/>
</g>
<path d="M153 92C153 92 137.048 93.5 135 101" stroke="#00C781" stroke-miterlimit="10"/>
<path d="M135 85C135 85 140.784 97.3958 153 100" stroke="#F4BD40" stroke-miterlimit="10"/>
<path d="M104.002 77.4814L61.5527 77.5703L61.6267 113.017L104.076 112.928L104.002 77.4814Z" fill="white"/>
<path d="M103.165 78.4008L103.252 112.097L62.5491 112.184L62.4617 78.4884L103.165 78.4008ZM104.911 76.6504L60.7148 76.7379L60.8022 113.935L104.999 113.847L104.911 76.6504Z" fill="#C9D2DE"/>
<path d="M66.5664 108.772L75.3883 97.7441L84.1228 108.772H66.5664Z" fill="#479E88"/>
<path d="M74.3398 108.774L86.7429 94.0703L99.1459 108.687L74.3398 108.774Z" fill="#55BC8A"/>
<path d="M71.9807 92.8424C73.862 92.8424 75.3871 91.3141 75.3871 89.429C75.3871 87.5438 73.862 86.0156 71.9807 86.0156C70.0994 86.0156 68.5742 87.5438 68.5742 89.429C68.5742 91.3141 70.0994 92.8424 71.9807 92.8424Z" stroke="#F4BD40" stroke-width="2" stroke-miterlimit="10"/>
<path d="M79.0596 76.917H66.3945V60.8129C66.3945 57.3121 69.2769 54.4238 72.7707 54.4238C76.2645 54.4238 79.1469 57.3121 79.1469 60.8129V76.917H79.0596Z" fill="#479E88"/>
<path d="M66.3935 54.5117H31.6301C28.1363 54.5117 25.2539 57.3999 25.2539 60.9008V115.69H60.1046C63.5984 115.69 66.3935 112.889 66.3935 109.388V68.2527V60.9008C66.3935 57.3999 69.2759 54.5117 72.7697 54.5117H66.3935Z" fill="#55BC8A"/>
<path d="M53.6415 109.213V106.412H10.9297V109.213C10.9297 112.714 13.8121 115.602 17.3059 115.602C17.3932 115.602 17.3932 115.602 17.4806 115.602H60.0177C56.5239 115.602 53.6415 112.714 53.6415 109.213Z" fill="#479E88"/>
<path d="M59.0566 64.4883H30.582V74.7041H59.0566V64.4883Z" fill="white" fill-opacity="0.5"/>
<path d="M30.582 81.8164H59.0566" stroke="white" stroke-opacity="0.48" stroke-miterlimit="10"/>
<path d="M30.582 90.5703H59.0566" stroke="white" stroke-opacity="0.48" stroke-miterlimit="10"/>
<path d="M30.582 99.5859H59.0566" stroke="white" stroke-opacity="0.48" stroke-miterlimit="10"/>
<path d="M30.582 85.8418H38.1811" stroke="white" stroke-opacity="0.48" stroke-miterlimit="10"/>
<path d="M30.582 94.9453H33.5518" stroke="white" stroke-opacity="0.48" stroke-miterlimit="10"/>
<path d="M36.6094 94.9453H59.0571" stroke="white" stroke-opacity="0.48" stroke-miterlimit="10"/>
<path d="M41.2383 85.8418H59.0567" stroke="#A7DCC2" stroke-miterlimit="10"/>
<path d="M285.002 111.424H267.002V115.424H285.002V111.424Z" fill="url(#paint8_linear_4949_137152)"/>
<path d="M265.002 111.424H247.002V115.424H265.002V111.424Z" fill="url(#paint9_linear_4949_137152)"/>
<path d="M281.364 43.4238C295.488 43.4238 306.787 54.7457 306.787 68.898C306.787 86.2345 290.368 89.9495 290.368 98.6178H272.36C272.36 89.7726 255.941 86.2345 255.941 68.898C255.941 54.7457 267.24 43.4238 281.364 43.4238Z" fill="#F4BD40"/>
<path d="M280.656 75.4441H288.248C289.837 75.4441 291.072 74.2058 291.072 72.6137C291.072 71.0215 289.837 69.7832 288.248 69.7832C285.776 69.7832 283.658 71.906 283.658 74.3827V98.7954" stroke="white" stroke-miterlimit="10"/>
<path d="M282.069 75.4441H274.301C272.712 75.4441 271.477 74.2058 271.477 72.6137C271.477 71.0215 272.712 69.7832 274.301 69.7832C276.773 69.7832 278.891 71.906 278.891 74.3827V98.7954" stroke="white" stroke-miterlimit="10"/>
<path d="M271.302 98.6172H280.835H281.718H291.252V103.217C291.252 104.986 290.545 106.578 289.31 107.639L285.779 111.177H281.365H280.482H276.069L272.538 107.639C271.302 106.401 270.596 104.809 270.596 103.217L271.302 98.6172Z" fill="#E7EBEF"/>
<path d="M280.658 111.176H282.071H286.131V112.591H276.598V111.176H280.658Z" fill="#D5DEE8"/>
<path d="M280.657 112.594H282.069H286.13V114.009C286.13 114.717 285.6 115.424 284.718 115.424H282.069H280.657H277.832C277.126 115.424 276.42 114.894 276.42 114.009V112.594H280.657Z" fill="#C9D2DE"/>
<path d="M291.427 100.74H271.301" stroke="#D5D5D5" stroke-miterlimit="10"/>
<path d="M291.427 101.979H271.301" stroke="#D5D5D5" stroke-miterlimit="10"/>
<path d="M257.331 113.895L259.933 110.876C261.576 108.955 261.302 105.936 259.248 104.427L259.111 104.289C252.812 99.3494 246.375 94.5466 239.939 89.7438L235.146 86.176L230.216 82.6082C228.572 81.3732 226.929 80.2754 225.286 79.1776L222.821 77.3937C222.41 77.1193 221.999 76.8448 221.588 76.5704C221.177 76.2959 220.766 76.0215 220.219 75.8843C219.26 75.4726 218.301 75.0609 217.343 74.6493C216.384 74.3748 215.289 73.9631 214.33 73.6887C212.276 73.0026 210.496 72.042 208.989 70.807C207.346 69.572 205.976 68.1998 204.607 66.5531C203.922 65.7298 203.374 64.9064 202.827 63.9459C202.69 63.6714 202.553 63.5342 202.416 63.2598C200.772 65.867 198.855 68.337 196.664 70.5326C196.938 70.6698 197.212 70.6698 197.486 70.807C198.581 71.0815 199.54 71.4931 200.362 71.9048C202.279 72.7281 203.922 73.8259 205.566 75.0609C207.209 76.2959 208.578 77.8054 209.674 79.4521C210.222 80.2754 210.906 81.236 211.454 82.0593C212.002 82.8826 212.687 83.706 213.371 84.5293C213.645 84.941 214.056 85.2154 214.467 85.6271C214.878 85.9015 215.152 86.3132 215.563 86.5877L217.891 88.5088C219.397 89.7438 221.04 91.116 222.547 92.351L227.203 96.1933L231.859 99.8983C238.159 104.838 244.458 109.778 250.894 114.581C253.086 115.953 255.688 115.679 257.331 113.895Z" fill="#005DE0"/>
<path d="M167.357 10.2917C175.711 10.2917 183.517 13.5851 189.406 19.3484C195.294 25.249 198.444 33.0707 198.444 41.4413C198.444 49.8119 195.157 57.6336 189.406 63.5342C183.517 69.4348 175.711 72.5909 167.357 72.5909C159.004 72.5909 151.198 69.2975 145.309 63.5342C139.421 57.6336 136.271 49.8119 136.271 41.4413C136.271 33.0707 139.558 25.249 145.309 19.3484C151.198 13.5851 159.004 10.2917 167.357 10.2917ZM167.357 0C144.488 0 126 18.5251 126 41.4413C126 64.3575 144.488 82.8826 167.357 82.8826C190.227 82.8826 208.715 64.3575 208.715 41.4413C208.715 18.5251 190.227 0 167.357 0Z" fill="#2580FF"/>
<path d="M210.634 84.9417C209.949 84.3928 209.812 83.295 210.497 82.4717L218.303 73.2778C218.851 72.5917 219.946 72.4544 220.768 73.1405C221.453 73.6894 221.59 74.7872 220.905 75.6106L213.099 84.8045C212.551 85.4906 211.456 85.4906 210.634 84.9417Z" stroke="#2580FF" stroke-miterlimit="10"/>
<path opacity="0.1" d="M167.356 10.2949C175.71 10.2949 183.516 13.5883 189.404 19.3516C195.293 25.2522 198.443 33.0739 198.443 41.4445C198.443 49.8151 195.156 57.6368 189.404 63.5374C183.516 69.438 175.71 72.5941 167.356 72.5941C159.002 72.5941 151.197 69.3007 145.308 63.5374C139.419 57.6368 136.27 49.8151 136.27 41.4445C136.27 33.0739 139.556 25.2522 145.308 19.3516C151.197 13.5883 159.002 10.2949 167.356 10.2949Z" fill="url(#paint10_linear_4949_137152)"/>
<path opacity="0.4" d="M167.357 11.9414C175.163 11.9414 182.558 14.9603 188.173 20.5864C193.788 26.2126 196.801 33.6226 196.801 41.4443C196.801 49.266 193.788 56.6761 188.173 62.3022C182.558 67.9283 175.163 70.9472 167.357 70.9472C159.551 70.9472 152.156 67.9283 146.542 62.3022C140.927 56.6761 137.914 49.266 137.914 41.4443C137.914 33.6226 140.927 26.2126 146.542 20.5864C152.019 15.0975 159.414 11.9414 167.357 11.9414Z" stroke="url(#paint11_linear_4949_137152)" stroke-width="2" stroke-miterlimit="10"/>
<path d="M258.29 103.605L250.484 113.623" stroke="#CEE3FF" stroke-miterlimit="10"/>
<defs>
<linearGradient id="paint0_linear_4949_137152" x1="231" y1="23" x2="231" y2="115" gradientUnits="userSpaceOnUse">
<stop stop-color="#E0EAF3"/>
<stop offset="1" stop-color="#E0EAF3" stop-opacity="0"/>
</linearGradient>
<linearGradient id="paint1_linear_4949_137152" x1="286.5" y1="6" x2="286.5" y2="28" gradientUnits="userSpaceOnUse">
<stop stop-color="#E0EAF3"/>
<stop offset="1" stop-color="#E0EAF3" stop-opacity="0"/>
</linearGradient>
<linearGradient id="paint2_linear_4949_137152" x1="27.5" y1="28.4238" x2="27.5" y2="78.4238" gradientUnits="userSpaceOnUse">
<stop stop-color="#E0EAF3"/>
<stop offset="1" stop-color="#E0EAF3" stop-opacity="0"/>
</linearGradient>
<linearGradient id="paint3_linear_4949_137152" x1="83.002" y1="117.924" x2="83.002" y2="110.924" gradientUnits="userSpaceOnUse">
<stop stop-color="white" stop-opacity="0"/>
<stop offset="0.9193" stop-color="#B2BFCF"/>
</linearGradient>
<linearGradient id="paint4_linear_4949_137152" x1="0.0124134" y1="113.431" x2="17.0148" y2="113.431" gradientUnits="userSpaceOnUse">
<stop stop-color="white" stop-opacity="0"/>
<stop offset="0.9193" stop-color="#B2BFCF"/>
</linearGradient>
<linearGradient id="paint5_linear_4949_137152" x1="120.291" y1="40.3021" x2="120.291" y2="6.28851" gradientUnits="userSpaceOnUse">
<stop stop-color="#00AB47"/>
<stop offset="1" stop-color="#00AB47" stop-opacity="0"/>
</linearGradient>
<linearGradient id="paint6_linear_4949_137152" x1="89.5551" y1="47.6785" x2="89.5551" y2="0.141483" gradientUnits="userSpaceOnUse">
<stop offset="0.125757" stop-color="#F4BD40"/>
<stop offset="1" stop-color="#F4BD40" stop-opacity="0"/>
</linearGradient>
<linearGradient id="paint7_linear_4949_137152" x1="109.247" y1="45.6295" x2="109.247" y2="4.23951" gradientUnits="userSpaceOnUse">
<stop offset="0.0125935" stop-color="#00AB47"/>
<stop offset="1" stop-color="#00AB47" stop-opacity="0"/>
</linearGradient>
<linearGradient id="paint8_linear_4949_137152" x1="267.015" y1="113.431" x2="285.018" y2="113.431" gradientUnits="userSpaceOnUse">
<stop stop-color="white" stop-opacity="0"/>
<stop offset="0.9193" stop-color="#B2BFCF"/>
</linearGradient>
<linearGradient id="paint9_linear_4949_137152" x1="247.015" y1="113.431" x2="265.018" y2="113.431" gradientUnits="userSpaceOnUse">
<stop stop-color="white" stop-opacity="0"/>
<stop offset="0.9193" stop-color="#B2BFCF"/>
</linearGradient>
<linearGradient id="paint10_linear_4949_137152" x1="197.061" y1="20.6764" x2="156.629" y2="48.8916" gradientUnits="userSpaceOnUse">
<stop offset="0.28125" stop-color="white"/>
<stop offset="1" stop-color="#4299E1" stop-opacity="0"/>
</linearGradient>
<linearGradient id="paint11_linear_4949_137152" x1="136.511" y1="41.51" x2="198.145" y2="41.51" gradientUnits="userSpaceOnUse">
<stop stop-color="white"/>
<stop offset="0.9193" stop-color="#00CAFA"/>
</linearGradient>
</defs>
</svg>
