<svg width="56" height="56" viewBox="0 0 56 56" fill="none" xmlns="http://www.w3.org/2000/svg">
<g opacity="0.1">
<path d="M32.4099 12.619C33.2754 14.6096 33.9881 17.0596 34.4689 19.8335H21.5311C22.0119 17.0596 22.7247 14.6096 23.5902 12.619C24.414 10.7243 25.3159 9.38427 26.1619 8.56125C26.9937 7.75213 27.6105 7.5835 28 7.5835C28.3895 7.5835 29.0064 7.75213 29.8381 8.56125C30.6841 9.38427 31.5861 10.7243 32.4099 12.619Z" fill="#B6C2CD"/>
<path d="M22.404 47.6404C16.5098 45.9642 11.7025 41.7063 9.2822 36.1668H18.4261C19.1895 40.8991 20.5972 44.9115 22.404 47.6404Z" fill="#B6C2CD"/>
<path d="M28.7005 48.2552C26.1606 44.8664 26.4315 40.0383 29.5133 36.9565L30.3029 36.1668H21.5311C22.0119 38.9408 22.7247 41.3907 23.5902 43.3813C24.414 45.2761 25.3159 46.6161 26.1619 47.4391C26.9937 48.2482 27.6105 48.4168 28 48.4168C28.1835 48.4168 28.4174 48.3794 28.7005 48.2552Z" fill="#B6C2CD"/>
<path d="M18.4261 19.8335C19.1895 15.1013 20.5972 11.0888 22.404 8.35991C16.5098 10.0361 11.7025 14.294 9.2822 19.8335H18.4261Z" fill="#B6C2CD"/>
<path d="M37.5739 19.8335C36.8105 15.1013 35.4029 11.0888 33.596 8.35991C39.4902 10.0361 44.2975 14.294 46.7178 19.8335H37.5739Z" fill="#B6C2CD"/>
<path d="M18.0336 22.896C17.8752 24.5393 17.7917 26.2473 17.7917 28.0002C17.7917 29.753 17.8752 31.4611 18.0336 33.1043H8.22656C7.80667 31.4729 7.58334 29.7626 7.58334 28.0002C7.58334 26.2377 7.80667 24.5274 8.22656 22.896H18.0336Z" fill="#324558"/>
<path d="M35.0306 31.4392L33.3655 33.1043H21.1111C20.9441 31.4776 20.8542 29.7689 20.8542 28.0002C20.8542 26.2314 20.9441 24.5227 21.1111 22.896H34.8889C35.0559 24.5227 35.1458 26.2314 35.1458 28.0002C35.1458 29.1752 35.1062 30.3237 35.0306 31.4392Z" fill="#324558"/>
<path d="M38.9988 27.471C41.5049 24.9649 45.166 24.3176 48.2687 25.5292C48.1605 24.6323 47.9941 23.7532 47.7735 22.896H37.9664C38.1248 24.5393 38.2083 26.2473 38.2083 28.0002C38.2083 28.0876 38.2081 28.1749 38.2077 28.2621L38.9988 27.471Z" fill="#324558"/>
<path d="M46.9034 35.3756L43.7413 38.5376L45.9069 40.7032L49.0689 37.5411C51.2517 35.3583 51.2517 31.8193 49.0689 29.6365C46.8861 27.4537 43.3471 27.4537 41.1643 29.6365L38.0023 32.7986L40.1678 34.9641L43.3298 31.802C44.3166 30.8152 45.9166 30.8152 46.9034 31.802C47.8902 32.7888 47.8902 34.3888 46.9034 35.3756Z" fill="#324558"/>
<path d="M31.6788 39.122L34.8404 35.9604L37.0059 38.1259L33.8443 41.2875C32.8575 42.2744 32.8575 43.8743 33.8443 44.8611C34.8311 45.8479 36.4311 45.8479 37.4179 44.8611L40.5795 41.6995L42.745 43.865L39.5834 47.0266C37.4006 49.2094 33.8616 49.2094 31.6788 47.0266C29.496 44.8438 29.496 41.3048 31.6788 39.122Z" fill="#324558"/>
<path d="M37.6073 38.7274L40.7691 35.5655L43.1405 37.9369L39.9787 41.0988L37.6073 38.7274Z" fill="#324558"/>
</g>
</svg>
