<svg width="12" height="12" viewBox="0 0 12 12" fill="none" xmlns="http://www.w3.org/2000/svg">
<path d="M6.00003 4.12515C5.62919 4.12515 5.26668 4.23512 4.95834 4.44115C4.65 4.64717 4.40967 4.94001 4.26776 5.28262C4.12584 5.62523 4.08871 6.00223 4.16106 6.36595C4.23341 6.72966 4.41198 7.06375 4.67421 7.32598C4.93643 7.5882 5.27052 7.76678 5.63424 7.83912C5.99795 7.91147 6.37495 7.87434 6.71756 7.73242C7.06017 7.59051 7.35301 7.35019 7.55904 7.04184C7.76506 6.7335 7.87503 6.37099 7.87503 6.00015C7.87355 5.50333 7.67553 5.02727 7.32422 4.67597C6.97291 4.32466 6.49686 4.12664 6.00003 4.12515ZM10.0482 6.00015C10.0472 6.17535 10.0343 6.35028 10.0097 6.52374L11.1509 7.41718C11.2006 7.45822 11.2341 7.5156 11.2454 7.57906C11.2567 7.64252 11.245 7.70792 11.2125 7.76359L10.133 9.62734C10.1002 9.68251 10.049 9.72434 9.98834 9.74548C9.92773 9.76661 9.8616 9.76569 9.80159 9.74288L8.4598 9.20382C8.18039 9.41897 7.87463 9.59753 7.54995 9.73515L7.34933 11.1597C7.3381 11.2235 7.30506 11.2814 7.25586 11.3236C7.20665 11.3657 7.14434 11.3895 7.07956 11.3908H4.9205C4.8569 11.3895 4.7956 11.3668 4.74661 11.3262C4.69761 11.2856 4.66382 11.2297 4.65073 11.1674L4.45011 9.74288C4.12453 9.60686 3.81855 9.42802 3.54027 9.21109L2.19847 9.75015C2.13849 9.77298 2.07238 9.77393 2.01177 9.75284C1.95115 9.73175 1.89992 9.68997 1.86706 9.63484L0.787533 7.77132C0.755039 7.71566 0.743398 7.65025 0.75469 7.58679C0.765982 7.52333 0.799472 7.46596 0.849174 7.42492L1.99035 6.53148C1.966 6.35539 1.95317 6.17791 1.95191 6.00015C1.95288 5.82495 1.96572 5.65002 1.99035 5.47656L0.849174 4.58312C0.799472 4.54208 0.765982 4.4847 0.75469 4.42125C0.743398 4.35779 0.755039 4.29238 0.787533 4.23671L1.86706 2.37296C1.89988 2.31779 1.9511 2.27596 2.01172 2.25482C2.07234 2.23369 2.13846 2.23461 2.19847 2.25742L3.54027 2.79648C3.81967 2.58133 4.12543 2.40277 4.45011 2.26515L4.65073 0.840621C4.66196 0.776813 4.695 0.718883 4.74421 0.676733C4.79341 0.634583 4.85572 0.610828 4.9205 0.609528H7.07956C7.14316 0.610765 7.20446 0.633526 7.25345 0.674092C7.30245 0.714659 7.33625 0.770637 7.34933 0.832887L7.54995 2.25742C7.87594 2.39335 8.18232 2.57219 8.46097 2.78921L9.80159 2.25015C9.86157 2.22732 9.92768 2.22637 9.98829 2.24746C10.0489 2.26855 10.1001 2.31033 10.133 2.36546L11.2125 4.22921C11.245 4.28488 11.2567 4.35029 11.2454 4.41375C11.2341 4.4772 11.2006 4.53458 11.1509 4.57562L10.0097 5.46906C10.034 5.64507 10.0469 5.82247 10.0482 6.00015Z" fill="#718096"/>
</svg>
