<svg width="16" height="16" viewBox="0 0 16 16" fill="none" xmlns="http://www.w3.org/2000/svg">
<path d="M14 6.66666H12V14.6667H14V6.66666Z" fill="#B6C2CD"/>
<path d="M7.33333 8.66666H5.33333V14.6667H7.33333V8.66666Z" fill="#B6C2CD"/>
<path d="M4 10.6667H2V14.6667H4V10.6667Z" fill="#B6C2CD"/>
<path d="M8.66667 9.99999H10.6667V14.6667H8.66667V9.99999Z" fill="#B6C2CD"/>
<path d="M10.6667 1.33334H14V4.66668L12.8048 3.47142L9.4713 6.80477C9.21094 7.06511 8.78884 7.0651 8.52849 6.80476L6.83323 5.10949L2.94269 9.00001L1.99988 8.0572L6.36182 3.69527C6.62217 3.43492 7.04428 3.43492 7.30463 3.69527L8.99989 5.39054L11.862 2.52861L10.6667 1.33334Z" fill="#324558"/>
</svg>
